  0
SECTION
  2
HEADER
  9
$ANGBASE
  50
0.0
  9
$ANGDIR
  70
1
  9
$MEASUREMENT
  70
1
  0
ENDSEC
  0
SECTION
  2
TABLES
  0
TABLE
  2
LTYPE
  70
4
  0
LTYPE
  5
40F
  2
CONTINUOUS
  70
0
  3
Solid line
  72
65
  73
0
  40
0.0
  0
LTYPE
  5
410
  2
DASHDOT
 70
0
  3
Dash Dot ____ _ ____ _
 72
65
 73
4
 40
2.0
 49
1.25
 49
-0.25
 49
0.25
 49
-0.25
  0
LTYPE
  5
411
  2
DASHED
 70
0
  3
Dashed __ __ __ __ __
 72
65
 73
2
 40
0.75
 49
0.5
 49
-0.25
  0
LTYPE
  5
43B
  2
DOTTED
 70
0
  3
Dotted .  .  .  .
 72
65
 73
2
 40
0.2
 49
0.0
 49
-0.2
  0
ENDTAB
  0
TABLE
  2
STYLE
  70
4
  0
STYLE
  2
KICAD
  70
0
  40
0
  41
1
  42
1
  50
0
  71
0
  3
isocp.shx
  0
STYLE
  2
KICADB
  70
0
  40
0
  41
1
  42
1
  50
0
  71
0
  3
isocp.shx
  0
STYLE
  2
KICADI
  70
0
  40
0
  41
1
  42
1
  50
15
  71
0
  3
isocp.shx
  0
STYLE
  2
KICADBI
  70
0
  40
0
  41
1
  42
1
  50
15
  71
0
  3
isocp.shx
  0
ENDTAB
  0
TABLE
  2
LAYER
  70
1
  0
LAYER
  2
BLACK
  70
0
  62
7
  6
CONTINUOUS
  0
ENDTAB
  0
ENDSEC
  0
SECTION
  2
ENTITIES
0
LINE
8
BLACK
6
CONTINUOUS
10
118.296
20
-103.206
11
118.475
21
-103.26
0
LINE
8
BLACK
6
CONTINUOUS
10
118.475
20
-103.26
11
118.639
21
-103.348
0
LINE
8
BLACK
6
CONTINUOUS
10
118.639
20
-103.348
11
118.784
21
-103.466
0
LINE
8
BLACK
6
CONTINUOUS
10
118.784
20
-103.466
11
118.902
21
-103.611
0
LINE
8
BLACK
6
CONTINUOUS
10
118.902
20
-103.611
11
118.99
21
-103.775
0
LINE
8
BLACK
6
CONTINUOUS
10
118.99
20
-103.775
11
119.044
21
-103.954
0
LINE
8
BLACK
6
CONTINUOUS
10
119.044
20
-103.954
11
119.062
21
-104.14
0
LINE
8
BLACK
6
CONTINUOUS
10
119.062
20
-104.14
11
119.044
21
-104.326
0
LINE
8
BLACK
6
CONTINUOUS
10
119.044
20
-104.326
11
118.99
21
-104.505
0
LINE
8
BLACK
6
CONTINUOUS
10
118.99
20
-104.505
11
118.902
21
-104.669
0
LINE
8
BLACK
6
CONTINUOUS
10
118.902
20
-104.669
11
118.784
21
-104.814
0
LINE
8
BLACK
6
CONTINUOUS
10
118.784
20
-104.814
11
118.639
21
-104.932
0
LINE
8
BLACK
6
CONTINUOUS
10
118.639
20
-104.932
11
118.475
21
-105.02
0
LINE
8
BLACK
6
CONTINUOUS
10
118.475
20
-105.02
11
118.296
21
-105.074
0
LINE
8
BLACK
6
CONTINUOUS
10
118.296
20
-105.074
11
118.11
21
-105.093
0
LINE
8
BLACK
6
CONTINUOUS
10
118.11
20
-105.093
11
117.924
21
-105.074
0
LINE
8
BLACK
6
CONTINUOUS
10
117.924
20
-105.074
11
117.745
21
-105.02
0
LINE
8
BLACK
6
CONTINUOUS
10
117.745
20
-105.02
11
117.581
21
-104.932
0
LINE
8
BLACK
6
CONTINUOUS
10
117.581
20
-104.932
11
117.436
21
-104.814
0
LINE
8
BLACK
6
CONTINUOUS
10
117.436
20
-104.814
11
117.318
21
-104.669
0
LINE
8
BLACK
6
CONTINUOUS
10
117.318
20
-104.669
11
117.23
21
-104.505
0
LINE
8
BLACK
6
CONTINUOUS
10
117.23
20
-104.505
11
117.176
21
-104.326
0
LINE
8
BLACK
6
CONTINUOUS
10
117.176
20
-104.326
11
117.157
21
-104.14
0
LINE
8
BLACK
6
CONTINUOUS
10
117.157
20
-104.14
11
117.176
21
-103.954
0
LINE
8
BLACK
6
CONTINUOUS
10
117.176
20
-103.954
11
117.23
21
-103.775
0
LINE
8
BLACK
6
CONTINUOUS
10
117.23
20
-103.775
11
117.318
21
-103.611
0
LINE
8
BLACK
6
CONTINUOUS
10
117.318
20
-103.611
11
117.436
21
-103.466
0
LINE
8
BLACK
6
CONTINUOUS
10
117.436
20
-103.466
11
117.581
21
-103.348
0
LINE
8
BLACK
6
CONTINUOUS
10
117.581
20
-103.348
11
117.745
21
-103.26
0
LINE
8
BLACK
6
CONTINUOUS
10
117.745
20
-103.26
11
117.924
21
-103.206
0
LINE
8
BLACK
6
CONTINUOUS
10
117.924
20
-103.206
11
118.11
21
-103.188
0
LINE
8
BLACK
6
CONTINUOUS
10
118.11
20
-103.188
11
118.296
21
-103.206
0
LINE
8
BLACK
6
CONTINUOUS
10
120.836
20
-103.206
11
121.015
21
-103.26
0
LINE
8
BLACK
6
CONTINUOUS
10
121.015
20
-103.26
11
121.179
21
-103.348
0
LINE
8
BLACK
6
CONTINUOUS
10
121.179
20
-103.348
11
121.324
21
-103.466
0
LINE
8
BLACK
6
CONTINUOUS
10
121.324
20
-103.466
11
121.442
21
-103.611
0
LINE
8
BLACK
6
CONTINUOUS
10
121.442
20
-103.611
11
121.53
21
-103.775
0
LINE
8
BLACK
6
CONTINUOUS
10
121.53
20
-103.775
11
121.584
21
-103.954
0
LINE
8
BLACK
6
CONTINUOUS
10
121.584
20
-103.954
11
121.602
21
-104.14
0
LINE
8
BLACK
6
CONTINUOUS
10
121.602
20
-104.14
11
121.584
21
-104.326
0
LINE
8
BLACK
6
CONTINUOUS
10
121.584
20
-104.326
11
121.53
21
-104.505
0
LINE
8
BLACK
6
CONTINUOUS
10
121.53
20
-104.505
11
121.442
21
-104.669
0
LINE
8
BLACK
6
CONTINUOUS
10
121.442
20
-104.669
11
121.324
21
-104.814
0
LINE
8
BLACK
6
CONTINUOUS
10
121.324
20
-104.814
11
121.179
21
-104.932
0
LINE
8
BLACK
6
CONTINUOUS
10
121.179
20
-104.932
11
121.015
21
-105.02
0
LINE
8
BLACK
6
CONTINUOUS
10
121.015
20
-105.02
11
120.836
21
-105.074
0
LINE
8
BLACK
6
CONTINUOUS
10
120.836
20
-105.074
11
120.65
21
-105.093
0
LINE
8
BLACK
6
CONTINUOUS
10
120.65
20
-105.093
11
120.464
21
-105.074
0
LINE
8
BLACK
6
CONTINUOUS
10
120.464
20
-105.074
11
120.285
21
-105.02
0
LINE
8
BLACK
6
CONTINUOUS
10
120.285
20
-105.02
11
120.121
21
-104.932
0
LINE
8
BLACK
6
CONTINUOUS
10
120.121
20
-104.932
11
119.976
21
-104.814
0
LINE
8
BLACK
6
CONTINUOUS
10
119.976
20
-104.814
11
119.858
21
-104.669
0
LINE
8
BLACK
6
CONTINUOUS
10
119.858
20
-104.669
11
119.77
21
-104.505
0
LINE
8
BLACK
6
CONTINUOUS
10
119.77
20
-104.505
11
119.716
21
-104.326
0
LINE
8
BLACK
6
CONTINUOUS
10
119.716
20
-104.326
11
119.697
21
-104.14
0
LINE
8
BLACK
6
CONTINUOUS
10
119.697
20
-104.14
11
119.716
21
-103.954
0
LINE
8
BLACK
6
CONTINUOUS
10
119.716
20
-103.954
11
119.77
21
-103.775
0
LINE
8
BLACK
6
CONTINUOUS
10
119.77
20
-103.775
11
119.858
21
-103.611
0
LINE
8
BLACK
6
CONTINUOUS
10
119.858
20
-103.611
11
119.976
21
-103.466
0
LINE
8
BLACK
6
CONTINUOUS
10
119.976
20
-103.466
11
120.121
21
-103.348
0
LINE
8
BLACK
6
CONTINUOUS
10
120.121
20
-103.348
11
120.285
21
-103.26
0
LINE
8
BLACK
6
CONTINUOUS
10
120.285
20
-103.26
11
120.464
21
-103.206
0
LINE
8
BLACK
6
CONTINUOUS
10
120.464
20
-103.206
11
120.65
21
-103.188
0
LINE
8
BLACK
6
CONTINUOUS
10
120.65
20
-103.188
11
120.836
21
-103.206
0
LINE
8
BLACK
6
CONTINUOUS
10
123.376
20
-103.206
11
123.555
21
-103.26
0
LINE
8
BLACK
6
CONTINUOUS
10
123.555
20
-103.26
11
123.719
21
-103.348
0
LINE
8
BLACK
6
CONTINUOUS
10
123.719
20
-103.348
11
123.864
21
-103.466
0
LINE
8
BLACK
6
CONTINUOUS
10
123.864
20
-103.466
11
123.982
21
-103.611
0
LINE
8
BLACK
6
CONTINUOUS
10
123.982
20
-103.611
11
124.07
21
-103.775
0
LINE
8
BLACK
6
CONTINUOUS
10
124.07
20
-103.775
11
124.124
21
-103.954
0
LINE
8
BLACK
6
CONTINUOUS
10
124.124
20
-103.954
11
124.142
21
-104.14
0
LINE
8
BLACK
6
CONTINUOUS
10
124.142
20
-104.14
11
124.124
21
-104.326
0
LINE
8
BLACK
6
CONTINUOUS
10
124.124
20
-104.326
11
124.07
21
-104.505
0
LINE
8
BLACK
6
CONTINUOUS
10
124.07
20
-104.505
11
123.982
21
-104.669
0
LINE
8
BLACK
6
CONTINUOUS
10
123.982
20
-104.669
11
123.864
21
-104.814
0
LINE
8
BLACK
6
CONTINUOUS
10
123.864
20
-104.814
11
123.719
21
-104.932
0
LINE
8
BLACK
6
CONTINUOUS
10
123.719
20
-104.932
11
123.555
21
-105.02
0
LINE
8
BLACK
6
CONTINUOUS
10
123.555
20
-105.02
11
123.376
21
-105.074
0
LINE
8
BLACK
6
CONTINUOUS
10
123.376
20
-105.074
11
123.19
21
-105.093
0
LINE
8
BLACK
6
CONTINUOUS
10
123.19
20
-105.093
11
123.004
21
-105.074
0
LINE
8
BLACK
6
CONTINUOUS
10
123.004
20
-105.074
11
122.825
21
-105.02
0
LINE
8
BLACK
6
CONTINUOUS
10
122.825
20
-105.02
11
122.661
21
-104.932
0
LINE
8
BLACK
6
CONTINUOUS
10
122.661
20
-104.932
11
122.516
21
-104.814
0
LINE
8
BLACK
6
CONTINUOUS
10
122.516
20
-104.814
11
122.398
21
-104.669
0
LINE
8
BLACK
6
CONTINUOUS
10
122.398
20
-104.669
11
122.31
21
-104.505
0
LINE
8
BLACK
6
CONTINUOUS
10
122.31
20
-104.505
11
122.256
21
-104.326
0
LINE
8
BLACK
6
CONTINUOUS
10
122.256
20
-104.326
11
122.237
21
-104.14
0
LINE
8
BLACK
6
CONTINUOUS
10
122.237
20
-104.14
11
122.256
21
-103.954
0
LINE
8
BLACK
6
CONTINUOUS
10
122.256
20
-103.954
11
122.31
21
-103.775
0
LINE
8
BLACK
6
CONTINUOUS
10
122.31
20
-103.775
11
122.398
21
-103.611
0
LINE
8
BLACK
6
CONTINUOUS
10
122.398
20
-103.611
11
122.516
21
-103.466
0
LINE
8
BLACK
6
CONTINUOUS
10
122.516
20
-103.466
11
122.661
21
-103.348
0
LINE
8
BLACK
6
CONTINUOUS
10
122.661
20
-103.348
11
122.825
21
-103.26
0
LINE
8
BLACK
6
CONTINUOUS
10
122.825
20
-103.26
11
123.004
21
-103.206
0
LINE
8
BLACK
6
CONTINUOUS
10
123.004
20
-103.206
11
123.19
21
-103.188
0
LINE
8
BLACK
6
CONTINUOUS
10
123.19
20
-103.188
11
123.376
21
-103.206
0
LINE
8
BLACK
6
CONTINUOUS
10
125.916
20
-103.206
11
126.095
21
-103.26
0
LINE
8
BLACK
6
CONTINUOUS
10
126.095
20
-103.26
11
126.259
21
-103.348
0
LINE
8
BLACK
6
CONTINUOUS
10
126.259
20
-103.348
11
126.404
21
-103.466
0
LINE
8
BLACK
6
CONTINUOUS
10
126.404
20
-103.466
11
126.522
21
-103.611
0
LINE
8
BLACK
6
CONTINUOUS
10
126.522
20
-103.611
11
126.61
21
-103.775
0
LINE
8
BLACK
6
CONTINUOUS
10
126.61
20
-103.775
11
126.664
21
-103.954
0
LINE
8
BLACK
6
CONTINUOUS
10
126.664
20
-103.954
11
126.682
21
-104.14
0
LINE
8
BLACK
6
CONTINUOUS
10
126.682
20
-104.14
11
126.664
21
-104.326
0
LINE
8
BLACK
6
CONTINUOUS
10
126.664
20
-104.326
11
126.61
21
-104.505
0
LINE
8
BLACK
6
CONTINUOUS
10
126.61
20
-104.505
11
126.522
21
-104.669
0
LINE
8
BLACK
6
CONTINUOUS
10
126.522
20
-104.669
11
126.404
21
-104.814
0
LINE
8
BLACK
6
CONTINUOUS
10
126.404
20
-104.814
11
126.259
21
-104.932
0
LINE
8
BLACK
6
CONTINUOUS
10
126.259
20
-104.932
11
126.095
21
-105.02
0
LINE
8
BLACK
6
CONTINUOUS
10
126.095
20
-105.02
11
125.916
21
-105.074
0
LINE
8
BLACK
6
CONTINUOUS
10
125.916
20
-105.074
11
125.73
21
-105.093
0
LINE
8
BLACK
6
CONTINUOUS
10
125.73
20
-105.093
11
125.544
21
-105.074
0
LINE
8
BLACK
6
CONTINUOUS
10
125.544
20
-105.074
11
125.365
21
-105.02
0
LINE
8
BLACK
6
CONTINUOUS
10
125.365
20
-105.02
11
125.201
21
-104.932
0
LINE
8
BLACK
6
CONTINUOUS
10
125.201
20
-104.932
11
125.056
21
-104.814
0
LINE
8
BLACK
6
CONTINUOUS
10
125.056
20
-104.814
11
124.938
21
-104.669
0
LINE
8
BLACK
6
CONTINUOUS
10
124.938
20
-104.669
11
124.85
21
-104.505
0
LINE
8
BLACK
6
CONTINUOUS
10
124.85
20
-104.505
11
124.796
21
-104.326
0
LINE
8
BLACK
6
CONTINUOUS
10
124.796
20
-104.326
11
124.777
21
-104.14
0
LINE
8
BLACK
6
CONTINUOUS
10
124.777
20
-104.14
11
124.796
21
-103.954
0
LINE
8
BLACK
6
CONTINUOUS
10
124.796
20
-103.954
11
124.85
21
-103.775
0
LINE
8
BLACK
6
CONTINUOUS
10
124.85
20
-103.775
11
124.938
21
-103.611
0
LINE
8
BLACK
6
CONTINUOUS
10
124.938
20
-103.611
11
125.056
21
-103.466
0
LINE
8
BLACK
6
CONTINUOUS
10
125.056
20
-103.466
11
125.201
21
-103.348
0
LINE
8
BLACK
6
CONTINUOUS
10
125.201
20
-103.348
11
125.365
21
-103.26
0
LINE
8
BLACK
6
CONTINUOUS
10
125.365
20
-103.26
11
125.544
21
-103.206
0
LINE
8
BLACK
6
CONTINUOUS
10
125.544
20
-103.206
11
125.73
21
-103.188
0
LINE
8
BLACK
6
CONTINUOUS
10
125.73
20
-103.188
11
125.916
21
-103.206
0
LINE
8
BLACK
6
CONTINUOUS
10
128.456
20
-103.206
11
128.635
21
-103.26
0
LINE
8
BLACK
6
CONTINUOUS
10
128.635
20
-103.26
11
128.799
21
-103.348
0
LINE
8
BLACK
6
CONTINUOUS
10
128.799
20
-103.348
11
128.944
21
-103.466
0
LINE
8
BLACK
6
CONTINUOUS
10
128.944
20
-103.466
11
129.062
21
-103.611
0
LINE
8
BLACK
6
CONTINUOUS
10
129.062
20
-103.611
11
129.15
21
-103.775
0
LINE
8
BLACK
6
CONTINUOUS
10
129.15
20
-103.775
11
129.204
21
-103.954
0
LINE
8
BLACK
6
CONTINUOUS
10
129.204
20
-103.954
11
129.222
21
-104.14
0
LINE
8
BLACK
6
CONTINUOUS
10
129.222
20
-104.14
11
129.204
21
-104.326
0
LINE
8
BLACK
6
CONTINUOUS
10
129.204
20
-104.326
11
129.15
21
-104.505
0
LINE
8
BLACK
6
CONTINUOUS
10
129.15
20
-104.505
11
129.062
21
-104.669
0
LINE
8
BLACK
6
CONTINUOUS
10
129.062
20
-104.669
11
128.944
21
-104.814
0
LINE
8
BLACK
6
CONTINUOUS
10
128.944
20
-104.814
11
128.799
21
-104.932
0
LINE
8
BLACK
6
CONTINUOUS
10
128.799
20
-104.932
11
128.635
21
-105.02
0
LINE
8
BLACK
6
CONTINUOUS
10
128.635
20
-105.02
11
128.456
21
-105.074
0
LINE
8
BLACK
6
CONTINUOUS
10
128.456
20
-105.074
11
128.27
21
-105.093
0
LINE
8
BLACK
6
CONTINUOUS
10
128.27
20
-105.093
11
128.084
21
-105.074
0
LINE
8
BLACK
6
CONTINUOUS
10
128.084
20
-105.074
11
127.905
21
-105.02
0
LINE
8
BLACK
6
CONTINUOUS
10
127.905
20
-105.02
11
127.741
21
-104.932
0
LINE
8
BLACK
6
CONTINUOUS
10
127.741
20
-104.932
11
127.596
21
-104.814
0
LINE
8
BLACK
6
CONTINUOUS
10
127.596
20
-104.814
11
127.478
21
-104.669
0
LINE
8
BLACK
6
CONTINUOUS
10
127.478
20
-104.669
11
127.39
21
-104.505
0
LINE
8
BLACK
6
CONTINUOUS
10
127.39
20
-104.505
11
127.336
21
-104.326
0
LINE
8
BLACK
6
CONTINUOUS
10
127.336
20
-104.326
11
127.317
21
-104.14
0
LINE
8
BLACK
6
CONTINUOUS
10
127.317
20
-104.14
11
127.336
21
-103.954
0
LINE
8
BLACK
6
CONTINUOUS
10
127.336
20
-103.954
11
127.39
21
-103.775
0
LINE
8
BLACK
6
CONTINUOUS
10
127.39
20
-103.775
11
127.478
21
-103.611
0
LINE
8
BLACK
6
CONTINUOUS
10
127.478
20
-103.611
11
127.596
21
-103.466
0
LINE
8
BLACK
6
CONTINUOUS
10
127.596
20
-103.466
11
127.741
21
-103.348
0
LINE
8
BLACK
6
CONTINUOUS
10
127.741
20
-103.348
11
127.905
21
-103.26
0
LINE
8
BLACK
6
CONTINUOUS
10
127.905
20
-103.26
11
128.084
21
-103.206
0
LINE
8
BLACK
6
CONTINUOUS
10
128.084
20
-103.206
11
128.27
21
-103.188
0
LINE
8
BLACK
6
CONTINUOUS
10
128.27
20
-103.188
11
128.456
21
-103.206
0
LINE
8
BLACK
6
CONTINUOUS
10
130.996
20
-103.206
11
131.175
21
-103.26
0
LINE
8
BLACK
6
CONTINUOUS
10
131.175
20
-103.26
11
131.339
21
-103.348
0
LINE
8
BLACK
6
CONTINUOUS
10
131.339
20
-103.348
11
131.484
21
-103.466
0
LINE
8
BLACK
6
CONTINUOUS
10
131.484
20
-103.466
11
131.602
21
-103.611
0
LINE
8
BLACK
6
CONTINUOUS
10
131.602
20
-103.611
11
131.69
21
-103.775
0
LINE
8
BLACK
6
CONTINUOUS
10
131.69
20
-103.775
11
131.744
21
-103.954
0
LINE
8
BLACK
6
CONTINUOUS
10
131.744
20
-103.954
11
131.762
21
-104.14
0
LINE
8
BLACK
6
CONTINUOUS
10
131.762
20
-104.14
11
131.744
21
-104.326
0
LINE
8
BLACK
6
CONTINUOUS
10
131.744
20
-104.326
11
131.69
21
-104.505
0
LINE
8
BLACK
6
CONTINUOUS
10
131.69
20
-104.505
11
131.602
21
-104.669
0
LINE
8
BLACK
6
CONTINUOUS
10
131.602
20
-104.669
11
131.484
21
-104.814
0
LINE
8
BLACK
6
CONTINUOUS
10
131.484
20
-104.814
11
131.339
21
-104.932
0
LINE
8
BLACK
6
CONTINUOUS
10
131.339
20
-104.932
11
131.175
21
-105.02
0
LINE
8
BLACK
6
CONTINUOUS
10
131.175
20
-105.02
11
130.996
21
-105.074
0
LINE
8
BLACK
6
CONTINUOUS
10
130.996
20
-105.074
11
130.81
21
-105.093
0
LINE
8
BLACK
6
CONTINUOUS
10
130.81
20
-105.093
11
130.624
21
-105.074
0
LINE
8
BLACK
6
CONTINUOUS
10
130.624
20
-105.074
11
130.445
21
-105.02
0
LINE
8
BLACK
6
CONTINUOUS
10
130.445
20
-105.02
11
130.281
21
-104.932
0
LINE
8
BLACK
6
CONTINUOUS
10
130.281
20
-104.932
11
130.136
21
-104.814
0
LINE
8
BLACK
6
CONTINUOUS
10
130.136
20
-104.814
11
130.018
21
-104.669
0
LINE
8
BLACK
6
CONTINUOUS
10
130.018
20
-104.669
11
129.93
21
-104.505
0
LINE
8
BLACK
6
CONTINUOUS
10
129.93
20
-104.505
11
129.876
21
-104.326
0
LINE
8
BLACK
6
CONTINUOUS
10
129.876
20
-104.326
11
129.857
21
-104.14
0
LINE
8
BLACK
6
CONTINUOUS
10
129.857
20
-104.14
11
129.876
21
-103.954
0
LINE
8
BLACK
6
CONTINUOUS
10
129.876
20
-103.954
11
129.93
21
-103.775
0
LINE
8
BLACK
6
CONTINUOUS
10
129.93
20
-103.775
11
130.018
21
-103.611
0
LINE
8
BLACK
6
CONTINUOUS
10
130.018
20
-103.611
11
130.136
21
-103.466
0
LINE
8
BLACK
6
CONTINUOUS
10
130.136
20
-103.466
11
130.281
21
-103.348
0
LINE
8
BLACK
6
CONTINUOUS
10
130.281
20
-103.348
11
130.445
21
-103.26
0
LINE
8
BLACK
6
CONTINUOUS
10
130.445
20
-103.26
11
130.624
21
-103.206
0
LINE
8
BLACK
6
CONTINUOUS
10
130.624
20
-103.206
11
130.81
21
-103.188
0
LINE
8
BLACK
6
CONTINUOUS
10
130.81
20
-103.188
11
130.996
21
-103.206
0
LINE
8
BLACK
6
CONTINUOUS
10
133.536
20
-103.206
11
133.715
21
-103.26
0
LINE
8
BLACK
6
CONTINUOUS
10
133.715
20
-103.26
11
133.879
21
-103.348
0
LINE
8
BLACK
6
CONTINUOUS
10
133.879
20
-103.348
11
134.024
21
-103.466
0
LINE
8
BLACK
6
CONTINUOUS
10
134.024
20
-103.466
11
134.142
21
-103.611
0
LINE
8
BLACK
6
CONTINUOUS
10
134.142
20
-103.611
11
134.23
21
-103.775
0
LINE
8
BLACK
6
CONTINUOUS
10
134.23
20
-103.775
11
134.284
21
-103.954
0
LINE
8
BLACK
6
CONTINUOUS
10
134.284
20
-103.954
11
134.302
21
-104.14
0
LINE
8
BLACK
6
CONTINUOUS
10
134.302
20
-104.14
11
134.284
21
-104.326
0
LINE
8
BLACK
6
CONTINUOUS
10
134.284
20
-104.326
11
134.23
21
-104.505
0
LINE
8
BLACK
6
CONTINUOUS
10
134.23
20
-104.505
11
134.142
21
-104.669
0
LINE
8
BLACK
6
CONTINUOUS
10
134.142
20
-104.669
11
134.024
21
-104.814
0
LINE
8
BLACK
6
CONTINUOUS
10
134.024
20
-104.814
11
133.879
21
-104.932
0
LINE
8
BLACK
6
CONTINUOUS
10
133.879
20
-104.932
11
133.715
21
-105.02
0
LINE
8
BLACK
6
CONTINUOUS
10
133.715
20
-105.02
11
133.536
21
-105.074
0
LINE
8
BLACK
6
CONTINUOUS
10
133.536
20
-105.074
11
133.35
21
-105.093
0
LINE
8
BLACK
6
CONTINUOUS
10
133.35
20
-105.093
11
133.164
21
-105.074
0
LINE
8
BLACK
6
CONTINUOUS
10
133.164
20
-105.074
11
132.985
21
-105.02
0
LINE
8
BLACK
6
CONTINUOUS
10
132.985
20
-105.02
11
132.821
21
-104.932
0
LINE
8
BLACK
6
CONTINUOUS
10
132.821
20
-104.932
11
132.676
21
-104.814
0
LINE
8
BLACK
6
CONTINUOUS
10
132.676
20
-104.814
11
132.558
21
-104.669
0
LINE
8
BLACK
6
CONTINUOUS
10
132.558
20
-104.669
11
132.47
21
-104.505
0
LINE
8
BLACK
6
CONTINUOUS
10
132.47
20
-104.505
11
132.416
21
-104.326
0
LINE
8
BLACK
6
CONTINUOUS
10
132.416
20
-104.326
11
132.398
21
-104.14
0
LINE
8
BLACK
6
CONTINUOUS
10
132.398
20
-104.14
11
132.416
21
-103.954
0
LINE
8
BLACK
6
CONTINUOUS
10
132.416
20
-103.954
11
132.47
21
-103.775
0
LINE
8
BLACK
6
CONTINUOUS
10
132.47
20
-103.775
11
132.558
21
-103.611
0
LINE
8
BLACK
6
CONTINUOUS
10
132.558
20
-103.611
11
132.676
21
-103.466
0
LINE
8
BLACK
6
CONTINUOUS
10
132.676
20
-103.466
11
132.821
21
-103.348
0
LINE
8
BLACK
6
CONTINUOUS
10
132.821
20
-103.348
11
132.985
21
-103.26
0
LINE
8
BLACK
6
CONTINUOUS
10
132.985
20
-103.26
11
133.164
21
-103.206
0
LINE
8
BLACK
6
CONTINUOUS
10
133.164
20
-103.206
11
133.35
21
-103.188
0
LINE
8
BLACK
6
CONTINUOUS
10
133.35
20
-103.188
11
133.536
21
-103.206
0
LINE
8
BLACK
6
CONTINUOUS
10
136.076
20
-103.206
11
136.255
21
-103.26
0
LINE
8
BLACK
6
CONTINUOUS
10
136.255
20
-103.26
11
136.419
21
-103.348
0
LINE
8
BLACK
6
CONTINUOUS
10
136.419
20
-103.348
11
136.564
21
-103.466
0
LINE
8
BLACK
6
CONTINUOUS
10
136.564
20
-103.466
11
136.682
21
-103.611
0
LINE
8
BLACK
6
CONTINUOUS
10
136.682
20
-103.611
11
136.77
21
-103.775
0
LINE
8
BLACK
6
CONTINUOUS
10
136.77
20
-103.775
11
136.824
21
-103.954
0
LINE
8
BLACK
6
CONTINUOUS
10
136.824
20
-103.954
11
136.843
21
-104.14
0
LINE
8
BLACK
6
CONTINUOUS
10
136.843
20
-104.14
11
136.824
21
-104.326
0
LINE
8
BLACK
6
CONTINUOUS
10
136.824
20
-104.326
11
136.77
21
-104.505
0
LINE
8
BLACK
6
CONTINUOUS
10
136.77
20
-104.505
11
136.682
21
-104.669
0
LINE
8
BLACK
6
CONTINUOUS
10
136.682
20
-104.669
11
136.564
21
-104.814
0
LINE
8
BLACK
6
CONTINUOUS
10
136.564
20
-104.814
11
136.419
21
-104.932
0
LINE
8
BLACK
6
CONTINUOUS
10
136.419
20
-104.932
11
136.255
21
-105.02
0
LINE
8
BLACK
6
CONTINUOUS
10
136.255
20
-105.02
11
136.076
21
-105.074
0
LINE
8
BLACK
6
CONTINUOUS
10
136.076
20
-105.074
11
135.89
21
-105.093
0
LINE
8
BLACK
6
CONTINUOUS
10
135.89
20
-105.093
11
135.704
21
-105.074
0
LINE
8
BLACK
6
CONTINUOUS
10
135.704
20
-105.074
11
135.525
21
-105.02
0
LINE
8
BLACK
6
CONTINUOUS
10
135.525
20
-105.02
11
135.361
21
-104.932
0
LINE
8
BLACK
6
CONTINUOUS
10
135.361
20
-104.932
11
135.216
21
-104.814
0
LINE
8
BLACK
6
CONTINUOUS
10
135.216
20
-104.814
11
135.098
21
-104.669
0
LINE
8
BLACK
6
CONTINUOUS
10
135.098
20
-104.669
11
135.01
21
-104.505
0
LINE
8
BLACK
6
CONTINUOUS
10
135.01
20
-104.505
11
134.956
21
-104.326
0
LINE
8
BLACK
6
CONTINUOUS
10
134.956
20
-104.326
11
134.938
21
-104.14
0
LINE
8
BLACK
6
CONTINUOUS
10
134.938
20
-104.14
11
134.956
21
-103.954
0
LINE
8
BLACK
6
CONTINUOUS
10
134.956
20
-103.954
11
135.01
21
-103.775
0
LINE
8
BLACK
6
CONTINUOUS
10
135.01
20
-103.775
11
135.098
21
-103.611
0
LINE
8
BLACK
6
CONTINUOUS
10
135.098
20
-103.611
11
135.216
21
-103.466
0
LINE
8
BLACK
6
CONTINUOUS
10
135.216
20
-103.466
11
135.361
21
-103.348
0
LINE
8
BLACK
6
CONTINUOUS
10
135.361
20
-103.348
11
135.525
21
-103.26
0
LINE
8
BLACK
6
CONTINUOUS
10
135.525
20
-103.26
11
135.704
21
-103.206
0
LINE
8
BLACK
6
CONTINUOUS
10
135.704
20
-103.206
11
135.89
21
-103.188
0
LINE
8
BLACK
6
CONTINUOUS
10
135.89
20
-103.188
11
136.076
21
-103.206
0
LINE
8
BLACK
6
CONTINUOUS
10
139.895
20
-98.4392
11
140.083
21
-98.4961
0
LINE
8
BLACK
6
CONTINUOUS
10
140.083
20
-98.4961
11
140.256
21
-98.5885
0
LINE
8
BLACK
6
CONTINUOUS
10
140.256
20
-98.5885
11
140.407
21
-98.7129
0
LINE
8
BLACK
6
CONTINUOUS
10
140.407
20
-98.7129
11
140.531
21
-98.8644
0
LINE
8
BLACK
6
CONTINUOUS
10
140.531
20
-98.8644
11
140.624
21
-99.0373
0
LINE
8
BLACK
6
CONTINUOUS
10
140.624
20
-99.0373
11
140.681
21
-99.2249
0
LINE
8
BLACK
6
CONTINUOUS
10
140.681
20
-99.2249
11
140.7
21
-99.42
0
LINE
8
BLACK
6
CONTINUOUS
10
140.7
20
-99.42
11
140.681
21
-99.6151
0
LINE
8
BLACK
6
CONTINUOUS
10
140.681
20
-99.6151
11
140.624
21
-99.8027
0
LINE
8
BLACK
6
CONTINUOUS
10
140.624
20
-99.8027
11
140.531
21
-99.9756
0
LINE
8
BLACK
6
CONTINUOUS
10
140.531
20
-99.9756
11
140.407
21
-100.127
0
LINE
8
BLACK
6
CONTINUOUS
10
140.407
20
-100.127
11
140.256
21
-100.251
0
LINE
8
BLACK
6
CONTINUOUS
10
140.256
20
-100.251
11
140.083
21
-100.344
0
LINE
8
BLACK
6
CONTINUOUS
10
140.083
20
-100.344
11
139.895
21
-100.401
0
LINE
8
BLACK
6
CONTINUOUS
10
139.895
20
-100.401
11
139.7
21
-100.42
0
LINE
8
BLACK
6
CONTINUOUS
10
139.7
20
-100.42
11
139.505
21
-100.401
0
LINE
8
BLACK
6
CONTINUOUS
10
139.505
20
-100.401
11
139.317
21
-100.344
0
LINE
8
BLACK
6
CONTINUOUS
10
139.317
20
-100.344
11
139.144
21
-100.251
0
LINE
8
BLACK
6
CONTINUOUS
10
139.144
20
-100.251
11
138.993
21
-100.127
0
LINE
8
BLACK
6
CONTINUOUS
10
138.993
20
-100.127
11
138.869
21
-99.9756
0
LINE
8
BLACK
6
CONTINUOUS
10
138.869
20
-99.9756
11
138.776
21
-99.8027
0
LINE
8
BLACK
6
CONTINUOUS
10
138.776
20
-99.8027
11
138.719
21
-99.6151
0
LINE
8
BLACK
6
CONTINUOUS
10
138.719
20
-99.6151
11
138.7
21
-99.42
0
LINE
8
BLACK
6
CONTINUOUS
10
138.7
20
-99.42
11
138.719
21
-99.2249
0
LINE
8
BLACK
6
CONTINUOUS
10
138.719
20
-99.2249
11
138.776
21
-99.0373
0
LINE
8
BLACK
6
CONTINUOUS
10
138.776
20
-99.0373
11
138.869
21
-98.8644
0
LINE
8
BLACK
6
CONTINUOUS
10
138.869
20
-98.8644
11
138.993
21
-98.7129
0
LINE
8
BLACK
6
CONTINUOUS
10
138.993
20
-98.7129
11
139.144
21
-98.5885
0
LINE
8
BLACK
6
CONTINUOUS
10
139.144
20
-98.5885
11
139.317
21
-98.4961
0
LINE
8
BLACK
6
CONTINUOUS
10
139.317
20
-98.4961
11
139.505
21
-98.4392
0
LINE
8
BLACK
6
CONTINUOUS
10
139.505
20
-98.4392
11
139.7
21
-98.42
0
LINE
8
BLACK
6
CONTINUOUS
10
139.7
20
-98.42
11
139.895
21
-98.4392
0
LINE
8
BLACK
6
CONTINUOUS
10
165.295
20
-98.4392
11
165.483
21
-98.4961
0
LINE
8
BLACK
6
CONTINUOUS
10
165.483
20
-98.4961
11
165.656
21
-98.5885
0
LINE
8
BLACK
6
CONTINUOUS
10
165.656
20
-98.5885
11
165.807
21
-98.7129
0
LINE
8
BLACK
6
CONTINUOUS
10
165.807
20
-98.7129
11
165.931
21
-98.8644
0
LINE
8
BLACK
6
CONTINUOUS
10
165.931
20
-98.8644
11
166.024
21
-99.0373
0
LINE
8
BLACK
6
CONTINUOUS
10
166.024
20
-99.0373
11
166.081
21
-99.2249
0
LINE
8
BLACK
6
CONTINUOUS
10
166.081
20
-99.2249
11
166.1
21
-99.42
0
LINE
8
BLACK
6
CONTINUOUS
10
166.1
20
-99.42
11
166.081
21
-99.6151
0
LINE
8
BLACK
6
CONTINUOUS
10
166.081
20
-99.6151
11
166.024
21
-99.8027
0
LINE
8
BLACK
6
CONTINUOUS
10
166.024
20
-99.8027
11
165.931
21
-99.9756
0
LINE
8
BLACK
6
CONTINUOUS
10
165.931
20
-99.9756
11
165.807
21
-100.127
0
LINE
8
BLACK
6
CONTINUOUS
10
165.807
20
-100.127
11
165.656
21
-100.251
0
LINE
8
BLACK
6
CONTINUOUS
10
165.656
20
-100.251
11
165.483
21
-100.344
0
LINE
8
BLACK
6
CONTINUOUS
10
165.483
20
-100.344
11
165.295
21
-100.401
0
LINE
8
BLACK
6
CONTINUOUS
10
165.295
20
-100.401
11
165.1
21
-100.42
0
LINE
8
BLACK
6
CONTINUOUS
10
165.1
20
-100.42
11
164.905
21
-100.401
0
LINE
8
BLACK
6
CONTINUOUS
10
164.905
20
-100.401
11
164.717
21
-100.344
0
LINE
8
BLACK
6
CONTINUOUS
10
164.717
20
-100.344
11
164.544
21
-100.251
0
LINE
8
BLACK
6
CONTINUOUS
10
164.544
20
-100.251
11
164.393
21
-100.127
0
LINE
8
BLACK
6
CONTINUOUS
10
164.393
20
-100.127
11
164.269
21
-99.9756
0
LINE
8
BLACK
6
CONTINUOUS
10
164.269
20
-99.9756
11
164.176
21
-99.8027
0
LINE
8
BLACK
6
CONTINUOUS
10
164.176
20
-99.8027
11
164.119
21
-99.6151
0
LINE
8
BLACK
6
CONTINUOUS
10
164.119
20
-99.6151
11
164.1
21
-99.42
0
LINE
8
BLACK
6
CONTINUOUS
10
164.1
20
-99.42
11
164.119
21
-99.2249
0
LINE
8
BLACK
6
CONTINUOUS
10
164.119
20
-99.2249
11
164.176
21
-99.0373
0
LINE
8
BLACK
6
CONTINUOUS
10
164.176
20
-99.0373
11
164.269
21
-98.8644
0
LINE
8
BLACK
6
CONTINUOUS
10
164.269
20
-98.8644
11
164.393
21
-98.7129
0
LINE
8
BLACK
6
CONTINUOUS
10
164.393
20
-98.7129
11
164.544
21
-98.5885
0
LINE
8
BLACK
6
CONTINUOUS
10
164.544
20
-98.5885
11
164.717
21
-98.4961
0
LINE
8
BLACK
6
CONTINUOUS
10
164.717
20
-98.4961
11
164.905
21
-98.4392
0
LINE
8
BLACK
6
CONTINUOUS
10
164.905
20
-98.4392
11
165.1
21
-98.42
0
LINE
8
BLACK
6
CONTINUOUS
10
165.1
20
-98.42
11
165.295
21
-98.4392
0
LINE
8
BLACK
6
CONTINUOUS
10
139.895
20
-95.8992
11
140.083
21
-95.9561
0
LINE
8
BLACK
6
CONTINUOUS
10
140.083
20
-95.9561
11
140.256
21
-96.0485
0
LINE
8
BLACK
6
CONTINUOUS
10
140.256
20
-96.0485
11
140.407
21
-96.1729
0
LINE
8
BLACK
6
CONTINUOUS
10
140.407
20
-96.1729
11
140.531
21
-96.3244
0
LINE
8
BLACK
6
CONTINUOUS
10
140.531
20
-96.3244
11
140.624
21
-96.4973
0
LINE
8
BLACK
6
CONTINUOUS
10
140.624
20
-96.4973
11
140.681
21
-96.6849
0
LINE
8
BLACK
6
CONTINUOUS
10
140.681
20
-96.6849
11
140.7
21
-96.88
0
LINE
8
BLACK
6
CONTINUOUS
10
140.7
20
-96.88
11
140.681
21
-97.0751
0
LINE
8
BLACK
6
CONTINUOUS
10
140.681
20
-97.0751
11
140.624
21
-97.2627
0
LINE
8
BLACK
6
CONTINUOUS
10
140.624
20
-97.2627
11
140.531
21
-97.4356
0
LINE
8
BLACK
6
CONTINUOUS
10
140.531
20
-97.4356
11
140.407
21
-97.5871
0
LINE
8
BLACK
6
CONTINUOUS
10
140.407
20
-97.5871
11
140.256
21
-97.7115
0
LINE
8
BLACK
6
CONTINUOUS
10
140.256
20
-97.7115
11
140.083
21
-97.8039
0
LINE
8
BLACK
6
CONTINUOUS
10
140.083
20
-97.8039
11
139.895
21
-97.8608
0
LINE
8
BLACK
6
CONTINUOUS
10
139.895
20
-97.8608
11
139.7
21
-97.88
0
LINE
8
BLACK
6
CONTINUOUS
10
139.7
20
-97.88
11
139.505
21
-97.8608
0
LINE
8
BLACK
6
CONTINUOUS
10
139.505
20
-97.8608
11
139.317
21
-97.8039
0
LINE
8
BLACK
6
CONTINUOUS
10
139.317
20
-97.8039
11
139.144
21
-97.7115
0
LINE
8
BLACK
6
CONTINUOUS
10
139.144
20
-97.7115
11
138.993
21
-97.5871
0
LINE
8
BLACK
6
CONTINUOUS
10
138.993
20
-97.5871
11
138.869
21
-97.4356
0
LINE
8
BLACK
6
CONTINUOUS
10
138.869
20
-97.4356
11
138.776
21
-97.2627
0
LINE
8
BLACK
6
CONTINUOUS
10
138.776
20
-97.2627
11
138.719
21
-97.0751
0
LINE
8
BLACK
6
CONTINUOUS
10
138.719
20
-97.0751
11
138.7
21
-96.88
0
LINE
8
BLACK
6
CONTINUOUS
10
138.7
20
-96.88
11
138.719
21
-96.6849
0
LINE
8
BLACK
6
CONTINUOUS
10
138.719
20
-96.6849
11
138.776
21
-96.4973
0
LINE
8
BLACK
6
CONTINUOUS
10
138.776
20
-96.4973
11
138.869
21
-96.3244
0
LINE
8
BLACK
6
CONTINUOUS
10
138.869
20
-96.3244
11
138.993
21
-96.1729
0
LINE
8
BLACK
6
CONTINUOUS
10
138.993
20
-96.1729
11
139.144
21
-96.0485
0
LINE
8
BLACK
6
CONTINUOUS
10
139.144
20
-96.0485
11
139.317
21
-95.9561
0
LINE
8
BLACK
6
CONTINUOUS
10
139.317
20
-95.9561
11
139.505
21
-95.8992
0
LINE
8
BLACK
6
CONTINUOUS
10
139.505
20
-95.8992
11
139.7
21
-95.88
0
LINE
8
BLACK
6
CONTINUOUS
10
139.7
20
-95.88
11
139.895
21
-95.8992
0
LINE
8
BLACK
6
CONTINUOUS
10
165.295
20
-95.8992
11
165.483
21
-95.9561
0
LINE
8
BLACK
6
CONTINUOUS
10
165.483
20
-95.9561
11
165.656
21
-96.0485
0
LINE
8
BLACK
6
CONTINUOUS
10
165.656
20
-96.0485
11
165.807
21
-96.1729
0
LINE
8
BLACK
6
CONTINUOUS
10
165.807
20
-96.1729
11
165.931
21
-96.3244
0
LINE
8
BLACK
6
CONTINUOUS
10
165.931
20
-96.3244
11
166.024
21
-96.4973
0
LINE
8
BLACK
6
CONTINUOUS
10
166.024
20
-96.4973
11
166.081
21
-96.6849
0
LINE
8
BLACK
6
CONTINUOUS
10
166.081
20
-96.6849
11
166.1
21
-96.88
0
LINE
8
BLACK
6
CONTINUOUS
10
166.1
20
-96.88
11
166.081
21
-97.0751
0
LINE
8
BLACK
6
CONTINUOUS
10
166.081
20
-97.0751
11
166.024
21
-97.2627
0
LINE
8
BLACK
6
CONTINUOUS
10
166.024
20
-97.2627
11
165.931
21
-97.4356
0
LINE
8
BLACK
6
CONTINUOUS
10
165.931
20
-97.4356
11
165.807
21
-97.5871
0
LINE
8
BLACK
6
CONTINUOUS
10
165.807
20
-97.5871
11
165.656
21
-97.7115
0
LINE
8
BLACK
6
CONTINUOUS
10
165.656
20
-97.7115
11
165.483
21
-97.8039
0
LINE
8
BLACK
6
CONTINUOUS
10
165.483
20
-97.8039
11
165.295
21
-97.8608
0
LINE
8
BLACK
6
CONTINUOUS
10
165.295
20
-97.8608
11
165.1
21
-97.88
0
LINE
8
BLACK
6
CONTINUOUS
10
165.1
20
-97.88
11
164.905
21
-97.8608
0
LINE
8
BLACK
6
CONTINUOUS
10
164.905
20
-97.8608
11
164.717
21
-97.8039
0
LINE
8
BLACK
6
CONTINUOUS
10
164.717
20
-97.8039
11
164.544
21
-97.7115
0
LINE
8
BLACK
6
CONTINUOUS
10
164.544
20
-97.7115
11
164.393
21
-97.5871
0
LINE
8
BLACK
6
CONTINUOUS
10
164.393
20
-97.5871
11
164.269
21
-97.4356
0
LINE
8
BLACK
6
CONTINUOUS
10
164.269
20
-97.4356
11
164.176
21
-97.2627
0
LINE
8
BLACK
6
CONTINUOUS
10
164.176
20
-97.2627
11
164.119
21
-97.0751
0
LINE
8
BLACK
6
CONTINUOUS
10
164.119
20
-97.0751
11
164.1
21
-96.88
0
LINE
8
BLACK
6
CONTINUOUS
10
164.1
20
-96.88
11
164.119
21
-96.6849
0
LINE
8
BLACK
6
CONTINUOUS
10
164.119
20
-96.6849
11
164.176
21
-96.4973
0
LINE
8
BLACK
6
CONTINUOUS
10
164.176
20
-96.4973
11
164.269
21
-96.3244
0
LINE
8
BLACK
6
CONTINUOUS
10
164.269
20
-96.3244
11
164.393
21
-96.1729
0
LINE
8
BLACK
6
CONTINUOUS
10
164.393
20
-96.1729
11
164.544
21
-96.0485
0
LINE
8
BLACK
6
CONTINUOUS
10
164.544
20
-96.0485
11
164.717
21
-95.9561
0
LINE
8
BLACK
6
CONTINUOUS
10
164.717
20
-95.9561
11
164.905
21
-95.8992
0
LINE
8
BLACK
6
CONTINUOUS
10
164.905
20
-95.8992
11
165.1
21
-95.88
0
LINE
8
BLACK
6
CONTINUOUS
10
165.1
20
-95.88
11
165.295
21
-95.8992
0
LINE
8
BLACK
6
CONTINUOUS
10
139.895
20
-93.3592
11
140.083
21
-93.4161
0
LINE
8
BLACK
6
CONTINUOUS
10
140.083
20
-93.4161
11
140.256
21
-93.5085
0
LINE
8
BLACK
6
CONTINUOUS
10
140.256
20
-93.5085
11
140.407
21
-93.6329
0
LINE
8
BLACK
6
CONTINUOUS
10
140.407
20
-93.6329
11
140.531
21
-93.7844
0
LINE
8
BLACK
6
CONTINUOUS
10
140.531
20
-93.7844
11
140.624
21
-93.9573
0
LINE
8
BLACK
6
CONTINUOUS
10
140.624
20
-93.9573
11
140.681
21
-94.1449
0
LINE
8
BLACK
6
CONTINUOUS
10
140.681
20
-94.1449
11
140.7
21
-94.34
0
LINE
8
BLACK
6
CONTINUOUS
10
140.7
20
-94.34
11
140.681
21
-94.5351
0
LINE
8
BLACK
6
CONTINUOUS
10
140.681
20
-94.5351
11
140.624
21
-94.7227
0
LINE
8
BLACK
6
CONTINUOUS
10
140.624
20
-94.7227
11
140.531
21
-94.8956
0
LINE
8
BLACK
6
CONTINUOUS
10
140.531
20
-94.8956
11
140.407
21
-95.0471
0
LINE
8
BLACK
6
CONTINUOUS
10
140.407
20
-95.0471
11
140.256
21
-95.1715
0
LINE
8
BLACK
6
CONTINUOUS
10
140.256
20
-95.1715
11
140.083
21
-95.2639
0
LINE
8
BLACK
6
CONTINUOUS
10
140.083
20
-95.2639
11
139.895
21
-95.3208
0
LINE
8
BLACK
6
CONTINUOUS
10
139.895
20
-95.3208
11
139.7
21
-95.34
0
LINE
8
BLACK
6
CONTINUOUS
10
139.7
20
-95.34
11
139.505
21
-95.3208
0
LINE
8
BLACK
6
CONTINUOUS
10
139.505
20
-95.3208
11
139.317
21
-95.2639
0
LINE
8
BLACK
6
CONTINUOUS
10
139.317
20
-95.2639
11
139.144
21
-95.1715
0
LINE
8
BLACK
6
CONTINUOUS
10
139.144
20
-95.1715
11
138.993
21
-95.0471
0
LINE
8
BLACK
6
CONTINUOUS
10
138.993
20
-95.0471
11
138.869
21
-94.8956
0
LINE
8
BLACK
6
CONTINUOUS
10
138.869
20
-94.8956
11
138.776
21
-94.7227
0
LINE
8
BLACK
6
CONTINUOUS
10
138.776
20
-94.7227
11
138.719
21
-94.5351
0
LINE
8
BLACK
6
CONTINUOUS
10
138.719
20
-94.5351
11
138.7
21
-94.34
0
LINE
8
BLACK
6
CONTINUOUS
10
138.7
20
-94.34
11
138.719
21
-94.1449
0
LINE
8
BLACK
6
CONTINUOUS
10
138.719
20
-94.1449
11
138.776
21
-93.9573
0
LINE
8
BLACK
6
CONTINUOUS
10
138.776
20
-93.9573
11
138.869
21
-93.7844
0
LINE
8
BLACK
6
CONTINUOUS
10
138.869
20
-93.7844
11
138.993
21
-93.6329
0
LINE
8
BLACK
6
CONTINUOUS
10
138.993
20
-93.6329
11
139.144
21
-93.5085
0
LINE
8
BLACK
6
CONTINUOUS
10
139.144
20
-93.5085
11
139.317
21
-93.4161
0
LINE
8
BLACK
6
CONTINUOUS
10
139.317
20
-93.4161
11
139.505
21
-93.3592
0
LINE
8
BLACK
6
CONTINUOUS
10
139.505
20
-93.3592
11
139.7
21
-93.34
0
LINE
8
BLACK
6
CONTINUOUS
10
139.7
20
-93.34
11
139.895
21
-93.3592
0
LINE
8
BLACK
6
CONTINUOUS
10
165.295
20
-93.3592
11
165.483
21
-93.4161
0
LINE
8
BLACK
6
CONTINUOUS
10
165.483
20
-93.4161
11
165.656
21
-93.5085
0
LINE
8
BLACK
6
CONTINUOUS
10
165.656
20
-93.5085
11
165.807
21
-93.6329
0
LINE
8
BLACK
6
CONTINUOUS
10
165.807
20
-93.6329
11
165.931
21
-93.7844
0
LINE
8
BLACK
6
CONTINUOUS
10
165.931
20
-93.7844
11
166.024
21
-93.9573
0
LINE
8
BLACK
6
CONTINUOUS
10
166.024
20
-93.9573
11
166.081
21
-94.1449
0
LINE
8
BLACK
6
CONTINUOUS
10
166.081
20
-94.1449
11
166.1
21
-94.34
0
LINE
8
BLACK
6
CONTINUOUS
10
166.1
20
-94.34
11
166.081
21
-94.5351
0
LINE
8
BLACK
6
CONTINUOUS
10
166.081
20
-94.5351
11
166.024
21
-94.7227
0
LINE
8
BLACK
6
CONTINUOUS
10
166.024
20
-94.7227
11
165.931
21
-94.8956
0
LINE
8
BLACK
6
CONTINUOUS
10
165.931
20
-94.8956
11
165.807
21
-95.0471
0
LINE
8
BLACK
6
CONTINUOUS
10
165.807
20
-95.0471
11
165.656
21
-95.1715
0
LINE
8
BLACK
6
CONTINUOUS
10
165.656
20
-95.1715
11
165.483
21
-95.2639
0
LINE
8
BLACK
6
CONTINUOUS
10
165.483
20
-95.2639
11
165.295
21
-95.3208
0
LINE
8
BLACK
6
CONTINUOUS
10
165.295
20
-95.3208
11
165.1
21
-95.34
0
LINE
8
BLACK
6
CONTINUOUS
10
165.1
20
-95.34
11
164.905
21
-95.3208
0
LINE
8
BLACK
6
CONTINUOUS
10
164.905
20
-95.3208
11
164.717
21
-95.2639
0
LINE
8
BLACK
6
CONTINUOUS
10
164.717
20
-95.2639
11
164.544
21
-95.1715
0
LINE
8
BLACK
6
CONTINUOUS
10
164.544
20
-95.1715
11
164.393
21
-95.0471
0
LINE
8
BLACK
6
CONTINUOUS
10
164.393
20
-95.0471
11
164.269
21
-94.8956
0
LINE
8
BLACK
6
CONTINUOUS
10
164.269
20
-94.8956
11
164.176
21
-94.7227
0
LINE
8
BLACK
6
CONTINUOUS
10
164.176
20
-94.7227
11
164.119
21
-94.5351
0
LINE
8
BLACK
6
CONTINUOUS
10
164.119
20
-94.5351
11
164.1
21
-94.34
0
LINE
8
BLACK
6
CONTINUOUS
10
164.1
20
-94.34
11
164.119
21
-94.1449
0
LINE
8
BLACK
6
CONTINUOUS
10
164.119
20
-94.1449
11
164.176
21
-93.9573
0
LINE
8
BLACK
6
CONTINUOUS
10
164.176
20
-93.9573
11
164.269
21
-93.7844
0
LINE
8
BLACK
6
CONTINUOUS
10
164.269
20
-93.7844
11
164.393
21
-93.6329
0
LINE
8
BLACK
6
CONTINUOUS
10
164.393
20
-93.6329
11
164.544
21
-93.5085
0
LINE
8
BLACK
6
CONTINUOUS
10
164.544
20
-93.5085
11
164.717
21
-93.4161
0
LINE
8
BLACK
6
CONTINUOUS
10
164.717
20
-93.4161
11
164.905
21
-93.3592
0
LINE
8
BLACK
6
CONTINUOUS
10
164.905
20
-93.3592
11
165.1
21
-93.34
0
LINE
8
BLACK
6
CONTINUOUS
10
165.1
20
-93.34
11
165.295
21
-93.3592
0
LINE
8
BLACK
6
CONTINUOUS
10
139.895
20
-90.8192
11
140.083
21
-90.8761
0
LINE
8
BLACK
6
CONTINUOUS
10
140.083
20
-90.8761
11
140.256
21
-90.9685
0
LINE
8
BLACK
6
CONTINUOUS
10
140.256
20
-90.9685
11
140.407
21
-91.0929
0
LINE
8
BLACK
6
CONTINUOUS
10
140.407
20
-91.0929
11
140.531
21
-91.2444
0
LINE
8
BLACK
6
CONTINUOUS
10
140.531
20
-91.2444
11
140.624
21
-91.4173
0
LINE
8
BLACK
6
CONTINUOUS
10
140.624
20
-91.4173
11
140.681
21
-91.6049
0
LINE
8
BLACK
6
CONTINUOUS
10
140.681
20
-91.6049
11
140.7
21
-91.8
0
LINE
8
BLACK
6
CONTINUOUS
10
140.7
20
-91.8
11
140.681
21
-91.9951
0
LINE
8
BLACK
6
CONTINUOUS
10
140.681
20
-91.9951
11
140.624
21
-92.1827
0
LINE
8
BLACK
6
CONTINUOUS
10
140.624
20
-92.1827
11
140.531
21
-92.3556
0
LINE
8
BLACK
6
CONTINUOUS
10
140.531
20
-92.3556
11
140.407
21
-92.5071
0
LINE
8
BLACK
6
CONTINUOUS
10
140.407
20
-92.5071
11
140.256
21
-92.6315
0
LINE
8
BLACK
6
CONTINUOUS
10
140.256
20
-92.6315
11
140.083
21
-92.7239
0
LINE
8
BLACK
6
CONTINUOUS
10
140.083
20
-92.7239
11
139.895
21
-92.7808
0
LINE
8
BLACK
6
CONTINUOUS
10
139.895
20
-92.7808
11
139.7
21
-92.8
0
LINE
8
BLACK
6
CONTINUOUS
10
139.7
20
-92.8
11
139.505
21
-92.7808
0
LINE
8
BLACK
6
CONTINUOUS
10
139.505
20
-92.7808
11
139.317
21
-92.7239
0
LINE
8
BLACK
6
CONTINUOUS
10
139.317
20
-92.7239
11
139.144
21
-92.6315
0
LINE
8
BLACK
6
CONTINUOUS
10
139.144
20
-92.6315
11
138.993
21
-92.5071
0
LINE
8
BLACK
6
CONTINUOUS
10
138.993
20
-92.5071
11
138.869
21
-92.3556
0
LINE
8
BLACK
6
CONTINUOUS
10
138.869
20
-92.3556
11
138.776
21
-92.1827
0
LINE
8
BLACK
6
CONTINUOUS
10
138.776
20
-92.1827
11
138.719
21
-91.9951
0
LINE
8
BLACK
6
CONTINUOUS
10
138.719
20
-91.9951
11
138.7
21
-91.8
0
LINE
8
BLACK
6
CONTINUOUS
10
138.7
20
-91.8
11
138.719
21
-91.6049
0
LINE
8
BLACK
6
CONTINUOUS
10
138.719
20
-91.6049
11
138.776
21
-91.4173
0
LINE
8
BLACK
6
CONTINUOUS
10
138.776
20
-91.4173
11
138.869
21
-91.2444
0
LINE
8
BLACK
6
CONTINUOUS
10
138.869
20
-91.2444
11
138.993
21
-91.0929
0
LINE
8
BLACK
6
CONTINUOUS
10
138.993
20
-91.0929
11
139.144
21
-90.9685
0
LINE
8
BLACK
6
CONTINUOUS
10
139.144
20
-90.9685
11
139.317
21
-90.8761
0
LINE
8
BLACK
6
CONTINUOUS
10
139.317
20
-90.8761
11
139.505
21
-90.8192
0
LINE
8
BLACK
6
CONTINUOUS
10
139.505
20
-90.8192
11
139.7
21
-90.8
0
LINE
8
BLACK
6
CONTINUOUS
10
139.7
20
-90.8
11
139.895
21
-90.8192
0
LINE
8
BLACK
6
CONTINUOUS
10
165.295
20
-90.8192
11
165.483
21
-90.8761
0
LINE
8
BLACK
6
CONTINUOUS
10
165.483
20
-90.8761
11
165.656
21
-90.9685
0
LINE
8
BLACK
6
CONTINUOUS
10
165.656
20
-90.9685
11
165.807
21
-91.0929
0
LINE
8
BLACK
6
CONTINUOUS
10
165.807
20
-91.0929
11
165.931
21
-91.2444
0
LINE
8
BLACK
6
CONTINUOUS
10
165.931
20
-91.2444
11
166.024
21
-91.4173
0
LINE
8
BLACK
6
CONTINUOUS
10
166.024
20
-91.4173
11
166.081
21
-91.6049
0
LINE
8
BLACK
6
CONTINUOUS
10
166.081
20
-91.6049
11
166.1
21
-91.8
0
LINE
8
BLACK
6
CONTINUOUS
10
166.1
20
-91.8
11
166.081
21
-91.9951
0
LINE
8
BLACK
6
CONTINUOUS
10
166.081
20
-91.9951
11
166.024
21
-92.1827
0
LINE
8
BLACK
6
CONTINUOUS
10
166.024
20
-92.1827
11
165.931
21
-92.3556
0
LINE
8
BLACK
6
CONTINUOUS
10
165.931
20
-92.3556
11
165.807
21
-92.5071
0
LINE
8
BLACK
6
CONTINUOUS
10
165.807
20
-92.5071
11
165.656
21
-92.6315
0
LINE
8
BLACK
6
CONTINUOUS
10
165.656
20
-92.6315
11
165.483
21
-92.7239
0
LINE
8
BLACK
6
CONTINUOUS
10
165.483
20
-92.7239
11
165.295
21
-92.7808
0
LINE
8
BLACK
6
CONTINUOUS
10
165.295
20
-92.7808
11
165.1
21
-92.8
0
LINE
8
BLACK
6
CONTINUOUS
10
165.1
20
-92.8
11
164.905
21
-92.7808
0
LINE
8
BLACK
6
CONTINUOUS
10
164.905
20
-92.7808
11
164.717
21
-92.7239
0
LINE
8
BLACK
6
CONTINUOUS
10
164.717
20
-92.7239
11
164.544
21
-92.6315
0
LINE
8
BLACK
6
CONTINUOUS
10
164.544
20
-92.6315
11
164.393
21
-92.5071
0
LINE
8
BLACK
6
CONTINUOUS
10
164.393
20
-92.5071
11
164.269
21
-92.3556
0
LINE
8
BLACK
6
CONTINUOUS
10
164.269
20
-92.3556
11
164.176
21
-92.1827
0
LINE
8
BLACK
6
CONTINUOUS
10
164.176
20
-92.1827
11
164.119
21
-91.9951
0
LINE
8
BLACK
6
CONTINUOUS
10
164.119
20
-91.9951
11
164.1
21
-91.8
0
LINE
8
BLACK
6
CONTINUOUS
10
164.1
20
-91.8
11
164.119
21
-91.6049
0
LINE
8
BLACK
6
CONTINUOUS
10
164.119
20
-91.6049
11
164.176
21
-91.4173
0
LINE
8
BLACK
6
CONTINUOUS
10
164.176
20
-91.4173
11
164.269
21
-91.2444
0
LINE
8
BLACK
6
CONTINUOUS
10
164.269
20
-91.2444
11
164.393
21
-91.0929
0
LINE
8
BLACK
6
CONTINUOUS
10
164.393
20
-91.0929
11
164.544
21
-90.9685
0
LINE
8
BLACK
6
CONTINUOUS
10
164.544
20
-90.9685
11
164.717
21
-90.8761
0
LINE
8
BLACK
6
CONTINUOUS
10
164.717
20
-90.8761
11
164.905
21
-90.8192
0
LINE
8
BLACK
6
CONTINUOUS
10
164.905
20
-90.8192
11
165.1
21
-90.8
0
LINE
8
BLACK
6
CONTINUOUS
10
165.1
20
-90.8
11
165.295
21
-90.8192
0
LINE
8
BLACK
6
CONTINUOUS
10
139.895
20
-88.2792
11
140.083
21
-88.3361
0
LINE
8
BLACK
6
CONTINUOUS
10
140.083
20
-88.3361
11
140.256
21
-88.4285
0
LINE
8
BLACK
6
CONTINUOUS
10
140.256
20
-88.4285
11
140.407
21
-88.5529
0
LINE
8
BLACK
6
CONTINUOUS
10
140.407
20
-88.5529
11
140.531
21
-88.7044
0
LINE
8
BLACK
6
CONTINUOUS
10
140.531
20
-88.7044
11
140.624
21
-88.8773
0
LINE
8
BLACK
6
CONTINUOUS
10
140.624
20
-88.8773
11
140.681
21
-89.0649
0
LINE
8
BLACK
6
CONTINUOUS
10
140.681
20
-89.0649
11
140.7
21
-89.26
0
LINE
8
BLACK
6
CONTINUOUS
10
140.7
20
-89.26
11
140.681
21
-89.4551
0
LINE
8
BLACK
6
CONTINUOUS
10
140.681
20
-89.4551
11
140.624
21
-89.6427
0
LINE
8
BLACK
6
CONTINUOUS
10
140.624
20
-89.6427
11
140.531
21
-89.8156
0
LINE
8
BLACK
6
CONTINUOUS
10
140.531
20
-89.8156
11
140.407
21
-89.9671
0
LINE
8
BLACK
6
CONTINUOUS
10
140.407
20
-89.9671
11
140.256
21
-90.0915
0
LINE
8
BLACK
6
CONTINUOUS
10
140.256
20
-90.0915
11
140.083
21
-90.1839
0
LINE
8
BLACK
6
CONTINUOUS
10
140.083
20
-90.1839
11
139.895
21
-90.2408
0
LINE
8
BLACK
6
CONTINUOUS
10
139.895
20
-90.2408
11
139.7
21
-90.26
0
LINE
8
BLACK
6
CONTINUOUS
10
139.7
20
-90.26
11
139.505
21
-90.2408
0
LINE
8
BLACK
6
CONTINUOUS
10
139.505
20
-90.2408
11
139.317
21
-90.1839
0
LINE
8
BLACK
6
CONTINUOUS
10
139.317
20
-90.1839
11
139.144
21
-90.0915
0
LINE
8
BLACK
6
CONTINUOUS
10
139.144
20
-90.0915
11
138.993
21
-89.9671
0
LINE
8
BLACK
6
CONTINUOUS
10
138.993
20
-89.9671
11
138.869
21
-89.8156
0
LINE
8
BLACK
6
CONTINUOUS
10
138.869
20
-89.8156
11
138.776
21
-89.6427
0
LINE
8
BLACK
6
CONTINUOUS
10
138.776
20
-89.6427
11
138.719
21
-89.4551
0
LINE
8
BLACK
6
CONTINUOUS
10
138.719
20
-89.4551
11
138.7
21
-89.26
0
LINE
8
BLACK
6
CONTINUOUS
10
138.7
20
-89.26
11
138.719
21
-89.0649
0
LINE
8
BLACK
6
CONTINUOUS
10
138.719
20
-89.0649
11
138.776
21
-88.8773
0
LINE
8
BLACK
6
CONTINUOUS
10
138.776
20
-88.8773
11
138.869
21
-88.7044
0
LINE
8
BLACK
6
CONTINUOUS
10
138.869
20
-88.7044
11
138.993
21
-88.5529
0
LINE
8
BLACK
6
CONTINUOUS
10
138.993
20
-88.5529
11
139.144
21
-88.4285
0
LINE
8
BLACK
6
CONTINUOUS
10
139.144
20
-88.4285
11
139.317
21
-88.3361
0
LINE
8
BLACK
6
CONTINUOUS
10
139.317
20
-88.3361
11
139.505
21
-88.2792
0
LINE
8
BLACK
6
CONTINUOUS
10
139.505
20
-88.2792
11
139.7
21
-88.26
0
LINE
8
BLACK
6
CONTINUOUS
10
139.7
20
-88.26
11
139.895
21
-88.2792
0
LINE
8
BLACK
6
CONTINUOUS
10
165.295
20
-88.2792
11
165.483
21
-88.3361
0
LINE
8
BLACK
6
CONTINUOUS
10
165.483
20
-88.3361
11
165.656
21
-88.4285
0
LINE
8
BLACK
6
CONTINUOUS
10
165.656
20
-88.4285
11
165.807
21
-88.5529
0
LINE
8
BLACK
6
CONTINUOUS
10
165.807
20
-88.5529
11
165.931
21
-88.7044
0
LINE
8
BLACK
6
CONTINUOUS
10
165.931
20
-88.7044
11
166.024
21
-88.8773
0
LINE
8
BLACK
6
CONTINUOUS
10
166.024
20
-88.8773
11
166.081
21
-89.0649
0
LINE
8
BLACK
6
CONTINUOUS
10
166.081
20
-89.0649
11
166.1
21
-89.26
0
LINE
8
BLACK
6
CONTINUOUS
10
166.1
20
-89.26
11
166.081
21
-89.4551
0
LINE
8
BLACK
6
CONTINUOUS
10
166.081
20
-89.4551
11
166.024
21
-89.6427
0
LINE
8
BLACK
6
CONTINUOUS
10
166.024
20
-89.6427
11
165.931
21
-89.8156
0
LINE
8
BLACK
6
CONTINUOUS
10
165.931
20
-89.8156
11
165.807
21
-89.9671
0
LINE
8
BLACK
6
CONTINUOUS
10
165.807
20
-89.9671
11
165.656
21
-90.0915
0
LINE
8
BLACK
6
CONTINUOUS
10
165.656
20
-90.0915
11
165.483
21
-90.1839
0
LINE
8
BLACK
6
CONTINUOUS
10
165.483
20
-90.1839
11
165.295
21
-90.2408
0
LINE
8
BLACK
6
CONTINUOUS
10
165.295
20
-90.2408
11
165.1
21
-90.26
0
LINE
8
BLACK
6
CONTINUOUS
10
165.1
20
-90.26
11
164.905
21
-90.2408
0
LINE
8
BLACK
6
CONTINUOUS
10
164.905
20
-90.2408
11
164.717
21
-90.1839
0
LINE
8
BLACK
6
CONTINUOUS
10
164.717
20
-90.1839
11
164.544
21
-90.0915
0
LINE
8
BLACK
6
CONTINUOUS
10
164.544
20
-90.0915
11
164.393
21
-89.9671
0
LINE
8
BLACK
6
CONTINUOUS
10
164.393
20
-89.9671
11
164.269
21
-89.8156
0
LINE
8
BLACK
6
CONTINUOUS
10
164.269
20
-89.8156
11
164.176
21
-89.6427
0
LINE
8
BLACK
6
CONTINUOUS
10
164.176
20
-89.6427
11
164.119
21
-89.4551
0
LINE
8
BLACK
6
CONTINUOUS
10
164.119
20
-89.4551
11
164.1
21
-89.26
0
LINE
8
BLACK
6
CONTINUOUS
10
164.1
20
-89.26
11
164.119
21
-89.0649
0
LINE
8
BLACK
6
CONTINUOUS
10
164.119
20
-89.0649
11
164.176
21
-88.8773
0
LINE
8
BLACK
6
CONTINUOUS
10
164.176
20
-88.8773
11
164.269
21
-88.7044
0
LINE
8
BLACK
6
CONTINUOUS
10
164.269
20
-88.7044
11
164.393
21
-88.5529
0
LINE
8
BLACK
6
CONTINUOUS
10
164.393
20
-88.5529
11
164.544
21
-88.4285
0
LINE
8
BLACK
6
CONTINUOUS
10
164.544
20
-88.4285
11
164.717
21
-88.3361
0
LINE
8
BLACK
6
CONTINUOUS
10
164.717
20
-88.3361
11
164.905
21
-88.2792
0
LINE
8
BLACK
6
CONTINUOUS
10
164.905
20
-88.2792
11
165.1
21
-88.26
0
LINE
8
BLACK
6
CONTINUOUS
10
165.1
20
-88.26
11
165.295
21
-88.2792
0
LINE
8
BLACK
6
CONTINUOUS
10
139.895
20
-85.7392
11
140.083
21
-85.7961
0
LINE
8
BLACK
6
CONTINUOUS
10
140.083
20
-85.7961
11
140.256
21
-85.8885
0
LINE
8
BLACK
6
CONTINUOUS
10
140.256
20
-85.8885
11
140.407
21
-86.0129
0
LINE
8
BLACK
6
CONTINUOUS
10
140.407
20
-86.0129
11
140.531
21
-86.1644
0
LINE
8
BLACK
6
CONTINUOUS
10
140.531
20
-86.1644
11
140.624
21
-86.3373
0
LINE
8
BLACK
6
CONTINUOUS
10
140.624
20
-86.3373
11
140.681
21
-86.5249
0
LINE
8
BLACK
6
CONTINUOUS
10
140.681
20
-86.5249
11
140.7
21
-86.72
0
LINE
8
BLACK
6
CONTINUOUS
10
140.7
20
-86.72
11
140.681
21
-86.9151
0
LINE
8
BLACK
6
CONTINUOUS
10
140.681
20
-86.9151
11
140.624
21
-87.1027
0
LINE
8
BLACK
6
CONTINUOUS
10
140.624
20
-87.1027
11
140.531
21
-87.2756
0
LINE
8
BLACK
6
CONTINUOUS
10
140.531
20
-87.2756
11
140.407
21
-87.4271
0
LINE
8
BLACK
6
CONTINUOUS
10
140.407
20
-87.4271
11
140.256
21
-87.5515
0
LINE
8
BLACK
6
CONTINUOUS
10
140.256
20
-87.5515
11
140.083
21
-87.6439
0
LINE
8
BLACK
6
CONTINUOUS
10
140.083
20
-87.6439
11
139.895
21
-87.7008
0
LINE
8
BLACK
6
CONTINUOUS
10
139.895
20
-87.7008
11
139.7
21
-87.72
0
LINE
8
BLACK
6
CONTINUOUS
10
139.7
20
-87.72
11
139.505
21
-87.7008
0
LINE
8
BLACK
6
CONTINUOUS
10
139.505
20
-87.7008
11
139.317
21
-87.6439
0
LINE
8
BLACK
6
CONTINUOUS
10
139.317
20
-87.6439
11
139.144
21
-87.5515
0
LINE
8
BLACK
6
CONTINUOUS
10
139.144
20
-87.5515
11
138.993
21
-87.4271
0
LINE
8
BLACK
6
CONTINUOUS
10
138.993
20
-87.4271
11
138.869
21
-87.2756
0
LINE
8
BLACK
6
CONTINUOUS
10
138.869
20
-87.2756
11
138.776
21
-87.1027
0
LINE
8
BLACK
6
CONTINUOUS
10
138.776
20
-87.1027
11
138.719
21
-86.9151
0
LINE
8
BLACK
6
CONTINUOUS
10
138.719
20
-86.9151
11
138.7
21
-86.72
0
LINE
8
BLACK
6
CONTINUOUS
10
138.7
20
-86.72
11
138.719
21
-86.5249
0
LINE
8
BLACK
6
CONTINUOUS
10
138.719
20
-86.5249
11
138.776
21
-86.3373
0
LINE
8
BLACK
6
CONTINUOUS
10
138.776
20
-86.3373
11
138.869
21
-86.1644
0
LINE
8
BLACK
6
CONTINUOUS
10
138.869
20
-86.1644
11
138.993
21
-86.0129
0
LINE
8
BLACK
6
CONTINUOUS
10
138.993
20
-86.0129
11
139.144
21
-85.8885
0
LINE
8
BLACK
6
CONTINUOUS
10
139.144
20
-85.8885
11
139.317
21
-85.7961
0
LINE
8
BLACK
6
CONTINUOUS
10
139.317
20
-85.7961
11
139.505
21
-85.7392
0
LINE
8
BLACK
6
CONTINUOUS
10
139.505
20
-85.7392
11
139.7
21
-85.72
0
LINE
8
BLACK
6
CONTINUOUS
10
139.7
20
-85.72
11
139.895
21
-85.7392
0
LINE
8
BLACK
6
CONTINUOUS
10
165.295
20
-85.7392
11
165.483
21
-85.7961
0
LINE
8
BLACK
6
CONTINUOUS
10
165.483
20
-85.7961
11
165.656
21
-85.8885
0
LINE
8
BLACK
6
CONTINUOUS
10
165.656
20
-85.8885
11
165.807
21
-86.0129
0
LINE
8
BLACK
6
CONTINUOUS
10
165.807
20
-86.0129
11
165.931
21
-86.1644
0
LINE
8
BLACK
6
CONTINUOUS
10
165.931
20
-86.1644
11
166.024
21
-86.3373
0
LINE
8
BLACK
6
CONTINUOUS
10
166.024
20
-86.3373
11
166.081
21
-86.5249
0
LINE
8
BLACK
6
CONTINUOUS
10
166.081
20
-86.5249
11
166.1
21
-86.72
0
LINE
8
BLACK
6
CONTINUOUS
10
166.1
20
-86.72
11
166.081
21
-86.9151
0
LINE
8
BLACK
6
CONTINUOUS
10
166.081
20
-86.9151
11
166.024
21
-87.1027
0
LINE
8
BLACK
6
CONTINUOUS
10
166.024
20
-87.1027
11
165.931
21
-87.2756
0
LINE
8
BLACK
6
CONTINUOUS
10
165.931
20
-87.2756
11
165.807
21
-87.4271
0
LINE
8
BLACK
6
CONTINUOUS
10
165.807
20
-87.4271
11
165.656
21
-87.5515
0
LINE
8
BLACK
6
CONTINUOUS
10
165.656
20
-87.5515
11
165.483
21
-87.6439
0
LINE
8
BLACK
6
CONTINUOUS
10
165.483
20
-87.6439
11
165.295
21
-87.7008
0
LINE
8
BLACK
6
CONTINUOUS
10
165.295
20
-87.7008
11
165.1
21
-87.72
0
LINE
8
BLACK
6
CONTINUOUS
10
165.1
20
-87.72
11
164.905
21
-87.7008
0
LINE
8
BLACK
6
CONTINUOUS
10
164.905
20
-87.7008
11
164.717
21
-87.6439
0
LINE
8
BLACK
6
CONTINUOUS
10
164.717
20
-87.6439
11
164.544
21
-87.5515
0
LINE
8
BLACK
6
CONTINUOUS
10
164.544
20
-87.5515
11
164.393
21
-87.4271
0
LINE
8
BLACK
6
CONTINUOUS
10
164.393
20
-87.4271
11
164.269
21
-87.2756
0
LINE
8
BLACK
6
CONTINUOUS
10
164.269
20
-87.2756
11
164.176
21
-87.1027
0
LINE
8
BLACK
6
CONTINUOUS
10
164.176
20
-87.1027
11
164.119
21
-86.9151
0
LINE
8
BLACK
6
CONTINUOUS
10
164.119
20
-86.9151
11
164.1
21
-86.72
0
LINE
8
BLACK
6
CONTINUOUS
10
164.1
20
-86.72
11
164.119
21
-86.5249
0
LINE
8
BLACK
6
CONTINUOUS
10
164.119
20
-86.5249
11
164.176
21
-86.3373
0
LINE
8
BLACK
6
CONTINUOUS
10
164.176
20
-86.3373
11
164.269
21
-86.1644
0
LINE
8
BLACK
6
CONTINUOUS
10
164.269
20
-86.1644
11
164.393
21
-86.0129
0
LINE
8
BLACK
6
CONTINUOUS
10
164.393
20
-86.0129
11
164.544
21
-85.8885
0
LINE
8
BLACK
6
CONTINUOUS
10
164.544
20
-85.8885
11
164.717
21
-85.7961
0
LINE
8
BLACK
6
CONTINUOUS
10
164.717
20
-85.7961
11
164.905
21
-85.7392
0
LINE
8
BLACK
6
CONTINUOUS
10
164.905
20
-85.7392
11
165.1
21
-85.72
0
LINE
8
BLACK
6
CONTINUOUS
10
165.1
20
-85.72
11
165.295
21
-85.7392
0
LINE
8
BLACK
6
CONTINUOUS
10
108.24
20
-69.5912
11
108.42
21
-69.6711
0
LINE
8
BLACK
6
CONTINUOUS
10
108.42
20
-69.6711
11
108.579
21
-69.7866
0
LINE
8
BLACK
6
CONTINUOUS
10
108.579
20
-69.7866
11
108.71
21
-69.9326
0
LINE
8
BLACK
6
CONTINUOUS
10
108.71
20
-69.9326
11
108.809
21
-70.1027
0
LINE
8
BLACK
6
CONTINUOUS
10
108.809
20
-70.1027
11
108.869
21
-70.2896
0
LINE
8
BLACK
6
CONTINUOUS
10
108.869
20
-70.2896
11
108.89
21
-70.485
0
LINE
8
BLACK
6
CONTINUOUS
10
108.89
20
-70.485
11
108.869
21
-70.6804
0
LINE
8
BLACK
6
CONTINUOUS
10
108.869
20
-70.6804
11
108.809
21
-70.8673
0
LINE
8
BLACK
6
CONTINUOUS
10
108.809
20
-70.8673
11
108.71
21
-71.0374
0
LINE
8
BLACK
6
CONTINUOUS
10
108.71
20
-71.0374
11
108.579
21
-71.1834
0
LINE
8
BLACK
6
CONTINUOUS
10
108.579
20
-71.1834
11
108.42
21
-71.2989
0
LINE
8
BLACK
6
CONTINUOUS
10
108.42
20
-71.2989
11
108.24
21
-71.3788
0
LINE
8
BLACK
6
CONTINUOUS
10
108.24
20
-71.3788
11
108.048
21
-71.4197
0
LINE
8
BLACK
6
CONTINUOUS
10
108.048
20
-71.4197
11
107.852
21
-71.4197
0
LINE
8
BLACK
6
CONTINUOUS
10
107.852
20
-71.4197
11
107.66
21
-71.3788
0
LINE
8
BLACK
6
CONTINUOUS
10
107.66
20
-71.3788
11
107.48
21
-71.2989
0
LINE
8
BLACK
6
CONTINUOUS
10
107.48
20
-71.2989
11
107.321
21
-71.1834
0
LINE
8
BLACK
6
CONTINUOUS
10
107.321
20
-71.1834
11
107.19
21
-71.0374
0
LINE
8
BLACK
6
CONTINUOUS
10
107.19
20
-71.0374
11
107.091
21
-70.8673
0
LINE
8
BLACK
6
CONTINUOUS
10
107.091
20
-70.8673
11
107.031
21
-70.6804
0
LINE
8
BLACK
6
CONTINUOUS
10
107.031
20
-70.6804
11
107.01
21
-70.485
0
LINE
8
BLACK
6
CONTINUOUS
10
107.01
20
-70.485
11
107.031
21
-70.2896
0
LINE
8
BLACK
6
CONTINUOUS
10
107.031
20
-70.2896
11
107.091
21
-70.1027
0
LINE
8
BLACK
6
CONTINUOUS
10
107.091
20
-70.1027
11
107.19
21
-69.9326
0
LINE
8
BLACK
6
CONTINUOUS
10
107.19
20
-69.9326
11
107.321
21
-69.7866
0
LINE
8
BLACK
6
CONTINUOUS
10
107.321
20
-69.7866
11
107.48
21
-69.6711
0
LINE
8
BLACK
6
CONTINUOUS
10
107.48
20
-69.6711
11
107.66
21
-69.5912
0
LINE
8
BLACK
6
CONTINUOUS
10
107.66
20
-69.5912
11
107.852
21
-69.5503
0
LINE
8
BLACK
6
CONTINUOUS
10
107.852
20
-69.5503
11
108.048
21
-69.5503
0
LINE
8
BLACK
6
CONTINUOUS
10
108.048
20
-69.5503
11
108.24
21
-69.5912
0
LINE
8
BLACK
6
CONTINUOUS
10
110.78
20
-69.5912
11
110.96
21
-69.6711
0
LINE
8
BLACK
6
CONTINUOUS
10
110.96
20
-69.6711
11
111.119
21
-69.7866
0
LINE
8
BLACK
6
CONTINUOUS
10
111.119
20
-69.7866
11
111.25
21
-69.9326
0
LINE
8
BLACK
6
CONTINUOUS
10
111.25
20
-69.9326
11
111.349
21
-70.1027
0
LINE
8
BLACK
6
CONTINUOUS
10
111.349
20
-70.1027
11
111.409
21
-70.2896
0
LINE
8
BLACK
6
CONTINUOUS
10
111.409
20
-70.2896
11
111.43
21
-70.485
0
LINE
8
BLACK
6
CONTINUOUS
10
111.43
20
-70.485
11
111.409
21
-70.6804
0
LINE
8
BLACK
6
CONTINUOUS
10
111.409
20
-70.6804
11
111.349
21
-70.8673
0
LINE
8
BLACK
6
CONTINUOUS
10
111.349
20
-70.8673
11
111.25
21
-71.0374
0
LINE
8
BLACK
6
CONTINUOUS
10
111.25
20
-71.0374
11
111.119
21
-71.1834
0
LINE
8
BLACK
6
CONTINUOUS
10
111.119
20
-71.1834
11
110.96
21
-71.2989
0
LINE
8
BLACK
6
CONTINUOUS
10
110.96
20
-71.2989
11
110.78
21
-71.3788
0
LINE
8
BLACK
6
CONTINUOUS
10
110.78
20
-71.3788
11
110.588
21
-71.4197
0
LINE
8
BLACK
6
CONTINUOUS
10
110.588
20
-71.4197
11
110.392
21
-71.4197
0
LINE
8
BLACK
6
CONTINUOUS
10
110.392
20
-71.4197
11
110.2
21
-71.3788
0
LINE
8
BLACK
6
CONTINUOUS
10
110.2
20
-71.3788
11
110.02
21
-71.2989
0
LINE
8
BLACK
6
CONTINUOUS
10
110.02
20
-71.2989
11
109.861
21
-71.1834
0
LINE
8
BLACK
6
CONTINUOUS
10
109.861
20
-71.1834
11
109.73
21
-71.0374
0
LINE
8
BLACK
6
CONTINUOUS
10
109.73
20
-71.0374
11
109.631
21
-70.8673
0
LINE
8
BLACK
6
CONTINUOUS
10
109.631
20
-70.8673
11
109.571
21
-70.6804
0
LINE
8
BLACK
6
CONTINUOUS
10
109.571
20
-70.6804
11
109.55
21
-70.485
0
LINE
8
BLACK
6
CONTINUOUS
10
109.55
20
-70.485
11
109.571
21
-70.2896
0
LINE
8
BLACK
6
CONTINUOUS
10
109.571
20
-70.2896
11
109.631
21
-70.1027
0
LINE
8
BLACK
6
CONTINUOUS
10
109.631
20
-70.1027
11
109.73
21
-69.9326
0
LINE
8
BLACK
6
CONTINUOUS
10
109.73
20
-69.9326
11
109.861
21
-69.7866
0
LINE
8
BLACK
6
CONTINUOUS
10
109.861
20
-69.7866
11
110.02
21
-69.6711
0
LINE
8
BLACK
6
CONTINUOUS
10
110.02
20
-69.6711
11
110.2
21
-69.5912
0
LINE
8
BLACK
6
CONTINUOUS
10
110.2
20
-69.5912
11
110.392
21
-69.5503
0
LINE
8
BLACK
6
CONTINUOUS
10
110.392
20
-69.5503
11
110.588
21
-69.5503
0
LINE
8
BLACK
6
CONTINUOUS
10
110.588
20
-69.5503
11
110.78
21
-69.5912
0
LINE
8
BLACK
6
CONTINUOUS
10
113.32
20
-69.5912
11
113.5
21
-69.6711
0
LINE
8
BLACK
6
CONTINUOUS
10
113.5
20
-69.6711
11
113.659
21
-69.7866
0
LINE
8
BLACK
6
CONTINUOUS
10
113.659
20
-69.7866
11
113.79
21
-69.9326
0
LINE
8
BLACK
6
CONTINUOUS
10
113.79
20
-69.9326
11
113.889
21
-70.1027
0
LINE
8
BLACK
6
CONTINUOUS
10
113.889
20
-70.1027
11
113.949
21
-70.2896
0
LINE
8
BLACK
6
CONTINUOUS
10
113.949
20
-70.2896
11
113.97
21
-70.485
0
LINE
8
BLACK
6
CONTINUOUS
10
113.97
20
-70.485
11
113.949
21
-70.6804
0
LINE
8
BLACK
6
CONTINUOUS
10
113.949
20
-70.6804
11
113.889
21
-70.8673
0
LINE
8
BLACK
6
CONTINUOUS
10
113.889
20
-70.8673
11
113.79
21
-71.0374
0
LINE
8
BLACK
6
CONTINUOUS
10
113.79
20
-71.0374
11
113.659
21
-71.1834
0
LINE
8
BLACK
6
CONTINUOUS
10
113.659
20
-71.1834
11
113.5
21
-71.2989
0
LINE
8
BLACK
6
CONTINUOUS
10
113.5
20
-71.2989
11
113.32
21
-71.3788
0
LINE
8
BLACK
6
CONTINUOUS
10
113.32
20
-71.3788
11
113.128
21
-71.4197
0
LINE
8
BLACK
6
CONTINUOUS
10
113.128
20
-71.4197
11
112.932
21
-71.4197
0
LINE
8
BLACK
6
CONTINUOUS
10
112.932
20
-71.4197
11
112.74
21
-71.3788
0
LINE
8
BLACK
6
CONTINUOUS
10
112.74
20
-71.3788
11
112.56
21
-71.2989
0
LINE
8
BLACK
6
CONTINUOUS
10
112.56
20
-71.2989
11
112.401
21
-71.1834
0
LINE
8
BLACK
6
CONTINUOUS
10
112.401
20
-71.1834
11
112.27
21
-71.0374
0
LINE
8
BLACK
6
CONTINUOUS
10
112.27
20
-71.0374
11
112.171
21
-70.8673
0
LINE
8
BLACK
6
CONTINUOUS
10
112.171
20
-70.8673
11
112.111
21
-70.6804
0
LINE
8
BLACK
6
CONTINUOUS
10
112.111
20
-70.6804
11
112.09
21
-70.485
0
LINE
8
BLACK
6
CONTINUOUS
10
112.09
20
-70.485
11
112.111
21
-70.2896
0
LINE
8
BLACK
6
CONTINUOUS
10
112.111
20
-70.2896
11
112.171
21
-70.1027
0
LINE
8
BLACK
6
CONTINUOUS
10
112.171
20
-70.1027
11
112.27
21
-69.9326
0
LINE
8
BLACK
6
CONTINUOUS
10
112.27
20
-69.9326
11
112.401
21
-69.7866
0
LINE
8
BLACK
6
CONTINUOUS
10
112.401
20
-69.7866
11
112.56
21
-69.6711
0
LINE
8
BLACK
6
CONTINUOUS
10
112.56
20
-69.6711
11
112.74
21
-69.5912
0
LINE
8
BLACK
6
CONTINUOUS
10
112.74
20
-69.5912
11
112.932
21
-69.5503
0
LINE
8
BLACK
6
CONTINUOUS
10
112.932
20
-69.5503
11
113.128
21
-69.5503
0
LINE
8
BLACK
6
CONTINUOUS
10
113.128
20
-69.5503
11
113.32
21
-69.5912
0
LINE
8
BLACK
6
CONTINUOUS
10
115.86
20
-69.5912
11
116.04
21
-69.6711
0
LINE
8
BLACK
6
CONTINUOUS
10
116.04
20
-69.6711
11
116.199
21
-69.7866
0
LINE
8
BLACK
6
CONTINUOUS
10
116.199
20
-69.7866
11
116.33
21
-69.9326
0
LINE
8
BLACK
6
CONTINUOUS
10
116.33
20
-69.9326
11
116.429
21
-70.1027
0
LINE
8
BLACK
6
CONTINUOUS
10
116.429
20
-70.1027
11
116.489
21
-70.2896
0
LINE
8
BLACK
6
CONTINUOUS
10
116.489
20
-70.2896
11
116.51
21
-70.485
0
LINE
8
BLACK
6
CONTINUOUS
10
116.51
20
-70.485
11
116.489
21
-70.6804
0
LINE
8
BLACK
6
CONTINUOUS
10
116.489
20
-70.6804
11
116.429
21
-70.8673
0
LINE
8
BLACK
6
CONTINUOUS
10
116.429
20
-70.8673
11
116.33
21
-71.0374
0
LINE
8
BLACK
6
CONTINUOUS
10
116.33
20
-71.0374
11
116.199
21
-71.1834
0
LINE
8
BLACK
6
CONTINUOUS
10
116.199
20
-71.1834
11
116.04
21
-71.2989
0
LINE
8
BLACK
6
CONTINUOUS
10
116.04
20
-71.2989
11
115.86
21
-71.3788
0
LINE
8
BLACK
6
CONTINUOUS
10
115.86
20
-71.3788
11
115.668
21
-71.4197
0
LINE
8
BLACK
6
CONTINUOUS
10
115.668
20
-71.4197
11
115.472
21
-71.4197
0
LINE
8
BLACK
6
CONTINUOUS
10
115.472
20
-71.4197
11
115.28
21
-71.3788
0
LINE
8
BLACK
6
CONTINUOUS
10
115.28
20
-71.3788
11
115.1
21
-71.2989
0
LINE
8
BLACK
6
CONTINUOUS
10
115.1
20
-71.2989
11
114.941
21
-71.1834
0
LINE
8
BLACK
6
CONTINUOUS
10
114.941
20
-71.1834
11
114.81
21
-71.0374
0
LINE
8
BLACK
6
CONTINUOUS
10
114.81
20
-71.0374
11
114.711
21
-70.8673
0
LINE
8
BLACK
6
CONTINUOUS
10
114.711
20
-70.8673
11
114.651
21
-70.6804
0
LINE
8
BLACK
6
CONTINUOUS
10
114.651
20
-70.6804
11
114.63
21
-70.485
0
LINE
8
BLACK
6
CONTINUOUS
10
114.63
20
-70.485
11
114.651
21
-70.2896
0
LINE
8
BLACK
6
CONTINUOUS
10
114.651
20
-70.2896
11
114.711
21
-70.1027
0
LINE
8
BLACK
6
CONTINUOUS
10
114.711
20
-70.1027
11
114.81
21
-69.9326
0
LINE
8
BLACK
6
CONTINUOUS
10
114.81
20
-69.9326
11
114.941
21
-69.7866
0
LINE
8
BLACK
6
CONTINUOUS
10
114.941
20
-69.7866
11
115.1
21
-69.6711
0
LINE
8
BLACK
6
CONTINUOUS
10
115.1
20
-69.6711
11
115.28
21
-69.5912
0
LINE
8
BLACK
6
CONTINUOUS
10
115.28
20
-69.5912
11
115.472
21
-69.5503
0
LINE
8
BLACK
6
CONTINUOUS
10
115.472
20
-69.5503
11
115.668
21
-69.5503
0
LINE
8
BLACK
6
CONTINUOUS
10
115.668
20
-69.5503
11
115.86
21
-69.5912
0
LINE
8
BLACK
6
CONTINUOUS
10
118.4
20
-69.5912
11
118.58
21
-69.6711
0
LINE
8
BLACK
6
CONTINUOUS
10
118.58
20
-69.6711
11
118.739
21
-69.7866
0
LINE
8
BLACK
6
CONTINUOUS
10
118.739
20
-69.7866
11
118.87
21
-69.9326
0
LINE
8
BLACK
6
CONTINUOUS
10
118.87
20
-69.9326
11
118.969
21
-70.1027
0
LINE
8
BLACK
6
CONTINUOUS
10
118.969
20
-70.1027
11
119.029
21
-70.2896
0
LINE
8
BLACK
6
CONTINUOUS
10
119.029
20
-70.2896
11
119.05
21
-70.485
0
LINE
8
BLACK
6
CONTINUOUS
10
119.05
20
-70.485
11
119.029
21
-70.6804
0
LINE
8
BLACK
6
CONTINUOUS
10
119.029
20
-70.6804
11
118.969
21
-70.8673
0
LINE
8
BLACK
6
CONTINUOUS
10
118.969
20
-70.8673
11
118.87
21
-71.0374
0
LINE
8
BLACK
6
CONTINUOUS
10
118.87
20
-71.0374
11
118.739
21
-71.1834
0
LINE
8
BLACK
6
CONTINUOUS
10
118.739
20
-71.1834
11
118.58
21
-71.2989
0
LINE
8
BLACK
6
CONTINUOUS
10
118.58
20
-71.2989
11
118.4
21
-71.3788
0
LINE
8
BLACK
6
CONTINUOUS
10
118.4
20
-71.3788
11
118.208
21
-71.4197
0
LINE
8
BLACK
6
CONTINUOUS
10
118.208
20
-71.4197
11
118.012
21
-71.4197
0
LINE
8
BLACK
6
CONTINUOUS
10
118.012
20
-71.4197
11
117.82
21
-71.3788
0
LINE
8
BLACK
6
CONTINUOUS
10
117.82
20
-71.3788
11
117.64
21
-71.2989
0
LINE
8
BLACK
6
CONTINUOUS
10
117.64
20
-71.2989
11
117.481
21
-71.1834
0
LINE
8
BLACK
6
CONTINUOUS
10
117.481
20
-71.1834
11
117.35
21
-71.0374
0
LINE
8
BLACK
6
CONTINUOUS
10
117.35
20
-71.0374
11
117.251
21
-70.8673
0
LINE
8
BLACK
6
CONTINUOUS
10
117.251
20
-70.8673
11
117.191
21
-70.6804
0
LINE
8
BLACK
6
CONTINUOUS
10
117.191
20
-70.6804
11
117.17
21
-70.485
0
LINE
8
BLACK
6
CONTINUOUS
10
117.17
20
-70.485
11
117.191
21
-70.2896
0
LINE
8
BLACK
6
CONTINUOUS
10
117.191
20
-70.2896
11
117.251
21
-70.1027
0
LINE
8
BLACK
6
CONTINUOUS
10
117.251
20
-70.1027
11
117.35
21
-69.9326
0
LINE
8
BLACK
6
CONTINUOUS
10
117.35
20
-69.9326
11
117.481
21
-69.7866
0
LINE
8
BLACK
6
CONTINUOUS
10
117.481
20
-69.7866
11
117.64
21
-69.6711
0
LINE
8
BLACK
6
CONTINUOUS
10
117.64
20
-69.6711
11
117.82
21
-69.5912
0
LINE
8
BLACK
6
CONTINUOUS
10
117.82
20
-69.5912
11
118.012
21
-69.5503
0
LINE
8
BLACK
6
CONTINUOUS
10
118.012
20
-69.5503
11
118.208
21
-69.5503
0
LINE
8
BLACK
6
CONTINUOUS
10
118.208
20
-69.5503
11
118.4
21
-69.5912
0
LINE
8
BLACK
6
CONTINUOUS
10
120.94
20
-69.5912
11
121.12
21
-69.6711
0
LINE
8
BLACK
6
CONTINUOUS
10
121.12
20
-69.6711
11
121.279
21
-69.7866
0
LINE
8
BLACK
6
CONTINUOUS
10
121.279
20
-69.7866
11
121.41
21
-69.9326
0
LINE
8
BLACK
6
CONTINUOUS
10
121.41
20
-69.9326
11
121.509
21
-70.1027
0
LINE
8
BLACK
6
CONTINUOUS
10
121.509
20
-70.1027
11
121.569
21
-70.2896
0
LINE
8
BLACK
6
CONTINUOUS
10
121.569
20
-70.2896
11
121.59
21
-70.485
0
LINE
8
BLACK
6
CONTINUOUS
10
121.59
20
-70.485
11
121.569
21
-70.6804
0
LINE
8
BLACK
6
CONTINUOUS
10
121.569
20
-70.6804
11
121.509
21
-70.8673
0
LINE
8
BLACK
6
CONTINUOUS
10
121.509
20
-70.8673
11
121.41
21
-71.0374
0
LINE
8
BLACK
6
CONTINUOUS
10
121.41
20
-71.0374
11
121.279
21
-71.1834
0
LINE
8
BLACK
6
CONTINUOUS
10
121.279
20
-71.1834
11
121.12
21
-71.2989
0
LINE
8
BLACK
6
CONTINUOUS
10
121.12
20
-71.2989
11
120.94
21
-71.3788
0
LINE
8
BLACK
6
CONTINUOUS
10
120.94
20
-71.3788
11
120.748
21
-71.4197
0
LINE
8
BLACK
6
CONTINUOUS
10
120.748
20
-71.4197
11
120.552
21
-71.4197
0
LINE
8
BLACK
6
CONTINUOUS
10
120.552
20
-71.4197
11
120.36
21
-71.3788
0
LINE
8
BLACK
6
CONTINUOUS
10
120.36
20
-71.3788
11
120.18
21
-71.2989
0
LINE
8
BLACK
6
CONTINUOUS
10
120.18
20
-71.2989
11
120.021
21
-71.1834
0
LINE
8
BLACK
6
CONTINUOUS
10
120.021
20
-71.1834
11
119.89
21
-71.0374
0
LINE
8
BLACK
6
CONTINUOUS
10
119.89
20
-71.0374
11
119.791
21
-70.8673
0
LINE
8
BLACK
6
CONTINUOUS
10
119.791
20
-70.8673
11
119.731
21
-70.6804
0
LINE
8
BLACK
6
CONTINUOUS
10
119.731
20
-70.6804
11
119.71
21
-70.485
0
LINE
8
BLACK
6
CONTINUOUS
10
119.71
20
-70.485
11
119.731
21
-70.2896
0
LINE
8
BLACK
6
CONTINUOUS
10
119.731
20
-70.2896
11
119.791
21
-70.1027
0
LINE
8
BLACK
6
CONTINUOUS
10
119.791
20
-70.1027
11
119.89
21
-69.9326
0
LINE
8
BLACK
6
CONTINUOUS
10
119.89
20
-69.9326
11
120.021
21
-69.7866
0
LINE
8
BLACK
6
CONTINUOUS
10
120.021
20
-69.7866
11
120.18
21
-69.6711
0
LINE
8
BLACK
6
CONTINUOUS
10
120.18
20
-69.6711
11
120.36
21
-69.5912
0
LINE
8
BLACK
6
CONTINUOUS
10
120.36
20
-69.5912
11
120.552
21
-69.5503
0
LINE
8
BLACK
6
CONTINUOUS
10
120.552
20
-69.5503
11
120.748
21
-69.5503
0
LINE
8
BLACK
6
CONTINUOUS
10
120.748
20
-69.5503
11
120.94
21
-69.5912
0
LINE
8
BLACK
6
CONTINUOUS
10
123.48
20
-69.5912
11
123.66
21
-69.6711
0
LINE
8
BLACK
6
CONTINUOUS
10
123.66
20
-69.6711
11
123.819
21
-69.7866
0
LINE
8
BLACK
6
CONTINUOUS
10
123.819
20
-69.7866
11
123.95
21
-69.9326
0
LINE
8
BLACK
6
CONTINUOUS
10
123.95
20
-69.9326
11
124.049
21
-70.1027
0
LINE
8
BLACK
6
CONTINUOUS
10
124.049
20
-70.1027
11
124.109
21
-70.2896
0
LINE
8
BLACK
6
CONTINUOUS
10
124.109
20
-70.2896
11
124.13
21
-70.485
0
LINE
8
BLACK
6
CONTINUOUS
10
124.13
20
-70.485
11
124.109
21
-70.6804
0
LINE
8
BLACK
6
CONTINUOUS
10
124.109
20
-70.6804
11
124.049
21
-70.8673
0
LINE
8
BLACK
6
CONTINUOUS
10
124.049
20
-70.8673
11
123.95
21
-71.0374
0
LINE
8
BLACK
6
CONTINUOUS
10
123.95
20
-71.0374
11
123.819
21
-71.1834
0
LINE
8
BLACK
6
CONTINUOUS
10
123.819
20
-71.1834
11
123.66
21
-71.2989
0
LINE
8
BLACK
6
CONTINUOUS
10
123.66
20
-71.2989
11
123.48
21
-71.3788
0
LINE
8
BLACK
6
CONTINUOUS
10
123.48
20
-71.3788
11
123.288
21
-71.4197
0
LINE
8
BLACK
6
CONTINUOUS
10
123.288
20
-71.4197
11
123.092
21
-71.4197
0
LINE
8
BLACK
6
CONTINUOUS
10
123.092
20
-71.4197
11
122.9
21
-71.3788
0
LINE
8
BLACK
6
CONTINUOUS
10
122.9
20
-71.3788
11
122.72
21
-71.2989
0
LINE
8
BLACK
6
CONTINUOUS
10
122.72
20
-71.2989
11
122.561
21
-71.1834
0
LINE
8
BLACK
6
CONTINUOUS
10
122.561
20
-71.1834
11
122.43
21
-71.0374
0
LINE
8
BLACK
6
CONTINUOUS
10
122.43
20
-71.0374
11
122.331
21
-70.8673
0
LINE
8
BLACK
6
CONTINUOUS
10
122.331
20
-70.8673
11
122.271
21
-70.6804
0
LINE
8
BLACK
6
CONTINUOUS
10
122.271
20
-70.6804
11
122.25
21
-70.485
0
LINE
8
BLACK
6
CONTINUOUS
10
122.25
20
-70.485
11
122.271
21
-70.2896
0
LINE
8
BLACK
6
CONTINUOUS
10
122.271
20
-70.2896
11
122.331
21
-70.1027
0
LINE
8
BLACK
6
CONTINUOUS
10
122.331
20
-70.1027
11
122.43
21
-69.9326
0
LINE
8
BLACK
6
CONTINUOUS
10
122.43
20
-69.9326
11
122.561
21
-69.7866
0
LINE
8
BLACK
6
CONTINUOUS
10
122.561
20
-69.7866
11
122.72
21
-69.6711
0
LINE
8
BLACK
6
CONTINUOUS
10
122.72
20
-69.6711
11
122.9
21
-69.5912
0
LINE
8
BLACK
6
CONTINUOUS
10
122.9
20
-69.5912
11
123.092
21
-69.5503
0
LINE
8
BLACK
6
CONTINUOUS
10
123.092
20
-69.5503
11
123.288
21
-69.5503
0
LINE
8
BLACK
6
CONTINUOUS
10
123.288
20
-69.5503
11
123.48
21
-69.5912
0
LINE
8
BLACK
6
CONTINUOUS
10
126.02
20
-69.5912
11
126.2
21
-69.6711
0
LINE
8
BLACK
6
CONTINUOUS
10
126.2
20
-69.6711
11
126.359
21
-69.7866
0
LINE
8
BLACK
6
CONTINUOUS
10
126.359
20
-69.7866
11
126.49
21
-69.9326
0
LINE
8
BLACK
6
CONTINUOUS
10
126.49
20
-69.9326
11
126.589
21
-70.1027
0
LINE
8
BLACK
6
CONTINUOUS
10
126.589
20
-70.1027
11
126.649
21
-70.2896
0
LINE
8
BLACK
6
CONTINUOUS
10
126.649
20
-70.2896
11
126.67
21
-70.485
0
LINE
8
BLACK
6
CONTINUOUS
10
126.67
20
-70.485
11
126.649
21
-70.6804
0
LINE
8
BLACK
6
CONTINUOUS
10
126.649
20
-70.6804
11
126.589
21
-70.8673
0
LINE
8
BLACK
6
CONTINUOUS
10
126.589
20
-70.8673
11
126.49
21
-71.0374
0
LINE
8
BLACK
6
CONTINUOUS
10
126.49
20
-71.0374
11
126.359
21
-71.1834
0
LINE
8
BLACK
6
CONTINUOUS
10
126.359
20
-71.1834
11
126.2
21
-71.2989
0
LINE
8
BLACK
6
CONTINUOUS
10
126.2
20
-71.2989
11
126.02
21
-71.3788
0
LINE
8
BLACK
6
CONTINUOUS
10
126.02
20
-71.3788
11
125.828
21
-71.4197
0
LINE
8
BLACK
6
CONTINUOUS
10
125.828
20
-71.4197
11
125.632
21
-71.4197
0
LINE
8
BLACK
6
CONTINUOUS
10
125.632
20
-71.4197
11
125.44
21
-71.3788
0
LINE
8
BLACK
6
CONTINUOUS
10
125.44
20
-71.3788
11
125.26
21
-71.2989
0
LINE
8
BLACK
6
CONTINUOUS
10
125.26
20
-71.2989
11
125.101
21
-71.1834
0
LINE
8
BLACK
6
CONTINUOUS
10
125.101
20
-71.1834
11
124.97
21
-71.0374
0
LINE
8
BLACK
6
CONTINUOUS
10
124.97
20
-71.0374
11
124.871
21
-70.8673
0
LINE
8
BLACK
6
CONTINUOUS
10
124.871
20
-70.8673
11
124.811
21
-70.6804
0
LINE
8
BLACK
6
CONTINUOUS
10
124.811
20
-70.6804
11
124.79
21
-70.485
0
LINE
8
BLACK
6
CONTINUOUS
10
124.79
20
-70.485
11
124.811
21
-70.2896
0
LINE
8
BLACK
6
CONTINUOUS
10
124.811
20
-70.2896
11
124.871
21
-70.1027
0
LINE
8
BLACK
6
CONTINUOUS
10
124.871
20
-70.1027
11
124.97
21
-69.9326
0
LINE
8
BLACK
6
CONTINUOUS
10
124.97
20
-69.9326
11
125.101
21
-69.7866
0
LINE
8
BLACK
6
CONTINUOUS
10
125.101
20
-69.7866
11
125.26
21
-69.6711
0
LINE
8
BLACK
6
CONTINUOUS
10
125.26
20
-69.6711
11
125.44
21
-69.5912
0
LINE
8
BLACK
6
CONTINUOUS
10
125.44
20
-69.5912
11
125.632
21
-69.5503
0
LINE
8
BLACK
6
CONTINUOUS
10
125.632
20
-69.5503
11
125.828
21
-69.5503
0
LINE
8
BLACK
6
CONTINUOUS
10
125.828
20
-69.5503
11
126.02
21
-69.5912
0
LINE
8
BLACK
6
CONTINUOUS
10
128.56
20
-69.5912
11
128.74
21
-69.6711
0
LINE
8
BLACK
6
CONTINUOUS
10
128.74
20
-69.6711
11
128.899
21
-69.7866
0
LINE
8
BLACK
6
CONTINUOUS
10
128.899
20
-69.7866
11
129.03
21
-69.9326
0
LINE
8
BLACK
6
CONTINUOUS
10
129.03
20
-69.9326
11
129.129
21
-70.1027
0
LINE
8
BLACK
6
CONTINUOUS
10
129.129
20
-70.1027
11
129.189
21
-70.2896
0
LINE
8
BLACK
6
CONTINUOUS
10
129.189
20
-70.2896
11
129.21
21
-70.485
0
LINE
8
BLACK
6
CONTINUOUS
10
129.21
20
-70.485
11
129.189
21
-70.6804
0
LINE
8
BLACK
6
CONTINUOUS
10
129.189
20
-70.6804
11
129.129
21
-70.8673
0
LINE
8
BLACK
6
CONTINUOUS
10
129.129
20
-70.8673
11
129.03
21
-71.0374
0
LINE
8
BLACK
6
CONTINUOUS
10
129.03
20
-71.0374
11
128.899
21
-71.1834
0
LINE
8
BLACK
6
CONTINUOUS
10
128.899
20
-71.1834
11
128.74
21
-71.2989
0
LINE
8
BLACK
6
CONTINUOUS
10
128.74
20
-71.2989
11
128.56
21
-71.3788
0
LINE
8
BLACK
6
CONTINUOUS
10
128.56
20
-71.3788
11
128.368
21
-71.4197
0
LINE
8
BLACK
6
CONTINUOUS
10
128.368
20
-71.4197
11
128.172
21
-71.4197
0
LINE
8
BLACK
6
CONTINUOUS
10
128.172
20
-71.4197
11
127.98
21
-71.3788
0
LINE
8
BLACK
6
CONTINUOUS
10
127.98
20
-71.3788
11
127.8
21
-71.2989
0
LINE
8
BLACK
6
CONTINUOUS
10
127.8
20
-71.2989
11
127.703
21
-71.2285
0
LINE
8
BLACK
6
CONTINUOUS
10
127.703
20
-71.2285
11
124.548
21
-74.3834
0
LINE
8
BLACK
6
CONTINUOUS
10
124.548
20
-74.3834
11
124.531
21
-74.3968
0
LINE
8
BLACK
6
CONTINUOUS
10
124.531
20
-74.3968
11
124.528
21
-74.4002
0
LINE
8
BLACK
6
CONTINUOUS
10
124.528
20
-74.4002
11
124.525
21
-74.4009
0
LINE
8
BLACK
6
CONTINUOUS
10
124.525
20
-74.4009
11
124.52
21
-74.4047
0
LINE
8
BLACK
6
CONTINUOUS
10
124.52
20
-74.4047
11
124.49
21
-74.4113
0
LINE
8
BLACK
6
CONTINUOUS
10
124.49
20
-74.4113
11
124.46
21
-74.42
0
LINE
8
BLACK
6
CONTINUOUS
10
124.46
20
-74.42
11
118.797
21
-74.42
0
LINE
8
BLACK
6
CONTINUOUS
10
118.797
20
-74.42
11
117.193
21
-76.0234
0
LINE
8
BLACK
6
CONTINUOUS
10
117.193
20
-76.0234
11
117.22
21
-76.0764
0
LINE
8
BLACK
6
CONTINUOUS
10
117.22
20
-76.0764
11
117.24
21
-76.2
0
LINE
8
BLACK
6
CONTINUOUS
10
117.24
20
-76.2
11
117.22
21
-76.3236
0
LINE
8
BLACK
6
CONTINUOUS
10
117.22
20
-76.3236
11
117.164
21
-76.4351
0
LINE
8
BLACK
6
CONTINUOUS
10
117.164
20
-76.4351
11
117.075
21
-76.5236
0
LINE
8
BLACK
6
CONTINUOUS
10
117.075
20
-76.5236
11
116.964
21
-76.5804
0
LINE
8
BLACK
6
CONTINUOUS
10
116.964
20
-76.5804
11
116.84
21
-76.6
0
LINE
8
BLACK
6
CONTINUOUS
10
116.84
20
-76.6
11
116.716
21
-76.5804
0
LINE
8
BLACK
6
CONTINUOUS
10
116.716
20
-76.5804
11
116.605
21
-76.5236
0
LINE
8
BLACK
6
CONTINUOUS
10
116.605
20
-76.5236
11
116.516
21
-76.4351
0
LINE
8
BLACK
6
CONTINUOUS
10
116.516
20
-76.4351
11
116.46
21
-76.3236
0
LINE
8
BLACK
6
CONTINUOUS
10
116.46
20
-76.3236
11
116.44
21
-76.2
0
LINE
8
BLACK
6
CONTINUOUS
10
116.44
20
-76.2
11
116.46
21
-76.0764
0
LINE
8
BLACK
6
CONTINUOUS
10
116.46
20
-76.0764
11
116.516
21
-75.9649
0
LINE
8
BLACK
6
CONTINUOUS
10
116.516
20
-75.9649
11
116.605
21
-75.8764
0
LINE
8
BLACK
6
CONTINUOUS
10
116.605
20
-75.8764
11
116.716
21
-75.8196
0
LINE
8
BLACK
6
CONTINUOUS
10
116.716
20
-75.8196
11
116.84
21
-75.8
0
LINE
8
BLACK
6
CONTINUOUS
10
116.84
20
-75.8
11
116.964
21
-75.8196
0
LINE
8
BLACK
6
CONTINUOUS
10
116.964
20
-75.8196
11
117.017
21
-75.8466
0
LINE
8
BLACK
6
CONTINUOUS
10
117.017
20
-75.8466
11
118.657
21
-74.2066
0
LINE
8
BLACK
6
CONTINUOUS
10
118.657
20
-74.2066
11
118.674
21
-74.1932
0
LINE
8
BLACK
6
CONTINUOUS
10
118.674
20
-74.1932
11
118.677
21
-74.1898
0
LINE
8
BLACK
6
CONTINUOUS
10
118.677
20
-74.1898
11
118.68
21
-74.1891
0
LINE
8
BLACK
6
CONTINUOUS
10
118.68
20
-74.1891
11
118.685
21
-74.1853
0
LINE
8
BLACK
6
CONTINUOUS
10
118.685
20
-74.1853
11
118.715
21
-74.1787
0
LINE
8
BLACK
6
CONTINUOUS
10
118.715
20
-74.1787
11
118.745
21
-74.17
0
LINE
8
BLACK
6
CONTINUOUS
10
118.745
20
-74.17
11
124.408
21
-74.17
0
LINE
8
BLACK
6
CONTINUOUS
10
124.408
20
-74.17
11
127.524
21
-71.0538
0
LINE
8
BLACK
6
CONTINUOUS
10
127.524
20
-71.0538
11
127.51
21
-71.0374
0
LINE
8
BLACK
6
CONTINUOUS
10
127.51
20
-71.0374
11
127.411
21
-70.8673
0
LINE
8
BLACK
6
CONTINUOUS
10
127.411
20
-70.8673
11
127.351
21
-70.6804
0
LINE
8
BLACK
6
CONTINUOUS
10
127.351
20
-70.6804
11
127.33
21
-70.485
0
LINE
8
BLACK
6
CONTINUOUS
10
127.33
20
-70.485
11
127.351
21
-70.2896
0
LINE
8
BLACK
6
CONTINUOUS
10
127.351
20
-70.2896
11
127.411
21
-70.1027
0
LINE
8
BLACK
6
CONTINUOUS
10
127.411
20
-70.1027
11
127.51
21
-69.9326
0
LINE
8
BLACK
6
CONTINUOUS
10
127.51
20
-69.9326
11
127.641
21
-69.7866
0
LINE
8
BLACK
6
CONTINUOUS
10
127.641
20
-69.7866
11
127.8
21
-69.6711
0
LINE
8
BLACK
6
CONTINUOUS
10
127.8
20
-69.6711
11
127.98
21
-69.5912
0
LINE
8
BLACK
6
CONTINUOUS
10
127.98
20
-69.5912
11
128.172
21
-69.5503
0
LINE
8
BLACK
6
CONTINUOUS
10
128.172
20
-69.5503
11
128.368
21
-69.5503
0
LINE
8
BLACK
6
CONTINUOUS
10
128.368
20
-69.5503
11
128.56
21
-69.5912
0
LINE
8
BLACK
6
CONTINUOUS
10
118.869
20
-75.1846
11
118.98
21
-75.2414
0
LINE
8
BLACK
6
CONTINUOUS
10
118.98
20
-75.2414
11
119.069
21
-75.3299
0
LINE
8
BLACK
6
CONTINUOUS
10
119.069
20
-75.3299
11
119.125
21
-75.4414
0
LINE
8
BLACK
6
CONTINUOUS
10
119.125
20
-75.4414
11
119.145
21
-75.565
0
LINE
8
BLACK
6
CONTINUOUS
10
119.145
20
-75.565
11
119.125
21
-75.6886
0
LINE
8
BLACK
6
CONTINUOUS
10
119.125
20
-75.6886
11
119.069
21
-75.8001
0
LINE
8
BLACK
6
CONTINUOUS
10
119.069
20
-75.8001
11
118.98
21
-75.8886
0
LINE
8
BLACK
6
CONTINUOUS
10
118.98
20
-75.8886
11
118.869
21
-75.9454
0
LINE
8
BLACK
6
CONTINUOUS
10
118.869
20
-75.9454
11
118.745
21
-75.965
0
LINE
8
BLACK
6
CONTINUOUS
10
118.745
20
-75.965
11
118.621
21
-75.9454
0
LINE
8
BLACK
6
CONTINUOUS
10
118.621
20
-75.9454
11
118.523
21
-75.8952
0
LINE
8
BLACK
6
CONTINUOUS
10
118.523
20
-75.8952
11
114.565
21
-79.8532
0
LINE
8
BLACK
6
CONTINUOUS
10
114.565
20
-79.8532
11
114.565
21
-80.91
0
LINE
8
BLACK
6
CONTINUOUS
10
114.565
20
-80.91
11
112.765
21
-80.91
0
LINE
8
BLACK
6
CONTINUOUS
10
112.765
20
-80.91
11
112.765
21
-79.11
0
LINE
8
BLACK
6
CONTINUOUS
10
112.765
20
-79.11
11
114.565
21
-79.11
0
LINE
8
BLACK
6
CONTINUOUS
10
114.565
20
-79.11
11
114.565
21
-79.1461
0
LINE
8
BLACK
6
CONTINUOUS
10
114.565
20
-79.1461
11
118.323
21
-75.3882
0
LINE
8
BLACK
6
CONTINUOUS
10
118.323
20
-75.3882
11
118.404
21
-75.334
0
LINE
8
BLACK
6
CONTINUOUS
10
118.404
20
-75.334
11
118.421
21
-75.3306
0
LINE
8
BLACK
6
CONTINUOUS
10
118.421
20
-75.3306
11
118.421
21
-75.3299
0
LINE
8
BLACK
6
CONTINUOUS
10
118.421
20
-75.3299
11
118.51
21
-75.2414
0
LINE
8
BLACK
6
CONTINUOUS
10
118.51
20
-75.2414
11
118.621
21
-75.1846
0
LINE
8
BLACK
6
CONTINUOUS
10
118.621
20
-75.1846
11
118.745
21
-75.165
0
LINE
8
BLACK
6
CONTINUOUS
10
118.745
20
-75.165
11
118.869
21
-75.1846
0
LINE
8
BLACK
6
CONTINUOUS
10
136.566
20
-77.0896
11
136.678
21
-77.1464
0
LINE
8
BLACK
6
CONTINUOUS
10
136.678
20
-77.1464
11
136.766
21
-77.2349
0
LINE
8
BLACK
6
CONTINUOUS
10
136.766
20
-77.2349
11
136.823
21
-77.3464
0
LINE
8
BLACK
6
CONTINUOUS
10
136.823
20
-77.3464
11
136.843
21
-77.47
0
LINE
8
BLACK
6
CONTINUOUS
10
136.843
20
-77.47
11
136.823
21
-77.5936
0
LINE
8
BLACK
6
CONTINUOUS
10
136.823
20
-77.5936
11
136.796
21
-77.6466
0
LINE
8
BLACK
6
CONTINUOUS
10
136.796
20
-77.6466
11
137.883
21
-78.7341
0
LINE
8
BLACK
6
CONTINUOUS
10
137.883
20
-78.7341
11
137.897
21
-78.752
0
LINE
8
BLACK
6
CONTINUOUS
10
137.897
20
-78.752
11
137.9
21
-78.7549
0
LINE
8
BLACK
6
CONTINUOUS
10
137.9
20
-78.7549
11
137.901
21
-78.7575
0
LINE
8
BLACK
6
CONTINUOUS
10
137.901
20
-78.7575
11
137.905
21
-78.7626
0
LINE
8
BLACK
6
CONTINUOUS
10
137.905
20
-78.7626
11
137.911
21
-78.7928
0
LINE
8
BLACK
6
CONTINUOUS
10
137.911
20
-78.7928
11
137.92
21
-78.8225
0
LINE
8
BLACK
6
CONTINUOUS
10
137.92
20
-78.8225
11
137.92
21
-82.2232
0
LINE
8
BLACK
6
CONTINUOUS
10
137.92
20
-82.2232
11
139.09
21
-83.3932
0
LINE
8
BLACK
6
CONTINUOUS
10
139.09
20
-83.3932
11
139.144
21
-83.3485
0
LINE
8
BLACK
6
CONTINUOUS
10
139.144
20
-83.3485
11
139.317
21
-83.2561
0
LINE
8
BLACK
6
CONTINUOUS
10
139.317
20
-83.2561
11
139.505
21
-83.1992
0
LINE
8
BLACK
6
CONTINUOUS
10
139.505
20
-83.1992
11
139.7
21
-83.18
0
LINE
8
BLACK
6
CONTINUOUS
10
139.7
20
-83.18
11
139.895
21
-83.1992
0
LINE
8
BLACK
6
CONTINUOUS
10
139.895
20
-83.1992
11
140.083
21
-83.2561
0
LINE
8
BLACK
6
CONTINUOUS
10
140.083
20
-83.2561
11
140.256
21
-83.3485
0
LINE
8
BLACK
6
CONTINUOUS
10
140.256
20
-83.3485
11
140.407
21
-83.4729
0
LINE
8
BLACK
6
CONTINUOUS
10
140.407
20
-83.4729
11
140.531
21
-83.6244
0
LINE
8
BLACK
6
CONTINUOUS
10
140.531
20
-83.6244
11
140.624
21
-83.7973
0
LINE
8
BLACK
6
CONTINUOUS
10
140.624
20
-83.7973
11
140.681
21
-83.9849
0
LINE
8
BLACK
6
CONTINUOUS
10
140.681
20
-83.9849
11
140.7
21
-84.18
0
LINE
8
BLACK
6
CONTINUOUS
10
140.7
20
-84.18
11
140.681
21
-84.3751
0
LINE
8
BLACK
6
CONTINUOUS
10
140.681
20
-84.3751
11
140.624
21
-84.5627
0
LINE
8
BLACK
6
CONTINUOUS
10
140.624
20
-84.5627
11
140.531
21
-84.7356
0
LINE
8
BLACK
6
CONTINUOUS
10
140.531
20
-84.7356
11
140.407
21
-84.8871
0
LINE
8
BLACK
6
CONTINUOUS
10
140.407
20
-84.8871
11
140.256
21
-85.0115
0
LINE
8
BLACK
6
CONTINUOUS
10
140.256
20
-85.0115
11
140.083
21
-85.1039
0
LINE
8
BLACK
6
CONTINUOUS
10
140.083
20
-85.1039
11
139.895
21
-85.1608
0
LINE
8
BLACK
6
CONTINUOUS
10
139.895
20
-85.1608
11
139.7
21
-85.18
0
LINE
8
BLACK
6
CONTINUOUS
10
139.7
20
-85.18
11
139.505
21
-85.1608
0
LINE
8
BLACK
6
CONTINUOUS
10
139.505
20
-85.1608
11
139.317
21
-85.1039
0
LINE
8
BLACK
6
CONTINUOUS
10
139.317
20
-85.1039
11
139.144
21
-85.0115
0
LINE
8
BLACK
6
CONTINUOUS
10
139.144
20
-85.0115
11
138.993
21
-84.8871
0
LINE
8
BLACK
6
CONTINUOUS
10
138.993
20
-84.8871
11
138.869
21
-84.7356
0
LINE
8
BLACK
6
CONTINUOUS
10
138.869
20
-84.7356
11
138.776
21
-84.5627
0
LINE
8
BLACK
6
CONTINUOUS
10
138.776
20
-84.5627
11
138.719
21
-84.3751
0
LINE
8
BLACK
6
CONTINUOUS
10
138.719
20
-84.3751
11
138.7
21
-84.18
0
LINE
8
BLACK
6
CONTINUOUS
10
138.7
20
-84.18
11
138.719
21
-83.9849
0
LINE
8
BLACK
6
CONTINUOUS
10
138.719
20
-83.9849
11
138.776
21
-83.7973
0
LINE
8
BLACK
6
CONTINUOUS
10
138.776
20
-83.7973
11
138.869
21
-83.6244
0
LINE
8
BLACK
6
CONTINUOUS
10
138.869
20
-83.6244
11
138.913
21
-83.57
0
LINE
8
BLACK
6
CONTINUOUS
10
138.913
20
-83.57
11
137.707
21
-82.3634
0
LINE
8
BLACK
6
CONTINUOUS
10
137.707
20
-82.3634
11
137.693
21
-82.3455
0
LINE
8
BLACK
6
CONTINUOUS
10
137.693
20
-82.3455
11
137.69
21
-82.3426
0
LINE
8
BLACK
6
CONTINUOUS
10
137.69
20
-82.3426
11
137.689
21
-82.34
0
LINE
8
BLACK
6
CONTINUOUS
10
137.689
20
-82.34
11
137.685
21
-82.3349
0
LINE
8
BLACK
6
CONTINUOUS
10
137.685
20
-82.3349
11
137.679
21
-82.3047
0
LINE
8
BLACK
6
CONTINUOUS
10
137.679
20
-82.3047
11
137.67
21
-82.275
0
LINE
8
BLACK
6
CONTINUOUS
10
137.67
20
-82.275
11
137.67
21
-78.8743
0
LINE
8
BLACK
6
CONTINUOUS
10
137.67
20
-78.8743
11
136.619
21
-77.8234
0
LINE
8
BLACK
6
CONTINUOUS
10
136.619
20
-77.8234
11
136.566
21
-77.8504
0
LINE
8
BLACK
6
CONTINUOUS
10
136.566
20
-77.8504
11
136.443
21
-77.87
0
LINE
8
BLACK
6
CONTINUOUS
10
136.443
20
-77.87
11
136.319
21
-77.8504
0
LINE
8
BLACK
6
CONTINUOUS
10
136.319
20
-77.8504
11
136.207
21
-77.7936
0
LINE
8
BLACK
6
CONTINUOUS
10
136.207
20
-77.7936
11
136.119
21
-77.7051
0
LINE
8
BLACK
6
CONTINUOUS
10
136.119
20
-77.7051
11
136.062
21
-77.5936
0
LINE
8
BLACK
6
CONTINUOUS
10
136.062
20
-77.5936
11
136.043
21
-77.47
0
LINE
8
BLACK
6
CONTINUOUS
10
136.043
20
-77.47
11
136.062
21
-77.3464
0
LINE
8
BLACK
6
CONTINUOUS
10
136.062
20
-77.3464
11
136.119
21
-77.2349
0
LINE
8
BLACK
6
CONTINUOUS
10
136.119
20
-77.2349
11
136.207
21
-77.1464
0
LINE
8
BLACK
6
CONTINUOUS
10
136.207
20
-77.1464
11
136.319
21
-77.0896
0
LINE
8
BLACK
6
CONTINUOUS
10
136.319
20
-77.0896
11
136.443
21
-77.07
0
LINE
8
BLACK
6
CONTINUOUS
10
136.443
20
-77.07
11
136.566
21
-77.0896
0
LINE
8
BLACK
6
CONTINUOUS
10
165.295
20
-83.1992
11
165.483
21
-83.2561
0
LINE
8
BLACK
6
CONTINUOUS
10
165.483
20
-83.2561
11
165.656
21
-83.3485
0
LINE
8
BLACK
6
CONTINUOUS
10
165.656
20
-83.3485
11
165.807
21
-83.4729
0
LINE
8
BLACK
6
CONTINUOUS
10
165.807
20
-83.4729
11
165.931
21
-83.6244
0
LINE
8
BLACK
6
CONTINUOUS
10
165.931
20
-83.6244
11
166.024
21
-83.7973
0
LINE
8
BLACK
6
CONTINUOUS
10
166.024
20
-83.7973
11
166.081
21
-83.9849
0
LINE
8
BLACK
6
CONTINUOUS
10
166.081
20
-83.9849
11
166.1
21
-84.18
0
LINE
8
BLACK
6
CONTINUOUS
10
166.1
20
-84.18
11
166.081
21
-84.3751
0
LINE
8
BLACK
6
CONTINUOUS
10
166.081
20
-84.3751
11
166.024
21
-84.5627
0
LINE
8
BLACK
6
CONTINUOUS
10
166.024
20
-84.5627
11
165.931
21
-84.7356
0
LINE
8
BLACK
6
CONTINUOUS
10
165.931
20
-84.7356
11
165.807
21
-84.8871
0
LINE
8
BLACK
6
CONTINUOUS
10
165.807
20
-84.8871
11
165.656
21
-85.0115
0
LINE
8
BLACK
6
CONTINUOUS
10
165.656
20
-85.0115
11
165.483
21
-85.1039
0
LINE
8
BLACK
6
CONTINUOUS
10
165.483
20
-85.1039
11
165.295
21
-85.1608
0
LINE
8
BLACK
6
CONTINUOUS
10
165.295
20
-85.1608
11
165.1
21
-85.18
0
LINE
8
BLACK
6
CONTINUOUS
10
165.1
20
-85.18
11
164.905
21
-85.1608
0
LINE
8
BLACK
6
CONTINUOUS
10
164.905
20
-85.1608
11
164.717
21
-85.1039
0
LINE
8
BLACK
6
CONTINUOUS
10
164.717
20
-85.1039
11
164.544
21
-85.0115
0
LINE
8
BLACK
6
CONTINUOUS
10
164.544
20
-85.0115
11
164.393
21
-84.8871
0
LINE
8
BLACK
6
CONTINUOUS
10
164.393
20
-84.8871
11
164.269
21
-84.7356
0
LINE
8
BLACK
6
CONTINUOUS
10
164.269
20
-84.7356
11
164.176
21
-84.5627
0
LINE
8
BLACK
6
CONTINUOUS
10
164.176
20
-84.5627
11
164.119
21
-84.3751
0
LINE
8
BLACK
6
CONTINUOUS
10
164.119
20
-84.3751
11
164.1
21
-84.18
0
LINE
8
BLACK
6
CONTINUOUS
10
164.1
20
-84.18
11
164.119
21
-83.9849
0
LINE
8
BLACK
6
CONTINUOUS
10
164.119
20
-83.9849
11
164.176
21
-83.7973
0
LINE
8
BLACK
6
CONTINUOUS
10
164.176
20
-83.7973
11
164.269
21
-83.6244
0
LINE
8
BLACK
6
CONTINUOUS
10
164.269
20
-83.6244
11
164.393
21
-83.4729
0
LINE
8
BLACK
6
CONTINUOUS
10
164.393
20
-83.4729
11
164.544
21
-83.3485
0
LINE
8
BLACK
6
CONTINUOUS
10
164.544
20
-83.3485
11
164.717
21
-83.2561
0
LINE
8
BLACK
6
CONTINUOUS
10
164.717
20
-83.2561
11
164.905
21
-83.1992
0
LINE
8
BLACK
6
CONTINUOUS
10
164.905
20
-83.1992
11
165.1
21
-83.18
0
LINE
8
BLACK
6
CONTINUOUS
10
165.1
20
-83.18
11
165.295
21
-83.1992
0
LINE
8
BLACK
6
CONTINUOUS
10
139.895
20
-80.6592
11
140.083
21
-80.7161
0
LINE
8
BLACK
6
CONTINUOUS
10
140.083
20
-80.7161
11
140.256
21
-80.8085
0
LINE
8
BLACK
6
CONTINUOUS
10
140.256
20
-80.8085
11
140.407
21
-80.9329
0
LINE
8
BLACK
6
CONTINUOUS
10
140.407
20
-80.9329
11
140.531
21
-81.0844
0
LINE
8
BLACK
6
CONTINUOUS
10
140.531
20
-81.0844
11
140.624
21
-81.2573
0
LINE
8
BLACK
6
CONTINUOUS
10
140.624
20
-81.2573
11
140.681
21
-81.4449
0
LINE
8
BLACK
6
CONTINUOUS
10
140.681
20
-81.4449
11
140.7
21
-81.64
0
LINE
8
BLACK
6
CONTINUOUS
10
140.7
20
-81.64
11
140.681
21
-81.8351
0
LINE
8
BLACK
6
CONTINUOUS
10
140.681
20
-81.8351
11
140.624
21
-82.0227
0
LINE
8
BLACK
6
CONTINUOUS
10
140.624
20
-82.0227
11
140.531
21
-82.1956
0
LINE
8
BLACK
6
CONTINUOUS
10
140.531
20
-82.1956
11
140.407
21
-82.3471
0
LINE
8
BLACK
6
CONTINUOUS
10
140.407
20
-82.3471
11
140.256
21
-82.4715
0
LINE
8
BLACK
6
CONTINUOUS
10
140.256
20
-82.4715
11
140.083
21
-82.5639
0
LINE
8
BLACK
6
CONTINUOUS
10
140.083
20
-82.5639
11
139.895
21
-82.6208
0
LINE
8
BLACK
6
CONTINUOUS
10
139.895
20
-82.6208
11
139.7
21
-82.64
0
LINE
8
BLACK
6
CONTINUOUS
10
139.7
20
-82.64
11
139.505
21
-82.6208
0
LINE
8
BLACK
6
CONTINUOUS
10
139.505
20
-82.6208
11
139.317
21
-82.5639
0
LINE
8
BLACK
6
CONTINUOUS
10
139.317
20
-82.5639
11
139.144
21
-82.4715
0
LINE
8
BLACK
6
CONTINUOUS
10
139.144
20
-82.4715
11
138.993
21
-82.3471
0
LINE
8
BLACK
6
CONTINUOUS
10
138.993
20
-82.3471
11
138.869
21
-82.1956
0
LINE
8
BLACK
6
CONTINUOUS
10
138.869
20
-82.1956
11
138.776
21
-82.0227
0
LINE
8
BLACK
6
CONTINUOUS
10
138.776
20
-82.0227
11
138.719
21
-81.8351
0
LINE
8
BLACK
6
CONTINUOUS
10
138.719
20
-81.8351
11
138.7
21
-81.64
0
LINE
8
BLACK
6
CONTINUOUS
10
138.7
20
-81.64
11
138.719
21
-81.4449
0
LINE
8
BLACK
6
CONTINUOUS
10
138.719
20
-81.4449
11
138.776
21
-81.2573
0
LINE
8
BLACK
6
CONTINUOUS
10
138.776
20
-81.2573
11
138.869
21
-81.0844
0
LINE
8
BLACK
6
CONTINUOUS
10
138.869
20
-81.0844
11
138.993
21
-80.9329
0
LINE
8
BLACK
6
CONTINUOUS
10
138.993
20
-80.9329
11
139.144
21
-80.8085
0
LINE
8
BLACK
6
CONTINUOUS
10
139.144
20
-80.8085
11
139.317
21
-80.7161
0
LINE
8
BLACK
6
CONTINUOUS
10
139.317
20
-80.7161
11
139.505
21
-80.6592
0
LINE
8
BLACK
6
CONTINUOUS
10
139.505
20
-80.6592
11
139.7
21
-80.64
0
LINE
8
BLACK
6
CONTINUOUS
10
139.7
20
-80.64
11
139.895
21
-80.6592
0
LINE
8
BLACK
6
CONTINUOUS
10
165.295
20
-80.6592
11
165.483
21
-80.7161
0
LINE
8
BLACK
6
CONTINUOUS
10
165.483
20
-80.7161
11
165.656
21
-80.8085
0
LINE
8
BLACK
6
CONTINUOUS
10
165.656
20
-80.8085
11
165.807
21
-80.9329
0
LINE
8
BLACK
6
CONTINUOUS
10
165.807
20
-80.9329
11
165.931
21
-81.0844
0
LINE
8
BLACK
6
CONTINUOUS
10
165.931
20
-81.0844
11
166.024
21
-81.2573
0
LINE
8
BLACK
6
CONTINUOUS
10
166.024
20
-81.2573
11
166.081
21
-81.4449
0
LINE
8
BLACK
6
CONTINUOUS
10
166.081
20
-81.4449
11
166.1
21
-81.64
0
LINE
8
BLACK
6
CONTINUOUS
10
166.1
20
-81.64
11
166.081
21
-81.8351
0
LINE
8
BLACK
6
CONTINUOUS
10
166.081
20
-81.8351
11
166.024
21
-82.0227
0
LINE
8
BLACK
6
CONTINUOUS
10
166.024
20
-82.0227
11
165.931
21
-82.1956
0
LINE
8
BLACK
6
CONTINUOUS
10
165.931
20
-82.1956
11
165.807
21
-82.3471
0
LINE
8
BLACK
6
CONTINUOUS
10
165.807
20
-82.3471
11
165.656
21
-82.4715
0
LINE
8
BLACK
6
CONTINUOUS
10
165.656
20
-82.4715
11
165.483
21
-82.5639
0
LINE
8
BLACK
6
CONTINUOUS
10
165.483
20
-82.5639
11
165.295
21
-82.6208
0
LINE
8
BLACK
6
CONTINUOUS
10
165.295
20
-82.6208
11
165.1
21
-82.64
0
LINE
8
BLACK
6
CONTINUOUS
10
165.1
20
-82.64
11
164.905
21
-82.6208
0
LINE
8
BLACK
6
CONTINUOUS
10
164.905
20
-82.6208
11
164.717
21
-82.5639
0
LINE
8
BLACK
6
CONTINUOUS
10
164.717
20
-82.5639
11
164.544
21
-82.4715
0
LINE
8
BLACK
6
CONTINUOUS
10
164.544
20
-82.4715
11
164.393
21
-82.3471
0
LINE
8
BLACK
6
CONTINUOUS
10
164.393
20
-82.3471
11
164.269
21
-82.1956
0
LINE
8
BLACK
6
CONTINUOUS
10
164.269
20
-82.1956
11
164.176
21
-82.0227
0
LINE
8
BLACK
6
CONTINUOUS
10
164.176
20
-82.0227
11
164.119
21
-81.8351
0
LINE
8
BLACK
6
CONTINUOUS
10
164.119
20
-81.8351
11
164.1
21
-81.64
0
LINE
8
BLACK
6
CONTINUOUS
10
164.1
20
-81.64
11
164.119
21
-81.4449
0
LINE
8
BLACK
6
CONTINUOUS
10
164.119
20
-81.4449
11
164.176
21
-81.2573
0
LINE
8
BLACK
6
CONTINUOUS
10
164.176
20
-81.2573
11
164.269
21
-81.0844
0
LINE
8
BLACK
6
CONTINUOUS
10
164.269
20
-81.0844
11
164.393
21
-80.9329
0
LINE
8
BLACK
6
CONTINUOUS
10
164.393
20
-80.9329
11
164.544
21
-80.8085
0
LINE
8
BLACK
6
CONTINUOUS
10
164.544
20
-80.8085
11
164.717
21
-80.7161
0
LINE
8
BLACK
6
CONTINUOUS
10
164.717
20
-80.7161
11
164.905
21
-80.6592
0
LINE
8
BLACK
6
CONTINUOUS
10
164.905
20
-80.6592
11
165.1
21
-80.64
0
LINE
8
BLACK
6
CONTINUOUS
10
165.1
20
-80.64
11
165.295
21
-80.6592
0
LINE
8
BLACK
6
CONTINUOUS
10
118.296
20
-80.3458
11
118.475
21
-80.4
0
LINE
8
BLACK
6
CONTINUOUS
10
118.475
20
-80.4
11
118.639
21
-80.488
0
LINE
8
BLACK
6
CONTINUOUS
10
118.639
20
-80.488
11
118.784
21
-80.6065
0
LINE
8
BLACK
6
CONTINUOUS
10
118.784
20
-80.6065
11
118.902
21
-80.7508
0
LINE
8
BLACK
6
CONTINUOUS
10
118.902
20
-80.7508
11
118.99
21
-80.9155
0
LINE
8
BLACK
6
CONTINUOUS
10
118.99
20
-80.9155
11
119.044
21
-81.0942
0
LINE
8
BLACK
6
CONTINUOUS
10
119.044
20
-81.0942
11
119.062
21
-81.28
0
LINE
8
BLACK
6
CONTINUOUS
10
119.062
20
-81.28
11
119.044
21
-81.4658
0
LINE
8
BLACK
6
CONTINUOUS
10
119.044
20
-81.4658
11
118.99
21
-81.6445
0
LINE
8
BLACK
6
CONTINUOUS
10
118.99
20
-81.6445
11
118.902
21
-81.8092
0
LINE
8
BLACK
6
CONTINUOUS
10
118.902
20
-81.8092
11
118.784
21
-81.9535
0
LINE
8
BLACK
6
CONTINUOUS
10
118.784
20
-81.9535
11
118.639
21
-82.072
0
LINE
8
BLACK
6
CONTINUOUS
10
118.639
20
-82.072
11
118.475
21
-82.16
0
LINE
8
BLACK
6
CONTINUOUS
10
118.475
20
-82.16
11
118.296
21
-82.2142
0
LINE
8
BLACK
6
CONTINUOUS
10
118.296
20
-82.2142
11
118.11
21
-82.2325
0
LINE
8
BLACK
6
CONTINUOUS
10
118.11
20
-82.2325
11
117.924
21
-82.2142
0
LINE
8
BLACK
6
CONTINUOUS
10
117.924
20
-82.2142
11
117.745
21
-82.16
0
LINE
8
BLACK
6
CONTINUOUS
10
117.745
20
-82.16
11
117.581
21
-82.072
0
LINE
8
BLACK
6
CONTINUOUS
10
117.581
20
-82.072
11
117.436
21
-81.9535
0
LINE
8
BLACK
6
CONTINUOUS
10
117.436
20
-81.9535
11
117.318
21
-81.8092
0
LINE
8
BLACK
6
CONTINUOUS
10
117.318
20
-81.8092
11
117.23
21
-81.6445
0
LINE
8
BLACK
6
CONTINUOUS
10
117.23
20
-81.6445
11
117.176
21
-81.4658
0
LINE
8
BLACK
6
CONTINUOUS
10
117.176
20
-81.4658
11
117.157
21
-81.28
0
LINE
8
BLACK
6
CONTINUOUS
10
117.157
20
-81.28
11
117.176
21
-81.0942
0
LINE
8
BLACK
6
CONTINUOUS
10
117.176
20
-81.0942
11
117.23
21
-80.9155
0
LINE
8
BLACK
6
CONTINUOUS
10
117.23
20
-80.9155
11
117.318
21
-80.7508
0
LINE
8
BLACK
6
CONTINUOUS
10
117.318
20
-80.7508
11
117.436
21
-80.6065
0
LINE
8
BLACK
6
CONTINUOUS
10
117.436
20
-80.6065
11
117.581
21
-80.488
0
LINE
8
BLACK
6
CONTINUOUS
10
117.581
20
-80.488
11
117.745
21
-80.4
0
LINE
8
BLACK
6
CONTINUOUS
10
117.745
20
-80.4
11
117.924
21
-80.3458
0
LINE
8
BLACK
6
CONTINUOUS
10
117.924
20
-80.3458
11
118.11
21
-80.3275
0
LINE
8
BLACK
6
CONTINUOUS
10
118.11
20
-80.3275
11
118.296
21
-80.3458
0
LINE
8
BLACK
6
CONTINUOUS
10
120.836
20
-80.3458
11
121.015
21
-80.4
0
LINE
8
BLACK
6
CONTINUOUS
10
121.015
20
-80.4
11
121.179
21
-80.488
0
LINE
8
BLACK
6
CONTINUOUS
10
121.179
20
-80.488
11
121.324
21
-80.6065
0
LINE
8
BLACK
6
CONTINUOUS
10
121.324
20
-80.6065
11
121.442
21
-80.7508
0
LINE
8
BLACK
6
CONTINUOUS
10
121.442
20
-80.7508
11
121.53
21
-80.9155
0
LINE
8
BLACK
6
CONTINUOUS
10
121.53
20
-80.9155
11
121.584
21
-81.0942
0
LINE
8
BLACK
6
CONTINUOUS
10
121.584
20
-81.0942
11
121.602
21
-81.28
0
LINE
8
BLACK
6
CONTINUOUS
10
121.602
20
-81.28
11
121.584
21
-81.4658
0
LINE
8
BLACK
6
CONTINUOUS
10
121.584
20
-81.4658
11
121.53
21
-81.6445
0
LINE
8
BLACK
6
CONTINUOUS
10
121.53
20
-81.6445
11
121.442
21
-81.8092
0
LINE
8
BLACK
6
CONTINUOUS
10
121.442
20
-81.8092
11
121.324
21
-81.9535
0
LINE
8
BLACK
6
CONTINUOUS
10
121.324
20
-81.9535
11
121.179
21
-82.072
0
LINE
8
BLACK
6
CONTINUOUS
10
121.179
20
-82.072
11
121.015
21
-82.16
0
LINE
8
BLACK
6
CONTINUOUS
10
121.015
20
-82.16
11
120.836
21
-82.2142
0
LINE
8
BLACK
6
CONTINUOUS
10
120.836
20
-82.2142
11
120.65
21
-82.2325
0
LINE
8
BLACK
6
CONTINUOUS
10
120.65
20
-82.2325
11
120.464
21
-82.2142
0
LINE
8
BLACK
6
CONTINUOUS
10
120.464
20
-82.2142
11
120.285
21
-82.16
0
LINE
8
BLACK
6
CONTINUOUS
10
120.285
20
-82.16
11
120.121
21
-82.072
0
LINE
8
BLACK
6
CONTINUOUS
10
120.121
20
-82.072
11
119.976
21
-81.9535
0
LINE
8
BLACK
6
CONTINUOUS
10
119.976
20
-81.9535
11
119.858
21
-81.8092
0
LINE
8
BLACK
6
CONTINUOUS
10
119.858
20
-81.8092
11
119.77
21
-81.6445
0
LINE
8
BLACK
6
CONTINUOUS
10
119.77
20
-81.6445
11
119.716
21
-81.4658
0
LINE
8
BLACK
6
CONTINUOUS
10
119.716
20
-81.4658
11
119.697
21
-81.28
0
LINE
8
BLACK
6
CONTINUOUS
10
119.697
20
-81.28
11
119.716
21
-81.0942
0
LINE
8
BLACK
6
CONTINUOUS
10
119.716
20
-81.0942
11
119.77
21
-80.9155
0
LINE
8
BLACK
6
CONTINUOUS
10
119.77
20
-80.9155
11
119.858
21
-80.7508
0
LINE
8
BLACK
6
CONTINUOUS
10
119.858
20
-80.7508
11
119.976
21
-80.6065
0
LINE
8
BLACK
6
CONTINUOUS
10
119.976
20
-80.6065
11
120.121
21
-80.488
0
LINE
8
BLACK
6
CONTINUOUS
10
120.121
20
-80.488
11
120.285
21
-80.4
0
LINE
8
BLACK
6
CONTINUOUS
10
120.285
20
-80.4
11
120.464
21
-80.3458
0
LINE
8
BLACK
6
CONTINUOUS
10
120.464
20
-80.3458
11
120.65
21
-80.3275
0
LINE
8
BLACK
6
CONTINUOUS
10
120.65
20
-80.3275
11
120.836
21
-80.3458
0
LINE
8
BLACK
6
CONTINUOUS
10
123.376
20
-80.3458
11
123.555
21
-80.4
0
LINE
8
BLACK
6
CONTINUOUS
10
123.555
20
-80.4
11
123.719
21
-80.488
0
LINE
8
BLACK
6
CONTINUOUS
10
123.719
20
-80.488
11
123.864
21
-80.6065
0
LINE
8
BLACK
6
CONTINUOUS
10
123.864
20
-80.6065
11
123.982
21
-80.7508
0
LINE
8
BLACK
6
CONTINUOUS
10
123.982
20
-80.7508
11
124.07
21
-80.9155
0
LINE
8
BLACK
6
CONTINUOUS
10
124.07
20
-80.9155
11
124.124
21
-81.0942
0
LINE
8
BLACK
6
CONTINUOUS
10
124.124
20
-81.0942
11
124.142
21
-81.28
0
LINE
8
BLACK
6
CONTINUOUS
10
124.142
20
-81.28
11
124.124
21
-81.4658
0
LINE
8
BLACK
6
CONTINUOUS
10
124.124
20
-81.4658
11
124.07
21
-81.6445
0
LINE
8
BLACK
6
CONTINUOUS
10
124.07
20
-81.6445
11
123.982
21
-81.8092
0
LINE
8
BLACK
6
CONTINUOUS
10
123.982
20
-81.8092
11
123.864
21
-81.9535
0
LINE
8
BLACK
6
CONTINUOUS
10
123.864
20
-81.9535
11
123.719
21
-82.072
0
LINE
8
BLACK
6
CONTINUOUS
10
123.719
20
-82.072
11
123.555
21
-82.16
0
LINE
8
BLACK
6
CONTINUOUS
10
123.555
20
-82.16
11
123.376
21
-82.2142
0
LINE
8
BLACK
6
CONTINUOUS
10
123.376
20
-82.2142
11
123.19
21
-82.2325
0
LINE
8
BLACK
6
CONTINUOUS
10
123.19
20
-82.2325
11
123.004
21
-82.2142
0
LINE
8
BLACK
6
CONTINUOUS
10
123.004
20
-82.2142
11
122.825
21
-82.16
0
LINE
8
BLACK
6
CONTINUOUS
10
122.825
20
-82.16
11
122.661
21
-82.072
0
LINE
8
BLACK
6
CONTINUOUS
10
122.661
20
-82.072
11
122.516
21
-81.9535
0
LINE
8
BLACK
6
CONTINUOUS
10
122.516
20
-81.9535
11
122.398
21
-81.8092
0
LINE
8
BLACK
6
CONTINUOUS
10
122.398
20
-81.8092
11
122.31
21
-81.6445
0
LINE
8
BLACK
6
CONTINUOUS
10
122.31
20
-81.6445
11
122.256
21
-81.4658
0
LINE
8
BLACK
6
CONTINUOUS
10
122.256
20
-81.4658
11
122.237
21
-81.28
0
LINE
8
BLACK
6
CONTINUOUS
10
122.237
20
-81.28
11
122.256
21
-81.0942
0
LINE
8
BLACK
6
CONTINUOUS
10
122.256
20
-81.0942
11
122.31
21
-80.9155
0
LINE
8
BLACK
6
CONTINUOUS
10
122.31
20
-80.9155
11
122.398
21
-80.7508
0
LINE
8
BLACK
6
CONTINUOUS
10
122.398
20
-80.7508
11
122.516
21
-80.6065
0
LINE
8
BLACK
6
CONTINUOUS
10
122.516
20
-80.6065
11
122.661
21
-80.488
0
LINE
8
BLACK
6
CONTINUOUS
10
122.661
20
-80.488
11
122.825
21
-80.4
0
LINE
8
BLACK
6
CONTINUOUS
10
122.825
20
-80.4
11
123.004
21
-80.3458
0
LINE
8
BLACK
6
CONTINUOUS
10
123.004
20
-80.3458
11
123.19
21
-80.3275
0
LINE
8
BLACK
6
CONTINUOUS
10
123.19
20
-80.3275
11
123.376
21
-80.3458
0
LINE
8
BLACK
6
CONTINUOUS
10
125.916
20
-80.3458
11
126.095
21
-80.4
0
LINE
8
BLACK
6
CONTINUOUS
10
126.095
20
-80.4
11
126.259
21
-80.488
0
LINE
8
BLACK
6
CONTINUOUS
10
126.259
20
-80.488
11
126.404
21
-80.6065
0
LINE
8
BLACK
6
CONTINUOUS
10
126.404
20
-80.6065
11
126.522
21
-80.7508
0
LINE
8
BLACK
6
CONTINUOUS
10
126.522
20
-80.7508
11
126.61
21
-80.9155
0
LINE
8
BLACK
6
CONTINUOUS
10
126.61
20
-80.9155
11
126.664
21
-81.0942
0
LINE
8
BLACK
6
CONTINUOUS
10
126.664
20
-81.0942
11
126.682
21
-81.28
0
LINE
8
BLACK
6
CONTINUOUS
10
126.682
20
-81.28
11
126.664
21
-81.4658
0
LINE
8
BLACK
6
CONTINUOUS
10
126.664
20
-81.4658
11
126.61
21
-81.6445
0
LINE
8
BLACK
6
CONTINUOUS
10
126.61
20
-81.6445
11
126.522
21
-81.8092
0
LINE
8
BLACK
6
CONTINUOUS
10
126.522
20
-81.8092
11
126.404
21
-81.9535
0
LINE
8
BLACK
6
CONTINUOUS
10
126.404
20
-81.9535
11
126.259
21
-82.072
0
LINE
8
BLACK
6
CONTINUOUS
10
126.259
20
-82.072
11
126.095
21
-82.16
0
LINE
8
BLACK
6
CONTINUOUS
10
126.095
20
-82.16
11
125.916
21
-82.2142
0
LINE
8
BLACK
6
CONTINUOUS
10
125.916
20
-82.2142
11
125.73
21
-82.2325
0
LINE
8
BLACK
6
CONTINUOUS
10
125.73
20
-82.2325
11
125.544
21
-82.2142
0
LINE
8
BLACK
6
CONTINUOUS
10
125.544
20
-82.2142
11
125.365
21
-82.16
0
LINE
8
BLACK
6
CONTINUOUS
10
125.365
20
-82.16
11
125.201
21
-82.072
0
LINE
8
BLACK
6
CONTINUOUS
10
125.201
20
-82.072
11
125.056
21
-81.9535
0
LINE
8
BLACK
6
CONTINUOUS
10
125.056
20
-81.9535
11
124.938
21
-81.8092
0
LINE
8
BLACK
6
CONTINUOUS
10
124.938
20
-81.8092
11
124.85
21
-81.6445
0
LINE
8
BLACK
6
CONTINUOUS
10
124.85
20
-81.6445
11
124.796
21
-81.4658
0
LINE
8
BLACK
6
CONTINUOUS
10
124.796
20
-81.4658
11
124.777
21
-81.28
0
LINE
8
BLACK
6
CONTINUOUS
10
124.777
20
-81.28
11
124.796
21
-81.0942
0
LINE
8
BLACK
6
CONTINUOUS
10
124.796
20
-81.0942
11
124.85
21
-80.9155
0
LINE
8
BLACK
6
CONTINUOUS
10
124.85
20
-80.9155
11
124.938
21
-80.7508
0
LINE
8
BLACK
6
CONTINUOUS
10
124.938
20
-80.7508
11
125.056
21
-80.6065
0
LINE
8
BLACK
6
CONTINUOUS
10
125.056
20
-80.6065
11
125.201
21
-80.488
0
LINE
8
BLACK
6
CONTINUOUS
10
125.201
20
-80.488
11
125.365
21
-80.4
0
LINE
8
BLACK
6
CONTINUOUS
10
125.365
20
-80.4
11
125.544
21
-80.3458
0
LINE
8
BLACK
6
CONTINUOUS
10
125.544
20
-80.3458
11
125.73
21
-80.3275
0
LINE
8
BLACK
6
CONTINUOUS
10
125.73
20
-80.3275
11
125.916
21
-80.3458
0
LINE
8
BLACK
6
CONTINUOUS
10
128.456
20
-80.3458
11
128.635
21
-80.4
0
LINE
8
BLACK
6
CONTINUOUS
10
128.635
20
-80.4
11
128.799
21
-80.488
0
LINE
8
BLACK
6
CONTINUOUS
10
128.799
20
-80.488
11
128.944
21
-80.6065
0
LINE
8
BLACK
6
CONTINUOUS
10
128.944
20
-80.6065
11
129.062
21
-80.7508
0
LINE
8
BLACK
6
CONTINUOUS
10
129.062
20
-80.7508
11
129.15
21
-80.9155
0
LINE
8
BLACK
6
CONTINUOUS
10
129.15
20
-80.9155
11
129.204
21
-81.0942
0
LINE
8
BLACK
6
CONTINUOUS
10
129.204
20
-81.0942
11
129.222
21
-81.28
0
LINE
8
BLACK
6
CONTINUOUS
10
129.222
20
-81.28
11
129.204
21
-81.4658
0
LINE
8
BLACK
6
CONTINUOUS
10
129.204
20
-81.4658
11
129.15
21
-81.6445
0
LINE
8
BLACK
6
CONTINUOUS
10
129.15
20
-81.6445
11
129.062
21
-81.8092
0
LINE
8
BLACK
6
CONTINUOUS
10
129.062
20
-81.8092
11
128.944
21
-81.9535
0
LINE
8
BLACK
6
CONTINUOUS
10
128.944
20
-81.9535
11
128.799
21
-82.072
0
LINE
8
BLACK
6
CONTINUOUS
10
128.799
20
-82.072
11
128.635
21
-82.16
0
LINE
8
BLACK
6
CONTINUOUS
10
128.635
20
-82.16
11
128.456
21
-82.2142
0
LINE
8
BLACK
6
CONTINUOUS
10
128.456
20
-82.2142
11
128.27
21
-82.2325
0
LINE
8
BLACK
6
CONTINUOUS
10
128.27
20
-82.2325
11
128.084
21
-82.2142
0
LINE
8
BLACK
6
CONTINUOUS
10
128.084
20
-82.2142
11
127.905
21
-82.16
0
LINE
8
BLACK
6
CONTINUOUS
10
127.905
20
-82.16
11
127.741
21
-82.072
0
LINE
8
BLACK
6
CONTINUOUS
10
127.741
20
-82.072
11
127.596
21
-81.9535
0
LINE
8
BLACK
6
CONTINUOUS
10
127.596
20
-81.9535
11
127.478
21
-81.8092
0
LINE
8
BLACK
6
CONTINUOUS
10
127.478
20
-81.8092
11
127.39
21
-81.6445
0
LINE
8
BLACK
6
CONTINUOUS
10
127.39
20
-81.6445
11
127.336
21
-81.4658
0
LINE
8
BLACK
6
CONTINUOUS
10
127.336
20
-81.4658
11
127.317
21
-81.28
0
LINE
8
BLACK
6
CONTINUOUS
10
127.317
20
-81.28
11
127.336
21
-81.0942
0
LINE
8
BLACK
6
CONTINUOUS
10
127.336
20
-81.0942
11
127.39
21
-80.9155
0
LINE
8
BLACK
6
CONTINUOUS
10
127.39
20
-80.9155
11
127.478
21
-80.7508
0
LINE
8
BLACK
6
CONTINUOUS
10
127.478
20
-80.7508
11
127.596
21
-80.6065
0
LINE
8
BLACK
6
CONTINUOUS
10
127.596
20
-80.6065
11
127.741
21
-80.488
0
LINE
8
BLACK
6
CONTINUOUS
10
127.741
20
-80.488
11
127.905
21
-80.4
0
LINE
8
BLACK
6
CONTINUOUS
10
127.905
20
-80.4
11
128.084
21
-80.3458
0
LINE
8
BLACK
6
CONTINUOUS
10
128.084
20
-80.3458
11
128.27
21
-80.3275
0
LINE
8
BLACK
6
CONTINUOUS
10
128.27
20
-80.3275
11
128.456
21
-80.3458
0
LINE
8
BLACK
6
CONTINUOUS
10
130.996
20
-80.3458
11
131.175
21
-80.4
0
LINE
8
BLACK
6
CONTINUOUS
10
131.175
20
-80.4
11
131.339
21
-80.488
0
LINE
8
BLACK
6
CONTINUOUS
10
131.339
20
-80.488
11
131.484
21
-80.6065
0
LINE
8
BLACK
6
CONTINUOUS
10
131.484
20
-80.6065
11
131.602
21
-80.7508
0
LINE
8
BLACK
6
CONTINUOUS
10
131.602
20
-80.7508
11
131.69
21
-80.9155
0
LINE
8
BLACK
6
CONTINUOUS
10
131.69
20
-80.9155
11
131.744
21
-81.0942
0
LINE
8
BLACK
6
CONTINUOUS
10
131.744
20
-81.0942
11
131.762
21
-81.28
0
LINE
8
BLACK
6
CONTINUOUS
10
131.762
20
-81.28
11
131.744
21
-81.4658
0
LINE
8
BLACK
6
CONTINUOUS
10
131.744
20
-81.4658
11
131.69
21
-81.6445
0
LINE
8
BLACK
6
CONTINUOUS
10
131.69
20
-81.6445
11
131.602
21
-81.8092
0
LINE
8
BLACK
6
CONTINUOUS
10
131.602
20
-81.8092
11
131.484
21
-81.9535
0
LINE
8
BLACK
6
CONTINUOUS
10
131.484
20
-81.9535
11
131.339
21
-82.072
0
LINE
8
BLACK
6
CONTINUOUS
10
131.339
20
-82.072
11
131.175
21
-82.16
0
LINE
8
BLACK
6
CONTINUOUS
10
131.175
20
-82.16
11
130.996
21
-82.2142
0
LINE
8
BLACK
6
CONTINUOUS
10
130.996
20
-82.2142
11
130.81
21
-82.2325
0
LINE
8
BLACK
6
CONTINUOUS
10
130.81
20
-82.2325
11
130.624
21
-82.2142
0
LINE
8
BLACK
6
CONTINUOUS
10
130.624
20
-82.2142
11
130.445
21
-82.16
0
LINE
8
BLACK
6
CONTINUOUS
10
130.445
20
-82.16
11
130.281
21
-82.072
0
LINE
8
BLACK
6
CONTINUOUS
10
130.281
20
-82.072
11
130.136
21
-81.9535
0
LINE
8
BLACK
6
CONTINUOUS
10
130.136
20
-81.9535
11
130.018
21
-81.8092
0
LINE
8
BLACK
6
CONTINUOUS
10
130.018
20
-81.8092
11
129.93
21
-81.6445
0
LINE
8
BLACK
6
CONTINUOUS
10
129.93
20
-81.6445
11
129.876
21
-81.4658
0
LINE
8
BLACK
6
CONTINUOUS
10
129.876
20
-81.4658
11
129.857
21
-81.28
0
LINE
8
BLACK
6
CONTINUOUS
10
129.857
20
-81.28
11
129.876
21
-81.0942
0
LINE
8
BLACK
6
CONTINUOUS
10
129.876
20
-81.0942
11
129.93
21
-80.9155
0
LINE
8
BLACK
6
CONTINUOUS
10
129.93
20
-80.9155
11
130.018
21
-80.7508
0
LINE
8
BLACK
6
CONTINUOUS
10
130.018
20
-80.7508
11
130.136
21
-80.6065
0
LINE
8
BLACK
6
CONTINUOUS
10
130.136
20
-80.6065
11
130.281
21
-80.488
0
LINE
8
BLACK
6
CONTINUOUS
10
130.281
20
-80.488
11
130.445
21
-80.4
0
LINE
8
BLACK
6
CONTINUOUS
10
130.445
20
-80.4
11
130.624
21
-80.3458
0
LINE
8
BLACK
6
CONTINUOUS
10
130.624
20
-80.3458
11
130.81
21
-80.3275
0
LINE
8
BLACK
6
CONTINUOUS
10
130.81
20
-80.3275
11
130.996
21
-80.3458
0
LINE
8
BLACK
6
CONTINUOUS
10
133.536
20
-80.3458
11
133.715
21
-80.4
0
LINE
8
BLACK
6
CONTINUOUS
10
133.715
20
-80.4
11
133.879
21
-80.488
0
LINE
8
BLACK
6
CONTINUOUS
10
133.879
20
-80.488
11
134.024
21
-80.6065
0
LINE
8
BLACK
6
CONTINUOUS
10
134.024
20
-80.6065
11
134.142
21
-80.7508
0
LINE
8
BLACK
6
CONTINUOUS
10
134.142
20
-80.7508
11
134.23
21
-80.9155
0
LINE
8
BLACK
6
CONTINUOUS
10
134.23
20
-80.9155
11
134.284
21
-81.0942
0
LINE
8
BLACK
6
CONTINUOUS
10
134.284
20
-81.0942
11
134.302
21
-81.28
0
LINE
8
BLACK
6
CONTINUOUS
10
134.302
20
-81.28
11
134.284
21
-81.4658
0
LINE
8
BLACK
6
CONTINUOUS
10
134.284
20
-81.4658
11
134.23
21
-81.6445
0
LINE
8
BLACK
6
CONTINUOUS
10
134.23
20
-81.6445
11
134.142
21
-81.8092
0
LINE
8
BLACK
6
CONTINUOUS
10
134.142
20
-81.8092
11
134.024
21
-81.9535
0
LINE
8
BLACK
6
CONTINUOUS
10
134.024
20
-81.9535
11
133.879
21
-82.072
0
LINE
8
BLACK
6
CONTINUOUS
10
133.879
20
-82.072
11
133.715
21
-82.16
0
LINE
8
BLACK
6
CONTINUOUS
10
133.715
20
-82.16
11
133.536
21
-82.2142
0
LINE
8
BLACK
6
CONTINUOUS
10
133.536
20
-82.2142
11
133.35
21
-82.2325
0
LINE
8
BLACK
6
CONTINUOUS
10
133.35
20
-82.2325
11
133.164
21
-82.2142
0
LINE
8
BLACK
6
CONTINUOUS
10
133.164
20
-82.2142
11
132.985
21
-82.16
0
LINE
8
BLACK
6
CONTINUOUS
10
132.985
20
-82.16
11
132.821
21
-82.072
0
LINE
8
BLACK
6
CONTINUOUS
10
132.821
20
-82.072
11
132.676
21
-81.9535
0
LINE
8
BLACK
6
CONTINUOUS
10
132.676
20
-81.9535
11
132.558
21
-81.8092
0
LINE
8
BLACK
6
CONTINUOUS
10
132.558
20
-81.8092
11
132.47
21
-81.6445
0
LINE
8
BLACK
6
CONTINUOUS
10
132.47
20
-81.6445
11
132.416
21
-81.4658
0
LINE
8
BLACK
6
CONTINUOUS
10
132.416
20
-81.4658
11
132.398
21
-81.28
0
LINE
8
BLACK
6
CONTINUOUS
10
132.398
20
-81.28
11
132.416
21
-81.0942
0
LINE
8
BLACK
6
CONTINUOUS
10
132.416
20
-81.0942
11
132.47
21
-80.9155
0
LINE
8
BLACK
6
CONTINUOUS
10
132.47
20
-80.9155
11
132.558
21
-80.7508
0
LINE
8
BLACK
6
CONTINUOUS
10
132.558
20
-80.7508
11
132.676
21
-80.6065
0
LINE
8
BLACK
6
CONTINUOUS
10
132.676
20
-80.6065
11
132.821
21
-80.488
0
LINE
8
BLACK
6
CONTINUOUS
10
132.821
20
-80.488
11
132.985
21
-80.4
0
LINE
8
BLACK
6
CONTINUOUS
10
132.985
20
-80.4
11
133.164
21
-80.3458
0
LINE
8
BLACK
6
CONTINUOUS
10
133.164
20
-80.3458
11
133.35
21
-80.3275
0
LINE
8
BLACK
6
CONTINUOUS
10
133.35
20
-80.3275
11
133.536
21
-80.3458
0
LINE
8
BLACK
6
CONTINUOUS
10
136.076
20
-80.3458
11
136.255
21
-80.4
0
LINE
8
BLACK
6
CONTINUOUS
10
136.255
20
-80.4
11
136.419
21
-80.488
0
LINE
8
BLACK
6
CONTINUOUS
10
136.419
20
-80.488
11
136.564
21
-80.6065
0
LINE
8
BLACK
6
CONTINUOUS
10
136.564
20
-80.6065
11
136.682
21
-80.7508
0
LINE
8
BLACK
6
CONTINUOUS
10
136.682
20
-80.7508
11
136.77
21
-80.9155
0
LINE
8
BLACK
6
CONTINUOUS
10
136.77
20
-80.9155
11
136.824
21
-81.0942
0
LINE
8
BLACK
6
CONTINUOUS
10
136.824
20
-81.0942
11
136.843
21
-81.28
0
LINE
8
BLACK
6
CONTINUOUS
10
136.843
20
-81.28
11
136.824
21
-81.4658
0
LINE
8
BLACK
6
CONTINUOUS
10
136.824
20
-81.4658
11
136.77
21
-81.6445
0
LINE
8
BLACK
6
CONTINUOUS
10
136.77
20
-81.6445
11
136.682
21
-81.8092
0
LINE
8
BLACK
6
CONTINUOUS
10
136.682
20
-81.8092
11
136.564
21
-81.9535
0
LINE
8
BLACK
6
CONTINUOUS
10
136.564
20
-81.9535
11
136.419
21
-82.072
0
LINE
8
BLACK
6
CONTINUOUS
10
136.419
20
-82.072
11
136.255
21
-82.16
0
LINE
8
BLACK
6
CONTINUOUS
10
136.255
20
-82.16
11
136.076
21
-82.2142
0
LINE
8
BLACK
6
CONTINUOUS
10
136.076
20
-82.2142
11
135.89
21
-82.2325
0
LINE
8
BLACK
6
CONTINUOUS
10
135.89
20
-82.2325
11
135.704
21
-82.2142
0
LINE
8
BLACK
6
CONTINUOUS
10
135.704
20
-82.2142
11
135.525
21
-82.16
0
LINE
8
BLACK
6
CONTINUOUS
10
135.525
20
-82.16
11
135.361
21
-82.072
0
LINE
8
BLACK
6
CONTINUOUS
10
135.361
20
-82.072
11
135.216
21
-81.9535
0
LINE
8
BLACK
6
CONTINUOUS
10
135.216
20
-81.9535
11
135.098
21
-81.8092
0
LINE
8
BLACK
6
CONTINUOUS
10
135.098
20
-81.8092
11
135.01
21
-81.6445
0
LINE
8
BLACK
6
CONTINUOUS
10
135.01
20
-81.6445
11
134.956
21
-81.4658
0
LINE
8
BLACK
6
CONTINUOUS
10
134.956
20
-81.4658
11
134.938
21
-81.28
0
LINE
8
BLACK
6
CONTINUOUS
10
134.938
20
-81.28
11
134.956
21
-81.0942
0
LINE
8
BLACK
6
CONTINUOUS
10
134.956
20
-81.0942
11
135.01
21
-80.9155
0
LINE
8
BLACK
6
CONTINUOUS
10
135.01
20
-80.9155
11
135.098
21
-80.7508
0
LINE
8
BLACK
6
CONTINUOUS
10
135.098
20
-80.7508
11
135.216
21
-80.6065
0
LINE
8
BLACK
6
CONTINUOUS
10
135.216
20
-80.6065
11
135.361
21
-80.488
0
LINE
8
BLACK
6
CONTINUOUS
10
135.361
20
-80.488
11
135.525
21
-80.4
0
LINE
8
BLACK
6
CONTINUOUS
10
135.525
20
-80.4
11
135.704
21
-80.3458
0
LINE
8
BLACK
6
CONTINUOUS
10
135.704
20
-80.3458
11
135.89
21
-80.3275
0
LINE
8
BLACK
6
CONTINUOUS
10
135.89
20
-80.3275
11
136.076
21
-80.3458
0
LINE
8
BLACK
6
CONTINUOUS
10
108.943
20
-79.154
11
109.115
21
-79.2306
0
LINE
8
BLACK
6
CONTINUOUS
10
109.115
20
-79.2306
11
109.267
21
-79.3412
0
LINE
8
BLACK
6
CONTINUOUS
10
109.267
20
-79.3412
11
109.393
21
-79.481
0
LINE
8
BLACK
6
CONTINUOUS
10
109.393
20
-79.481
11
109.487
21
-79.6439
0
LINE
8
BLACK
6
CONTINUOUS
10
109.487
20
-79.6439
11
109.545
21
-79.8229
0
LINE
8
BLACK
6
CONTINUOUS
10
109.545
20
-79.8229
11
109.565
21
-80.01
0
LINE
8
BLACK
6
CONTINUOUS
10
109.565
20
-80.01
11
109.545
21
-80.1971
0
LINE
8
BLACK
6
CONTINUOUS
10
109.545
20
-80.1971
11
109.487
21
-80.3761
0
LINE
8
BLACK
6
CONTINUOUS
10
109.487
20
-80.3761
11
109.393
21
-80.539
0
LINE
8
BLACK
6
CONTINUOUS
10
109.393
20
-80.539
11
109.267
21
-80.6788
0
LINE
8
BLACK
6
CONTINUOUS
10
109.267
20
-80.6788
11
109.115
21
-80.7894
0
LINE
8
BLACK
6
CONTINUOUS
10
109.115
20
-80.7894
11
108.943
21
-80.866
0
LINE
8
BLACK
6
CONTINUOUS
10
108.943
20
-80.866
11
108.759
21
-80.9051
0
LINE
8
BLACK
6
CONTINUOUS
10
108.759
20
-80.9051
11
108.571
21
-80.9051
0
LINE
8
BLACK
6
CONTINUOUS
10
108.571
20
-80.9051
11
108.387
21
-80.866
0
LINE
8
BLACK
6
CONTINUOUS
10
108.387
20
-80.866
11
108.215
21
-80.7894
0
LINE
8
BLACK
6
CONTINUOUS
10
108.215
20
-80.7894
11
108.063
21
-80.6788
0
LINE
8
BLACK
6
CONTINUOUS
10
108.063
20
-80.6788
11
107.937
21
-80.539
0
LINE
8
BLACK
6
CONTINUOUS
10
107.937
20
-80.539
11
107.843
21
-80.3761
0
LINE
8
BLACK
6
CONTINUOUS
10
107.843
20
-80.3761
11
107.785
21
-80.1971
0
LINE
8
BLACK
6
CONTINUOUS
10
107.785
20
-80.1971
11
107.765
21
-80.01
0
LINE
8
BLACK
6
CONTINUOUS
10
107.765
20
-80.01
11
107.785
21
-79.8229
0
LINE
8
BLACK
6
CONTINUOUS
10
107.785
20
-79.8229
11
107.843
21
-79.6439
0
LINE
8
BLACK
6
CONTINUOUS
10
107.843
20
-79.6439
11
107.937
21
-79.481
0
LINE
8
BLACK
6
CONTINUOUS
10
107.937
20
-79.481
11
108.063
21
-79.3412
0
LINE
8
BLACK
6
CONTINUOUS
10
108.063
20
-79.3412
11
108.215
21
-79.2306
0
LINE
8
BLACK
6
CONTINUOUS
10
108.215
20
-79.2306
11
108.387
21
-79.154
0
LINE
8
BLACK
6
CONTINUOUS
10
108.387
20
-79.154
11
108.571
21
-79.1149
0
LINE
8
BLACK
6
CONTINUOUS
10
108.571
20
-79.1149
11
108.759
21
-79.1149
0
LINE
8
BLACK
6
CONTINUOUS
10
108.759
20
-79.1149
11
108.943
21
-79.154
0
LINE
8
BLACK
6
CONTINUOUS
10
111.443
20
-79.154
11
111.615
21
-79.2306
0
LINE
8
BLACK
6
CONTINUOUS
10
111.615
20
-79.2306
11
111.767
21
-79.3412
0
LINE
8
BLACK
6
CONTINUOUS
10
111.767
20
-79.3412
11
111.893
21
-79.481
0
LINE
8
BLACK
6
CONTINUOUS
10
111.893
20
-79.481
11
111.987
21
-79.6439
0
LINE
8
BLACK
6
CONTINUOUS
10
111.987
20
-79.6439
11
112.045
21
-79.8229
0
LINE
8
BLACK
6
CONTINUOUS
10
112.045
20
-79.8229
11
112.065
21
-80.01
0
LINE
8
BLACK
6
CONTINUOUS
10
112.065
20
-80.01
11
112.045
21
-80.1971
0
LINE
8
BLACK
6
CONTINUOUS
10
112.045
20
-80.1971
11
111.987
21
-80.3761
0
LINE
8
BLACK
6
CONTINUOUS
10
111.987
20
-80.3761
11
111.893
21
-80.539
0
LINE
8
BLACK
6
CONTINUOUS
10
111.893
20
-80.539
11
111.767
21
-80.6788
0
LINE
8
BLACK
6
CONTINUOUS
10
111.767
20
-80.6788
11
111.615
21
-80.7894
0
LINE
8
BLACK
6
CONTINUOUS
10
111.615
20
-80.7894
11
111.443
21
-80.866
0
LINE
8
BLACK
6
CONTINUOUS
10
111.443
20
-80.866
11
111.259
21
-80.9051
0
LINE
8
BLACK
6
CONTINUOUS
10
111.259
20
-80.9051
11
111.071
21
-80.9051
0
LINE
8
BLACK
6
CONTINUOUS
10
111.071
20
-80.9051
11
110.887
21
-80.866
0
LINE
8
BLACK
6
CONTINUOUS
10
110.887
20
-80.866
11
110.715
21
-80.7894
0
LINE
8
BLACK
6
CONTINUOUS
10
110.715
20
-80.7894
11
110.563
21
-80.6788
0
LINE
8
BLACK
6
CONTINUOUS
10
110.563
20
-80.6788
11
110.437
21
-80.539
0
LINE
8
BLACK
6
CONTINUOUS
10
110.437
20
-80.539
11
110.343
21
-80.3761
0
LINE
8
BLACK
6
CONTINUOUS
10
110.343
20
-80.3761
11
110.285
21
-80.1971
0
LINE
8
BLACK
6
CONTINUOUS
10
110.285
20
-80.1971
11
110.265
21
-80.01
0
LINE
8
BLACK
6
CONTINUOUS
10
110.265
20
-80.01
11
110.285
21
-79.8229
0
LINE
8
BLACK
6
CONTINUOUS
10
110.285
20
-79.8229
11
110.343
21
-79.6439
0
LINE
8
BLACK
6
CONTINUOUS
10
110.343
20
-79.6439
11
110.437
21
-79.481
0
LINE
8
BLACK
6
CONTINUOUS
10
110.437
20
-79.481
11
110.563
21
-79.3412
0
LINE
8
BLACK
6
CONTINUOUS
10
110.563
20
-79.3412
11
110.715
21
-79.2306
0
LINE
8
BLACK
6
CONTINUOUS
10
110.715
20
-79.2306
11
110.887
21
-79.154
0
LINE
8
BLACK
6
CONTINUOUS
10
110.887
20
-79.154
11
111.071
21
-79.1149
0
LINE
8
BLACK
6
CONTINUOUS
10
111.071
20
-79.1149
11
111.259
21
-79.1149
0
LINE
8
BLACK
6
CONTINUOUS
10
111.259
20
-79.1149
11
111.443
21
-79.154
0
LINE
8
BLACK
6
CONTINUOUS
10
139.895
20
-78.1192
11
140.083
21
-78.1761
0
LINE
8
BLACK
6
CONTINUOUS
10
140.083
20
-78.1761
11
140.256
21
-78.2685
0
LINE
8
BLACK
6
CONTINUOUS
10
140.256
20
-78.2685
11
140.407
21
-78.3929
0
LINE
8
BLACK
6
CONTINUOUS
10
140.407
20
-78.3929
11
140.531
21
-78.5444
0
LINE
8
BLACK
6
CONTINUOUS
10
140.531
20
-78.5444
11
140.624
21
-78.7173
0
LINE
8
BLACK
6
CONTINUOUS
10
140.624
20
-78.7173
11
140.681
21
-78.9049
0
LINE
8
BLACK
6
CONTINUOUS
10
140.681
20
-78.9049
11
140.7
21
-79.1
0
LINE
8
BLACK
6
CONTINUOUS
10
140.7
20
-79.1
11
140.681
21
-79.2951
0
LINE
8
BLACK
6
CONTINUOUS
10
140.681
20
-79.2951
11
140.624
21
-79.4827
0
LINE
8
BLACK
6
CONTINUOUS
10
140.624
20
-79.4827
11
140.531
21
-79.6556
0
LINE
8
BLACK
6
CONTINUOUS
10
140.531
20
-79.6556
11
140.407
21
-79.8071
0
LINE
8
BLACK
6
CONTINUOUS
10
140.407
20
-79.8071
11
140.256
21
-79.9315
0
LINE
8
BLACK
6
CONTINUOUS
10
140.256
20
-79.9315
11
140.083
21
-80.0239
0
LINE
8
BLACK
6
CONTINUOUS
10
140.083
20
-80.0239
11
139.895
21
-80.0808
0
LINE
8
BLACK
6
CONTINUOUS
10
139.895
20
-80.0808
11
139.7
21
-80.1
0
LINE
8
BLACK
6
CONTINUOUS
10
139.7
20
-80.1
11
139.505
21
-80.0808
0
LINE
8
BLACK
6
CONTINUOUS
10
139.505
20
-80.0808
11
139.317
21
-80.0239
0
LINE
8
BLACK
6
CONTINUOUS
10
139.317
20
-80.0239
11
139.144
21
-79.9315
0
LINE
8
BLACK
6
CONTINUOUS
10
139.144
20
-79.9315
11
138.993
21
-79.8071
0
LINE
8
BLACK
6
CONTINUOUS
10
138.993
20
-79.8071
11
138.869
21
-79.6556
0
LINE
8
BLACK
6
CONTINUOUS
10
138.869
20
-79.6556
11
138.776
21
-79.4827
0
LINE
8
BLACK
6
CONTINUOUS
10
138.776
20
-79.4827
11
138.719
21
-79.2951
0
LINE
8
BLACK
6
CONTINUOUS
10
138.719
20
-79.2951
11
138.7
21
-79.1
0
LINE
8
BLACK
6
CONTINUOUS
10
138.7
20
-79.1
11
138.719
21
-78.9049
0
LINE
8
BLACK
6
CONTINUOUS
10
138.719
20
-78.9049
11
138.776
21
-78.7173
0
LINE
8
BLACK
6
CONTINUOUS
10
138.776
20
-78.7173
11
138.869
21
-78.5444
0
LINE
8
BLACK
6
CONTINUOUS
10
138.869
20
-78.5444
11
138.993
21
-78.3929
0
LINE
8
BLACK
6
CONTINUOUS
10
138.993
20
-78.3929
11
139.144
21
-78.2685
0
LINE
8
BLACK
6
CONTINUOUS
10
139.144
20
-78.2685
11
139.317
21
-78.1761
0
LINE
8
BLACK
6
CONTINUOUS
10
139.317
20
-78.1761
11
139.505
21
-78.1192
0
LINE
8
BLACK
6
CONTINUOUS
10
139.505
20
-78.1192
11
139.7
21
-78.1
0
LINE
8
BLACK
6
CONTINUOUS
10
139.7
20
-78.1
11
139.895
21
-78.1192
0
LINE
8
BLACK
6
CONTINUOUS
10
165.295
20
-78.1192
11
165.483
21
-78.1761
0
LINE
8
BLACK
6
CONTINUOUS
10
165.483
20
-78.1761
11
165.656
21
-78.2685
0
LINE
8
BLACK
6
CONTINUOUS
10
165.656
20
-78.2685
11
165.807
21
-78.3929
0
LINE
8
BLACK
6
CONTINUOUS
10
165.807
20
-78.3929
11
165.931
21
-78.5444
0
LINE
8
BLACK
6
CONTINUOUS
10
165.931
20
-78.5444
11
166.024
21
-78.7173
0
LINE
8
BLACK
6
CONTINUOUS
10
166.024
20
-78.7173
11
166.081
21
-78.9049
0
LINE
8
BLACK
6
CONTINUOUS
10
166.081
20
-78.9049
11
166.1
21
-79.1
0
LINE
8
BLACK
6
CONTINUOUS
10
166.1
20
-79.1
11
166.081
21
-79.2951
0
LINE
8
BLACK
6
CONTINUOUS
10
166.081
20
-79.2951
11
166.024
21
-79.4827
0
LINE
8
BLACK
6
CONTINUOUS
10
166.024
20
-79.4827
11
165.931
21
-79.6556
0
LINE
8
BLACK
6
CONTINUOUS
10
165.931
20
-79.6556
11
165.807
21
-79.8071
0
LINE
8
BLACK
6
CONTINUOUS
10
165.807
20
-79.8071
11
165.656
21
-79.9315
0
LINE
8
BLACK
6
CONTINUOUS
10
165.656
20
-79.9315
11
165.483
21
-80.0239
0
LINE
8
BLACK
6
CONTINUOUS
10
165.483
20
-80.0239
11
165.295
21
-80.0808
0
LINE
8
BLACK
6
CONTINUOUS
10
165.295
20
-80.0808
11
165.1
21
-80.1
0
LINE
8
BLACK
6
CONTINUOUS
10
165.1
20
-80.1
11
164.905
21
-80.0808
0
LINE
8
BLACK
6
CONTINUOUS
10
164.905
20
-80.0808
11
164.717
21
-80.0239
0
LINE
8
BLACK
6
CONTINUOUS
10
164.717
20
-80.0239
11
164.544
21
-79.9315
0
LINE
8
BLACK
6
CONTINUOUS
10
164.544
20
-79.9315
11
164.393
21
-79.8071
0
LINE
8
BLACK
6
CONTINUOUS
10
164.393
20
-79.8071
11
164.269
21
-79.6556
0
LINE
8
BLACK
6
CONTINUOUS
10
164.269
20
-79.6556
11
164.176
21
-79.4827
0
LINE
8
BLACK
6
CONTINUOUS
10
164.176
20
-79.4827
11
164.119
21
-79.2951
0
LINE
8
BLACK
6
CONTINUOUS
10
164.119
20
-79.2951
11
164.1
21
-79.1
0
LINE
8
BLACK
6
CONTINUOUS
10
164.1
20
-79.1
11
164.119
21
-78.9049
0
LINE
8
BLACK
6
CONTINUOUS
10
164.119
20
-78.9049
11
164.176
21
-78.7173
0
LINE
8
BLACK
6
CONTINUOUS
10
164.176
20
-78.7173
11
164.269
21
-78.5444
0
LINE
8
BLACK
6
CONTINUOUS
10
164.269
20
-78.5444
11
164.393
21
-78.3929
0
LINE
8
BLACK
6
CONTINUOUS
10
164.393
20
-78.3929
11
164.544
21
-78.2685
0
LINE
8
BLACK
6
CONTINUOUS
10
164.544
20
-78.2685
11
164.717
21
-78.1761
0
LINE
8
BLACK
6
CONTINUOUS
10
164.717
20
-78.1761
11
164.905
21
-78.1192
0
LINE
8
BLACK
6
CONTINUOUS
10
164.905
20
-78.1192
11
165.1
21
-78.1
0
LINE
8
BLACK
6
CONTINUOUS
10
165.1
20
-78.1
11
165.295
21
-78.1192
0
LINE
8
BLACK
6
CONTINUOUS
10
137.919
20
-73.9146
11
138.03
21
-73.9714
0
LINE
8
BLACK
6
CONTINUOUS
10
138.03
20
-73.9714
11
138.119
21
-74.0599
0
LINE
8
BLACK
6
CONTINUOUS
10
138.119
20
-74.0599
11
138.175
21
-74.1714
0
LINE
8
BLACK
6
CONTINUOUS
10
138.175
20
-74.1714
11
138.195
21
-74.295
0
LINE
8
BLACK
6
CONTINUOUS
10
138.195
20
-74.295
11
138.175
21
-74.4186
0
LINE
8
BLACK
6
CONTINUOUS
10
138.175
20
-74.4186
11
138.119
21
-74.5301
0
LINE
8
BLACK
6
CONTINUOUS
10
138.119
20
-74.5301
11
138.03
21
-74.6186
0
LINE
8
BLACK
6
CONTINUOUS
10
138.03
20
-74.6186
11
137.919
21
-74.6754
0
LINE
8
BLACK
6
CONTINUOUS
10
137.919
20
-74.6754
11
137.795
21
-74.695
0
LINE
8
BLACK
6
CONTINUOUS
10
137.795
20
-74.695
11
137.755
21
-74.6886
0
LINE
8
BLACK
6
CONTINUOUS
10
137.755
20
-74.6886
11
136.702
21
-75.7418
0
LINE
8
BLACK
6
CONTINUOUS
10
136.702
20
-75.7418
11
136.621
21
-75.796
0
LINE
8
BLACK
6
CONTINUOUS
10
136.621
20
-75.796
11
136.525
21
-75.815
0
LINE
8
BLACK
6
CONTINUOUS
10
136.525
20
-75.815
11
132.389
21
-75.815
0
LINE
8
BLACK
6
CONTINUOUS
10
132.389
20
-75.815
11
132.315
21
-75.8886
0
LINE
8
BLACK
6
CONTINUOUS
10
132.315
20
-75.8886
11
132.204
21
-75.9454
0
LINE
8
BLACK
6
CONTINUOUS
10
132.204
20
-75.9454
11
132.08
21
-75.965
0
LINE
8
BLACK
6
CONTINUOUS
10
132.08
20
-75.965
11
131.956
21
-75.9454
0
LINE
8
BLACK
6
CONTINUOUS
10
131.956
20
-75.9454
11
131.845
21
-75.8886
0
LINE
8
BLACK
6
CONTINUOUS
10
131.845
20
-75.8886
11
131.756
21
-75.8001
0
LINE
8
BLACK
6
CONTINUOUS
10
131.756
20
-75.8001
11
131.7
21
-75.6886
0
LINE
8
BLACK
6
CONTINUOUS
10
131.7
20
-75.6886
11
131.68
21
-75.565
0
LINE
8
BLACK
6
CONTINUOUS
10
131.68
20
-75.565
11
131.7
21
-75.4414
0
LINE
8
BLACK
6
CONTINUOUS
10
131.7
20
-75.4414
11
131.756
21
-75.3299
0
LINE
8
BLACK
6
CONTINUOUS
10
131.756
20
-75.3299
11
131.845
21
-75.2414
0
LINE
8
BLACK
6
CONTINUOUS
10
131.845
20
-75.2414
11
131.956
21
-75.1846
0
LINE
8
BLACK
6
CONTINUOUS
10
131.956
20
-75.1846
11
132.08
21
-75.165
0
LINE
8
BLACK
6
CONTINUOUS
10
132.08
20
-75.165
11
132.204
21
-75.1846
0
LINE
8
BLACK
6
CONTINUOUS
10
132.204
20
-75.1846
11
132.315
21
-75.2414
0
LINE
8
BLACK
6
CONTINUOUS
10
132.315
20
-75.2414
11
132.389
21
-75.315
0
LINE
8
BLACK
6
CONTINUOUS
10
132.389
20
-75.315
11
136.421
21
-75.315
0
LINE
8
BLACK
6
CONTINUOUS
10
136.421
20
-75.315
11
137.401
21
-74.3351
0
LINE
8
BLACK
6
CONTINUOUS
10
137.401
20
-74.3351
11
137.395
21
-74.295
0
LINE
8
BLACK
6
CONTINUOUS
10
137.395
20
-74.295
11
137.415
21
-74.1714
0
LINE
8
BLACK
6
CONTINUOUS
10
137.415
20
-74.1714
11
137.471
21
-74.0599
0
LINE
8
BLACK
6
CONTINUOUS
10
137.471
20
-74.0599
11
137.56
21
-73.9714
0
LINE
8
BLACK
6
CONTINUOUS
10
137.56
20
-73.9714
11
137.671
21
-73.9146
0
LINE
8
BLACK
6
CONTINUOUS
10
137.671
20
-73.9146
11
137.795
21
-73.895
0
LINE
8
BLACK
6
CONTINUOUS
10
137.795
20
-73.895
11
137.919
21
-73.9146
0
LINE
8
BLACK
6
CONTINUOUS
10
139.895
20
-75.5792
11
140.083
21
-75.6361
0
LINE
8
BLACK
6
CONTINUOUS
10
140.083
20
-75.6361
11
140.256
21
-75.7285
0
LINE
8
BLACK
6
CONTINUOUS
10
140.256
20
-75.7285
11
140.407
21
-75.8529
0
LINE
8
BLACK
6
CONTINUOUS
10
140.407
20
-75.8529
11
140.531
21
-76.0044
0
LINE
8
BLACK
6
CONTINUOUS
10
140.531
20
-76.0044
11
140.624
21
-76.1773
0
LINE
8
BLACK
6
CONTINUOUS
10
140.624
20
-76.1773
11
140.681
21
-76.3649
0
LINE
8
BLACK
6
CONTINUOUS
10
140.681
20
-76.3649
11
140.7
21
-76.56
0
LINE
8
BLACK
6
CONTINUOUS
10
140.7
20
-76.56
11
140.681
21
-76.7551
0
LINE
8
BLACK
6
CONTINUOUS
10
140.681
20
-76.7551
11
140.624
21
-76.9427
0
LINE
8
BLACK
6
CONTINUOUS
10
140.624
20
-76.9427
11
140.531
21
-77.1156
0
LINE
8
BLACK
6
CONTINUOUS
10
140.531
20
-77.1156
11
140.407
21
-77.2671
0
LINE
8
BLACK
6
CONTINUOUS
10
140.407
20
-77.2671
11
140.256
21
-77.3915
0
LINE
8
BLACK
6
CONTINUOUS
10
140.256
20
-77.3915
11
140.083
21
-77.4839
0
LINE
8
BLACK
6
CONTINUOUS
10
140.083
20
-77.4839
11
139.895
21
-77.5408
0
LINE
8
BLACK
6
CONTINUOUS
10
139.895
20
-77.5408
11
139.7
21
-77.56
0
LINE
8
BLACK
6
CONTINUOUS
10
139.7
20
-77.56
11
139.505
21
-77.5408
0
LINE
8
BLACK
6
CONTINUOUS
10
139.505
20
-77.5408
11
139.317
21
-77.4839
0
LINE
8
BLACK
6
CONTINUOUS
10
139.317
20
-77.4839
11
139.144
21
-77.3915
0
LINE
8
BLACK
6
CONTINUOUS
10
139.144
20
-77.3915
11
138.993
21
-77.2671
0
LINE
8
BLACK
6
CONTINUOUS
10
138.993
20
-77.2671
11
138.869
21
-77.1156
0
LINE
8
BLACK
6
CONTINUOUS
10
138.869
20
-77.1156
11
138.776
21
-76.9427
0
LINE
8
BLACK
6
CONTINUOUS
10
138.776
20
-76.9427
11
138.719
21
-76.7551
0
LINE
8
BLACK
6
CONTINUOUS
10
138.719
20
-76.7551
11
138.7
21
-76.56
0
LINE
8
BLACK
6
CONTINUOUS
10
138.7
20
-76.56
11
138.719
21
-76.3649
0
LINE
8
BLACK
6
CONTINUOUS
10
138.719
20
-76.3649
11
138.776
21
-76.1773
0
LINE
8
BLACK
6
CONTINUOUS
10
138.776
20
-76.1773
11
138.869
21
-76.0044
0
LINE
8
BLACK
6
CONTINUOUS
10
138.869
20
-76.0044
11
138.993
21
-75.8529
0
LINE
8
BLACK
6
CONTINUOUS
10
138.993
20
-75.8529
11
139.144
21
-75.7285
0
LINE
8
BLACK
6
CONTINUOUS
10
139.144
20
-75.7285
11
139.317
21
-75.6361
0
LINE
8
BLACK
6
CONTINUOUS
10
139.317
20
-75.6361
11
139.505
21
-75.5792
0
LINE
8
BLACK
6
CONTINUOUS
10
139.505
20
-75.5792
11
139.7
21
-75.56
0
LINE
8
BLACK
6
CONTINUOUS
10
139.7
20
-75.56
11
139.895
21
-75.5792
0
LINE
8
BLACK
6
CONTINUOUS
10
165.295
20
-75.5792
11
165.483
21
-75.6361
0
LINE
8
BLACK
6
CONTINUOUS
10
165.483
20
-75.6361
11
165.656
21
-75.7285
0
LINE
8
BLACK
6
CONTINUOUS
10
165.656
20
-75.7285
11
165.807
21
-75.8529
0
LINE
8
BLACK
6
CONTINUOUS
10
165.807
20
-75.8529
11
165.931
21
-76.0044
0
LINE
8
BLACK
6
CONTINUOUS
10
165.931
20
-76.0044
11
166.024
21
-76.1773
0
LINE
8
BLACK
6
CONTINUOUS
10
166.024
20
-76.1773
11
166.081
21
-76.3649
0
LINE
8
BLACK
6
CONTINUOUS
10
166.081
20
-76.3649
11
166.1
21
-76.56
0
LINE
8
BLACK
6
CONTINUOUS
10
166.1
20
-76.56
11
166.081
21
-76.7551
0
LINE
8
BLACK
6
CONTINUOUS
10
166.081
20
-76.7551
11
166.024
21
-76.9427
0
LINE
8
BLACK
6
CONTINUOUS
10
166.024
20
-76.9427
11
165.931
21
-77.1156
0
LINE
8
BLACK
6
CONTINUOUS
10
165.931
20
-77.1156
11
165.807
21
-77.2671
0
LINE
8
BLACK
6
CONTINUOUS
10
165.807
20
-77.2671
11
165.656
21
-77.3915
0
LINE
8
BLACK
6
CONTINUOUS
10
165.656
20
-77.3915
11
165.483
21
-77.4839
0
LINE
8
BLACK
6
CONTINUOUS
10
165.483
20
-77.4839
11
165.295
21
-77.5408
0
LINE
8
BLACK
6
CONTINUOUS
10
165.295
20
-77.5408
11
165.1
21
-77.56
0
LINE
8
BLACK
6
CONTINUOUS
10
165.1
20
-77.56
11
164.905
21
-77.5408
0
LINE
8
BLACK
6
CONTINUOUS
10
164.905
20
-77.5408
11
164.717
21
-77.4839
0
LINE
8
BLACK
6
CONTINUOUS
10
164.717
20
-77.4839
11
164.544
21
-77.3915
0
LINE
8
BLACK
6
CONTINUOUS
10
164.544
20
-77.3915
11
164.393
21
-77.2671
0
LINE
8
BLACK
6
CONTINUOUS
10
164.393
20
-77.2671
11
164.269
21
-77.1156
0
LINE
8
BLACK
6
CONTINUOUS
10
164.269
20
-77.1156
11
164.176
21
-76.9427
0
LINE
8
BLACK
6
CONTINUOUS
10
164.176
20
-76.9427
11
164.119
21
-76.7551
0
LINE
8
BLACK
6
CONTINUOUS
10
164.119
20
-76.7551
11
164.1
21
-76.56
0
LINE
8
BLACK
6
CONTINUOUS
10
164.1
20
-76.56
11
164.119
21
-76.3649
0
LINE
8
BLACK
6
CONTINUOUS
10
164.119
20
-76.3649
11
164.176
21
-76.1773
0
LINE
8
BLACK
6
CONTINUOUS
10
164.176
20
-76.1773
11
164.269
21
-76.0044
0
LINE
8
BLACK
6
CONTINUOUS
10
164.269
20
-76.0044
11
164.393
21
-75.8529
0
LINE
8
BLACK
6
CONTINUOUS
10
164.393
20
-75.8529
11
164.544
21
-75.7285
0
LINE
8
BLACK
6
CONTINUOUS
10
164.544
20
-75.7285
11
164.717
21
-75.6361
0
LINE
8
BLACK
6
CONTINUOUS
10
164.717
20
-75.6361
11
164.905
21
-75.5792
0
LINE
8
BLACK
6
CONTINUOUS
10
164.905
20
-75.5792
11
165.1
21
-75.56
0
LINE
8
BLACK
6
CONTINUOUS
10
165.1
20
-75.56
11
165.295
21
-75.5792
0
LINE
8
BLACK
6
CONTINUOUS
10
139.895
20
-73.0392
11
140.083
21
-73.0961
0
LINE
8
BLACK
6
CONTINUOUS
10
140.083
20
-73.0961
11
140.256
21
-73.1885
0
LINE
8
BLACK
6
CONTINUOUS
10
140.256
20
-73.1885
11
140.407
21
-73.3129
0
LINE
8
BLACK
6
CONTINUOUS
10
140.407
20
-73.3129
11
140.531
21
-73.4644
0
LINE
8
BLACK
6
CONTINUOUS
10
140.531
20
-73.4644
11
140.624
21
-73.6373
0
LINE
8
BLACK
6
CONTINUOUS
10
140.624
20
-73.6373
11
140.681
21
-73.8249
0
LINE
8
BLACK
6
CONTINUOUS
10
140.681
20
-73.8249
11
140.7
21
-74.02
0
LINE
8
BLACK
6
CONTINUOUS
10
140.7
20
-74.02
11
140.681
21
-74.2151
0
LINE
8
BLACK
6
CONTINUOUS
10
140.681
20
-74.2151
11
140.624
21
-74.4027
0
LINE
8
BLACK
6
CONTINUOUS
10
140.624
20
-74.4027
11
140.531
21
-74.5756
0
LINE
8
BLACK
6
CONTINUOUS
10
140.531
20
-74.5756
11
140.407
21
-74.7271
0
LINE
8
BLACK
6
CONTINUOUS
10
140.407
20
-74.7271
11
140.256
21
-74.8515
0
LINE
8
BLACK
6
CONTINUOUS
10
140.256
20
-74.8515
11
140.083
21
-74.9439
0
LINE
8
BLACK
6
CONTINUOUS
10
140.083
20
-74.9439
11
139.895
21
-75.0008
0
LINE
8
BLACK
6
CONTINUOUS
10
139.895
20
-75.0008
11
139.7
21
-75.02
0
LINE
8
BLACK
6
CONTINUOUS
10
139.7
20
-75.02
11
139.505
21
-75.0008
0
LINE
8
BLACK
6
CONTINUOUS
10
139.505
20
-75.0008
11
139.317
21
-74.9439
0
LINE
8
BLACK
6
CONTINUOUS
10
139.317
20
-74.9439
11
139.144
21
-74.8515
0
LINE
8
BLACK
6
CONTINUOUS
10
139.144
20
-74.8515
11
138.993
21
-74.7271
0
LINE
8
BLACK
6
CONTINUOUS
10
138.993
20
-74.7271
11
138.869
21
-74.5756
0
LINE
8
BLACK
6
CONTINUOUS
10
138.869
20
-74.5756
11
138.776
21
-74.4027
0
LINE
8
BLACK
6
CONTINUOUS
10
138.776
20
-74.4027
11
138.719
21
-74.2151
0
LINE
8
BLACK
6
CONTINUOUS
10
138.719
20
-74.2151
11
138.7
21
-74.02
0
LINE
8
BLACK
6
CONTINUOUS
10
138.7
20
-74.02
11
138.719
21
-73.8249
0
LINE
8
BLACK
6
CONTINUOUS
10
138.719
20
-73.8249
11
138.776
21
-73.6373
0
LINE
8
BLACK
6
CONTINUOUS
10
138.776
20
-73.6373
11
138.869
21
-73.4644
0
LINE
8
BLACK
6
CONTINUOUS
10
138.869
20
-73.4644
11
138.993
21
-73.3129
0
LINE
8
BLACK
6
CONTINUOUS
10
138.993
20
-73.3129
11
139.144
21
-73.1885
0
LINE
8
BLACK
6
CONTINUOUS
10
139.144
20
-73.1885
11
139.317
21
-73.0961
0
LINE
8
BLACK
6
CONTINUOUS
10
139.317
20
-73.0961
11
139.505
21
-73.0392
0
LINE
8
BLACK
6
CONTINUOUS
10
139.505
20
-73.0392
11
139.7
21
-73.02
0
LINE
8
BLACK
6
CONTINUOUS
10
139.7
20
-73.02
11
139.895
21
-73.0392
0
LINE
8
BLACK
6
CONTINUOUS
10
165.295
20
-73.0392
11
165.483
21
-73.0961
0
LINE
8
BLACK
6
CONTINUOUS
10
165.483
20
-73.0961
11
165.656
21
-73.1885
0
LINE
8
BLACK
6
CONTINUOUS
10
165.656
20
-73.1885
11
165.807
21
-73.3129
0
LINE
8
BLACK
6
CONTINUOUS
10
165.807
20
-73.3129
11
165.931
21
-73.4644
0
LINE
8
BLACK
6
CONTINUOUS
10
165.931
20
-73.4644
11
166.024
21
-73.6373
0
LINE
8
BLACK
6
CONTINUOUS
10
166.024
20
-73.6373
11
166.081
21
-73.8249
0
LINE
8
BLACK
6
CONTINUOUS
10
166.081
20
-73.8249
11
166.1
21
-74.02
0
LINE
8
BLACK
6
CONTINUOUS
10
166.1
20
-74.02
11
166.081
21
-74.2151
0
LINE
8
BLACK
6
CONTINUOUS
10
166.081
20
-74.2151
11
166.024
21
-74.4027
0
LINE
8
BLACK
6
CONTINUOUS
10
166.024
20
-74.4027
11
165.931
21
-74.5756
0
LINE
8
BLACK
6
CONTINUOUS
10
165.931
20
-74.5756
11
165.807
21
-74.7271
0
LINE
8
BLACK
6
CONTINUOUS
10
165.807
20
-74.7271
11
165.656
21
-74.8515
0
LINE
8
BLACK
6
CONTINUOUS
10
165.656
20
-74.8515
11
165.483
21
-74.9439
0
LINE
8
BLACK
6
CONTINUOUS
10
165.483
20
-74.9439
11
165.295
21
-75.0008
0
LINE
8
BLACK
6
CONTINUOUS
10
165.295
20
-75.0008
11
165.1
21
-75.02
0
LINE
8
BLACK
6
CONTINUOUS
10
165.1
20
-75.02
11
164.905
21
-75.0008
0
LINE
8
BLACK
6
CONTINUOUS
10
164.905
20
-75.0008
11
164.717
21
-74.9439
0
LINE
8
BLACK
6
CONTINUOUS
10
164.717
20
-74.9439
11
164.544
21
-74.8515
0
LINE
8
BLACK
6
CONTINUOUS
10
164.544
20
-74.8515
11
164.393
21
-74.7271
0
LINE
8
BLACK
6
CONTINUOUS
10
164.393
20
-74.7271
11
164.269
21
-74.5756
0
LINE
8
BLACK
6
CONTINUOUS
10
164.269
20
-74.5756
11
164.176
21
-74.4027
0
LINE
8
BLACK
6
CONTINUOUS
10
164.176
20
-74.4027
11
164.119
21
-74.2151
0
LINE
8
BLACK
6
CONTINUOUS
10
164.119
20
-74.2151
11
164.1
21
-74.02
0
LINE
8
BLACK
6
CONTINUOUS
10
164.1
20
-74.02
11
164.119
21
-73.8249
0
LINE
8
BLACK
6
CONTINUOUS
10
164.119
20
-73.8249
11
164.176
21
-73.6373
0
LINE
8
BLACK
6
CONTINUOUS
10
164.176
20
-73.6373
11
164.269
21
-73.4644
0
LINE
8
BLACK
6
CONTINUOUS
10
164.269
20
-73.4644
11
164.393
21
-73.3129
0
LINE
8
BLACK
6
CONTINUOUS
10
164.393
20
-73.3129
11
164.544
21
-73.1885
0
LINE
8
BLACK
6
CONTINUOUS
10
164.544
20
-73.1885
11
164.717
21
-73.0961
0
LINE
8
BLACK
6
CONTINUOUS
10
164.717
20
-73.0961
11
164.905
21
-73.0392
0
LINE
8
BLACK
6
CONTINUOUS
10
164.905
20
-73.0392
11
165.1
21
-73.02
0
LINE
8
BLACK
6
CONTINUOUS
10
165.1
20
-73.02
11
165.295
21
-73.0392
0
LINE
8
BLACK
6
CONTINUOUS
10
108.943
20
-73.154
11
109.115
21
-73.2306
0
LINE
8
BLACK
6
CONTINUOUS
10
109.115
20
-73.2306
11
109.267
21
-73.3412
0
LINE
8
BLACK
6
CONTINUOUS
10
109.267
20
-73.3412
11
109.393
21
-73.481
0
LINE
8
BLACK
6
CONTINUOUS
10
109.393
20
-73.481
11
109.487
21
-73.6439
0
LINE
8
BLACK
6
CONTINUOUS
10
109.487
20
-73.6439
11
109.545
21
-73.8229
0
LINE
8
BLACK
6
CONTINUOUS
10
109.545
20
-73.8229
11
109.565
21
-74.01
0
LINE
8
BLACK
6
CONTINUOUS
10
109.565
20
-74.01
11
109.545
21
-74.1971
0
LINE
8
BLACK
6
CONTINUOUS
10
109.545
20
-74.1971
11
109.487
21
-74.3761
0
LINE
8
BLACK
6
CONTINUOUS
10
109.487
20
-74.3761
11
109.393
21
-74.539
0
LINE
8
BLACK
6
CONTINUOUS
10
109.393
20
-74.539
11
109.267
21
-74.6788
0
LINE
8
BLACK
6
CONTINUOUS
10
109.267
20
-74.6788
11
109.115
21
-74.7894
0
LINE
8
BLACK
6
CONTINUOUS
10
109.115
20
-74.7894
11
108.943
21
-74.866
0
LINE
8
BLACK
6
CONTINUOUS
10
108.943
20
-74.866
11
108.759
21
-74.9051
0
LINE
8
BLACK
6
CONTINUOUS
10
108.759
20
-74.9051
11
108.571
21
-74.9051
0
LINE
8
BLACK
6
CONTINUOUS
10
108.571
20
-74.9051
11
108.387
21
-74.866
0
LINE
8
BLACK
6
CONTINUOUS
10
108.387
20
-74.866
11
108.215
21
-74.7894
0
LINE
8
BLACK
6
CONTINUOUS
10
108.215
20
-74.7894
11
108.063
21
-74.6788
0
LINE
8
BLACK
6
CONTINUOUS
10
108.063
20
-74.6788
11
107.937
21
-74.539
0
LINE
8
BLACK
6
CONTINUOUS
10
107.937
20
-74.539
11
107.843
21
-74.3761
0
LINE
8
BLACK
6
CONTINUOUS
10
107.843
20
-74.3761
11
107.785
21
-74.1971
0
LINE
8
BLACK
6
CONTINUOUS
10
107.785
20
-74.1971
11
107.765
21
-74.01
0
LINE
8
BLACK
6
CONTINUOUS
10
107.765
20
-74.01
11
107.785
21
-73.8229
0
LINE
8
BLACK
6
CONTINUOUS
10
107.785
20
-73.8229
11
107.843
21
-73.6439
0
LINE
8
BLACK
6
CONTINUOUS
10
107.843
20
-73.6439
11
107.937
21
-73.481
0
LINE
8
BLACK
6
CONTINUOUS
10
107.937
20
-73.481
11
108.063
21
-73.3412
0
LINE
8
BLACK
6
CONTINUOUS
10
108.063
20
-73.3412
11
108.215
21
-73.2306
0
LINE
8
BLACK
6
CONTINUOUS
10
108.215
20
-73.2306
11
108.387
21
-73.154
0
LINE
8
BLACK
6
CONTINUOUS
10
108.387
20
-73.154
11
108.571
21
-73.1149
0
LINE
8
BLACK
6
CONTINUOUS
10
108.571
20
-73.1149
11
108.759
21
-73.1149
0
LINE
8
BLACK
6
CONTINUOUS
10
108.759
20
-73.1149
11
108.943
21
-73.154
0
LINE
8
BLACK
6
CONTINUOUS
10
111.443
20
-73.154
11
111.615
21
-73.2306
0
LINE
8
BLACK
6
CONTINUOUS
10
111.615
20
-73.2306
11
111.767
21
-73.3412
0
LINE
8
BLACK
6
CONTINUOUS
10
111.767
20
-73.3412
11
111.893
21
-73.481
0
LINE
8
BLACK
6
CONTINUOUS
10
111.893
20
-73.481
11
111.987
21
-73.6439
0
LINE
8
BLACK
6
CONTINUOUS
10
111.987
20
-73.6439
11
112.045
21
-73.8229
0
LINE
8
BLACK
6
CONTINUOUS
10
112.045
20
-73.8229
11
112.065
21
-74.01
0
LINE
8
BLACK
6
CONTINUOUS
10
112.065
20
-74.01
11
112.045
21
-74.1971
0
LINE
8
BLACK
6
CONTINUOUS
10
112.045
20
-74.1971
11
111.987
21
-74.3761
0
LINE
8
BLACK
6
CONTINUOUS
10
111.987
20
-74.3761
11
111.893
21
-74.539
0
LINE
8
BLACK
6
CONTINUOUS
10
111.893
20
-74.539
11
111.767
21
-74.6788
0
LINE
8
BLACK
6
CONTINUOUS
10
111.767
20
-74.6788
11
111.615
21
-74.7894
0
LINE
8
BLACK
6
CONTINUOUS
10
111.615
20
-74.7894
11
111.443
21
-74.866
0
LINE
8
BLACK
6
CONTINUOUS
10
111.443
20
-74.866
11
111.259
21
-74.9051
0
LINE
8
BLACK
6
CONTINUOUS
10
111.259
20
-74.9051
11
111.071
21
-74.9051
0
LINE
8
BLACK
6
CONTINUOUS
10
111.071
20
-74.9051
11
110.887
21
-74.866
0
LINE
8
BLACK
6
CONTINUOUS
10
110.887
20
-74.866
11
110.715
21
-74.7894
0
LINE
8
BLACK
6
CONTINUOUS
10
110.715
20
-74.7894
11
110.563
21
-74.6788
0
LINE
8
BLACK
6
CONTINUOUS
10
110.563
20
-74.6788
11
110.437
21
-74.539
0
LINE
8
BLACK
6
CONTINUOUS
10
110.437
20
-74.539
11
110.343
21
-74.3761
0
LINE
8
BLACK
6
CONTINUOUS
10
110.343
20
-74.3761
11
110.285
21
-74.1971
0
LINE
8
BLACK
6
CONTINUOUS
10
110.285
20
-74.1971
11
110.265
21
-74.01
0
LINE
8
BLACK
6
CONTINUOUS
10
110.265
20
-74.01
11
110.285
21
-73.8229
0
LINE
8
BLACK
6
CONTINUOUS
10
110.285
20
-73.8229
11
110.343
21
-73.6439
0
LINE
8
BLACK
6
CONTINUOUS
10
110.343
20
-73.6439
11
110.437
21
-73.481
0
LINE
8
BLACK
6
CONTINUOUS
10
110.437
20
-73.481
11
110.563
21
-73.3412
0
LINE
8
BLACK
6
CONTINUOUS
10
110.563
20
-73.3412
11
110.715
21
-73.2306
0
LINE
8
BLACK
6
CONTINUOUS
10
110.715
20
-73.2306
11
110.887
21
-73.154
0
LINE
8
BLACK
6
CONTINUOUS
10
110.887
20
-73.154
11
111.071
21
-73.1149
0
LINE
8
BLACK
6
CONTINUOUS
10
111.071
20
-73.1149
11
111.259
21
-73.1149
0
LINE
8
BLACK
6
CONTINUOUS
10
111.259
20
-73.1149
11
111.443
21
-73.154
0
LINE
8
BLACK
6
CONTINUOUS
10
113.943
20
-73.154
11
114.115
21
-73.2306
0
LINE
8
BLACK
6
CONTINUOUS
10
114.115
20
-73.2306
11
114.267
21
-73.3412
0
LINE
8
BLACK
6
CONTINUOUS
10
114.267
20
-73.3412
11
114.393
21
-73.481
0
LINE
8
BLACK
6
CONTINUOUS
10
114.393
20
-73.481
11
114.487
21
-73.6439
0
LINE
8
BLACK
6
CONTINUOUS
10
114.487
20
-73.6439
11
114.545
21
-73.8229
0
LINE
8
BLACK
6
CONTINUOUS
10
114.545
20
-73.8229
11
114.565
21
-74.01
0
LINE
8
BLACK
6
CONTINUOUS
10
114.565
20
-74.01
11
114.545
21
-74.1971
0
LINE
8
BLACK
6
CONTINUOUS
10
114.545
20
-74.1971
11
114.487
21
-74.3761
0
LINE
8
BLACK
6
CONTINUOUS
10
114.487
20
-74.3761
11
114.393
21
-74.539
0
LINE
8
BLACK
6
CONTINUOUS
10
114.393
20
-74.539
11
114.267
21
-74.6788
0
LINE
8
BLACK
6
CONTINUOUS
10
114.267
20
-74.6788
11
114.115
21
-74.7894
0
LINE
8
BLACK
6
CONTINUOUS
10
114.115
20
-74.7894
11
113.943
21
-74.866
0
LINE
8
BLACK
6
CONTINUOUS
10
113.943
20
-74.866
11
113.759
21
-74.9051
0
LINE
8
BLACK
6
CONTINUOUS
10
113.759
20
-74.9051
11
113.571
21
-74.9051
0
LINE
8
BLACK
6
CONTINUOUS
10
113.571
20
-74.9051
11
113.387
21
-74.866
0
LINE
8
BLACK
6
CONTINUOUS
10
113.387
20
-74.866
11
113.215
21
-74.7894
0
LINE
8
BLACK
6
CONTINUOUS
10
113.215
20
-74.7894
11
113.063
21
-74.6788
0
LINE
8
BLACK
6
CONTINUOUS
10
113.063
20
-74.6788
11
112.937
21
-74.539
0
LINE
8
BLACK
6
CONTINUOUS
10
112.937
20
-74.539
11
112.843
21
-74.3761
0
LINE
8
BLACK
6
CONTINUOUS
10
112.843
20
-74.3761
11
112.785
21
-74.1971
0
LINE
8
BLACK
6
CONTINUOUS
10
112.785
20
-74.1971
11
112.765
21
-74.01
0
LINE
8
BLACK
6
CONTINUOUS
10
112.765
20
-74.01
11
112.785
21
-73.8229
0
LINE
8
BLACK
6
CONTINUOUS
10
112.785
20
-73.8229
11
112.843
21
-73.6439
0
LINE
8
BLACK
6
CONTINUOUS
10
112.843
20
-73.6439
11
112.937
21
-73.481
0
LINE
8
BLACK
6
CONTINUOUS
10
112.937
20
-73.481
11
113.063
21
-73.3412
0
LINE
8
BLACK
6
CONTINUOUS
10
113.063
20
-73.3412
11
113.215
21
-73.2306
0
LINE
8
BLACK
6
CONTINUOUS
10
113.215
20
-73.2306
11
113.387
21
-73.154
0
LINE
8
BLACK
6
CONTINUOUS
10
113.387
20
-73.154
11
113.571
21
-73.1149
0
LINE
8
BLACK
6
CONTINUOUS
10
113.571
20
-73.1149
11
113.759
21
-73.1149
0
LINE
8
BLACK
6
CONTINUOUS
10
113.759
20
-73.1149
11
113.943
21
-73.154
0
LINE
8
BLACK
6
CONTINUOUS
10
136.014
20
-73.9146
11
136.125
21
-73.9714
0
LINE
8
BLACK
6
CONTINUOUS
10
136.125
20
-73.9714
11
136.214
21
-74.0599
0
LINE
8
BLACK
6
CONTINUOUS
10
136.214
20
-74.0599
11
136.27
21
-74.1714
0
LINE
8
BLACK
6
CONTINUOUS
10
136.27
20
-74.1714
11
136.29
21
-74.295
0
LINE
8
BLACK
6
CONTINUOUS
10
136.29
20
-74.295
11
136.27
21
-74.4186
0
LINE
8
BLACK
6
CONTINUOUS
10
136.27
20
-74.4186
11
136.214
21
-74.5301
0
LINE
8
BLACK
6
CONTINUOUS
10
136.214
20
-74.5301
11
136.125
21
-74.6186
0
LINE
8
BLACK
6
CONTINUOUS
10
136.125
20
-74.6186
11
136.014
21
-74.6754
0
LINE
8
BLACK
6
CONTINUOUS
10
136.014
20
-74.6754
11
135.89
21
-74.695
0
LINE
8
BLACK
6
CONTINUOUS
10
135.89
20
-74.695
11
135.766
21
-74.6754
0
LINE
8
BLACK
6
CONTINUOUS
10
135.766
20
-74.6754
11
135.655
21
-74.6186
0
LINE
8
BLACK
6
CONTINUOUS
10
135.655
20
-74.6186
11
135.566
21
-74.5301
0
LINE
8
BLACK
6
CONTINUOUS
10
135.566
20
-74.5301
11
135.51
21
-74.42
0
LINE
8
BLACK
6
CONTINUOUS
10
135.51
20
-74.42
11
132.46
21
-74.42
0
LINE
8
BLACK
6
CONTINUOUS
10
132.46
20
-74.42
11
132.404
21
-74.5301
0
LINE
8
BLACK
6
CONTINUOUS
10
132.404
20
-74.5301
11
132.315
21
-74.6186
0
LINE
8
BLACK
6
CONTINUOUS
10
132.315
20
-74.6186
11
132.204
21
-74.6754
0
LINE
8
BLACK
6
CONTINUOUS
10
132.204
20
-74.6754
11
132.08
21
-74.695
0
LINE
8
BLACK
6
CONTINUOUS
10
132.08
20
-74.695
11
131.956
21
-74.6754
0
LINE
8
BLACK
6
CONTINUOUS
10
131.956
20
-74.6754
11
131.845
21
-74.6186
0
LINE
8
BLACK
6
CONTINUOUS
10
131.845
20
-74.6186
11
131.756
21
-74.5301
0
LINE
8
BLACK
6
CONTINUOUS
10
131.756
20
-74.5301
11
131.7
21
-74.4186
0
LINE
8
BLACK
6
CONTINUOUS
10
131.7
20
-74.4186
11
131.68
21
-74.295
0
LINE
8
BLACK
6
CONTINUOUS
10
131.68
20
-74.295
11
131.7
21
-74.1714
0
LINE
8
BLACK
6
CONTINUOUS
10
131.7
20
-74.1714
11
131.756
21
-74.0599
0
LINE
8
BLACK
6
CONTINUOUS
10
131.756
20
-74.0599
11
131.845
21
-73.9714
0
LINE
8
BLACK
6
CONTINUOUS
10
131.845
20
-73.9714
11
131.956
21
-73.9146
0
LINE
8
BLACK
6
CONTINUOUS
10
131.956
20
-73.9146
11
132.08
21
-73.895
0
LINE
8
BLACK
6
CONTINUOUS
10
132.08
20
-73.895
11
132.204
21
-73.9146
0
LINE
8
BLACK
6
CONTINUOUS
10
132.204
20
-73.9146
11
132.315
21
-73.9714
0
LINE
8
BLACK
6
CONTINUOUS
10
132.315
20
-73.9714
11
132.404
21
-74.0599
0
LINE
8
BLACK
6
CONTINUOUS
10
132.404
20
-74.0599
11
132.46
21
-74.17
0
LINE
8
BLACK
6
CONTINUOUS
10
132.46
20
-74.17
11
135.51
21
-74.17
0
LINE
8
BLACK
6
CONTINUOUS
10
135.51
20
-74.17
11
135.566
21
-74.0599
0
LINE
8
BLACK
6
CONTINUOUS
10
135.566
20
-74.0599
11
135.655
21
-73.9714
0
LINE
8
BLACK
6
CONTINUOUS
10
135.655
20
-73.9714
11
135.766
21
-73.9146
0
LINE
8
BLACK
6
CONTINUOUS
10
135.766
20
-73.9146
11
135.89
21
-73.895
0
LINE
8
BLACK
6
CONTINUOUS
10
135.89
20
-73.895
11
136.014
21
-73.9146
0
LINE
8
BLACK
6
CONTINUOUS
10
131.1
20
-69.5912
11
131.28
21
-69.6711
0
LINE
8
BLACK
6
CONTINUOUS
10
131.28
20
-69.6711
11
131.439
21
-69.7866
0
LINE
8
BLACK
6
CONTINUOUS
10
131.439
20
-69.7866
11
131.57
21
-69.9326
0
LINE
8
BLACK
6
CONTINUOUS
10
131.57
20
-69.9326
11
131.669
21
-70.1027
0
LINE
8
BLACK
6
CONTINUOUS
10
131.669
20
-70.1027
11
131.729
21
-70.2896
0
LINE
8
BLACK
6
CONTINUOUS
10
131.729
20
-70.2896
11
131.75
21
-70.485
0
LINE
8
BLACK
6
CONTINUOUS
10
131.75
20
-70.485
11
131.729
21
-70.6804
0
LINE
8
BLACK
6
CONTINUOUS
10
131.729
20
-70.6804
11
131.669
21
-70.8673
0
LINE
8
BLACK
6
CONTINUOUS
10
131.669
20
-70.8673
11
131.57
21
-71.0374
0
LINE
8
BLACK
6
CONTINUOUS
10
131.57
20
-71.0374
11
131.439
21
-71.1834
0
LINE
8
BLACK
6
CONTINUOUS
10
131.439
20
-71.1834
11
131.28
21
-71.2989
0
LINE
8
BLACK
6
CONTINUOUS
10
131.28
20
-71.2989
11
131.1
21
-71.3788
0
LINE
8
BLACK
6
CONTINUOUS
10
131.1
20
-71.3788
11
130.908
21
-71.4197
0
LINE
8
BLACK
6
CONTINUOUS
10
130.908
20
-71.4197
11
130.712
21
-71.4197
0
LINE
8
BLACK
6
CONTINUOUS
10
130.712
20
-71.4197
11
130.52
21
-71.3788
0
LINE
8
BLACK
6
CONTINUOUS
10
130.52
20
-71.3788
11
130.34
21
-71.2989
0
LINE
8
BLACK
6
CONTINUOUS
10
130.34
20
-71.2989
11
130.181
21
-71.1834
0
LINE
8
BLACK
6
CONTINUOUS
10
130.181
20
-71.1834
11
130.05
21
-71.0374
0
LINE
8
BLACK
6
CONTINUOUS
10
130.05
20
-71.0374
11
129.951
21
-70.8673
0
LINE
8
BLACK
6
CONTINUOUS
10
129.951
20
-70.8673
11
129.891
21
-70.6804
0
LINE
8
BLACK
6
CONTINUOUS
10
129.891
20
-70.6804
11
129.87
21
-70.485
0
LINE
8
BLACK
6
CONTINUOUS
10
129.87
20
-70.485
11
129.891
21
-70.2896
0
LINE
8
BLACK
6
CONTINUOUS
10
129.891
20
-70.2896
11
129.951
21
-70.1027
0
LINE
8
BLACK
6
CONTINUOUS
10
129.951
20
-70.1027
11
130.05
21
-69.9326
0
LINE
8
BLACK
6
CONTINUOUS
10
130.05
20
-69.9326
11
130.181
21
-69.7866
0
LINE
8
BLACK
6
CONTINUOUS
10
130.181
20
-69.7866
11
130.34
21
-69.6711
0
LINE
8
BLACK
6
CONTINUOUS
10
130.34
20
-69.6711
11
130.52
21
-69.5912
0
LINE
8
BLACK
6
CONTINUOUS
10
130.52
20
-69.5912
11
130.712
21
-69.5503
0
LINE
8
BLACK
6
CONTINUOUS
10
130.712
20
-69.5503
11
130.908
21
-69.5503
0
LINE
8
BLACK
6
CONTINUOUS
10
130.908
20
-69.5503
11
131.1
21
-69.5912
0
LINE
8
BLACK
6
CONTINUOUS
10
133.64
20
-69.5912
11
133.82
21
-69.6711
0
LINE
8
BLACK
6
CONTINUOUS
10
133.82
20
-69.6711
11
133.979
21
-69.7866
0
LINE
8
BLACK
6
CONTINUOUS
10
133.979
20
-69.7866
11
134.11
21
-69.9326
0
LINE
8
BLACK
6
CONTINUOUS
10
134.11
20
-69.9326
11
134.209
21
-70.1027
0
LINE
8
BLACK
6
CONTINUOUS
10
134.209
20
-70.1027
11
134.269
21
-70.2896
0
LINE
8
BLACK
6
CONTINUOUS
10
134.269
20
-70.2896
11
134.29
21
-70.485
0
LINE
8
BLACK
6
CONTINUOUS
10
134.29
20
-70.485
11
134.269
21
-70.6804
0
LINE
8
BLACK
6
CONTINUOUS
10
134.269
20
-70.6804
11
134.209
21
-70.8673
0
LINE
8
BLACK
6
CONTINUOUS
10
134.209
20
-70.8673
11
134.11
21
-71.0374
0
LINE
8
BLACK
6
CONTINUOUS
10
134.11
20
-71.0374
11
133.979
21
-71.1834
0
LINE
8
BLACK
6
CONTINUOUS
10
133.979
20
-71.1834
11
133.82
21
-71.2989
0
LINE
8
BLACK
6
CONTINUOUS
10
133.82
20
-71.2989
11
133.64
21
-71.3788
0
LINE
8
BLACK
6
CONTINUOUS
10
133.64
20
-71.3788
11
133.448
21
-71.4197
0
LINE
8
BLACK
6
CONTINUOUS
10
133.448
20
-71.4197
11
133.252
21
-71.4197
0
LINE
8
BLACK
6
CONTINUOUS
10
133.252
20
-71.4197
11
133.06
21
-71.3788
0
LINE
8
BLACK
6
CONTINUOUS
10
133.06
20
-71.3788
11
132.88
21
-71.2989
0
LINE
8
BLACK
6
CONTINUOUS
10
132.88
20
-71.2989
11
132.721
21
-71.1834
0
LINE
8
BLACK
6
CONTINUOUS
10
132.721
20
-71.1834
11
132.59
21
-71.0374
0
LINE
8
BLACK
6
CONTINUOUS
10
132.59
20
-71.0374
11
132.491
21
-70.8673
0
LINE
8
BLACK
6
CONTINUOUS
10
132.491
20
-70.8673
11
132.431
21
-70.6804
0
LINE
8
BLACK
6
CONTINUOUS
10
132.431
20
-70.6804
11
132.41
21
-70.485
0
LINE
8
BLACK
6
CONTINUOUS
10
132.41
20
-70.485
11
132.431
21
-70.2896
0
LINE
8
BLACK
6
CONTINUOUS
10
132.431
20
-70.2896
11
132.491
21
-70.1027
0
LINE
8
BLACK
6
CONTINUOUS
10
132.491
20
-70.1027
11
132.59
21
-69.9326
0
LINE
8
BLACK
6
CONTINUOUS
10
132.59
20
-69.9326
11
132.721
21
-69.7866
0
LINE
8
BLACK
6
CONTINUOUS
10
132.721
20
-69.7866
11
132.88
21
-69.6711
0
LINE
8
BLACK
6
CONTINUOUS
10
132.88
20
-69.6711
11
133.06
21
-69.5912
0
LINE
8
BLACK
6
CONTINUOUS
10
133.06
20
-69.5912
11
133.252
21
-69.5503
0
LINE
8
BLACK
6
CONTINUOUS
10
133.252
20
-69.5503
11
133.448
21
-69.5503
0
LINE
8
BLACK
6
CONTINUOUS
10
133.448
20
-69.5503
11
133.64
21
-69.5912
0
LINE
8
BLACK
6
CONTINUOUS
10
136.18
20
-69.5912
11
136.36
21
-69.6711
0
LINE
8
BLACK
6
CONTINUOUS
10
136.36
20
-69.6711
11
136.519
21
-69.7866
0
LINE
8
BLACK
6
CONTINUOUS
10
136.519
20
-69.7866
11
136.65
21
-69.9326
0
LINE
8
BLACK
6
CONTINUOUS
10
136.65
20
-69.9326
11
136.749
21
-70.1027
0
LINE
8
BLACK
6
CONTINUOUS
10
136.749
20
-70.1027
11
136.809
21
-70.2896
0
LINE
8
BLACK
6
CONTINUOUS
10
136.809
20
-70.2896
11
136.83
21
-70.485
0
LINE
8
BLACK
6
CONTINUOUS
10
136.83
20
-70.485
11
136.809
21
-70.6804
0
LINE
8
BLACK
6
CONTINUOUS
10
136.809
20
-70.6804
11
136.749
21
-70.8673
0
LINE
8
BLACK
6
CONTINUOUS
10
136.749
20
-70.8673
11
136.65
21
-71.0374
0
LINE
8
BLACK
6
CONTINUOUS
10
136.65
20
-71.0374
11
136.519
21
-71.1834
0
LINE
8
BLACK
6
CONTINUOUS
10
136.519
20
-71.1834
11
136.36
21
-71.2989
0
LINE
8
BLACK
6
CONTINUOUS
10
136.36
20
-71.2989
11
136.18
21
-71.3788
0
LINE
8
BLACK
6
CONTINUOUS
10
136.18
20
-71.3788
11
135.988
21
-71.4197
0
LINE
8
BLACK
6
CONTINUOUS
10
135.988
20
-71.4197
11
135.792
21
-71.4197
0
LINE
8
BLACK
6
CONTINUOUS
10
135.792
20
-71.4197
11
135.6
21
-71.3788
0
LINE
8
BLACK
6
CONTINUOUS
10
135.6
20
-71.3788
11
135.42
21
-71.2989
0
LINE
8
BLACK
6
CONTINUOUS
10
135.42
20
-71.2989
11
135.261
21
-71.1834
0
LINE
8
BLACK
6
CONTINUOUS
10
135.261
20
-71.1834
11
135.13
21
-71.0374
0
LINE
8
BLACK
6
CONTINUOUS
10
135.13
20
-71.0374
11
135.031
21
-70.8673
0
LINE
8
BLACK
6
CONTINUOUS
10
135.031
20
-70.8673
11
134.971
21
-70.6804
0
LINE
8
BLACK
6
CONTINUOUS
10
134.971
20
-70.6804
11
134.95
21
-70.485
0
LINE
8
BLACK
6
CONTINUOUS
10
134.95
20
-70.485
11
134.971
21
-70.2896
0
LINE
8
BLACK
6
CONTINUOUS
10
134.971
20
-70.2896
11
135.031
21
-70.1027
0
LINE
8
BLACK
6
CONTINUOUS
10
135.031
20
-70.1027
11
135.13
21
-69.9326
0
LINE
8
BLACK
6
CONTINUOUS
10
135.13
20
-69.9326
11
135.261
21
-69.7866
0
LINE
8
BLACK
6
CONTINUOUS
10
135.261
20
-69.7866
11
135.42
21
-69.6711
0
LINE
8
BLACK
6
CONTINUOUS
10
135.42
20
-69.6711
11
135.6
21
-69.5912
0
LINE
8
BLACK
6
CONTINUOUS
10
135.6
20
-69.5912
11
135.792
21
-69.5503
0
LINE
8
BLACK
6
CONTINUOUS
10
135.792
20
-69.5503
11
135.988
21
-69.5503
0
LINE
8
BLACK
6
CONTINUOUS
10
135.988
20
-69.5503
11
136.18
21
-69.5912
0
LINE
8
BLACK
6
CONTINUOUS
10
139.895
20
-70.4992
11
140.083
21
-70.5561
0
LINE
8
BLACK
6
CONTINUOUS
10
140.083
20
-70.5561
11
140.256
21
-70.6485
0
LINE
8
BLACK
6
CONTINUOUS
10
140.256
20
-70.6485
11
140.407
21
-70.7729
0
LINE
8
BLACK
6
CONTINUOUS
10
140.407
20
-70.7729
11
140.531
21
-70.9244
0
LINE
8
BLACK
6
CONTINUOUS
10
140.531
20
-70.9244
11
140.624
21
-71.0973
0
LINE
8
BLACK
6
CONTINUOUS
10
140.624
20
-71.0973
11
140.681
21
-71.2849
0
LINE
8
BLACK
6
CONTINUOUS
10
140.681
20
-71.2849
11
140.7
21
-71.48
0
LINE
8
BLACK
6
CONTINUOUS
10
140.7
20
-71.48
11
140.681
21
-71.6751
0
LINE
8
BLACK
6
CONTINUOUS
10
140.681
20
-71.6751
11
140.624
21
-71.8627
0
LINE
8
BLACK
6
CONTINUOUS
10
140.624
20
-71.8627
11
140.531
21
-72.0356
0
LINE
8
BLACK
6
CONTINUOUS
10
140.531
20
-72.0356
11
140.407
21
-72.1871
0
LINE
8
BLACK
6
CONTINUOUS
10
140.407
20
-72.1871
11
140.256
21
-72.3115
0
LINE
8
BLACK
6
CONTINUOUS
10
140.256
20
-72.3115
11
140.083
21
-72.4039
0
LINE
8
BLACK
6
CONTINUOUS
10
140.083
20
-72.4039
11
139.895
21
-72.4608
0
LINE
8
BLACK
6
CONTINUOUS
10
139.895
20
-72.4608
11
139.7
21
-72.48
0
LINE
8
BLACK
6
CONTINUOUS
10
139.7
20
-72.48
11
139.505
21
-72.4608
0
LINE
8
BLACK
6
CONTINUOUS
10
139.505
20
-72.4608
11
139.317
21
-72.4039
0
LINE
8
BLACK
6
CONTINUOUS
10
139.317
20
-72.4039
11
139.144
21
-72.3115
0
LINE
8
BLACK
6
CONTINUOUS
10
139.144
20
-72.3115
11
138.993
21
-72.1871
0
LINE
8
BLACK
6
CONTINUOUS
10
138.993
20
-72.1871
11
138.869
21
-72.0356
0
LINE
8
BLACK
6
CONTINUOUS
10
138.869
20
-72.0356
11
138.776
21
-71.8627
0
LINE
8
BLACK
6
CONTINUOUS
10
138.776
20
-71.8627
11
138.719
21
-71.6751
0
LINE
8
BLACK
6
CONTINUOUS
10
138.719
20
-71.6751
11
138.7
21
-71.48
0
LINE
8
BLACK
6
CONTINUOUS
10
138.7
20
-71.48
11
138.719
21
-71.2849
0
LINE
8
BLACK
6
CONTINUOUS
10
138.719
20
-71.2849
11
138.776
21
-71.0973
0
LINE
8
BLACK
6
CONTINUOUS
10
138.776
20
-71.0973
11
138.869
21
-70.9244
0
LINE
8
BLACK
6
CONTINUOUS
10
138.869
20
-70.9244
11
138.993
21
-70.7729
0
LINE
8
BLACK
6
CONTINUOUS
10
138.993
20
-70.7729
11
139.144
21
-70.6485
0
LINE
8
BLACK
6
CONTINUOUS
10
139.144
20
-70.6485
11
139.317
21
-70.5561
0
LINE
8
BLACK
6
CONTINUOUS
10
139.317
20
-70.5561
11
139.505
21
-70.4992
0
LINE
8
BLACK
6
CONTINUOUS
10
139.505
20
-70.4992
11
139.7
21
-70.48
0
LINE
8
BLACK
6
CONTINUOUS
10
139.7
20
-70.48
11
139.895
21
-70.4992
0
LINE
8
BLACK
6
CONTINUOUS
10
165.295
20
-70.4992
11
165.483
21
-70.5561
0
LINE
8
BLACK
6
CONTINUOUS
10
165.483
20
-70.5561
11
165.656
21
-70.6485
0
LINE
8
BLACK
6
CONTINUOUS
10
165.656
20
-70.6485
11
165.807
21
-70.7729
0
LINE
8
BLACK
6
CONTINUOUS
10
165.807
20
-70.7729
11
165.931
21
-70.9244
0
LINE
8
BLACK
6
CONTINUOUS
10
165.931
20
-70.9244
11
166.024
21
-71.0973
0
LINE
8
BLACK
6
CONTINUOUS
10
166.024
20
-71.0973
11
166.081
21
-71.2849
0
LINE
8
BLACK
6
CONTINUOUS
10
166.081
20
-71.2849
11
166.1
21
-71.48
0
LINE
8
BLACK
6
CONTINUOUS
10
166.1
20
-71.48
11
166.081
21
-71.6751
0
LINE
8
BLACK
6
CONTINUOUS
10
166.081
20
-71.6751
11
166.024
21
-71.8627
0
LINE
8
BLACK
6
CONTINUOUS
10
166.024
20
-71.8627
11
165.931
21
-72.0356
0
LINE
8
BLACK
6
CONTINUOUS
10
165.931
20
-72.0356
11
165.807
21
-72.1871
0
LINE
8
BLACK
6
CONTINUOUS
10
165.807
20
-72.1871
11
165.656
21
-72.3115
0
LINE
8
BLACK
6
CONTINUOUS
10
165.656
20
-72.3115
11
165.483
21
-72.4039
0
LINE
8
BLACK
6
CONTINUOUS
10
165.483
20
-72.4039
11
165.295
21
-72.4608
0
LINE
8
BLACK
6
CONTINUOUS
10
165.295
20
-72.4608
11
165.1
21
-72.48
0
LINE
8
BLACK
6
CONTINUOUS
10
165.1
20
-72.48
11
164.905
21
-72.4608
0
LINE
8
BLACK
6
CONTINUOUS
10
164.905
20
-72.4608
11
164.717
21
-72.4039
0
LINE
8
BLACK
6
CONTINUOUS
10
164.717
20
-72.4039
11
164.544
21
-72.3115
0
LINE
8
BLACK
6
CONTINUOUS
10
164.544
20
-72.3115
11
164.393
21
-72.1871
0
LINE
8
BLACK
6
CONTINUOUS
10
164.393
20
-72.1871
11
164.269
21
-72.0356
0
LINE
8
BLACK
6
CONTINUOUS
10
164.269
20
-72.0356
11
164.176
21
-71.8627
0
LINE
8
BLACK
6
CONTINUOUS
10
164.176
20
-71.8627
11
164.119
21
-71.6751
0
LINE
8
BLACK
6
CONTINUOUS
10
164.119
20
-71.6751
11
164.1
21
-71.48
0
LINE
8
BLACK
6
CONTINUOUS
10
164.1
20
-71.48
11
164.119
21
-71.2849
0
LINE
8
BLACK
6
CONTINUOUS
10
164.119
20
-71.2849
11
164.176
21
-71.0973
0
LINE
8
BLACK
6
CONTINUOUS
10
164.176
20
-71.0973
11
164.269
21
-70.9244
0
LINE
8
BLACK
6
CONTINUOUS
10
164.269
20
-70.9244
11
164.393
21
-70.7729
0
LINE
8
BLACK
6
CONTINUOUS
10
164.393
20
-70.7729
11
164.544
21
-70.6485
0
LINE
8
BLACK
6
CONTINUOUS
10
164.544
20
-70.6485
11
164.717
21
-70.5561
0
LINE
8
BLACK
6
CONTINUOUS
10
164.717
20
-70.5561
11
164.905
21
-70.4992
0
LINE
8
BLACK
6
CONTINUOUS
10
164.905
20
-70.4992
11
165.1
21
-70.48
0
LINE
8
BLACK
6
CONTINUOUS
10
165.1
20
-70.48
11
165.295
21
-70.4992
0
LINE
8
BLACK
6
CONTINUOUS
10
139.895
20
-67.9592
11
140.083
21
-68.0161
0
LINE
8
BLACK
6
CONTINUOUS
10
140.083
20
-68.0161
11
140.256
21
-68.1085
0
LINE
8
BLACK
6
CONTINUOUS
10
140.256
20
-68.1085
11
140.407
21
-68.2329
0
LINE
8
BLACK
6
CONTINUOUS
10
140.407
20
-68.2329
11
140.531
21
-68.3844
0
LINE
8
BLACK
6
CONTINUOUS
10
140.531
20
-68.3844
11
140.624
21
-68.5573
0
LINE
8
BLACK
6
CONTINUOUS
10
140.624
20
-68.5573
11
140.681
21
-68.7449
0
LINE
8
BLACK
6
CONTINUOUS
10
140.681
20
-68.7449
11
140.7
21
-68.94
0
LINE
8
BLACK
6
CONTINUOUS
10
140.7
20
-68.94
11
140.681
21
-69.1351
0
LINE
8
BLACK
6
CONTINUOUS
10
140.681
20
-69.1351
11
140.624
21
-69.3227
0
LINE
8
BLACK
6
CONTINUOUS
10
140.624
20
-69.3227
11
140.531
21
-69.4956
0
LINE
8
BLACK
6
CONTINUOUS
10
140.531
20
-69.4956
11
140.407
21
-69.6471
0
LINE
8
BLACK
6
CONTINUOUS
10
140.407
20
-69.6471
11
140.256
21
-69.7715
0
LINE
8
BLACK
6
CONTINUOUS
10
140.256
20
-69.7715
11
140.083
21
-69.8639
0
LINE
8
BLACK
6
CONTINUOUS
10
140.083
20
-69.8639
11
139.895
21
-69.9208
0
LINE
8
BLACK
6
CONTINUOUS
10
139.895
20
-69.9208
11
139.7
21
-69.94
0
LINE
8
BLACK
6
CONTINUOUS
10
139.7
20
-69.94
11
139.505
21
-69.9208
0
LINE
8
BLACK
6
CONTINUOUS
10
139.505
20
-69.9208
11
139.317
21
-69.8639
0
LINE
8
BLACK
6
CONTINUOUS
10
139.317
20
-69.8639
11
139.144
21
-69.7715
0
LINE
8
BLACK
6
CONTINUOUS
10
139.144
20
-69.7715
11
138.993
21
-69.6471
0
LINE
8
BLACK
6
CONTINUOUS
10
138.993
20
-69.6471
11
138.869
21
-69.4956
0
LINE
8
BLACK
6
CONTINUOUS
10
138.869
20
-69.4956
11
138.776
21
-69.3227
0
LINE
8
BLACK
6
CONTINUOUS
10
138.776
20
-69.3227
11
138.719
21
-69.1351
0
LINE
8
BLACK
6
CONTINUOUS
10
138.719
20
-69.1351
11
138.7
21
-68.94
0
LINE
8
BLACK
6
CONTINUOUS
10
138.7
20
-68.94
11
138.719
21
-68.7449
0
LINE
8
BLACK
6
CONTINUOUS
10
138.719
20
-68.7449
11
138.776
21
-68.5573
0
LINE
8
BLACK
6
CONTINUOUS
10
138.776
20
-68.5573
11
138.869
21
-68.3844
0
LINE
8
BLACK
6
CONTINUOUS
10
138.869
20
-68.3844
11
138.993
21
-68.2329
0
LINE
8
BLACK
6
CONTINUOUS
10
138.993
20
-68.2329
11
139.144
21
-68.1085
0
LINE
8
BLACK
6
CONTINUOUS
10
139.144
20
-68.1085
11
139.317
21
-68.0161
0
LINE
8
BLACK
6
CONTINUOUS
10
139.317
20
-68.0161
11
139.505
21
-67.9592
0
LINE
8
BLACK
6
CONTINUOUS
10
139.505
20
-67.9592
11
139.7
21
-67.94
0
LINE
8
BLACK
6
CONTINUOUS
10
139.7
20
-67.94
11
139.895
21
-67.9592
0
LINE
8
BLACK
6
CONTINUOUS
10
165.295
20
-67.9592
11
165.483
21
-68.0161
0
LINE
8
BLACK
6
CONTINUOUS
10
165.483
20
-68.0161
11
165.656
21
-68.1085
0
LINE
8
BLACK
6
CONTINUOUS
10
165.656
20
-68.1085
11
165.807
21
-68.2329
0
LINE
8
BLACK
6
CONTINUOUS
10
165.807
20
-68.2329
11
165.931
21
-68.3844
0
LINE
8
BLACK
6
CONTINUOUS
10
165.931
20
-68.3844
11
166.024
21
-68.5573
0
LINE
8
BLACK
6
CONTINUOUS
10
166.024
20
-68.5573
11
166.081
21
-68.7449
0
LINE
8
BLACK
6
CONTINUOUS
10
166.081
20
-68.7449
11
166.1
21
-68.94
0
LINE
8
BLACK
6
CONTINUOUS
10
166.1
20
-68.94
11
166.081
21
-69.1351
0
LINE
8
BLACK
6
CONTINUOUS
10
166.081
20
-69.1351
11
166.024
21
-69.3227
0
LINE
8
BLACK
6
CONTINUOUS
10
166.024
20
-69.3227
11
165.931
21
-69.4956
0
LINE
8
BLACK
6
CONTINUOUS
10
165.931
20
-69.4956
11
165.807
21
-69.6471
0
LINE
8
BLACK
6
CONTINUOUS
10
165.807
20
-69.6471
11
165.656
21
-69.7715
0
LINE
8
BLACK
6
CONTINUOUS
10
165.656
20
-69.7715
11
165.483
21
-69.8639
0
LINE
8
BLACK
6
CONTINUOUS
10
165.483
20
-69.8639
11
165.295
21
-69.9208
0
LINE
8
BLACK
6
CONTINUOUS
10
165.295
20
-69.9208
11
165.1
21
-69.94
0
LINE
8
BLACK
6
CONTINUOUS
10
165.1
20
-69.94
11
164.905
21
-69.9208
0
LINE
8
BLACK
6
CONTINUOUS
10
164.905
20
-69.9208
11
164.717
21
-69.8639
0
LINE
8
BLACK
6
CONTINUOUS
10
164.717
20
-69.8639
11
164.544
21
-69.7715
0
LINE
8
BLACK
6
CONTINUOUS
10
164.544
20
-69.7715
11
164.393
21
-69.6471
0
LINE
8
BLACK
6
CONTINUOUS
10
164.393
20
-69.6471
11
164.269
21
-69.4956
0
LINE
8
BLACK
6
CONTINUOUS
10
164.269
20
-69.4956
11
164.176
21
-69.3227
0
LINE
8
BLACK
6
CONTINUOUS
10
164.176
20
-69.3227
11
164.119
21
-69.1351
0
LINE
8
BLACK
6
CONTINUOUS
10
164.119
20
-69.1351
11
164.1
21
-68.94
0
LINE
8
BLACK
6
CONTINUOUS
10
164.1
20
-68.94
11
164.119
21
-68.7449
0
LINE
8
BLACK
6
CONTINUOUS
10
164.119
20
-68.7449
11
164.176
21
-68.5573
0
LINE
8
BLACK
6
CONTINUOUS
10
164.176
20
-68.5573
11
164.269
21
-68.3844
0
LINE
8
BLACK
6
CONTINUOUS
10
164.269
20
-68.3844
11
164.393
21
-68.2329
0
LINE
8
BLACK
6
CONTINUOUS
10
164.393
20
-68.2329
11
164.544
21
-68.1085
0
LINE
8
BLACK
6
CONTINUOUS
10
164.544
20
-68.1085
11
164.717
21
-68.0161
0
LINE
8
BLACK
6
CONTINUOUS
10
164.717
20
-68.0161
11
164.905
21
-67.9592
0
LINE
8
BLACK
6
CONTINUOUS
10
164.905
20
-67.9592
11
165.1
21
-67.94
0
LINE
8
BLACK
6
CONTINUOUS
10
165.1
20
-67.94
11
165.295
21
-67.9592
0
LINE
8
BLACK
6
CONTINUOUS
10
139.895
20
-65.4192
11
140.083
21
-65.4761
0
LINE
8
BLACK
6
CONTINUOUS
10
140.083
20
-65.4761
11
140.256
21
-65.5685
0
LINE
8
BLACK
6
CONTINUOUS
10
140.256
20
-65.5685
11
140.407
21
-65.6929
0
LINE
8
BLACK
6
CONTINUOUS
10
140.407
20
-65.6929
11
140.531
21
-65.8444
0
LINE
8
BLACK
6
CONTINUOUS
10
140.531
20
-65.8444
11
140.624
21
-66.0173
0
LINE
8
BLACK
6
CONTINUOUS
10
140.624
20
-66.0173
11
140.681
21
-66.2049
0
LINE
8
BLACK
6
CONTINUOUS
10
140.681
20
-66.2049
11
140.7
21
-66.4
0
LINE
8
BLACK
6
CONTINUOUS
10
140.7
20
-66.4
11
140.681
21
-66.5951
0
LINE
8
BLACK
6
CONTINUOUS
10
140.681
20
-66.5951
11
140.624
21
-66.7827
0
LINE
8
BLACK
6
CONTINUOUS
10
140.624
20
-66.7827
11
140.531
21
-66.9556
0
LINE
8
BLACK
6
CONTINUOUS
10
140.531
20
-66.9556
11
140.407
21
-67.1071
0
LINE
8
BLACK
6
CONTINUOUS
10
140.407
20
-67.1071
11
140.256
21
-67.2315
0
LINE
8
BLACK
6
CONTINUOUS
10
140.256
20
-67.2315
11
140.083
21
-67.3239
0
LINE
8
BLACK
6
CONTINUOUS
10
140.083
20
-67.3239
11
139.895
21
-67.3808
0
LINE
8
BLACK
6
CONTINUOUS
10
139.895
20
-67.3808
11
139.7
21
-67.4
0
LINE
8
BLACK
6
CONTINUOUS
10
139.7
20
-67.4
11
139.505
21
-67.3808
0
LINE
8
BLACK
6
CONTINUOUS
10
139.505
20
-67.3808
11
139.317
21
-67.3239
0
LINE
8
BLACK
6
CONTINUOUS
10
139.317
20
-67.3239
11
139.144
21
-67.2315
0
LINE
8
BLACK
6
CONTINUOUS
10
139.144
20
-67.2315
11
138.993
21
-67.1071
0
LINE
8
BLACK
6
CONTINUOUS
10
138.993
20
-67.1071
11
138.869
21
-66.9556
0
LINE
8
BLACK
6
CONTINUOUS
10
138.869
20
-66.9556
11
138.776
21
-66.7827
0
LINE
8
BLACK
6
CONTINUOUS
10
138.776
20
-66.7827
11
138.719
21
-66.5951
0
LINE
8
BLACK
6
CONTINUOUS
10
138.719
20
-66.5951
11
138.7
21
-66.4
0
LINE
8
BLACK
6
CONTINUOUS
10
138.7
20
-66.4
11
138.719
21
-66.2049
0
LINE
8
BLACK
6
CONTINUOUS
10
138.719
20
-66.2049
11
138.776
21
-66.0173
0
LINE
8
BLACK
6
CONTINUOUS
10
138.776
20
-66.0173
11
138.869
21
-65.8444
0
LINE
8
BLACK
6
CONTINUOUS
10
138.869
20
-65.8444
11
138.993
21
-65.6929
0
LINE
8
BLACK
6
CONTINUOUS
10
138.993
20
-65.6929
11
139.144
21
-65.5685
0
LINE
8
BLACK
6
CONTINUOUS
10
139.144
20
-65.5685
11
139.317
21
-65.4761
0
LINE
8
BLACK
6
CONTINUOUS
10
139.317
20
-65.4761
11
139.505
21
-65.4192
0
LINE
8
BLACK
6
CONTINUOUS
10
139.505
20
-65.4192
11
139.7
21
-65.4
0
LINE
8
BLACK
6
CONTINUOUS
10
139.7
20
-65.4
11
139.895
21
-65.4192
0
LINE
8
BLACK
6
CONTINUOUS
10
165.295
20
-65.4192
11
165.483
21
-65.4761
0
LINE
8
BLACK
6
CONTINUOUS
10
165.483
20
-65.4761
11
165.656
21
-65.5685
0
LINE
8
BLACK
6
CONTINUOUS
10
165.656
20
-65.5685
11
165.807
21
-65.6929
0
LINE
8
BLACK
6
CONTINUOUS
10
165.807
20
-65.6929
11
165.931
21
-65.8444
0
LINE
8
BLACK
6
CONTINUOUS
10
165.931
20
-65.8444
11
166.024
21
-66.0173
0
LINE
8
BLACK
6
CONTINUOUS
10
166.024
20
-66.0173
11
166.081
21
-66.2049
0
LINE
8
BLACK
6
CONTINUOUS
10
166.081
20
-66.2049
11
166.1
21
-66.4
0
LINE
8
BLACK
6
CONTINUOUS
10
166.1
20
-66.4
11
166.081
21
-66.5951
0
LINE
8
BLACK
6
CONTINUOUS
10
166.081
20
-66.5951
11
166.024
21
-66.7827
0
LINE
8
BLACK
6
CONTINUOUS
10
166.024
20
-66.7827
11
165.931
21
-66.9556
0
LINE
8
BLACK
6
CONTINUOUS
10
165.931
20
-66.9556
11
165.807
21
-67.1071
0
LINE
8
BLACK
6
CONTINUOUS
10
165.807
20
-67.1071
11
165.656
21
-67.2315
0
LINE
8
BLACK
6
CONTINUOUS
10
165.656
20
-67.2315
11
165.483
21
-67.3239
0
LINE
8
BLACK
6
CONTINUOUS
10
165.483
20
-67.3239
11
165.295
21
-67.3808
0
LINE
8
BLACK
6
CONTINUOUS
10
165.295
20
-67.3808
11
165.1
21
-67.4
0
LINE
8
BLACK
6
CONTINUOUS
10
165.1
20
-67.4
11
164.905
21
-67.3808
0
LINE
8
BLACK
6
CONTINUOUS
10
164.905
20
-67.3808
11
164.717
21
-67.3239
0
LINE
8
BLACK
6
CONTINUOUS
10
164.717
20
-67.3239
11
164.544
21
-67.2315
0
LINE
8
BLACK
6
CONTINUOUS
10
164.544
20
-67.2315
11
164.393
21
-67.1071
0
LINE
8
BLACK
6
CONTINUOUS
10
164.393
20
-67.1071
11
164.269
21
-66.9556
0
LINE
8
BLACK
6
CONTINUOUS
10
164.269
20
-66.9556
11
164.176
21
-66.7827
0
LINE
8
BLACK
6
CONTINUOUS
10
164.176
20
-66.7827
11
164.119
21
-66.5951
0
LINE
8
BLACK
6
CONTINUOUS
10
164.119
20
-66.5951
11
164.1
21
-66.4
0
LINE
8
BLACK
6
CONTINUOUS
10
164.1
20
-66.4
11
164.119
21
-66.2049
0
LINE
8
BLACK
6
CONTINUOUS
10
164.119
20
-66.2049
11
164.176
21
-66.0173
0
LINE
8
BLACK
6
CONTINUOUS
10
164.176
20
-66.0173
11
164.269
21
-65.8444
0
LINE
8
BLACK
6
CONTINUOUS
10
164.269
20
-65.8444
11
164.393
21
-65.6929
0
LINE
8
BLACK
6
CONTINUOUS
10
164.393
20
-65.6929
11
164.544
21
-65.5685
0
LINE
8
BLACK
6
CONTINUOUS
10
164.544
20
-65.5685
11
164.717
21
-65.4761
0
LINE
8
BLACK
6
CONTINUOUS
10
164.717
20
-65.4761
11
164.905
21
-65.4192
0
LINE
8
BLACK
6
CONTINUOUS
10
164.905
20
-65.4192
11
165.1
21
-65.4
0
LINE
8
BLACK
6
CONTINUOUS
10
165.1
20
-65.4
11
165.295
21
-65.4192
0
LINE
8
BLACK
6
CONTINUOUS
10
140.7
20
-64.86
11
138.7
21
-64.86
0
LINE
8
BLACK
6
CONTINUOUS
10
138.7
20
-64.86
11
138.7
21
-62.86
0
LINE
8
BLACK
6
CONTINUOUS
10
138.7
20
-62.86
11
140.7
21
-62.86
0
LINE
8
BLACK
6
CONTINUOUS
10
140.7
20
-62.86
11
140.7
21
-64.86
0
LINE
8
BLACK
6
CONTINUOUS
10
165.295
20
-62.8792
11
165.483
21
-62.9361
0
LINE
8
BLACK
6
CONTINUOUS
10
165.483
20
-62.9361
11
165.656
21
-63.0285
0
LINE
8
BLACK
6
CONTINUOUS
10
165.656
20
-63.0285
11
165.807
21
-63.1529
0
LINE
8
BLACK
6
CONTINUOUS
10
165.807
20
-63.1529
11
165.931
21
-63.3044
0
LINE
8
BLACK
6
CONTINUOUS
10
165.931
20
-63.3044
11
166.024
21
-63.4773
0
LINE
8
BLACK
6
CONTINUOUS
10
166.024
20
-63.4773
11
166.081
21
-63.6649
0
LINE
8
BLACK
6
CONTINUOUS
10
166.081
20
-63.6649
11
166.1
21
-63.86
0
LINE
8
BLACK
6
CONTINUOUS
10
166.1
20
-63.86
11
166.081
21
-64.0551
0
LINE
8
BLACK
6
CONTINUOUS
10
166.081
20
-64.0551
11
166.024
21
-64.2427
0
LINE
8
BLACK
6
CONTINUOUS
10
166.024
20
-64.2427
11
165.931
21
-64.4156
0
LINE
8
BLACK
6
CONTINUOUS
10
165.931
20
-64.4156
11
165.807
21
-64.5671
0
LINE
8
BLACK
6
CONTINUOUS
10
165.807
20
-64.5671
11
165.656
21
-64.6915
0
LINE
8
BLACK
6
CONTINUOUS
10
165.656
20
-64.6915
11
165.483
21
-64.7839
0
LINE
8
BLACK
6
CONTINUOUS
10
165.483
20
-64.7839
11
165.295
21
-64.8408
0
LINE
8
BLACK
6
CONTINUOUS
10
165.295
20
-64.8408
11
165.1
21
-64.86
0
LINE
8
BLACK
6
CONTINUOUS
10
165.1
20
-64.86
11
164.905
21
-64.8408
0
LINE
8
BLACK
6
CONTINUOUS
10
164.905
20
-64.8408
11
164.717
21
-64.7839
0
LINE
8
BLACK
6
CONTINUOUS
10
164.717
20
-64.7839
11
164.544
21
-64.6915
0
LINE
8
BLACK
6
CONTINUOUS
10
164.544
20
-64.6915
11
164.393
21
-64.5671
0
LINE
8
BLACK
6
CONTINUOUS
10
164.393
20
-64.5671
11
164.269
21
-64.4156
0
LINE
8
BLACK
6
CONTINUOUS
10
164.269
20
-64.4156
11
164.176
21
-64.2427
0
LINE
8
BLACK
6
CONTINUOUS
10
164.176
20
-64.2427
11
164.119
21
-64.0551
0
LINE
8
BLACK
6
CONTINUOUS
10
164.119
20
-64.0551
11
164.1
21
-63.86
0
LINE
8
BLACK
6
CONTINUOUS
10
164.1
20
-63.86
11
164.119
21
-63.6649
0
LINE
8
BLACK
6
CONTINUOUS
10
164.119
20
-63.6649
11
164.176
21
-63.4773
0
LINE
8
BLACK
6
CONTINUOUS
10
164.176
20
-63.4773
11
164.269
21
-63.3044
0
LINE
8
BLACK
6
CONTINUOUS
10
164.269
20
-63.3044
11
164.393
21
-63.1529
0
LINE
8
BLACK
6
CONTINUOUS
10
164.393
20
-63.1529
11
164.544
21
-63.0285
0
LINE
8
BLACK
6
CONTINUOUS
10
164.544
20
-63.0285
11
164.717
21
-62.9361
0
LINE
8
BLACK
6
CONTINUOUS
10
164.717
20
-62.9361
11
164.905
21
-62.8792
0
LINE
8
BLACK
6
CONTINUOUS
10
164.905
20
-62.8792
11
165.1
21
-62.86
0
LINE
8
BLACK
6
CONTINUOUS
10
165.1
20
-62.86
11
165.295
21
-62.8792
0
LINE
8
BLACK
6
CONTINUOUS
10
142.999
20
-58.6746
11
143.11
21
-58.7314
0
LINE
8
BLACK
6
CONTINUOUS
10
143.11
20
-58.7314
11
143.199
21
-58.8199
0
LINE
8
BLACK
6
CONTINUOUS
10
143.199
20
-58.8199
11
143.255
21
-58.9314
0
LINE
8
BLACK
6
CONTINUOUS
10
143.255
20
-58.9314
11
143.275
21
-59.055
0
LINE
8
BLACK
6
CONTINUOUS
10
143.275
20
-59.055
11
143.255
21
-59.1786
0
LINE
8
BLACK
6
CONTINUOUS
10
143.255
20
-59.1786
11
143.199
21
-59.2901
0
LINE
8
BLACK
6
CONTINUOUS
10
143.199
20
-59.2901
11
143.11
21
-59.3786
0
LINE
8
BLACK
6
CONTINUOUS
10
143.11
20
-59.3786
11
142.999
21
-59.4354
0
LINE
8
BLACK
6
CONTINUOUS
10
142.999
20
-59.4354
11
142.875
21
-59.455
0
LINE
8
BLACK
6
CONTINUOUS
10
142.875
20
-59.455
11
142.751
21
-59.4354
0
LINE
8
BLACK
6
CONTINUOUS
10
142.751
20
-59.4354
11
142.64
21
-59.3786
0
LINE
8
BLACK
6
CONTINUOUS
10
142.64
20
-59.3786
11
142.566
21
-59.305
0
LINE
8
BLACK
6
CONTINUOUS
10
142.566
20
-59.305
11
141.074
21
-59.305
0
LINE
8
BLACK
6
CONTINUOUS
10
141.074
20
-59.305
11
138.189
21
-62.1899
0
LINE
8
BLACK
6
CONTINUOUS
10
138.189
20
-62.1899
11
138.195
21
-62.23
0
LINE
8
BLACK
6
CONTINUOUS
10
138.195
20
-62.23
11
138.175
21
-62.3536
0
LINE
8
BLACK
6
CONTINUOUS
10
138.175
20
-62.3536
11
138.119
21
-62.4651
0
LINE
8
BLACK
6
CONTINUOUS
10
138.119
20
-62.4651
11
138.03
21
-62.5536
0
LINE
8
BLACK
6
CONTINUOUS
10
138.03
20
-62.5536
11
137.919
21
-62.6104
0
LINE
8
BLACK
6
CONTINUOUS
10
137.919
20
-62.6104
11
137.795
21
-62.63
0
LINE
8
BLACK
6
CONTINUOUS
10
137.795
20
-62.63
11
137.671
21
-62.6104
0
LINE
8
BLACK
6
CONTINUOUS
10
137.671
20
-62.6104
11
137.56
21
-62.5536
0
LINE
8
BLACK
6
CONTINUOUS
10
137.56
20
-62.5536
11
137.471
21
-62.4651
0
LINE
8
BLACK
6
CONTINUOUS
10
137.471
20
-62.4651
11
137.415
21
-62.3536
0
LINE
8
BLACK
6
CONTINUOUS
10
137.415
20
-62.3536
11
137.395
21
-62.23
0
LINE
8
BLACK
6
CONTINUOUS
10
137.395
20
-62.23
11
137.415
21
-62.1064
0
LINE
8
BLACK
6
CONTINUOUS
10
137.415
20
-62.1064
11
137.471
21
-61.9949
0
LINE
8
BLACK
6
CONTINUOUS
10
137.471
20
-61.9949
11
137.56
21
-61.9064
0
LINE
8
BLACK
6
CONTINUOUS
10
137.56
20
-61.9064
11
137.671
21
-61.8496
0
LINE
8
BLACK
6
CONTINUOUS
10
137.671
20
-61.8496
11
137.795
21
-61.83
0
LINE
8
BLACK
6
CONTINUOUS
10
137.795
20
-61.83
11
137.835
21
-61.8363
0
LINE
8
BLACK
6
CONTINUOUS
10
137.835
20
-61.8363
11
140.793
21
-58.8782
0
LINE
8
BLACK
6
CONTINUOUS
10
140.793
20
-58.8782
11
140.874
21
-58.824
0
LINE
8
BLACK
6
CONTINUOUS
10
140.874
20
-58.824
11
140.97
21
-58.805
0
LINE
8
BLACK
6
CONTINUOUS
10
140.97
20
-58.805
11
142.566
21
-58.805
0
LINE
8
BLACK
6
CONTINUOUS
10
142.566
20
-58.805
11
142.64
21
-58.7314
0
LINE
8
BLACK
6
CONTINUOUS
10
142.64
20
-58.7314
11
142.751
21
-58.6746
0
LINE
8
BLACK
6
CONTINUOUS
10
142.751
20
-58.6746
11
142.875
21
-58.655
0
LINE
8
BLACK
6
CONTINUOUS
10
142.875
20
-58.655
11
142.999
21
-58.6746
0
LINE
8
BLACK
6
CONTINUOUS
10
136.83
20
-56.1848
11
134.95
21
-56.1848
0
LINE
8
BLACK
6
CONTINUOUS
10
134.95
20
-56.1848
11
134.95
21
-54.3052
0
LINE
8
BLACK
6
CONTINUOUS
10
134.95
20
-54.3052
11
136.83
21
-54.3052
0
LINE
8
BLACK
6
CONTINUOUS
10
136.83
20
-54.3052
11
136.83
21
-56.1848
0
LINE
8
BLACK
6
CONTINUOUS
10
108.24
20
-54.3512
11
108.42
21
-54.4311
0
LINE
8
BLACK
6
CONTINUOUS
10
108.42
20
-54.4311
11
108.579
21
-54.5466
0
LINE
8
BLACK
6
CONTINUOUS
10
108.579
20
-54.5466
11
108.71
21
-54.6926
0
LINE
8
BLACK
6
CONTINUOUS
10
108.71
20
-54.6926
11
108.809
21
-54.8627
0
LINE
8
BLACK
6
CONTINUOUS
10
108.809
20
-54.8627
11
108.869
21
-55.0496
0
LINE
8
BLACK
6
CONTINUOUS
10
108.869
20
-55.0496
11
108.89
21
-55.245
0
LINE
8
BLACK
6
CONTINUOUS
10
108.89
20
-55.245
11
108.869
21
-55.4404
0
LINE
8
BLACK
6
CONTINUOUS
10
108.869
20
-55.4404
11
108.809
21
-55.6273
0
LINE
8
BLACK
6
CONTINUOUS
10
108.809
20
-55.6273
11
108.71
21
-55.7974
0
LINE
8
BLACK
6
CONTINUOUS
10
108.71
20
-55.7974
11
108.579
21
-55.9434
0
LINE
8
BLACK
6
CONTINUOUS
10
108.579
20
-55.9434
11
108.42
21
-56.0589
0
LINE
8
BLACK
6
CONTINUOUS
10
108.42
20
-56.0589
11
108.24
21
-56.1388
0
LINE
8
BLACK
6
CONTINUOUS
10
108.24
20
-56.1388
11
108.048
21
-56.1797
0
LINE
8
BLACK
6
CONTINUOUS
10
108.048
20
-56.1797
11
107.852
21
-56.1797
0
LINE
8
BLACK
6
CONTINUOUS
10
107.852
20
-56.1797
11
107.66
21
-56.1388
0
LINE
8
BLACK
6
CONTINUOUS
10
107.66
20
-56.1388
11
107.48
21
-56.0589
0
LINE
8
BLACK
6
CONTINUOUS
10
107.48
20
-56.0589
11
107.321
21
-55.9434
0
LINE
8
BLACK
6
CONTINUOUS
10
107.321
20
-55.9434
11
107.19
21
-55.7974
0
LINE
8
BLACK
6
CONTINUOUS
10
107.19
20
-55.7974
11
107.091
21
-55.6273
0
LINE
8
BLACK
6
CONTINUOUS
10
107.091
20
-55.6273
11
107.031
21
-55.4404
0
LINE
8
BLACK
6
CONTINUOUS
10
107.031
20
-55.4404
11
107.01
21
-55.245
0
LINE
8
BLACK
6
CONTINUOUS
10
107.01
20
-55.245
11
107.031
21
-55.0496
0
LINE
8
BLACK
6
CONTINUOUS
10
107.031
20
-55.0496
11
107.091
21
-54.8627
0
LINE
8
BLACK
6
CONTINUOUS
10
107.091
20
-54.8627
11
107.19
21
-54.6926
0
LINE
8
BLACK
6
CONTINUOUS
10
107.19
20
-54.6926
11
107.321
21
-54.5466
0
LINE
8
BLACK
6
CONTINUOUS
10
107.321
20
-54.5466
11
107.48
21
-54.4311
0
LINE
8
BLACK
6
CONTINUOUS
10
107.48
20
-54.4311
11
107.66
21
-54.3512
0
LINE
8
BLACK
6
CONTINUOUS
10
107.66
20
-54.3512
11
107.852
21
-54.3103
0
LINE
8
BLACK
6
CONTINUOUS
10
107.852
20
-54.3103
11
108.048
21
-54.3103
0
LINE
8
BLACK
6
CONTINUOUS
10
108.048
20
-54.3103
11
108.24
21
-54.3512
0
LINE
8
BLACK
6
CONTINUOUS
10
110.78
20
-54.3512
11
110.96
21
-54.4311
0
LINE
8
BLACK
6
CONTINUOUS
10
110.96
20
-54.4311
11
111.119
21
-54.5466
0
LINE
8
BLACK
6
CONTINUOUS
10
111.119
20
-54.5466
11
111.25
21
-54.6926
0
LINE
8
BLACK
6
CONTINUOUS
10
111.25
20
-54.6926
11
111.349
21
-54.8627
0
LINE
8
BLACK
6
CONTINUOUS
10
111.349
20
-54.8627
11
111.409
21
-55.0496
0
LINE
8
BLACK
6
CONTINUOUS
10
111.409
20
-55.0496
11
111.43
21
-55.245
0
LINE
8
BLACK
6
CONTINUOUS
10
111.43
20
-55.245
11
111.409
21
-55.4404
0
LINE
8
BLACK
6
CONTINUOUS
10
111.409
20
-55.4404
11
111.349
21
-55.6273
0
LINE
8
BLACK
6
CONTINUOUS
10
111.349
20
-55.6273
11
111.25
21
-55.7974
0
LINE
8
BLACK
6
CONTINUOUS
10
111.25
20
-55.7974
11
111.119
21
-55.9434
0
LINE
8
BLACK
6
CONTINUOUS
10
111.119
20
-55.9434
11
110.96
21
-56.0589
0
LINE
8
BLACK
6
CONTINUOUS
10
110.96
20
-56.0589
11
110.78
21
-56.1388
0
LINE
8
BLACK
6
CONTINUOUS
10
110.78
20
-56.1388
11
110.588
21
-56.1797
0
LINE
8
BLACK
6
CONTINUOUS
10
110.588
20
-56.1797
11
110.392
21
-56.1797
0
LINE
8
BLACK
6
CONTINUOUS
10
110.392
20
-56.1797
11
110.2
21
-56.1388
0
LINE
8
BLACK
6
CONTINUOUS
10
110.2
20
-56.1388
11
110.02
21
-56.0589
0
LINE
8
BLACK
6
CONTINUOUS
10
110.02
20
-56.0589
11
109.861
21
-55.9434
0
LINE
8
BLACK
6
CONTINUOUS
10
109.861
20
-55.9434
11
109.73
21
-55.7974
0
LINE
8
BLACK
6
CONTINUOUS
10
109.73
20
-55.7974
11
109.631
21
-55.6273
0
LINE
8
BLACK
6
CONTINUOUS
10
109.631
20
-55.6273
11
109.571
21
-55.4404
0
LINE
8
BLACK
6
CONTINUOUS
10
109.571
20
-55.4404
11
109.55
21
-55.245
0
LINE
8
BLACK
6
CONTINUOUS
10
109.55
20
-55.245
11
109.571
21
-55.0496
0
LINE
8
BLACK
6
CONTINUOUS
10
109.571
20
-55.0496
11
109.631
21
-54.8627
0
LINE
8
BLACK
6
CONTINUOUS
10
109.631
20
-54.8627
11
109.73
21
-54.6926
0
LINE
8
BLACK
6
CONTINUOUS
10
109.73
20
-54.6926
11
109.861
21
-54.5466
0
LINE
8
BLACK
6
CONTINUOUS
10
109.861
20
-54.5466
11
110.02
21
-54.4311
0
LINE
8
BLACK
6
CONTINUOUS
10
110.02
20
-54.4311
11
110.2
21
-54.3512
0
LINE
8
BLACK
6
CONTINUOUS
10
110.2
20
-54.3512
11
110.392
21
-54.3103
0
LINE
8
BLACK
6
CONTINUOUS
10
110.392
20
-54.3103
11
110.588
21
-54.3103
0
LINE
8
BLACK
6
CONTINUOUS
10
110.588
20
-54.3103
11
110.78
21
-54.3512
0
LINE
8
BLACK
6
CONTINUOUS
10
113.32
20
-54.3512
11
113.5
21
-54.4311
0
LINE
8
BLACK
6
CONTINUOUS
10
113.5
20
-54.4311
11
113.659
21
-54.5466
0
LINE
8
BLACK
6
CONTINUOUS
10
113.659
20
-54.5466
11
113.79
21
-54.6926
0
LINE
8
BLACK
6
CONTINUOUS
10
113.79
20
-54.6926
11
113.889
21
-54.8627
0
LINE
8
BLACK
6
CONTINUOUS
10
113.889
20
-54.8627
11
113.949
21
-55.0496
0
LINE
8
BLACK
6
CONTINUOUS
10
113.949
20
-55.0496
11
113.97
21
-55.245
0
LINE
8
BLACK
6
CONTINUOUS
10
113.97
20
-55.245
11
113.949
21
-55.4404
0
LINE
8
BLACK
6
CONTINUOUS
10
113.949
20
-55.4404
11
113.889
21
-55.6273
0
LINE
8
BLACK
6
CONTINUOUS
10
113.889
20
-55.6273
11
113.79
21
-55.7974
0
LINE
8
BLACK
6
CONTINUOUS
10
113.79
20
-55.7974
11
113.659
21
-55.9434
0
LINE
8
BLACK
6
CONTINUOUS
10
113.659
20
-55.9434
11
113.5
21
-56.0589
0
LINE
8
BLACK
6
CONTINUOUS
10
113.5
20
-56.0589
11
113.32
21
-56.1388
0
LINE
8
BLACK
6
CONTINUOUS
10
113.32
20
-56.1388
11
113.128
21
-56.1797
0
LINE
8
BLACK
6
CONTINUOUS
10
113.128
20
-56.1797
11
112.932
21
-56.1797
0
LINE
8
BLACK
6
CONTINUOUS
10
112.932
20
-56.1797
11
112.74
21
-56.1388
0
LINE
8
BLACK
6
CONTINUOUS
10
112.74
20
-56.1388
11
112.56
21
-56.0589
0
LINE
8
BLACK
6
CONTINUOUS
10
112.56
20
-56.0589
11
112.401
21
-55.9434
0
LINE
8
BLACK
6
CONTINUOUS
10
112.401
20
-55.9434
11
112.27
21
-55.7974
0
LINE
8
BLACK
6
CONTINUOUS
10
112.27
20
-55.7974
11
112.171
21
-55.6273
0
LINE
8
BLACK
6
CONTINUOUS
10
112.171
20
-55.6273
11
112.111
21
-55.4404
0
LINE
8
BLACK
6
CONTINUOUS
10
112.111
20
-55.4404
11
112.09
21
-55.245
0
LINE
8
BLACK
6
CONTINUOUS
10
112.09
20
-55.245
11
112.111
21
-55.0496
0
LINE
8
BLACK
6
CONTINUOUS
10
112.111
20
-55.0496
11
112.171
21
-54.8627
0
LINE
8
BLACK
6
CONTINUOUS
10
112.171
20
-54.8627
11
112.27
21
-54.6926
0
LINE
8
BLACK
6
CONTINUOUS
10
112.27
20
-54.6926
11
112.401
21
-54.5466
0
LINE
8
BLACK
6
CONTINUOUS
10
112.401
20
-54.5466
11
112.56
21
-54.4311
0
LINE
8
BLACK
6
CONTINUOUS
10
112.56
20
-54.4311
11
112.74
21
-54.3512
0
LINE
8
BLACK
6
CONTINUOUS
10
112.74
20
-54.3512
11
112.932
21
-54.3103
0
LINE
8
BLACK
6
CONTINUOUS
10
112.932
20
-54.3103
11
113.128
21
-54.3103
0
LINE
8
BLACK
6
CONTINUOUS
10
113.128
20
-54.3103
11
113.32
21
-54.3512
0
LINE
8
BLACK
6
CONTINUOUS
10
115.86
20
-54.3512
11
116.04
21
-54.4311
0
LINE
8
BLACK
6
CONTINUOUS
10
116.04
20
-54.4311
11
116.199
21
-54.5466
0
LINE
8
BLACK
6
CONTINUOUS
10
116.199
20
-54.5466
11
116.33
21
-54.6926
0
LINE
8
BLACK
6
CONTINUOUS
10
116.33
20
-54.6926
11
116.429
21
-54.8627
0
LINE
8
BLACK
6
CONTINUOUS
10
116.429
20
-54.8627
11
116.489
21
-55.0496
0
LINE
8
BLACK
6
CONTINUOUS
10
116.489
20
-55.0496
11
116.51
21
-55.245
0
LINE
8
BLACK
6
CONTINUOUS
10
116.51
20
-55.245
11
116.489
21
-55.4404
0
LINE
8
BLACK
6
CONTINUOUS
10
116.489
20
-55.4404
11
116.429
21
-55.6273
0
LINE
8
BLACK
6
CONTINUOUS
10
116.429
20
-55.6273
11
116.33
21
-55.7974
0
LINE
8
BLACK
6
CONTINUOUS
10
116.33
20
-55.7974
11
116.199
21
-55.9434
0
LINE
8
BLACK
6
CONTINUOUS
10
116.199
20
-55.9434
11
116.04
21
-56.0589
0
LINE
8
BLACK
6
CONTINUOUS
10
116.04
20
-56.0589
11
115.86
21
-56.1388
0
LINE
8
BLACK
6
CONTINUOUS
10
115.86
20
-56.1388
11
115.668
21
-56.1797
0
LINE
8
BLACK
6
CONTINUOUS
10
115.668
20
-56.1797
11
115.472
21
-56.1797
0
LINE
8
BLACK
6
CONTINUOUS
10
115.472
20
-56.1797
11
115.28
21
-56.1388
0
LINE
8
BLACK
6
CONTINUOUS
10
115.28
20
-56.1388
11
115.1
21
-56.0589
0
LINE
8
BLACK
6
CONTINUOUS
10
115.1
20
-56.0589
11
114.941
21
-55.9434
0
LINE
8
BLACK
6
CONTINUOUS
10
114.941
20
-55.9434
11
114.81
21
-55.7974
0
LINE
8
BLACK
6
CONTINUOUS
10
114.81
20
-55.7974
11
114.711
21
-55.6273
0
LINE
8
BLACK
6
CONTINUOUS
10
114.711
20
-55.6273
11
114.651
21
-55.4404
0
LINE
8
BLACK
6
CONTINUOUS
10
114.651
20
-55.4404
11
114.63
21
-55.245
0
LINE
8
BLACK
6
CONTINUOUS
10
114.63
20
-55.245
11
114.651
21
-55.0496
0
LINE
8
BLACK
6
CONTINUOUS
10
114.651
20
-55.0496
11
114.711
21
-54.8627
0
LINE
8
BLACK
6
CONTINUOUS
10
114.711
20
-54.8627
11
114.81
21
-54.6926
0
LINE
8
BLACK
6
CONTINUOUS
10
114.81
20
-54.6926
11
114.941
21
-54.5466
0
LINE
8
BLACK
6
CONTINUOUS
10
114.941
20
-54.5466
11
115.1
21
-54.4311
0
LINE
8
BLACK
6
CONTINUOUS
10
115.1
20
-54.4311
11
115.28
21
-54.3512
0
LINE
8
BLACK
6
CONTINUOUS
10
115.28
20
-54.3512
11
115.472
21
-54.3103
0
LINE
8
BLACK
6
CONTINUOUS
10
115.472
20
-54.3103
11
115.668
21
-54.3103
0
LINE
8
BLACK
6
CONTINUOUS
10
115.668
20
-54.3103
11
115.86
21
-54.3512
0
LINE
8
BLACK
6
CONTINUOUS
10
118.4
20
-54.3512
11
118.58
21
-54.4311
0
LINE
8
BLACK
6
CONTINUOUS
10
118.58
20
-54.4311
11
118.739
21
-54.5466
0
LINE
8
BLACK
6
CONTINUOUS
10
118.739
20
-54.5466
11
118.87
21
-54.6926
0
LINE
8
BLACK
6
CONTINUOUS
10
118.87
20
-54.6926
11
118.969
21
-54.8627
0
LINE
8
BLACK
6
CONTINUOUS
10
118.969
20
-54.8627
11
119.029
21
-55.0496
0
LINE
8
BLACK
6
CONTINUOUS
10
119.029
20
-55.0496
11
119.05
21
-55.245
0
LINE
8
BLACK
6
CONTINUOUS
10
119.05
20
-55.245
11
119.029
21
-55.4404
0
LINE
8
BLACK
6
CONTINUOUS
10
119.029
20
-55.4404
11
118.969
21
-55.6273
0
LINE
8
BLACK
6
CONTINUOUS
10
118.969
20
-55.6273
11
118.87
21
-55.7974
0
LINE
8
BLACK
6
CONTINUOUS
10
118.87
20
-55.7974
11
118.739
21
-55.9434
0
LINE
8
BLACK
6
CONTINUOUS
10
118.739
20
-55.9434
11
118.58
21
-56.0589
0
LINE
8
BLACK
6
CONTINUOUS
10
118.58
20
-56.0589
11
118.4
21
-56.1388
0
LINE
8
BLACK
6
CONTINUOUS
10
118.4
20
-56.1388
11
118.208
21
-56.1797
0
LINE
8
BLACK
6
CONTINUOUS
10
118.208
20
-56.1797
11
118.012
21
-56.1797
0
LINE
8
BLACK
6
CONTINUOUS
10
118.012
20
-56.1797
11
117.82
21
-56.1388
0
LINE
8
BLACK
6
CONTINUOUS
10
117.82
20
-56.1388
11
117.64
21
-56.0589
0
LINE
8
BLACK
6
CONTINUOUS
10
117.64
20
-56.0589
11
117.481
21
-55.9434
0
LINE
8
BLACK
6
CONTINUOUS
10
117.481
20
-55.9434
11
117.35
21
-55.7974
0
LINE
8
BLACK
6
CONTINUOUS
10
117.35
20
-55.7974
11
117.251
21
-55.6273
0
LINE
8
BLACK
6
CONTINUOUS
10
117.251
20
-55.6273
11
117.191
21
-55.4404
0
LINE
8
BLACK
6
CONTINUOUS
10
117.191
20
-55.4404
11
117.17
21
-55.245
0
LINE
8
BLACK
6
CONTINUOUS
10
117.17
20
-55.245
11
117.191
21
-55.0496
0
LINE
8
BLACK
6
CONTINUOUS
10
117.191
20
-55.0496
11
117.251
21
-54.8627
0
LINE
8
BLACK
6
CONTINUOUS
10
117.251
20
-54.8627
11
117.35
21
-54.6926
0
LINE
8
BLACK
6
CONTINUOUS
10
117.35
20
-54.6926
11
117.481
21
-54.5466
0
LINE
8
BLACK
6
CONTINUOUS
10
117.481
20
-54.5466
11
117.64
21
-54.4311
0
LINE
8
BLACK
6
CONTINUOUS
10
117.64
20
-54.4311
11
117.82
21
-54.3512
0
LINE
8
BLACK
6
CONTINUOUS
10
117.82
20
-54.3512
11
118.012
21
-54.3103
0
LINE
8
BLACK
6
CONTINUOUS
10
118.012
20
-54.3103
11
118.208
21
-54.3103
0
LINE
8
BLACK
6
CONTINUOUS
10
118.208
20
-54.3103
11
118.4
21
-54.3512
0
LINE
8
BLACK
6
CONTINUOUS
10
120.94
20
-54.3512
11
121.12
21
-54.4311
0
LINE
8
BLACK
6
CONTINUOUS
10
121.12
20
-54.4311
11
121.279
21
-54.5466
0
LINE
8
BLACK
6
CONTINUOUS
10
121.279
20
-54.5466
11
121.41
21
-54.6926
0
LINE
8
BLACK
6
CONTINUOUS
10
121.41
20
-54.6926
11
121.509
21
-54.8627
0
LINE
8
BLACK
6
CONTINUOUS
10
121.509
20
-54.8627
11
121.569
21
-55.0496
0
LINE
8
BLACK
6
CONTINUOUS
10
121.569
20
-55.0496
11
121.59
21
-55.245
0
LINE
8
BLACK
6
CONTINUOUS
10
121.59
20
-55.245
11
121.569
21
-55.4404
0
LINE
8
BLACK
6
CONTINUOUS
10
121.569
20
-55.4404
11
121.509
21
-55.6273
0
LINE
8
BLACK
6
CONTINUOUS
10
121.509
20
-55.6273
11
121.41
21
-55.7974
0
LINE
8
BLACK
6
CONTINUOUS
10
121.41
20
-55.7974
11
121.279
21
-55.9434
0
LINE
8
BLACK
6
CONTINUOUS
10
121.279
20
-55.9434
11
121.12
21
-56.0589
0
LINE
8
BLACK
6
CONTINUOUS
10
121.12
20
-56.0589
11
120.94
21
-56.1388
0
LINE
8
BLACK
6
CONTINUOUS
10
120.94
20
-56.1388
11
120.748
21
-56.1797
0
LINE
8
BLACK
6
CONTINUOUS
10
120.748
20
-56.1797
11
120.552
21
-56.1797
0
LINE
8
BLACK
6
CONTINUOUS
10
120.552
20
-56.1797
11
120.36
21
-56.1388
0
LINE
8
BLACK
6
CONTINUOUS
10
120.36
20
-56.1388
11
120.18
21
-56.0589
0
LINE
8
BLACK
6
CONTINUOUS
10
120.18
20
-56.0589
11
120.021
21
-55.9434
0
LINE
8
BLACK
6
CONTINUOUS
10
120.021
20
-55.9434
11
119.89
21
-55.7974
0
LINE
8
BLACK
6
CONTINUOUS
10
119.89
20
-55.7974
11
119.791
21
-55.6273
0
LINE
8
BLACK
6
CONTINUOUS
10
119.791
20
-55.6273
11
119.731
21
-55.4404
0
LINE
8
BLACK
6
CONTINUOUS
10
119.731
20
-55.4404
11
119.71
21
-55.245
0
LINE
8
BLACK
6
CONTINUOUS
10
119.71
20
-55.245
11
119.731
21
-55.0496
0
LINE
8
BLACK
6
CONTINUOUS
10
119.731
20
-55.0496
11
119.791
21
-54.8627
0
LINE
8
BLACK
6
CONTINUOUS
10
119.791
20
-54.8627
11
119.89
21
-54.6926
0
LINE
8
BLACK
6
CONTINUOUS
10
119.89
20
-54.6926
11
120.021
21
-54.5466
0
LINE
8
BLACK
6
CONTINUOUS
10
120.021
20
-54.5466
11
120.18
21
-54.4311
0
LINE
8
BLACK
6
CONTINUOUS
10
120.18
20
-54.4311
11
120.36
21
-54.3512
0
LINE
8
BLACK
6
CONTINUOUS
10
120.36
20
-54.3512
11
120.552
21
-54.3103
0
LINE
8
BLACK
6
CONTINUOUS
10
120.552
20
-54.3103
11
120.748
21
-54.3103
0
LINE
8
BLACK
6
CONTINUOUS
10
120.748
20
-54.3103
11
120.94
21
-54.3512
0
LINE
8
BLACK
6
CONTINUOUS
10
123.48
20
-54.3512
11
123.66
21
-54.4311
0
LINE
8
BLACK
6
CONTINUOUS
10
123.66
20
-54.4311
11
123.819
21
-54.5466
0
LINE
8
BLACK
6
CONTINUOUS
10
123.819
20
-54.5466
11
123.95
21
-54.6926
0
LINE
8
BLACK
6
CONTINUOUS
10
123.95
20
-54.6926
11
124.049
21
-54.8627
0
LINE
8
BLACK
6
CONTINUOUS
10
124.049
20
-54.8627
11
124.109
21
-55.0496
0
LINE
8
BLACK
6
CONTINUOUS
10
124.109
20
-55.0496
11
124.13
21
-55.245
0
LINE
8
BLACK
6
CONTINUOUS
10
124.13
20
-55.245
11
124.109
21
-55.4404
0
LINE
8
BLACK
6
CONTINUOUS
10
124.109
20
-55.4404
11
124.049
21
-55.6273
0
LINE
8
BLACK
6
CONTINUOUS
10
124.049
20
-55.6273
11
123.95
21
-55.7974
0
LINE
8
BLACK
6
CONTINUOUS
10
123.95
20
-55.7974
11
123.819
21
-55.9434
0
LINE
8
BLACK
6
CONTINUOUS
10
123.819
20
-55.9434
11
123.66
21
-56.0589
0
LINE
8
BLACK
6
CONTINUOUS
10
123.66
20
-56.0589
11
123.48
21
-56.1388
0
LINE
8
BLACK
6
CONTINUOUS
10
123.48
20
-56.1388
11
123.288
21
-56.1797
0
LINE
8
BLACK
6
CONTINUOUS
10
123.288
20
-56.1797
11
123.092
21
-56.1797
0
LINE
8
BLACK
6
CONTINUOUS
10
123.092
20
-56.1797
11
122.9
21
-56.1388
0
LINE
8
BLACK
6
CONTINUOUS
10
122.9
20
-56.1388
11
122.72
21
-56.0589
0
LINE
8
BLACK
6
CONTINUOUS
10
122.72
20
-56.0589
11
122.561
21
-55.9434
0
LINE
8
BLACK
6
CONTINUOUS
10
122.561
20
-55.9434
11
122.43
21
-55.7974
0
LINE
8
BLACK
6
CONTINUOUS
10
122.43
20
-55.7974
11
122.331
21
-55.6273
0
LINE
8
BLACK
6
CONTINUOUS
10
122.331
20
-55.6273
11
122.271
21
-55.4404
0
LINE
8
BLACK
6
CONTINUOUS
10
122.271
20
-55.4404
11
122.25
21
-55.245
0
LINE
8
BLACK
6
CONTINUOUS
10
122.25
20
-55.245
11
122.271
21
-55.0496
0
LINE
8
BLACK
6
CONTINUOUS
10
122.271
20
-55.0496
11
122.331
21
-54.8627
0
LINE
8
BLACK
6
CONTINUOUS
10
122.331
20
-54.8627
11
122.43
21
-54.6926
0
LINE
8
BLACK
6
CONTINUOUS
10
122.43
20
-54.6926
11
122.561
21
-54.5466
0
LINE
8
BLACK
6
CONTINUOUS
10
122.561
20
-54.5466
11
122.72
21
-54.4311
0
LINE
8
BLACK
6
CONTINUOUS
10
122.72
20
-54.4311
11
122.9
21
-54.3512
0
LINE
8
BLACK
6
CONTINUOUS
10
122.9
20
-54.3512
11
123.092
21
-54.3103
0
LINE
8
BLACK
6
CONTINUOUS
10
123.092
20
-54.3103
11
123.288
21
-54.3103
0
LINE
8
BLACK
6
CONTINUOUS
10
123.288
20
-54.3103
11
123.48
21
-54.3512
0
LINE
8
BLACK
6
CONTINUOUS
10
126.02
20
-54.3512
11
126.2
21
-54.4311
0
LINE
8
BLACK
6
CONTINUOUS
10
126.2
20
-54.4311
11
126.359
21
-54.5466
0
LINE
8
BLACK
6
CONTINUOUS
10
126.359
20
-54.5466
11
126.49
21
-54.6926
0
LINE
8
BLACK
6
CONTINUOUS
10
126.49
20
-54.6926
11
126.589
21
-54.8627
0
LINE
8
BLACK
6
CONTINUOUS
10
126.589
20
-54.8627
11
126.649
21
-55.0496
0
LINE
8
BLACK
6
CONTINUOUS
10
126.649
20
-55.0496
11
126.67
21
-55.245
0
LINE
8
BLACK
6
CONTINUOUS
10
126.67
20
-55.245
11
126.649
21
-55.4404
0
LINE
8
BLACK
6
CONTINUOUS
10
126.649
20
-55.4404
11
126.589
21
-55.6273
0
LINE
8
BLACK
6
CONTINUOUS
10
126.589
20
-55.6273
11
126.49
21
-55.7974
0
LINE
8
BLACK
6
CONTINUOUS
10
126.49
20
-55.7974
11
126.359
21
-55.9434
0
LINE
8
BLACK
6
CONTINUOUS
10
126.359
20
-55.9434
11
126.2
21
-56.0589
0
LINE
8
BLACK
6
CONTINUOUS
10
126.2
20
-56.0589
11
126.02
21
-56.1388
0
LINE
8
BLACK
6
CONTINUOUS
10
126.02
20
-56.1388
11
125.828
21
-56.1797
0
LINE
8
BLACK
6
CONTINUOUS
10
125.828
20
-56.1797
11
125.632
21
-56.1797
0
LINE
8
BLACK
6
CONTINUOUS
10
125.632
20
-56.1797
11
125.44
21
-56.1388
0
LINE
8
BLACK
6
CONTINUOUS
10
125.44
20
-56.1388
11
125.26
21
-56.0589
0
LINE
8
BLACK
6
CONTINUOUS
10
125.26
20
-56.0589
11
125.101
21
-55.9434
0
LINE
8
BLACK
6
CONTINUOUS
10
125.101
20
-55.9434
11
124.97
21
-55.7974
0
LINE
8
BLACK
6
CONTINUOUS
10
124.97
20
-55.7974
11
124.871
21
-55.6273
0
LINE
8
BLACK
6
CONTINUOUS
10
124.871
20
-55.6273
11
124.811
21
-55.4404
0
LINE
8
BLACK
6
CONTINUOUS
10
124.811
20
-55.4404
11
124.79
21
-55.245
0
LINE
8
BLACK
6
CONTINUOUS
10
124.79
20
-55.245
11
124.811
21
-55.0496
0
LINE
8
BLACK
6
CONTINUOUS
10
124.811
20
-55.0496
11
124.871
21
-54.8627
0
LINE
8
BLACK
6
CONTINUOUS
10
124.871
20
-54.8627
11
124.97
21
-54.6926
0
LINE
8
BLACK
6
CONTINUOUS
10
124.97
20
-54.6926
11
125.101
21
-54.5466
0
LINE
8
BLACK
6
CONTINUOUS
10
125.101
20
-54.5466
11
125.26
21
-54.4311
0
LINE
8
BLACK
6
CONTINUOUS
10
125.26
20
-54.4311
11
125.44
21
-54.3512
0
LINE
8
BLACK
6
CONTINUOUS
10
125.44
20
-54.3512
11
125.632
21
-54.3103
0
LINE
8
BLACK
6
CONTINUOUS
10
125.632
20
-54.3103
11
125.828
21
-54.3103
0
LINE
8
BLACK
6
CONTINUOUS
10
125.828
20
-54.3103
11
126.02
21
-54.3512
0
LINE
8
BLACK
6
CONTINUOUS
10
128.56
20
-54.3512
11
128.74
21
-54.4311
0
LINE
8
BLACK
6
CONTINUOUS
10
128.74
20
-54.4311
11
128.899
21
-54.5466
0
LINE
8
BLACK
6
CONTINUOUS
10
128.899
20
-54.5466
11
129.03
21
-54.6926
0
LINE
8
BLACK
6
CONTINUOUS
10
129.03
20
-54.6926
11
129.129
21
-54.8627
0
LINE
8
BLACK
6
CONTINUOUS
10
129.129
20
-54.8627
11
129.189
21
-55.0496
0
LINE
8
BLACK
6
CONTINUOUS
10
129.189
20
-55.0496
11
129.21
21
-55.245
0
LINE
8
BLACK
6
CONTINUOUS
10
129.21
20
-55.245
11
129.189
21
-55.4404
0
LINE
8
BLACK
6
CONTINUOUS
10
129.189
20
-55.4404
11
129.129
21
-55.6273
0
LINE
8
BLACK
6
CONTINUOUS
10
129.129
20
-55.6273
11
129.03
21
-55.7974
0
LINE
8
BLACK
6
CONTINUOUS
10
129.03
20
-55.7974
11
128.899
21
-55.9434
0
LINE
8
BLACK
6
CONTINUOUS
10
128.899
20
-55.9434
11
128.74
21
-56.0589
0
LINE
8
BLACK
6
CONTINUOUS
10
128.74
20
-56.0589
11
128.56
21
-56.1388
0
LINE
8
BLACK
6
CONTINUOUS
10
128.56
20
-56.1388
11
128.368
21
-56.1797
0
LINE
8
BLACK
6
CONTINUOUS
10
128.368
20
-56.1797
11
128.172
21
-56.1797
0
LINE
8
BLACK
6
CONTINUOUS
10
128.172
20
-56.1797
11
127.98
21
-56.1388
0
LINE
8
BLACK
6
CONTINUOUS
10
127.98
20
-56.1388
11
127.8
21
-56.0589
0
LINE
8
BLACK
6
CONTINUOUS
10
127.8
20
-56.0589
11
127.641
21
-55.9434
0
LINE
8
BLACK
6
CONTINUOUS
10
127.641
20
-55.9434
11
127.51
21
-55.7974
0
LINE
8
BLACK
6
CONTINUOUS
10
127.51
20
-55.7974
11
127.411
21
-55.6273
0
LINE
8
BLACK
6
CONTINUOUS
10
127.411
20
-55.6273
11
127.351
21
-55.4404
0
LINE
8
BLACK
6
CONTINUOUS
10
127.351
20
-55.4404
11
127.33
21
-55.245
0
LINE
8
BLACK
6
CONTINUOUS
10
127.33
20
-55.245
11
127.351
21
-55.0496
0
LINE
8
BLACK
6
CONTINUOUS
10
127.351
20
-55.0496
11
127.411
21
-54.8627
0
LINE
8
BLACK
6
CONTINUOUS
10
127.411
20
-54.8627
11
127.51
21
-54.6926
0
LINE
8
BLACK
6
CONTINUOUS
10
127.51
20
-54.6926
11
127.641
21
-54.5466
0
LINE
8
BLACK
6
CONTINUOUS
10
127.641
20
-54.5466
11
127.8
21
-54.4311
0
LINE
8
BLACK
6
CONTINUOUS
10
127.8
20
-54.4311
11
127.98
21
-54.3512
0
LINE
8
BLACK
6
CONTINUOUS
10
127.98
20
-54.3512
11
128.172
21
-54.3103
0
LINE
8
BLACK
6
CONTINUOUS
10
128.172
20
-54.3103
11
128.368
21
-54.3103
0
LINE
8
BLACK
6
CONTINUOUS
10
128.368
20
-54.3103
11
128.56
21
-54.3512
0
LINE
8
BLACK
6
CONTINUOUS
10
131.1
20
-54.3512
11
131.28
21
-54.4311
0
LINE
8
BLACK
6
CONTINUOUS
10
131.28
20
-54.4311
11
131.439
21
-54.5466
0
LINE
8
BLACK
6
CONTINUOUS
10
131.439
20
-54.5466
11
131.57
21
-54.6926
0
LINE
8
BLACK
6
CONTINUOUS
10
131.57
20
-54.6926
11
131.669
21
-54.8627
0
LINE
8
BLACK
6
CONTINUOUS
10
131.669
20
-54.8627
11
131.729
21
-55.0496
0
LINE
8
BLACK
6
CONTINUOUS
10
131.729
20
-55.0496
11
131.75
21
-55.245
0
LINE
8
BLACK
6
CONTINUOUS
10
131.75
20
-55.245
11
131.729
21
-55.4404
0
LINE
8
BLACK
6
CONTINUOUS
10
131.729
20
-55.4404
11
131.669
21
-55.6273
0
LINE
8
BLACK
6
CONTINUOUS
10
131.669
20
-55.6273
11
131.57
21
-55.7974
0
LINE
8
BLACK
6
CONTINUOUS
10
131.57
20
-55.7974
11
131.439
21
-55.9434
0
LINE
8
BLACK
6
CONTINUOUS
10
131.439
20
-55.9434
11
131.28
21
-56.0589
0
LINE
8
BLACK
6
CONTINUOUS
10
131.28
20
-56.0589
11
131.1
21
-56.1388
0
LINE
8
BLACK
6
CONTINUOUS
10
131.1
20
-56.1388
11
130.908
21
-56.1797
0
LINE
8
BLACK
6
CONTINUOUS
10
130.908
20
-56.1797
11
130.712
21
-56.1797
0
LINE
8
BLACK
6
CONTINUOUS
10
130.712
20
-56.1797
11
130.52
21
-56.1388
0
LINE
8
BLACK
6
CONTINUOUS
10
130.52
20
-56.1388
11
130.34
21
-56.0589
0
LINE
8
BLACK
6
CONTINUOUS
10
130.34
20
-56.0589
11
130.181
21
-55.9434
0
LINE
8
BLACK
6
CONTINUOUS
10
130.181
20
-55.9434
11
130.05
21
-55.7974
0
LINE
8
BLACK
6
CONTINUOUS
10
130.05
20
-55.7974
11
129.951
21
-55.6273
0
LINE
8
BLACK
6
CONTINUOUS
10
129.951
20
-55.6273
11
129.891
21
-55.4404
0
LINE
8
BLACK
6
CONTINUOUS
10
129.891
20
-55.4404
11
129.87
21
-55.245
0
LINE
8
BLACK
6
CONTINUOUS
10
129.87
20
-55.245
11
129.891
21
-55.0496
0
LINE
8
BLACK
6
CONTINUOUS
10
129.891
20
-55.0496
11
129.951
21
-54.8627
0
LINE
8
BLACK
6
CONTINUOUS
10
129.951
20
-54.8627
11
130.05
21
-54.6926
0
LINE
8
BLACK
6
CONTINUOUS
10
130.05
20
-54.6926
11
130.181
21
-54.5466
0
LINE
8
BLACK
6
CONTINUOUS
10
130.181
20
-54.5466
11
130.34
21
-54.4311
0
LINE
8
BLACK
6
CONTINUOUS
10
130.34
20
-54.4311
11
130.52
21
-54.3512
0
LINE
8
BLACK
6
CONTINUOUS
10
130.52
20
-54.3512
11
130.712
21
-54.3103
0
LINE
8
BLACK
6
CONTINUOUS
10
130.712
20
-54.3103
11
130.908
21
-54.3103
0
LINE
8
BLACK
6
CONTINUOUS
10
130.908
20
-54.3103
11
131.1
21
-54.3512
0
LINE
8
BLACK
6
CONTINUOUS
10
133.64
20
-54.3512
11
133.82
21
-54.4311
0
LINE
8
BLACK
6
CONTINUOUS
10
133.82
20
-54.4311
11
133.979
21
-54.5466
0
LINE
8
BLACK
6
CONTINUOUS
10
133.979
20
-54.5466
11
134.11
21
-54.6926
0
LINE
8
BLACK
6
CONTINUOUS
10
134.11
20
-54.6926
11
134.209
21
-54.8627
0
LINE
8
BLACK
6
CONTINUOUS
10
134.209
20
-54.8627
11
134.269
21
-55.0496
0
LINE
8
BLACK
6
CONTINUOUS
10
134.269
20
-55.0496
11
134.29
21
-55.245
0
LINE
8
BLACK
6
CONTINUOUS
10
134.29
20
-55.245
11
134.269
21
-55.4404
0
LINE
8
BLACK
6
CONTINUOUS
10
134.269
20
-55.4404
11
134.209
21
-55.6273
0
LINE
8
BLACK
6
CONTINUOUS
10
134.209
20
-55.6273
11
134.11
21
-55.7974
0
LINE
8
BLACK
6
CONTINUOUS
10
134.11
20
-55.7974
11
133.979
21
-55.9434
0
LINE
8
BLACK
6
CONTINUOUS
10
133.979
20
-55.9434
11
133.82
21
-56.0589
0
LINE
8
BLACK
6
CONTINUOUS
10
133.82
20
-56.0589
11
133.64
21
-56.1388
0
LINE
8
BLACK
6
CONTINUOUS
10
133.64
20
-56.1388
11
133.448
21
-56.1797
0
LINE
8
BLACK
6
CONTINUOUS
10
133.448
20
-56.1797
11
133.252
21
-56.1797
0
LINE
8
BLACK
6
CONTINUOUS
10
133.252
20
-56.1797
11
133.06
21
-56.1388
0
LINE
8
BLACK
6
CONTINUOUS
10
133.06
20
-56.1388
11
132.88
21
-56.0589
0
LINE
8
BLACK
6
CONTINUOUS
10
132.88
20
-56.0589
11
132.721
21
-55.9434
0
LINE
8
BLACK
6
CONTINUOUS
10
132.721
20
-55.9434
11
132.59
21
-55.7974
0
LINE
8
BLACK
6
CONTINUOUS
10
132.59
20
-55.7974
11
132.491
21
-55.6273
0
LINE
8
BLACK
6
CONTINUOUS
10
132.491
20
-55.6273
11
132.431
21
-55.4404
0
LINE
8
BLACK
6
CONTINUOUS
10
132.431
20
-55.4404
11
132.41
21
-55.245
0
LINE
8
BLACK
6
CONTINUOUS
10
132.41
20
-55.245
11
132.431
21
-55.0496
0
LINE
8
BLACK
6
CONTINUOUS
10
132.431
20
-55.0496
11
132.491
21
-54.8627
0
LINE
8
BLACK
6
CONTINUOUS
10
132.491
20
-54.8627
11
132.59
21
-54.6926
0
LINE
8
BLACK
6
CONTINUOUS
10
132.59
20
-54.6926
11
132.721
21
-54.5466
0
LINE
8
BLACK
6
CONTINUOUS
10
132.721
20
-54.5466
11
132.88
21
-54.4311
0
LINE
8
BLACK
6
CONTINUOUS
10
132.88
20
-54.4311
11
133.06
21
-54.3512
0
LINE
8
BLACK
6
CONTINUOUS
10
133.06
20
-54.3512
11
133.252
21
-54.3103
0
LINE
8
BLACK
6
CONTINUOUS
10
133.252
20
-54.3103
11
133.448
21
-54.3103
0
LINE
8
BLACK
6
CONTINUOUS
10
133.448
20
-54.3103
11
133.64
21
-54.3512
0
CIRCLE
8
BLACK
10
132.08
20
-74.295
40
0.2
0
CIRCLE
8
BLACK
10
135.89
20
-74.295
40
0.2
0
CIRCLE
8
BLACK
10
136.443
20
-77.47
40
0.2
0
CIRCLE
8
BLACK
10
116.84
20
-76.2
40
0.2
0
CIRCLE
8
BLACK
10
137.795
20
-74.295
40
0.2
0
CIRCLE
8
BLACK
10
132.08
20
-75.565
40
0.2
0
CIRCLE
8
BLACK
10
142.875
20
-59.055
40
0.2
0
CIRCLE
8
BLACK
10
137.795
20
-62.23
40
0.2
0
CIRCLE
8
BLACK
10
118.745
20
-75.565
40
0.2
  0
ENDSEC
  0
EOF
