%TF.GenerationSoftware,KiCad,Pcbnew,(6.0.5)*%
%TF.CreationDate,2022-12-08T11:31:36+07:00*%
%TF.ProjectId,Device on bag,44657669-6365-4206-9f6e-206261672e6b,rev?*%
%TF.SameCoordinates,Original*%
%TF.FileFunction,Legend,Bot*%
%TF.FilePolarity,Positive*%
%FSLAX46Y46*%
G04 Gerber Fmt 4.6, Leading zero omitted, Abs format (unit mm)*
G04 Created by KiCad (PCBNEW (6.0.5)) date 2022-12-08 11:31:36*
%MOMM*%
%LPD*%
G01*
G04 APERTURE LIST*
%ADD10C,0.150000*%
%ADD11C,0.120000*%
%ADD12C,1.905000*%
%ADD13R,1.800000X1.800000*%
%ADD14C,1.800000*%
%ADD15C,3.000000*%
%ADD16R,1.879600X1.879600*%
%ADD17C,1.879600*%
%ADD18R,2.000000X2.000000*%
%ADD19C,2.000000*%
G04 APERTURE END LIST*
D10*
%TO.C,U1*%
X122897142Y-56745238D02*
X123040000Y-56697619D01*
X123278095Y-56697619D01*
X123373333Y-56745238D01*
X123420952Y-56792857D01*
X123468571Y-56888095D01*
X123468571Y-56983333D01*
X123420952Y-57078571D01*
X123373333Y-57126190D01*
X123278095Y-57173809D01*
X123087619Y-57221428D01*
X122992380Y-57269047D01*
X122944761Y-57316666D01*
X122897142Y-57411904D01*
X122897142Y-57507142D01*
X122944761Y-57602380D01*
X122992380Y-57650000D01*
X123087619Y-57697619D01*
X123325714Y-57697619D01*
X123468571Y-57650000D01*
X123754285Y-57697619D02*
X124325714Y-57697619D01*
X124040000Y-56697619D02*
X124040000Y-57697619D01*
X124659047Y-57221428D02*
X124992380Y-57221428D01*
X125135238Y-56697619D02*
X124659047Y-56697619D01*
X124659047Y-57697619D01*
X125135238Y-57697619D01*
X125420952Y-57697619D02*
X125754285Y-56697619D01*
X126087619Y-57697619D01*
X126373333Y-56983333D02*
X126849523Y-56983333D01*
X126278095Y-56697619D02*
X126611428Y-57697619D01*
X126944761Y-56697619D01*
X127754285Y-56697619D02*
X127278095Y-56697619D01*
X127278095Y-57697619D01*
X128087619Y-57078571D02*
X128849523Y-57078571D01*
X129325714Y-56697619D02*
X129325714Y-57697619D01*
X129659047Y-56983333D01*
X129992380Y-57697619D01*
X129992380Y-56697619D01*
X130468571Y-56697619D02*
X130468571Y-57697619D01*
X131039999Y-56697619D02*
X130611428Y-57269047D01*
X131039999Y-57697619D02*
X130468571Y-57126190D01*
X131468571Y-56697619D02*
X131468571Y-57697619D01*
X131897142Y-57602380D02*
X131944761Y-57650000D01*
X132039999Y-57697619D01*
X132278095Y-57697619D01*
X132373333Y-57650000D01*
X132420952Y-57602380D01*
X132468571Y-57507142D01*
X132468571Y-57411904D01*
X132420952Y-57269047D01*
X131849523Y-56697619D01*
X132468571Y-56697619D01*
X133420952Y-56697619D02*
X132849523Y-56697619D01*
X133135238Y-56697619D02*
X133135238Y-57697619D01*
X133039999Y-57554761D01*
X132944761Y-57459523D01*
X132849523Y-57411904D01*
X134325714Y-57697619D02*
X133849523Y-57697619D01*
X133801904Y-57221428D01*
X133849523Y-57269047D01*
X133944761Y-57316666D01*
X134182857Y-57316666D01*
X134278095Y-57269047D01*
X134325714Y-57221428D01*
X134373333Y-57126190D01*
X134373333Y-56888095D01*
X134325714Y-56792857D01*
X134278095Y-56745238D01*
X134182857Y-56697619D01*
X133944761Y-56697619D01*
X133849523Y-56745238D01*
X133801904Y-56792857D01*
X134659047Y-57697619D02*
X134992380Y-56697619D01*
X135325714Y-57697619D01*
X136182857Y-56697619D02*
X135611428Y-56697619D01*
X135897142Y-56697619D02*
X135897142Y-57697619D01*
X135801904Y-57554761D01*
X135706666Y-57459523D01*
X135611428Y-57411904D01*
D11*
%TO.C,U2*%
X109220000Y-105410000D02*
X137160000Y-105410000D01*
X109220000Y-82550000D02*
X109220000Y-105410000D01*
X116840000Y-82550000D02*
X109220000Y-82550000D01*
X137160000Y-80010000D02*
X116840000Y-80010000D01*
X137160000Y-105410000D02*
X137160000Y-80010000D01*
X116840000Y-80010000D02*
X116840000Y-82550000D01*
%TO.C,U1*%
X137160000Y-71755000D02*
X106680000Y-71755000D01*
X106680000Y-71755000D02*
X106680000Y-53975000D01*
X106680000Y-53975000D02*
X137160000Y-53975000D01*
X137160000Y-53975000D02*
X137160000Y-71755000D01*
%TO.C,U3*%
X166624000Y-53924200D02*
X138125200Y-53924200D01*
X138125200Y-53924200D02*
X138125200Y-104825800D01*
X138125200Y-104825800D02*
X166624000Y-104825800D01*
X166624000Y-104825800D02*
X166624000Y-53924200D01*
%TD*%
%LPC*%
D12*
%TO.C,U2*%
X135890000Y-81280000D03*
X133350000Y-81280000D03*
X130810000Y-81280000D03*
X128270000Y-81280000D03*
X125730000Y-81280000D03*
X123190000Y-81280000D03*
X120650000Y-81280000D03*
X118110000Y-81280000D03*
X118110000Y-104140000D03*
X120650000Y-104140000D03*
X123190000Y-104140000D03*
X125730000Y-104140000D03*
X128270000Y-104140000D03*
X130810000Y-104140000D03*
X133350000Y-104140000D03*
X135890000Y-104140000D03*
%TD*%
D13*
%TO.C,SW1*%
X113665000Y-80010000D03*
D14*
X111165000Y-80010000D03*
X108665000Y-80010000D03*
X113665000Y-74010000D03*
X111165000Y-74010000D03*
X108665000Y-74010000D03*
%TD*%
D15*
%TO.C,*%
X107315000Y-104140000D03*
%TD*%
D16*
%TO.C,U1*%
X135890000Y-55245000D03*
D17*
X133350000Y-55245000D03*
X130810000Y-55245000D03*
X128270000Y-55245000D03*
X125730000Y-55245000D03*
X123190000Y-55245000D03*
X120650000Y-55245000D03*
X118110000Y-55245000D03*
X115570000Y-55245000D03*
X113030000Y-55245000D03*
X110490000Y-55245000D03*
X107950000Y-55245000D03*
X107950000Y-70485000D03*
X110490000Y-70485000D03*
X113030000Y-70485000D03*
X115570000Y-70485000D03*
X118110000Y-70485000D03*
X120650000Y-70485000D03*
X123190000Y-70485000D03*
X125730000Y-70485000D03*
X128270000Y-70485000D03*
X130810000Y-70485000D03*
X133350000Y-70485000D03*
X135890000Y-70485000D03*
%TD*%
D15*
%TO.C,U3*%
X140120000Y-102850000D03*
X140120000Y-55900000D03*
X164630000Y-102850000D03*
X164630000Y-55900000D03*
D18*
X139700000Y-63860000D03*
D19*
X139700000Y-66400000D03*
X139700000Y-68940000D03*
X139700000Y-71480000D03*
X139700000Y-74020000D03*
X139700000Y-76560000D03*
X139700000Y-79100000D03*
X139700000Y-81640000D03*
X139700000Y-84180000D03*
X139700000Y-86720000D03*
X139700000Y-89260000D03*
X139700000Y-91800000D03*
X139700000Y-94340000D03*
X139700000Y-96880000D03*
X139700000Y-99420000D03*
X165100000Y-99420000D03*
X165100000Y-96880000D03*
X165100000Y-94340000D03*
X165100000Y-91800000D03*
X165100000Y-89260000D03*
X165100000Y-86720000D03*
X165100000Y-84180000D03*
X165100000Y-81640000D03*
X165100000Y-79100000D03*
X165100000Y-76560000D03*
X165100000Y-74020000D03*
X165100000Y-71480000D03*
X165100000Y-68940000D03*
X165100000Y-66400000D03*
X165100000Y-63860000D03*
%TD*%
M02*
