%TF.GenerationSoftware,KiCad,Pcbnew,(6.0.5)*%
%TF.CreationDate,2022-12-08T11:31:36+07:00*%
%TF.ProjectId,Device on bag,44657669-6365-4206-9f6e-206261672e6b,rev?*%
%TF.SameCoordinates,Original*%
%TF.FileFunction,Soldermask,Top*%
%TF.FilePolarity,Negative*%
%FSLAX46Y46*%
G04 Gerber Fmt 4.6, Leading zero omitted, Abs format (unit mm)*
G04 Created by KiCad (PCBNEW (6.0.5)) date 2022-12-08 11:31:36*
%MOMM*%
%LPD*%
G01*
G04 APERTURE LIST*
%ADD10C,1.905000*%
%ADD11R,1.800000X1.800000*%
%ADD12C,1.800000*%
%ADD13C,3.000000*%
%ADD14R,1.879600X1.879600*%
%ADD15C,1.879600*%
%ADD16R,2.000000X2.000000*%
%ADD17C,2.000000*%
G04 APERTURE END LIST*
D10*
%TO.C,U2*%
X135890000Y-81280000D03*
X133350000Y-81280000D03*
X130810000Y-81280000D03*
X128270000Y-81280000D03*
X125730000Y-81280000D03*
X123190000Y-81280000D03*
X120650000Y-81280000D03*
X118110000Y-81280000D03*
X118110000Y-104140000D03*
X120650000Y-104140000D03*
X123190000Y-104140000D03*
X125730000Y-104140000D03*
X128270000Y-104140000D03*
X130810000Y-104140000D03*
X133350000Y-104140000D03*
X135890000Y-104140000D03*
%TD*%
D11*
%TO.C,SW1*%
X113665000Y-80010000D03*
D12*
X111165000Y-80010000D03*
X108665000Y-80010000D03*
X113665000Y-74010000D03*
X111165000Y-74010000D03*
X108665000Y-74010000D03*
%TD*%
D13*
%TO.C,*%
X107315000Y-104140000D03*
%TD*%
D14*
%TO.C,U1*%
X135890000Y-55245000D03*
D15*
X133350000Y-55245000D03*
X130810000Y-55245000D03*
X128270000Y-55245000D03*
X125730000Y-55245000D03*
X123190000Y-55245000D03*
X120650000Y-55245000D03*
X118110000Y-55245000D03*
X115570000Y-55245000D03*
X113030000Y-55245000D03*
X110490000Y-55245000D03*
X107950000Y-55245000D03*
X107950000Y-70485000D03*
X110490000Y-70485000D03*
X113030000Y-70485000D03*
X115570000Y-70485000D03*
X118110000Y-70485000D03*
X120650000Y-70485000D03*
X123190000Y-70485000D03*
X125730000Y-70485000D03*
X128270000Y-70485000D03*
X130810000Y-70485000D03*
X133350000Y-70485000D03*
X135890000Y-70485000D03*
%TD*%
D13*
%TO.C,U3*%
X140120000Y-102850000D03*
X140120000Y-55900000D03*
X164630000Y-102850000D03*
X164630000Y-55900000D03*
D16*
X139700000Y-63860000D03*
D17*
X139700000Y-66400000D03*
X139700000Y-68940000D03*
X139700000Y-71480000D03*
X139700000Y-74020000D03*
X139700000Y-76560000D03*
X139700000Y-79100000D03*
X139700000Y-81640000D03*
X139700000Y-84180000D03*
X139700000Y-86720000D03*
X139700000Y-89260000D03*
X139700000Y-91800000D03*
X139700000Y-94340000D03*
X139700000Y-96880000D03*
X139700000Y-99420000D03*
X165100000Y-99420000D03*
X165100000Y-96880000D03*
X165100000Y-94340000D03*
X165100000Y-91800000D03*
X165100000Y-89260000D03*
X165100000Y-86720000D03*
X165100000Y-84180000D03*
X165100000Y-81640000D03*
X165100000Y-79100000D03*
X165100000Y-76560000D03*
X165100000Y-74020000D03*
X165100000Y-71480000D03*
X165100000Y-68940000D03*
X165100000Y-66400000D03*
X165100000Y-63860000D03*
%TD*%
M02*
