%TF.GenerationSoftware,KiCad,Pcbnew,(6.0.5)*%
%TF.CreationDate,2022-12-08T11:31:36+07:00*%
%TF.ProjectId,Device on bag,44657669-6365-4206-9f6e-206261672e6b,rev?*%
%TF.SameCoordinates,Original*%
%TF.FileFunction,Copper,L2,Bot*%
%TF.FilePolarity,Positive*%
%FSLAX46Y46*%
G04 Gerber Fmt 4.6, Leading zero omitted, Abs format (unit mm)*
G04 Created by KiCad (PCBNEW (6.0.5)) date 2022-12-08 11:31:36*
%MOMM*%
%LPD*%
G01*
G04 APERTURE LIST*
%TA.AperFunction,ComponentPad*%
%ADD10C,1.905000*%
%TD*%
%TA.AperFunction,ComponentPad*%
%ADD11R,1.800000X1.800000*%
%TD*%
%TA.AperFunction,ComponentPad*%
%ADD12C,1.800000*%
%TD*%
%TA.AperFunction,ComponentPad*%
%ADD13R,1.879600X1.879600*%
%TD*%
%TA.AperFunction,ComponentPad*%
%ADD14C,1.879600*%
%TD*%
%TA.AperFunction,ComponentPad*%
%ADD15R,2.000000X2.000000*%
%TD*%
%TA.AperFunction,ComponentPad*%
%ADD16C,2.000000*%
%TD*%
%TA.AperFunction,ViaPad*%
%ADD17C,0.800000*%
%TD*%
%TA.AperFunction,Conductor*%
%ADD18C,0.500000*%
%TD*%
%TA.AperFunction,Conductor*%
%ADD19C,0.250000*%
%TD*%
G04 APERTURE END LIST*
D10*
%TO.P,U2,1*%
%TO.N,N/C*%
X135890000Y-81280000D03*
%TO.P,U2,2*%
X133350000Y-81280000D03*
%TO.P,U2,3*%
X130810000Y-81280000D03*
%TO.P,U2,4*%
X128270000Y-81280000D03*
%TO.P,U2,5*%
X125730000Y-81280000D03*
%TO.P,U2,6*%
X123190000Y-81280000D03*
%TO.P,U2,7*%
X120650000Y-81280000D03*
%TO.P,U2,8*%
X118110000Y-81280000D03*
%TO.P,U2,9,5V*%
%TO.N,Net-(U2-Pad9)*%
X118110000Y-104140000D03*
%TO.P,U2,10,GND*%
%TO.N,GND*%
X120650000Y-104140000D03*
%TO.P,U2,11*%
%TO.N,N/C*%
X123190000Y-104140000D03*
%TO.P,U2,12*%
X125730000Y-104140000D03*
%TO.P,U2,13*%
X128270000Y-104140000D03*
%TO.P,U2,14*%
X130810000Y-104140000D03*
%TO.P,U2,15*%
X133350000Y-104140000D03*
%TO.P,U2,16*%
X135890000Y-104140000D03*
%TD*%
D11*
%TO.P,SW1,1*%
%TO.N,Vin*%
X113665000Y-80010000D03*
D12*
%TO.P,SW1,2*%
%TO.N,Net-(U2-Pad9)*%
X111165000Y-80010000D03*
%TO.P,SW1,3*%
%TO.N,N/C*%
X108665000Y-80010000D03*
%TO.P,SW1,4*%
X113665000Y-74010000D03*
%TO.P,SW1,5*%
X111165000Y-74010000D03*
%TO.P,SW1,6*%
X108665000Y-74010000D03*
%TD*%
D13*
%TO.P,U1,1,VDD*%
%TO.N,+3.3V*%
X135890000Y-55245000D03*
D14*
%TO.P,U1,2*%
%TO.N,N/C*%
X133350000Y-55245000D03*
%TO.P,U1,3*%
X130810000Y-55245000D03*
%TO.P,U1,4*%
X128270000Y-55245000D03*
%TO.P,U1,5*%
X125730000Y-55245000D03*
%TO.P,U1,6*%
X123190000Y-55245000D03*
%TO.P,U1,7*%
X120650000Y-55245000D03*
%TO.P,U1,8*%
X118110000Y-55245000D03*
%TO.P,U1,9*%
X115570000Y-55245000D03*
%TO.P,U1,10*%
X113030000Y-55245000D03*
%TO.P,U1,11*%
X110490000Y-55245000D03*
%TO.P,U1,12*%
X107950000Y-55245000D03*
%TO.P,U1,13,GND*%
%TO.N,GND*%
X107950000Y-70485000D03*
%TO.P,U1,14*%
%TO.N,N/C*%
X110490000Y-70485000D03*
%TO.P,U1,15*%
X113030000Y-70485000D03*
%TO.P,U1,16*%
X115570000Y-70485000D03*
%TO.P,U1,17*%
X118110000Y-70485000D03*
%TO.P,U1,18*%
X120650000Y-70485000D03*
%TO.P,U1,19,CS*%
%TO.N,SS*%
X123190000Y-70485000D03*
%TO.P,U1,20,SCL*%
%TO.N,SCK*%
X125730000Y-70485000D03*
%TO.P,U1,21,SDA*%
%TO.N,MOSI*%
X128270000Y-70485000D03*
%TO.P,U1,22,SDO*%
%TO.N,MISO*%
X130810000Y-70485000D03*
%TO.P,U1,23*%
%TO.N,N/C*%
X133350000Y-70485000D03*
%TO.P,U1,24*%
X135890000Y-70485000D03*
%TD*%
D15*
%TO.P,U3,1,3V3*%
%TO.N,+3.3V*%
X139700000Y-63860000D03*
D16*
%TO.P,U3,2,GND*%
%TO.N,GND*%
X139700000Y-66400000D03*
%TO.P,U3,3,D15*%
%TO.N,unconnected-(U3-Pad3)*%
X139700000Y-68940000D03*
%TO.P,U3,4,D2*%
%TO.N,unconnected-(U3-Pad4)*%
X139700000Y-71480000D03*
%TO.P,U3,5,D4*%
%TO.N,unconnected-(U3-Pad5)*%
X139700000Y-74020000D03*
%TO.P,U3,6,RX2*%
%TO.N,unconnected-(U3-Pad6)*%
X139700000Y-76560000D03*
%TO.P,U3,7,TX2*%
%TO.N,unconnected-(U3-Pad7)*%
X139700000Y-79100000D03*
%TO.P,U3,8,D5*%
%TO.N,SS*%
X139700000Y-81640000D03*
%TO.P,U3,9,D18*%
%TO.N,SCK*%
X139700000Y-84180000D03*
%TO.P,U3,10,D19*%
%TO.N,MISO*%
X139700000Y-86720000D03*
%TO.P,U3,11,D21*%
%TO.N,unconnected-(U3-Pad11)*%
X139700000Y-89260000D03*
%TO.P,U3,12,RX0*%
%TO.N,unconnected-(U3-Pad12)*%
X139700000Y-91800000D03*
%TO.P,U3,13,TX0*%
%TO.N,unconnected-(U3-Pad13)*%
X139700000Y-94340000D03*
%TO.P,U3,14,D22*%
%TO.N,unconnected-(U3-Pad14)*%
X139700000Y-96880000D03*
%TO.P,U3,15,D23*%
%TO.N,MOSI*%
X139700000Y-99420000D03*
%TO.P,U3,16,EN*%
%TO.N,unconnected-(U3-Pad16)*%
X165100000Y-99420000D03*
%TO.P,U3,17,VP*%
%TO.N,unconnected-(U3-Pad17)*%
X165100000Y-96880000D03*
%TO.P,U3,18,VN*%
%TO.N,unconnected-(U3-Pad18)*%
X165100000Y-94340000D03*
%TO.P,U3,19,D34*%
%TO.N,unconnected-(U3-Pad19)*%
X165100000Y-91800000D03*
%TO.P,U3,20,D35*%
%TO.N,unconnected-(U3-Pad20)*%
X165100000Y-89260000D03*
%TO.P,U3,21,D32*%
%TO.N,unconnected-(U3-Pad21)*%
X165100000Y-86720000D03*
%TO.P,U3,22,D33*%
%TO.N,unconnected-(U3-Pad22)*%
X165100000Y-84180000D03*
%TO.P,U3,23,D25*%
%TO.N,unconnected-(U3-Pad23)*%
X165100000Y-81640000D03*
%TO.P,U3,24,D26*%
%TO.N,unconnected-(U3-Pad24)*%
X165100000Y-79100000D03*
%TO.P,U3,25,D27*%
%TO.N,unconnected-(U3-Pad25)*%
X165100000Y-76560000D03*
%TO.P,U3,26,D14*%
%TO.N,unconnected-(U3-Pad26)*%
X165100000Y-74020000D03*
%TO.P,U3,27,D12*%
%TO.N,unconnected-(U3-Pad27)*%
X165100000Y-71480000D03*
%TO.P,U3,28,D13*%
%TO.N,unconnected-(U3-Pad28)*%
X165100000Y-68940000D03*
%TO.P,U3,29,GND*%
%TO.N,GND*%
X165100000Y-66400000D03*
%TO.P,U3,30,VIN*%
%TO.N,Vin*%
X165100000Y-63860000D03*
%TD*%
D17*
%TO.N,Vin*%
X118745000Y-75565000D03*
X132080000Y-75565000D03*
%TO.N,SS*%
X132080000Y-74295000D03*
X135890000Y-74295000D03*
%TO.N,SCK*%
X136442511Y-77470000D03*
%TO.N,MOSI*%
X116840000Y-76200000D03*
%TO.N,Vin*%
X137795000Y-74295000D03*
X142875000Y-59055000D03*
X137795000Y-62230000D03*
%TD*%
D18*
%TO.N,Vin*%
X140970000Y-59055000D02*
X137795000Y-62230000D01*
X142875000Y-59055000D02*
X140970000Y-59055000D01*
D19*
X118745000Y-75565000D02*
X118499614Y-75565000D01*
%TO.N,SS*%
X132080000Y-74295000D02*
X135890000Y-74295000D01*
%TO.N,SCK*%
X136442511Y-77470000D02*
X137795000Y-78822489D01*
X137795000Y-78822489D02*
X137795000Y-82275000D01*
X137795000Y-82275000D02*
X139700000Y-84180000D01*
%TO.N,MOSI*%
X124460000Y-74295000D02*
X128270000Y-70485000D01*
X116840000Y-76200000D02*
X118745000Y-74295000D01*
X118745000Y-74295000D02*
X124460000Y-74295000D01*
D18*
%TO.N,Vin*%
X136525000Y-75565000D02*
X132080000Y-75565000D01*
D19*
X114054614Y-80010000D02*
X113665000Y-80010000D01*
D18*
X137795000Y-74295000D02*
X136525000Y-75565000D01*
X118499614Y-75565000D02*
X114054614Y-80010000D01*
%TD*%
%TA.AperFunction,Conductor*%
%TO.N,GND*%
G36*
X167073621Y-53233502D02*
G01*
X167120114Y-53287158D01*
X167131500Y-53339500D01*
X167131500Y-105410500D01*
X167111498Y-105478621D01*
X167057842Y-105525114D01*
X167005500Y-105536500D01*
X136841853Y-105536500D01*
X136773732Y-105516498D01*
X136727239Y-105462842D01*
X136717135Y-105392568D01*
X136746629Y-105327988D01*
X136768684Y-105307922D01*
X136832034Y-105262735D01*
X136832044Y-105262727D01*
X136836245Y-105259730D01*
X137006420Y-105090148D01*
X137146613Y-104895049D01*
X137253059Y-104679673D01*
X137269547Y-104625404D01*
X137321395Y-104454756D01*
X137321396Y-104454750D01*
X137322899Y-104449804D01*
X137354257Y-104211614D01*
X137354534Y-104200287D01*
X137355925Y-104143365D01*
X137355925Y-104143361D01*
X137356007Y-104140000D01*
X137336322Y-103900563D01*
X137277794Y-103667556D01*
X137181997Y-103447237D01*
X137071426Y-103276321D01*
X137054310Y-103249863D01*
X137054308Y-103249860D01*
X137051502Y-103245523D01*
X136889814Y-103067830D01*
X136746212Y-102954420D01*
X136705330Y-102922133D01*
X136705325Y-102922130D01*
X136701276Y-102918932D01*
X136696760Y-102916439D01*
X136696757Y-102916437D01*
X136495474Y-102805323D01*
X136495470Y-102805321D01*
X136490950Y-102802826D01*
X136486081Y-102801102D01*
X136486077Y-102801100D01*
X136269360Y-102724356D01*
X136269356Y-102724355D01*
X136264485Y-102722630D01*
X136259392Y-102721723D01*
X136259389Y-102721722D01*
X136033052Y-102681405D01*
X136033046Y-102681404D01*
X136027963Y-102680499D01*
X135940600Y-102679432D01*
X135792907Y-102677627D01*
X135792905Y-102677627D01*
X135787737Y-102677564D01*
X135550256Y-102713904D01*
X135438003Y-102750594D01*
X135326817Y-102786934D01*
X135326811Y-102786937D01*
X135321899Y-102788542D01*
X135317313Y-102790929D01*
X135317309Y-102790931D01*
X135113393Y-102897084D01*
X135108800Y-102899475D01*
X135086960Y-102915873D01*
X135034125Y-102955543D01*
X134916680Y-103043723D01*
X134913108Y-103047461D01*
X134767698Y-103199624D01*
X134750699Y-103217412D01*
X134725465Y-103254403D01*
X134670556Y-103299404D01*
X134600032Y-103307575D01*
X134536284Y-103276321D01*
X134515589Y-103251840D01*
X134514311Y-103249865D01*
X134511502Y-103245523D01*
X134349814Y-103067830D01*
X134206212Y-102954420D01*
X134165330Y-102922133D01*
X134165325Y-102922130D01*
X134161276Y-102918932D01*
X134156760Y-102916439D01*
X134156757Y-102916437D01*
X133955474Y-102805323D01*
X133955470Y-102805321D01*
X133950950Y-102802826D01*
X133946081Y-102801102D01*
X133946077Y-102801100D01*
X133729360Y-102724356D01*
X133729356Y-102724355D01*
X133724485Y-102722630D01*
X133719392Y-102721723D01*
X133719389Y-102721722D01*
X133493052Y-102681405D01*
X133493046Y-102681404D01*
X133487963Y-102680499D01*
X133400600Y-102679432D01*
X133252907Y-102677627D01*
X133252905Y-102677627D01*
X133247737Y-102677564D01*
X133010256Y-102713904D01*
X132898003Y-102750594D01*
X132786817Y-102786934D01*
X132786811Y-102786937D01*
X132781899Y-102788542D01*
X132777313Y-102790929D01*
X132777309Y-102790931D01*
X132573393Y-102897084D01*
X132568800Y-102899475D01*
X132546960Y-102915873D01*
X132494125Y-102955543D01*
X132376680Y-103043723D01*
X132373108Y-103047461D01*
X132227698Y-103199624D01*
X132210699Y-103217412D01*
X132185465Y-103254403D01*
X132130556Y-103299404D01*
X132060032Y-103307575D01*
X131996284Y-103276321D01*
X131975589Y-103251840D01*
X131974311Y-103249865D01*
X131971502Y-103245523D01*
X131809814Y-103067830D01*
X131666212Y-102954420D01*
X131625330Y-102922133D01*
X131625325Y-102922130D01*
X131621276Y-102918932D01*
X131616760Y-102916439D01*
X131616757Y-102916437D01*
X131415474Y-102805323D01*
X131415470Y-102805321D01*
X131410950Y-102802826D01*
X131406081Y-102801102D01*
X131406077Y-102801100D01*
X131189360Y-102724356D01*
X131189356Y-102724355D01*
X131184485Y-102722630D01*
X131179392Y-102721723D01*
X131179389Y-102721722D01*
X130953052Y-102681405D01*
X130953046Y-102681404D01*
X130947963Y-102680499D01*
X130860600Y-102679432D01*
X130712907Y-102677627D01*
X130712905Y-102677627D01*
X130707737Y-102677564D01*
X130470256Y-102713904D01*
X130358003Y-102750594D01*
X130246817Y-102786934D01*
X130246811Y-102786937D01*
X130241899Y-102788542D01*
X130237313Y-102790929D01*
X130237309Y-102790931D01*
X130033393Y-102897084D01*
X130028800Y-102899475D01*
X130006960Y-102915873D01*
X129954125Y-102955543D01*
X129836680Y-103043723D01*
X129833108Y-103047461D01*
X129687698Y-103199624D01*
X129670699Y-103217412D01*
X129645465Y-103254403D01*
X129590556Y-103299404D01*
X129520032Y-103307575D01*
X129456284Y-103276321D01*
X129435589Y-103251840D01*
X129434311Y-103249865D01*
X129431502Y-103245523D01*
X129269814Y-103067830D01*
X129126212Y-102954420D01*
X129085330Y-102922133D01*
X129085325Y-102922130D01*
X129081276Y-102918932D01*
X129076760Y-102916439D01*
X129076757Y-102916437D01*
X128875474Y-102805323D01*
X128875470Y-102805321D01*
X128870950Y-102802826D01*
X128866081Y-102801102D01*
X128866077Y-102801100D01*
X128649360Y-102724356D01*
X128649356Y-102724355D01*
X128644485Y-102722630D01*
X128639392Y-102721723D01*
X128639389Y-102721722D01*
X128413052Y-102681405D01*
X128413046Y-102681404D01*
X128407963Y-102680499D01*
X128320600Y-102679432D01*
X128172907Y-102677627D01*
X128172905Y-102677627D01*
X128167737Y-102677564D01*
X127930256Y-102713904D01*
X127818003Y-102750594D01*
X127706817Y-102786934D01*
X127706811Y-102786937D01*
X127701899Y-102788542D01*
X127697313Y-102790929D01*
X127697309Y-102790931D01*
X127493393Y-102897084D01*
X127488800Y-102899475D01*
X127466960Y-102915873D01*
X127414125Y-102955543D01*
X127296680Y-103043723D01*
X127293108Y-103047461D01*
X127147698Y-103199624D01*
X127130699Y-103217412D01*
X127105465Y-103254403D01*
X127050556Y-103299404D01*
X126980032Y-103307575D01*
X126916284Y-103276321D01*
X126895589Y-103251840D01*
X126894311Y-103249865D01*
X126891502Y-103245523D01*
X126729814Y-103067830D01*
X126586212Y-102954420D01*
X126545330Y-102922133D01*
X126545325Y-102922130D01*
X126541276Y-102918932D01*
X126536760Y-102916439D01*
X126536757Y-102916437D01*
X126335474Y-102805323D01*
X126335470Y-102805321D01*
X126330950Y-102802826D01*
X126326081Y-102801102D01*
X126326077Y-102801100D01*
X126109360Y-102724356D01*
X126109356Y-102724355D01*
X126104485Y-102722630D01*
X126099392Y-102721723D01*
X126099389Y-102721722D01*
X125873052Y-102681405D01*
X125873046Y-102681404D01*
X125867963Y-102680499D01*
X125780600Y-102679432D01*
X125632907Y-102677627D01*
X125632905Y-102677627D01*
X125627737Y-102677564D01*
X125390256Y-102713904D01*
X125278003Y-102750594D01*
X125166817Y-102786934D01*
X125166811Y-102786937D01*
X125161899Y-102788542D01*
X125157313Y-102790929D01*
X125157309Y-102790931D01*
X124953393Y-102897084D01*
X124948800Y-102899475D01*
X124926960Y-102915873D01*
X124874125Y-102955543D01*
X124756680Y-103043723D01*
X124753108Y-103047461D01*
X124607698Y-103199624D01*
X124590699Y-103217412D01*
X124565465Y-103254403D01*
X124510556Y-103299404D01*
X124440032Y-103307575D01*
X124376284Y-103276321D01*
X124355589Y-103251840D01*
X124354311Y-103249865D01*
X124351502Y-103245523D01*
X124189814Y-103067830D01*
X124046212Y-102954420D01*
X124005330Y-102922133D01*
X124005325Y-102922130D01*
X124001276Y-102918932D01*
X123996760Y-102916439D01*
X123996757Y-102916437D01*
X123795474Y-102805323D01*
X123795470Y-102805321D01*
X123790950Y-102802826D01*
X123786081Y-102801102D01*
X123786077Y-102801100D01*
X123569360Y-102724356D01*
X123569356Y-102724355D01*
X123564485Y-102722630D01*
X123559392Y-102721723D01*
X123559389Y-102721722D01*
X123333052Y-102681405D01*
X123333046Y-102681404D01*
X123327963Y-102680499D01*
X123240600Y-102679432D01*
X123092907Y-102677627D01*
X123092905Y-102677627D01*
X123087737Y-102677564D01*
X122850256Y-102713904D01*
X122738003Y-102750594D01*
X122626817Y-102786934D01*
X122626811Y-102786937D01*
X122621899Y-102788542D01*
X122617313Y-102790929D01*
X122617309Y-102790931D01*
X122413393Y-102897084D01*
X122408800Y-102899475D01*
X122386960Y-102915873D01*
X122334125Y-102955543D01*
X122216680Y-103043723D01*
X122213108Y-103047461D01*
X122067698Y-103199624D01*
X122050699Y-103217412D01*
X122028561Y-103249865D01*
X122015727Y-103268679D01*
X121960815Y-103313681D01*
X121890290Y-103321852D01*
X121863699Y-103309313D01*
X121848123Y-103307122D01*
X121836940Y-103312270D01*
X121022022Y-104127188D01*
X121014408Y-104141132D01*
X121014539Y-104142965D01*
X121018790Y-104149580D01*
X121833922Y-104964712D01*
X121847866Y-104972326D01*
X121860080Y-104971453D01*
X121897415Y-104957111D01*
X121966933Y-104971524D01*
X122006737Y-105006052D01*
X122006991Y-105005832D01*
X122008527Y-105007606D01*
X122008530Y-105007608D01*
X122164289Y-105187422D01*
X122309432Y-105307922D01*
X122316218Y-105313556D01*
X122355853Y-105372459D01*
X122357351Y-105443439D01*
X122320236Y-105503962D01*
X122256292Y-105534811D01*
X122235733Y-105536500D01*
X121583243Y-105536500D01*
X121515122Y-105516498D01*
X121468629Y-105462842D01*
X121458525Y-105392568D01*
X121481894Y-105337937D01*
X121474150Y-105323360D01*
X120662812Y-104512022D01*
X120648868Y-104504408D01*
X120647035Y-104504539D01*
X120640420Y-104508790D01*
X119821860Y-105327350D01*
X119814246Y-105341294D01*
X119814388Y-105343292D01*
X119835554Y-105404608D01*
X119818760Y-105473589D01*
X119767337Y-105522540D01*
X119709692Y-105536500D01*
X119061853Y-105536500D01*
X118993732Y-105516498D01*
X118947239Y-105462842D01*
X118937135Y-105392568D01*
X118966629Y-105327988D01*
X118988684Y-105307922D01*
X119052034Y-105262735D01*
X119052044Y-105262727D01*
X119056245Y-105259730D01*
X119226420Y-105090148D01*
X119283988Y-105010034D01*
X119339980Y-104966388D01*
X119410683Y-104959942D01*
X119433139Y-104971210D01*
X119450740Y-104974126D01*
X119461152Y-104969638D01*
X120277978Y-104152812D01*
X120285592Y-104138868D01*
X120285461Y-104137035D01*
X120281210Y-104130420D01*
X119466085Y-103315295D01*
X119452141Y-103307681D01*
X119442177Y-103308393D01*
X119402942Y-103324018D01*
X119333253Y-103310455D01*
X119285402Y-103267008D01*
X119274312Y-103249867D01*
X119271502Y-103245523D01*
X119109814Y-103067830D01*
X118966212Y-102954420D01*
X118952022Y-102943213D01*
X119818009Y-102943213D01*
X119824753Y-102955543D01*
X120637188Y-103767978D01*
X120651132Y-103775592D01*
X120652965Y-103775461D01*
X120659580Y-103771210D01*
X121476370Y-102954420D01*
X121483390Y-102941564D01*
X121475615Y-102930894D01*
X121465061Y-102922558D01*
X121456468Y-102916849D01*
X121255278Y-102805786D01*
X121245866Y-102801556D01*
X121029232Y-102724841D01*
X121019261Y-102722207D01*
X120793005Y-102681905D01*
X120782752Y-102680936D01*
X120552942Y-102678128D01*
X120542658Y-102678848D01*
X120315484Y-102713610D01*
X120305457Y-102715999D01*
X120087012Y-102787398D01*
X120077503Y-102791395D01*
X119873653Y-102897513D01*
X119864935Y-102903002D01*
X119826462Y-102931888D01*
X119818009Y-102943213D01*
X118952022Y-102943213D01*
X118925330Y-102922133D01*
X118925325Y-102922130D01*
X118921276Y-102918932D01*
X118916760Y-102916439D01*
X118916757Y-102916437D01*
X118715474Y-102805323D01*
X118715470Y-102805321D01*
X118710950Y-102802826D01*
X118706081Y-102801102D01*
X118706077Y-102801100D01*
X118489360Y-102724356D01*
X118489356Y-102724355D01*
X118484485Y-102722630D01*
X118479392Y-102721723D01*
X118479389Y-102721722D01*
X118253052Y-102681405D01*
X118253046Y-102681404D01*
X118247963Y-102680499D01*
X118160600Y-102679432D01*
X118012907Y-102677627D01*
X118012905Y-102677627D01*
X118007737Y-102677564D01*
X117770256Y-102713904D01*
X117658003Y-102750594D01*
X117546817Y-102786934D01*
X117546811Y-102786937D01*
X117541899Y-102788542D01*
X117537313Y-102790929D01*
X117537309Y-102790931D01*
X117333393Y-102897084D01*
X117328800Y-102899475D01*
X117306960Y-102915873D01*
X117254125Y-102955543D01*
X117136680Y-103043723D01*
X117133108Y-103047461D01*
X116991877Y-103195251D01*
X116970699Y-103217412D01*
X116967788Y-103221680D01*
X116967785Y-103221684D01*
X116838597Y-103411066D01*
X116835314Y-103415878D01*
X116833140Y-103420561D01*
X116833138Y-103420565D01*
X116736342Y-103629095D01*
X116734163Y-103633790D01*
X116669960Y-103865298D01*
X116644431Y-104104182D01*
X116644728Y-104109335D01*
X116644728Y-104109338D01*
X116655625Y-104298322D01*
X116658260Y-104344029D01*
X116659397Y-104349075D01*
X116659398Y-104349081D01*
X116688650Y-104478879D01*
X116711077Y-104578396D01*
X116713019Y-104583178D01*
X116713020Y-104583182D01*
X116795136Y-104785409D01*
X116801463Y-104800990D01*
X116827704Y-104843811D01*
X116910045Y-104978178D01*
X116926991Y-105005832D01*
X117084289Y-105187422D01*
X117229432Y-105307922D01*
X117236218Y-105313556D01*
X117275853Y-105372459D01*
X117277351Y-105443439D01*
X117240236Y-105503962D01*
X117176292Y-105534811D01*
X117155733Y-105536500D01*
X109031097Y-105536500D01*
X108962976Y-105516498D01*
X108916483Y-105462842D01*
X108906379Y-105392568D01*
X108931807Y-105332927D01*
X108981481Y-105269347D01*
X108981482Y-105269346D01*
X108984188Y-105265882D01*
X108986384Y-105262078D01*
X108986389Y-105262071D01*
X109122435Y-105026431D01*
X109124636Y-105022619D01*
X109229862Y-104762176D01*
X109234897Y-104741982D01*
X109296753Y-104493893D01*
X109296754Y-104493888D01*
X109297817Y-104489624D01*
X109298702Y-104481211D01*
X109326719Y-104214636D01*
X109326719Y-104214633D01*
X109327178Y-104210267D01*
X109327025Y-104205873D01*
X109317529Y-103933939D01*
X109317528Y-103933933D01*
X109317375Y-103929542D01*
X109313176Y-103905724D01*
X109281933Y-103728539D01*
X109268598Y-103652913D01*
X109181797Y-103385765D01*
X109150625Y-103321852D01*
X109101767Y-103221680D01*
X109058660Y-103133298D01*
X109056205Y-103129659D01*
X109056202Y-103129653D01*
X108938763Y-102955543D01*
X108901585Y-102900424D01*
X108713629Y-102691678D01*
X108700307Y-102680499D01*
X108545356Y-102550480D01*
X108498450Y-102511121D01*
X108260236Y-102362269D01*
X108003625Y-102248018D01*
X107733610Y-102170593D01*
X107729260Y-102169982D01*
X107729257Y-102169981D01*
X107626310Y-102155513D01*
X107455448Y-102131500D01*
X107244854Y-102131500D01*
X107242668Y-102131653D01*
X107242664Y-102131653D01*
X107039173Y-102145882D01*
X107039168Y-102145883D01*
X107034788Y-102146189D01*
X106760030Y-102204591D01*
X106755901Y-102206094D01*
X106755897Y-102206095D01*
X106500219Y-102299154D01*
X106500215Y-102299156D01*
X106496074Y-102300663D01*
X106248058Y-102432536D01*
X106118560Y-102526621D01*
X106051693Y-102550480D01*
X105982542Y-102534399D01*
X105933061Y-102483485D01*
X105918500Y-102424685D01*
X105918500Y-79975469D01*
X107252095Y-79975469D01*
X107252392Y-79980622D01*
X107252392Y-79980625D01*
X107260197Y-80115985D01*
X107265427Y-80206697D01*
X107266564Y-80211743D01*
X107266565Y-80211749D01*
X107280637Y-80274189D01*
X107316346Y-80432642D01*
X107318288Y-80437424D01*
X107318289Y-80437428D01*
X107331044Y-80468839D01*
X107403484Y-80647237D01*
X107524501Y-80844719D01*
X107676147Y-81019784D01*
X107854349Y-81167730D01*
X108054322Y-81284584D01*
X108270694Y-81367209D01*
X108275760Y-81368240D01*
X108275761Y-81368240D01*
X108328846Y-81379040D01*
X108497656Y-81413385D01*
X108627089Y-81418131D01*
X108723949Y-81421683D01*
X108723953Y-81421683D01*
X108729113Y-81421872D01*
X108734233Y-81421216D01*
X108734235Y-81421216D01*
X108808166Y-81411745D01*
X108958847Y-81392442D01*
X108963795Y-81390957D01*
X108963802Y-81390956D01*
X109175747Y-81327369D01*
X109180690Y-81325886D01*
X109261236Y-81286427D01*
X109384049Y-81226262D01*
X109384052Y-81226260D01*
X109388684Y-81223991D01*
X109577243Y-81089494D01*
X109741303Y-80926005D01*
X109810370Y-80829888D01*
X109866365Y-80786240D01*
X109937068Y-80779794D01*
X110000033Y-80812597D01*
X110020128Y-80837584D01*
X110021799Y-80840311D01*
X110021804Y-80840317D01*
X110024501Y-80844719D01*
X110176147Y-81019784D01*
X110354349Y-81167730D01*
X110554322Y-81284584D01*
X110770694Y-81367209D01*
X110775760Y-81368240D01*
X110775761Y-81368240D01*
X110828846Y-81379040D01*
X110997656Y-81413385D01*
X111127089Y-81418131D01*
X111223949Y-81421683D01*
X111223953Y-81421683D01*
X111229113Y-81421872D01*
X111234233Y-81421216D01*
X111234235Y-81421216D01*
X111308166Y-81411745D01*
X111458847Y-81392442D01*
X111463795Y-81390957D01*
X111463802Y-81390956D01*
X111675747Y-81327369D01*
X111680690Y-81325886D01*
X111761236Y-81286427D01*
X111884049Y-81226262D01*
X111884052Y-81226260D01*
X111888684Y-81223991D01*
X112077243Y-81089494D01*
X112080900Y-81085850D01*
X112093189Y-81073604D01*
X112155561Y-81039689D01*
X112226368Y-81044878D01*
X112283129Y-81087525D01*
X112300110Y-81118627D01*
X112314385Y-81156705D01*
X112401739Y-81273261D01*
X112518295Y-81360615D01*
X112654684Y-81411745D01*
X112716866Y-81418500D01*
X114613134Y-81418500D01*
X114675316Y-81411745D01*
X114811705Y-81360615D01*
X114928261Y-81273261D01*
X114950055Y-81244182D01*
X116644431Y-81244182D01*
X116644728Y-81249335D01*
X116644728Y-81249338D01*
X116646418Y-81278642D01*
X116658260Y-81484029D01*
X116659397Y-81489075D01*
X116659398Y-81489081D01*
X116692299Y-81635070D01*
X116711077Y-81718396D01*
X116713019Y-81723178D01*
X116713020Y-81723182D01*
X116775362Y-81876711D01*
X116801463Y-81940990D01*
X116841118Y-82005701D01*
X116910045Y-82118178D01*
X116926991Y-82145832D01*
X117084289Y-82327422D01*
X117269133Y-82480883D01*
X117476559Y-82602093D01*
X117481379Y-82603933D01*
X117481384Y-82603936D01*
X117588749Y-82644934D01*
X117700997Y-82687797D01*
X117706063Y-82688828D01*
X117706064Y-82688828D01*
X117739925Y-82695717D01*
X117936419Y-82735694D01*
X118071427Y-82740645D01*
X118171338Y-82744309D01*
X118171342Y-82744309D01*
X118176502Y-82744498D01*
X118181622Y-82743842D01*
X118181624Y-82743842D01*
X118257189Y-82734162D01*
X118414800Y-82713971D01*
X118419751Y-82712486D01*
X118419754Y-82712485D01*
X118639962Y-82646419D01*
X118639961Y-82646419D01*
X118644912Y-82644934D01*
X118860658Y-82539241D01*
X118869163Y-82533175D01*
X119052042Y-82402728D01*
X119056245Y-82399730D01*
X119226420Y-82230148D01*
X119275516Y-82161824D01*
X119331508Y-82118178D01*
X119402211Y-82111732D01*
X119465176Y-82144535D01*
X119473073Y-82152855D01*
X119620898Y-82323508D01*
X119620902Y-82323512D01*
X119624289Y-82327422D01*
X119809133Y-82480883D01*
X120016559Y-82602093D01*
X120021379Y-82603933D01*
X120021384Y-82603936D01*
X120128749Y-82644934D01*
X120240997Y-82687797D01*
X120246063Y-82688828D01*
X120246064Y-82688828D01*
X120279925Y-82695717D01*
X120476419Y-82735694D01*
X120611427Y-82740645D01*
X120711338Y-82744309D01*
X120711342Y-82744309D01*
X120716502Y-82744498D01*
X120721622Y-82743842D01*
X120721624Y-82743842D01*
X120797189Y-82734162D01*
X120954800Y-82713971D01*
X120959751Y-82712486D01*
X120959754Y-82712485D01*
X121179962Y-82646419D01*
X121179961Y-82646419D01*
X121184912Y-82644934D01*
X121400658Y-82539241D01*
X121409163Y-82533175D01*
X121592042Y-82402728D01*
X121596245Y-82399730D01*
X121766420Y-82230148D01*
X121815516Y-82161824D01*
X121871508Y-82118178D01*
X121942211Y-82111732D01*
X122005176Y-82144535D01*
X122013073Y-82152855D01*
X122160898Y-82323508D01*
X122160902Y-82323512D01*
X122164289Y-82327422D01*
X122349133Y-82480883D01*
X122556559Y-82602093D01*
X122561379Y-82603933D01*
X122561384Y-82603936D01*
X122668749Y-82644934D01*
X122780997Y-82687797D01*
X122786063Y-82688828D01*
X122786064Y-82688828D01*
X122819925Y-82695717D01*
X123016419Y-82735694D01*
X123151427Y-82740645D01*
X123251338Y-82744309D01*
X123251342Y-82744309D01*
X123256502Y-82744498D01*
X123261622Y-82743842D01*
X123261624Y-82743842D01*
X123337189Y-82734162D01*
X123494800Y-82713971D01*
X123499751Y-82712486D01*
X123499754Y-82712485D01*
X123719962Y-82646419D01*
X123719961Y-82646419D01*
X123724912Y-82644934D01*
X123940658Y-82539241D01*
X123949163Y-82533175D01*
X124132042Y-82402728D01*
X124136245Y-82399730D01*
X124306420Y-82230148D01*
X124355516Y-82161824D01*
X124411508Y-82118178D01*
X124482211Y-82111732D01*
X124545176Y-82144535D01*
X124553073Y-82152855D01*
X124700898Y-82323508D01*
X124700902Y-82323512D01*
X124704289Y-82327422D01*
X124889133Y-82480883D01*
X125096559Y-82602093D01*
X125101379Y-82603933D01*
X125101384Y-82603936D01*
X125208749Y-82644934D01*
X125320997Y-82687797D01*
X125326063Y-82688828D01*
X125326064Y-82688828D01*
X125359925Y-82695717D01*
X125556419Y-82735694D01*
X125691427Y-82740645D01*
X125791338Y-82744309D01*
X125791342Y-82744309D01*
X125796502Y-82744498D01*
X125801622Y-82743842D01*
X125801624Y-82743842D01*
X125877189Y-82734162D01*
X126034800Y-82713971D01*
X126039751Y-82712486D01*
X126039754Y-82712485D01*
X126259962Y-82646419D01*
X126259961Y-82646419D01*
X126264912Y-82644934D01*
X126480658Y-82539241D01*
X126489163Y-82533175D01*
X126672042Y-82402728D01*
X126676245Y-82399730D01*
X126846420Y-82230148D01*
X126895516Y-82161824D01*
X126951508Y-82118178D01*
X127022211Y-82111732D01*
X127085176Y-82144535D01*
X127093073Y-82152855D01*
X127240898Y-82323508D01*
X127240902Y-82323512D01*
X127244289Y-82327422D01*
X127429133Y-82480883D01*
X127636559Y-82602093D01*
X127641379Y-82603933D01*
X127641384Y-82603936D01*
X127748749Y-82644934D01*
X127860997Y-82687797D01*
X127866063Y-82688828D01*
X127866064Y-82688828D01*
X127899925Y-82695717D01*
X128096419Y-82735694D01*
X128231427Y-82740645D01*
X128331338Y-82744309D01*
X128331342Y-82744309D01*
X128336502Y-82744498D01*
X128341622Y-82743842D01*
X128341624Y-82743842D01*
X128417189Y-82734162D01*
X128574800Y-82713971D01*
X128579751Y-82712486D01*
X128579754Y-82712485D01*
X128799962Y-82646419D01*
X128799961Y-82646419D01*
X128804912Y-82644934D01*
X129020658Y-82539241D01*
X129029163Y-82533175D01*
X129212042Y-82402728D01*
X129216245Y-82399730D01*
X129386420Y-82230148D01*
X129435516Y-82161824D01*
X129491508Y-82118178D01*
X129562211Y-82111732D01*
X129625176Y-82144535D01*
X129633073Y-82152855D01*
X129780898Y-82323508D01*
X129780902Y-82323512D01*
X129784289Y-82327422D01*
X129969133Y-82480883D01*
X130176559Y-82602093D01*
X130181379Y-82603933D01*
X130181384Y-82603936D01*
X130288749Y-82644934D01*
X130400997Y-82687797D01*
X130406063Y-82688828D01*
X130406064Y-82688828D01*
X130439925Y-82695717D01*
X130636419Y-82735694D01*
X130771427Y-82740645D01*
X130871338Y-82744309D01*
X130871342Y-82744309D01*
X130876502Y-82744498D01*
X130881622Y-82743842D01*
X130881624Y-82743842D01*
X130957189Y-82734162D01*
X131114800Y-82713971D01*
X131119751Y-82712486D01*
X131119754Y-82712485D01*
X131339962Y-82646419D01*
X131339961Y-82646419D01*
X131344912Y-82644934D01*
X131560658Y-82539241D01*
X131569163Y-82533175D01*
X131752042Y-82402728D01*
X131756245Y-82399730D01*
X131926420Y-82230148D01*
X131975516Y-82161824D01*
X132031508Y-82118178D01*
X132102211Y-82111732D01*
X132165176Y-82144535D01*
X132173073Y-82152855D01*
X132320898Y-82323508D01*
X132320902Y-82323512D01*
X132324289Y-82327422D01*
X132509133Y-82480883D01*
X132716559Y-82602093D01*
X132721379Y-82603933D01*
X132721384Y-82603936D01*
X132828749Y-82644934D01*
X132940997Y-82687797D01*
X132946063Y-82688828D01*
X132946064Y-82688828D01*
X132979925Y-82695717D01*
X133176419Y-82735694D01*
X133311427Y-82740645D01*
X133411338Y-82744309D01*
X133411342Y-82744309D01*
X133416502Y-82744498D01*
X133421622Y-82743842D01*
X133421624Y-82743842D01*
X133497189Y-82734162D01*
X133654800Y-82713971D01*
X133659751Y-82712486D01*
X133659754Y-82712485D01*
X133879962Y-82646419D01*
X133879961Y-82646419D01*
X133884912Y-82644934D01*
X134100658Y-82539241D01*
X134109163Y-82533175D01*
X134292042Y-82402728D01*
X134296245Y-82399730D01*
X134466420Y-82230148D01*
X134515516Y-82161824D01*
X134571508Y-82118178D01*
X134642211Y-82111732D01*
X134705176Y-82144535D01*
X134713073Y-82152855D01*
X134860898Y-82323508D01*
X134860902Y-82323512D01*
X134864289Y-82327422D01*
X135049133Y-82480883D01*
X135256559Y-82602093D01*
X135261379Y-82603933D01*
X135261384Y-82603936D01*
X135368749Y-82644934D01*
X135480997Y-82687797D01*
X135486063Y-82688828D01*
X135486064Y-82688828D01*
X135519925Y-82695717D01*
X135716419Y-82735694D01*
X135851427Y-82740645D01*
X135951338Y-82744309D01*
X135951342Y-82744309D01*
X135956502Y-82744498D01*
X135961622Y-82743842D01*
X135961624Y-82743842D01*
X136037189Y-82734162D01*
X136194800Y-82713971D01*
X136199751Y-82712486D01*
X136199754Y-82712485D01*
X136419962Y-82646419D01*
X136419961Y-82646419D01*
X136424912Y-82644934D01*
X136640658Y-82539241D01*
X136649163Y-82533175D01*
X136832042Y-82402728D01*
X136836245Y-82399730D01*
X136949367Y-82287002D01*
X137011739Y-82253086D01*
X137082545Y-82258274D01*
X137139307Y-82300920D01*
X137159819Y-82359613D01*
X137162837Y-82359135D01*
X137164078Y-82366969D01*
X137164327Y-82374889D01*
X137169978Y-82394339D01*
X137173987Y-82413700D01*
X137176526Y-82433797D01*
X137179445Y-82441168D01*
X137179445Y-82441170D01*
X137192804Y-82474912D01*
X137196649Y-82486142D01*
X137208982Y-82528593D01*
X137213015Y-82535412D01*
X137213017Y-82535417D01*
X137219293Y-82546028D01*
X137227988Y-82563776D01*
X137235448Y-82582617D01*
X137240110Y-82589033D01*
X137240110Y-82589034D01*
X137261436Y-82618387D01*
X137267952Y-82628307D01*
X137278664Y-82646419D01*
X137290458Y-82666362D01*
X137304779Y-82680683D01*
X137317619Y-82695716D01*
X137329528Y-82712107D01*
X137335634Y-82717158D01*
X137363605Y-82740298D01*
X137372384Y-82748288D01*
X138225636Y-83601540D01*
X138259662Y-83663852D01*
X138259060Y-83720049D01*
X138205465Y-83943289D01*
X138186835Y-84180000D01*
X138205465Y-84416711D01*
X138260895Y-84647594D01*
X138351760Y-84866963D01*
X138354346Y-84871183D01*
X138473241Y-85065202D01*
X138473245Y-85065208D01*
X138475824Y-85069416D01*
X138630031Y-85249969D01*
X138633787Y-85253177D01*
X138633792Y-85253182D01*
X138752056Y-85354189D01*
X138790866Y-85413639D01*
X138791372Y-85484634D01*
X138752056Y-85545811D01*
X138633792Y-85646818D01*
X138633787Y-85646823D01*
X138630031Y-85650031D01*
X138475824Y-85830584D01*
X138473245Y-85834792D01*
X138473241Y-85834798D01*
X138354346Y-86028817D01*
X138351760Y-86033037D01*
X138260895Y-86252406D01*
X138205465Y-86483289D01*
X138186835Y-86720000D01*
X138205465Y-86956711D01*
X138260895Y-87187594D01*
X138351760Y-87406963D01*
X138354346Y-87411183D01*
X138473241Y-87605202D01*
X138473245Y-87605208D01*
X138475824Y-87609416D01*
X138630031Y-87789969D01*
X138633787Y-87793177D01*
X138633792Y-87793182D01*
X138752056Y-87894189D01*
X138790866Y-87953639D01*
X138791372Y-88024634D01*
X138752056Y-88085811D01*
X138633792Y-88186818D01*
X138633787Y-88186823D01*
X138630031Y-88190031D01*
X138475824Y-88370584D01*
X138473245Y-88374792D01*
X138473241Y-88374798D01*
X138354346Y-88568817D01*
X138351760Y-88573037D01*
X138260895Y-88792406D01*
X138205465Y-89023289D01*
X138186835Y-89260000D01*
X138205465Y-89496711D01*
X138260895Y-89727594D01*
X138351760Y-89946963D01*
X138354346Y-89951183D01*
X138473241Y-90145202D01*
X138473245Y-90145208D01*
X138475824Y-90149416D01*
X138630031Y-90329969D01*
X138633787Y-90333177D01*
X138633792Y-90333182D01*
X138752056Y-90434189D01*
X138790866Y-90493639D01*
X138791372Y-90564634D01*
X138752056Y-90625811D01*
X138633792Y-90726818D01*
X138633787Y-90726823D01*
X138630031Y-90730031D01*
X138475824Y-90910584D01*
X138473245Y-90914792D01*
X138473241Y-90914798D01*
X138354346Y-91108817D01*
X138351760Y-91113037D01*
X138260895Y-91332406D01*
X138205465Y-91563289D01*
X138186835Y-91800000D01*
X138205465Y-92036711D01*
X138260895Y-92267594D01*
X138351760Y-92486963D01*
X138354346Y-92491183D01*
X138473241Y-92685202D01*
X138473245Y-92685208D01*
X138475824Y-92689416D01*
X138630031Y-92869969D01*
X138633787Y-92873177D01*
X138633792Y-92873182D01*
X138752056Y-92974189D01*
X138790866Y-93033639D01*
X138791372Y-93104634D01*
X138752056Y-93165811D01*
X138633792Y-93266818D01*
X138633787Y-93266823D01*
X138630031Y-93270031D01*
X138475824Y-93450584D01*
X138473245Y-93454792D01*
X138473241Y-93454798D01*
X138354346Y-93648817D01*
X138351760Y-93653037D01*
X138260895Y-93872406D01*
X138205465Y-94103289D01*
X138186835Y-94340000D01*
X138205465Y-94576711D01*
X138260895Y-94807594D01*
X138351760Y-95026963D01*
X138354346Y-95031183D01*
X138473241Y-95225202D01*
X138473245Y-95225208D01*
X138475824Y-95229416D01*
X138630031Y-95409969D01*
X138633787Y-95413177D01*
X138633792Y-95413182D01*
X138752056Y-95514189D01*
X138790866Y-95573639D01*
X138791372Y-95644634D01*
X138752056Y-95705811D01*
X138633792Y-95806818D01*
X138633787Y-95806823D01*
X138630031Y-95810031D01*
X138475824Y-95990584D01*
X138473245Y-95994792D01*
X138473241Y-95994798D01*
X138354346Y-96188817D01*
X138351760Y-96193037D01*
X138260895Y-96412406D01*
X138205465Y-96643289D01*
X138186835Y-96880000D01*
X138205465Y-97116711D01*
X138260895Y-97347594D01*
X138351760Y-97566963D01*
X138354346Y-97571183D01*
X138473241Y-97765202D01*
X138473245Y-97765208D01*
X138475824Y-97769416D01*
X138630031Y-97949969D01*
X138633787Y-97953177D01*
X138633792Y-97953182D01*
X138752056Y-98054189D01*
X138790866Y-98113639D01*
X138791372Y-98184634D01*
X138752056Y-98245811D01*
X138633792Y-98346818D01*
X138633787Y-98346823D01*
X138630031Y-98350031D01*
X138475824Y-98530584D01*
X138473245Y-98534792D01*
X138473241Y-98534798D01*
X138354346Y-98728817D01*
X138351760Y-98733037D01*
X138260895Y-98952406D01*
X138205465Y-99183289D01*
X138186835Y-99420000D01*
X138205465Y-99656711D01*
X138260895Y-99887594D01*
X138351760Y-100106963D01*
X138354346Y-100111183D01*
X138473241Y-100305202D01*
X138473245Y-100305208D01*
X138475824Y-100309416D01*
X138630031Y-100489969D01*
X138810584Y-100644176D01*
X138814792Y-100646755D01*
X138814798Y-100646759D01*
X139008817Y-100765654D01*
X139013037Y-100768240D01*
X139017607Y-100770133D01*
X139017611Y-100770135D01*
X139094354Y-100801922D01*
X139184406Y-100839223D01*
X139239686Y-100883770D01*
X139262107Y-100951133D01*
X139244549Y-101019925D01*
X139195341Y-101066882D01*
X139102662Y-101116161D01*
X139053058Y-101142536D01*
X139049499Y-101145122D01*
X139049497Y-101145123D01*
X138944895Y-101221121D01*
X138825808Y-101307642D01*
X138623748Y-101502769D01*
X138450812Y-101724118D01*
X138448616Y-101727922D01*
X138448611Y-101727929D01*
X138334794Y-101925067D01*
X138310364Y-101967381D01*
X138205138Y-102227824D01*
X138204073Y-102232097D01*
X138204072Y-102232099D01*
X138154613Y-102430470D01*
X138137183Y-102500376D01*
X138136724Y-102504744D01*
X138136723Y-102504749D01*
X138113642Y-102724356D01*
X138107822Y-102779733D01*
X138107975Y-102784121D01*
X138107975Y-102784127D01*
X138117041Y-103043723D01*
X138117625Y-103060458D01*
X138118387Y-103064781D01*
X138118388Y-103064788D01*
X138142164Y-103199624D01*
X138166402Y-103337087D01*
X138253203Y-103604235D01*
X138255131Y-103608188D01*
X138255133Y-103608193D01*
X138274907Y-103648735D01*
X138376340Y-103856702D01*
X138378795Y-103860341D01*
X138378798Y-103860347D01*
X138422550Y-103925212D01*
X138533415Y-104089576D01*
X138536360Y-104092847D01*
X138536361Y-104092848D01*
X138546566Y-104104182D01*
X138721371Y-104298322D01*
X138936550Y-104478879D01*
X139174764Y-104627731D01*
X139431375Y-104741982D01*
X139435603Y-104743194D01*
X139435602Y-104743194D01*
X139652521Y-104805394D01*
X139701390Y-104819407D01*
X139705740Y-104820018D01*
X139705743Y-104820019D01*
X139808690Y-104834487D01*
X139979552Y-104858500D01*
X140190146Y-104858500D01*
X140192332Y-104858347D01*
X140192336Y-104858347D01*
X140395827Y-104844118D01*
X140395832Y-104844117D01*
X140400212Y-104843811D01*
X140674970Y-104785409D01*
X140679099Y-104783906D01*
X140679103Y-104783905D01*
X140934781Y-104690846D01*
X140934785Y-104690844D01*
X140938926Y-104689337D01*
X141186942Y-104557464D01*
X141249488Y-104512022D01*
X141410629Y-104394947D01*
X141410632Y-104394944D01*
X141414192Y-104392358D01*
X141616252Y-104197231D01*
X141789188Y-103975882D01*
X141791384Y-103972078D01*
X141791389Y-103972071D01*
X141927435Y-103736431D01*
X141929636Y-103732619D01*
X142034862Y-103472176D01*
X142049963Y-103411609D01*
X142101753Y-103203893D01*
X142101754Y-103203888D01*
X142102817Y-103199624D01*
X142116268Y-103071649D01*
X142131719Y-102924636D01*
X142131719Y-102924633D01*
X142132178Y-102920267D01*
X142131613Y-102904075D01*
X142127271Y-102779733D01*
X162617822Y-102779733D01*
X162617975Y-102784121D01*
X162617975Y-102784127D01*
X162627041Y-103043723D01*
X162627625Y-103060458D01*
X162628387Y-103064781D01*
X162628388Y-103064788D01*
X162652164Y-103199624D01*
X162676402Y-103337087D01*
X162763203Y-103604235D01*
X162765131Y-103608188D01*
X162765133Y-103608193D01*
X162784907Y-103648735D01*
X162886340Y-103856702D01*
X162888795Y-103860341D01*
X162888798Y-103860347D01*
X162932550Y-103925212D01*
X163043415Y-104089576D01*
X163046360Y-104092847D01*
X163046361Y-104092848D01*
X163056566Y-104104182D01*
X163231371Y-104298322D01*
X163446550Y-104478879D01*
X163684764Y-104627731D01*
X163941375Y-104741982D01*
X163945603Y-104743194D01*
X163945602Y-104743194D01*
X164162521Y-104805394D01*
X164211390Y-104819407D01*
X164215740Y-104820018D01*
X164215743Y-104820019D01*
X164318690Y-104834487D01*
X164489552Y-104858500D01*
X164700146Y-104858500D01*
X164702332Y-104858347D01*
X164702336Y-104858347D01*
X164905827Y-104844118D01*
X164905832Y-104844117D01*
X164910212Y-104843811D01*
X165184970Y-104785409D01*
X165189099Y-104783906D01*
X165189103Y-104783905D01*
X165444781Y-104690846D01*
X165444785Y-104690844D01*
X165448926Y-104689337D01*
X165696942Y-104557464D01*
X165759488Y-104512022D01*
X165920629Y-104394947D01*
X165920632Y-104394944D01*
X165924192Y-104392358D01*
X166126252Y-104197231D01*
X166299188Y-103975882D01*
X166301384Y-103972078D01*
X166301389Y-103972071D01*
X166437435Y-103736431D01*
X166439636Y-103732619D01*
X166544862Y-103472176D01*
X166559963Y-103411609D01*
X166611753Y-103203893D01*
X166611754Y-103203888D01*
X166612817Y-103199624D01*
X166626268Y-103071649D01*
X166641719Y-102924636D01*
X166641719Y-102924633D01*
X166642178Y-102920267D01*
X166641613Y-102904075D01*
X166632529Y-102643939D01*
X166632528Y-102643933D01*
X166632375Y-102639542D01*
X166608608Y-102504749D01*
X166600630Y-102459506D01*
X166583598Y-102362913D01*
X166496797Y-102095765D01*
X166373660Y-101843298D01*
X166371205Y-101839659D01*
X166371202Y-101839653D01*
X166290935Y-101720653D01*
X166216585Y-101610424D01*
X166028629Y-101401678D01*
X165813450Y-101221121D01*
X165575236Y-101072269D01*
X165576285Y-101070591D01*
X165531313Y-101026622D01*
X165515440Y-100957423D01*
X165539498Y-100890627D01*
X165592994Y-100848584D01*
X165782389Y-100770135D01*
X165782393Y-100770133D01*
X165786963Y-100768240D01*
X165791183Y-100765654D01*
X165985202Y-100646759D01*
X165985208Y-100646755D01*
X165989416Y-100644176D01*
X166169969Y-100489969D01*
X166324176Y-100309416D01*
X166326755Y-100305208D01*
X166326759Y-100305202D01*
X166445654Y-100111183D01*
X166448240Y-100106963D01*
X166539105Y-99887594D01*
X166594535Y-99656711D01*
X166613165Y-99420000D01*
X166594535Y-99183289D01*
X166539105Y-98952406D01*
X166448240Y-98733037D01*
X166445654Y-98728817D01*
X166326759Y-98534798D01*
X166326755Y-98534792D01*
X166324176Y-98530584D01*
X166169969Y-98350031D01*
X166166213Y-98346823D01*
X166166208Y-98346818D01*
X166047944Y-98245811D01*
X166009134Y-98186361D01*
X166008628Y-98115366D01*
X166047944Y-98054189D01*
X166166208Y-97953182D01*
X166166213Y-97953177D01*
X166169969Y-97949969D01*
X166324176Y-97769416D01*
X166326755Y-97765208D01*
X166326759Y-97765202D01*
X166445654Y-97571183D01*
X166448240Y-97566963D01*
X166539105Y-97347594D01*
X166594535Y-97116711D01*
X166613165Y-96880000D01*
X166594535Y-96643289D01*
X166539105Y-96412406D01*
X166448240Y-96193037D01*
X166445654Y-96188817D01*
X166326759Y-95994798D01*
X166326755Y-95994792D01*
X166324176Y-95990584D01*
X166169969Y-95810031D01*
X166166213Y-95806823D01*
X166166208Y-95806818D01*
X166047944Y-95705811D01*
X166009134Y-95646361D01*
X166008628Y-95575366D01*
X166047944Y-95514189D01*
X166166208Y-95413182D01*
X166166213Y-95413177D01*
X166169969Y-95409969D01*
X166324176Y-95229416D01*
X166326755Y-95225208D01*
X166326759Y-95225202D01*
X166445654Y-95031183D01*
X166448240Y-95026963D01*
X166539105Y-94807594D01*
X166594535Y-94576711D01*
X166613165Y-94340000D01*
X166594535Y-94103289D01*
X166539105Y-93872406D01*
X166448240Y-93653037D01*
X166445654Y-93648817D01*
X166326759Y-93454798D01*
X166326755Y-93454792D01*
X166324176Y-93450584D01*
X166169969Y-93270031D01*
X166166213Y-93266823D01*
X166166208Y-93266818D01*
X166047944Y-93165811D01*
X166009134Y-93106361D01*
X166008628Y-93035366D01*
X166047944Y-92974189D01*
X166166208Y-92873182D01*
X166166213Y-92873177D01*
X166169969Y-92869969D01*
X166324176Y-92689416D01*
X166326755Y-92685208D01*
X166326759Y-92685202D01*
X166445654Y-92491183D01*
X166448240Y-92486963D01*
X166539105Y-92267594D01*
X166594535Y-92036711D01*
X166613165Y-91800000D01*
X166594535Y-91563289D01*
X166539105Y-91332406D01*
X166448240Y-91113037D01*
X166445654Y-91108817D01*
X166326759Y-90914798D01*
X166326755Y-90914792D01*
X166324176Y-90910584D01*
X166169969Y-90730031D01*
X166166213Y-90726823D01*
X166166208Y-90726818D01*
X166047944Y-90625811D01*
X166009134Y-90566361D01*
X166008628Y-90495366D01*
X166047944Y-90434189D01*
X166166208Y-90333182D01*
X166166213Y-90333177D01*
X166169969Y-90329969D01*
X166324176Y-90149416D01*
X166326755Y-90145208D01*
X166326759Y-90145202D01*
X166445654Y-89951183D01*
X166448240Y-89946963D01*
X166539105Y-89727594D01*
X166594535Y-89496711D01*
X166613165Y-89260000D01*
X166594535Y-89023289D01*
X166539105Y-88792406D01*
X166448240Y-88573037D01*
X166445654Y-88568817D01*
X166326759Y-88374798D01*
X166326755Y-88374792D01*
X166324176Y-88370584D01*
X166169969Y-88190031D01*
X166166213Y-88186823D01*
X166166208Y-88186818D01*
X166047944Y-88085811D01*
X166009134Y-88026361D01*
X166008628Y-87955366D01*
X166047944Y-87894189D01*
X166166208Y-87793182D01*
X166166213Y-87793177D01*
X166169969Y-87789969D01*
X166324176Y-87609416D01*
X166326755Y-87605208D01*
X166326759Y-87605202D01*
X166445654Y-87411183D01*
X166448240Y-87406963D01*
X166539105Y-87187594D01*
X166594535Y-86956711D01*
X166613165Y-86720000D01*
X166594535Y-86483289D01*
X166539105Y-86252406D01*
X166448240Y-86033037D01*
X166445654Y-86028817D01*
X166326759Y-85834798D01*
X166326755Y-85834792D01*
X166324176Y-85830584D01*
X166169969Y-85650031D01*
X166166213Y-85646823D01*
X166166208Y-85646818D01*
X166047944Y-85545811D01*
X166009134Y-85486361D01*
X166008628Y-85415366D01*
X166047944Y-85354189D01*
X166166208Y-85253182D01*
X166166213Y-85253177D01*
X166169969Y-85249969D01*
X166324176Y-85069416D01*
X166326755Y-85065208D01*
X166326759Y-85065202D01*
X166445654Y-84871183D01*
X166448240Y-84866963D01*
X166539105Y-84647594D01*
X166594535Y-84416711D01*
X166613165Y-84180000D01*
X166594535Y-83943289D01*
X166539105Y-83712406D01*
X166537211Y-83707833D01*
X166450135Y-83497611D01*
X166450133Y-83497607D01*
X166448240Y-83493037D01*
X166445654Y-83488817D01*
X166326759Y-83294798D01*
X166326755Y-83294792D01*
X166324176Y-83290584D01*
X166169969Y-83110031D01*
X166166213Y-83106823D01*
X166166208Y-83106818D01*
X166047944Y-83005811D01*
X166009134Y-82946361D01*
X166008628Y-82875366D01*
X166047944Y-82814189D01*
X166166208Y-82713182D01*
X166166213Y-82713177D01*
X166169969Y-82709969D01*
X166324176Y-82529416D01*
X166326755Y-82525208D01*
X166326759Y-82525202D01*
X166445654Y-82331183D01*
X166448240Y-82326963D01*
X166459028Y-82300920D01*
X166537211Y-82112167D01*
X166537212Y-82112165D01*
X166539105Y-82107594D01*
X166579103Y-81940990D01*
X166593380Y-81881524D01*
X166593381Y-81881518D01*
X166594535Y-81876711D01*
X166613165Y-81640000D01*
X166594535Y-81403289D01*
X166591575Y-81390956D01*
X166556337Y-81244182D01*
X166539105Y-81172406D01*
X166535578Y-81163891D01*
X166450135Y-80957611D01*
X166450133Y-80957607D01*
X166448240Y-80953037D01*
X166429103Y-80921808D01*
X166326759Y-80754798D01*
X166326755Y-80754792D01*
X166324176Y-80750584D01*
X166190168Y-80593681D01*
X166173177Y-80573787D01*
X166169969Y-80570031D01*
X166166213Y-80566823D01*
X166166208Y-80566818D01*
X166047944Y-80465811D01*
X166009134Y-80406361D01*
X166008628Y-80335366D01*
X166047944Y-80274189D01*
X166166208Y-80173182D01*
X166166213Y-80173177D01*
X166169969Y-80169969D01*
X166181433Y-80156547D01*
X166260650Y-80063795D01*
X166324176Y-79989416D01*
X166326755Y-79985208D01*
X166326759Y-79985202D01*
X166445654Y-79791183D01*
X166448240Y-79786963D01*
X166539105Y-79567594D01*
X166558360Y-79487391D01*
X166593380Y-79341524D01*
X166593381Y-79341518D01*
X166594535Y-79336711D01*
X166613165Y-79100000D01*
X166594535Y-78863289D01*
X166592812Y-78856109D01*
X166544825Y-78656233D01*
X166539105Y-78632406D01*
X166537211Y-78627833D01*
X166450135Y-78417611D01*
X166450133Y-78417607D01*
X166448240Y-78413037D01*
X166426235Y-78377128D01*
X166326759Y-78214798D01*
X166326755Y-78214792D01*
X166324176Y-78210584D01*
X166169969Y-78030031D01*
X166166213Y-78026823D01*
X166166208Y-78026818D01*
X166047944Y-77925811D01*
X166009134Y-77866361D01*
X166008628Y-77795366D01*
X166047944Y-77734189D01*
X166166208Y-77633182D01*
X166166213Y-77633177D01*
X166169969Y-77629969D01*
X166324176Y-77449416D01*
X166326755Y-77445208D01*
X166326759Y-77445202D01*
X166445654Y-77251183D01*
X166448240Y-77246963D01*
X166539105Y-77027594D01*
X166569316Y-76901757D01*
X166593380Y-76801524D01*
X166593381Y-76801518D01*
X166594535Y-76796711D01*
X166613165Y-76560000D01*
X166594535Y-76323289D01*
X166592272Y-76313860D01*
X166540260Y-76097218D01*
X166539105Y-76092406D01*
X166507720Y-76016635D01*
X166450135Y-75877611D01*
X166450133Y-75877607D01*
X166448240Y-75873037D01*
X166379710Y-75761206D01*
X166326759Y-75674798D01*
X166326755Y-75674792D01*
X166324176Y-75670584D01*
X166169969Y-75490031D01*
X166166213Y-75486823D01*
X166166208Y-75486818D01*
X166047944Y-75385811D01*
X166009134Y-75326361D01*
X166008628Y-75255366D01*
X166047944Y-75194189D01*
X166166208Y-75093182D01*
X166166213Y-75093177D01*
X166169969Y-75089969D01*
X166324176Y-74909416D01*
X166326755Y-74905208D01*
X166326759Y-74905202D01*
X166445654Y-74711183D01*
X166448240Y-74706963D01*
X166462607Y-74672279D01*
X166537211Y-74492167D01*
X166537212Y-74492165D01*
X166539105Y-74487594D01*
X166582061Y-74308671D01*
X166593380Y-74261524D01*
X166593381Y-74261518D01*
X166594535Y-74256711D01*
X166613165Y-74020000D01*
X166594535Y-73783289D01*
X166592343Y-73774156D01*
X166553472Y-73612251D01*
X166539105Y-73552406D01*
X166526503Y-73521981D01*
X166450135Y-73337611D01*
X166450133Y-73337607D01*
X166448240Y-73333037D01*
X166432666Y-73307623D01*
X166326759Y-73134798D01*
X166326755Y-73134792D01*
X166324176Y-73130584D01*
X166169969Y-72950031D01*
X166166213Y-72946823D01*
X166166208Y-72946818D01*
X166047944Y-72845811D01*
X166009134Y-72786361D01*
X166008628Y-72715366D01*
X166047944Y-72654189D01*
X166166208Y-72553182D01*
X166166213Y-72553177D01*
X166169969Y-72549969D01*
X166324176Y-72369416D01*
X166326755Y-72365208D01*
X166326759Y-72365202D01*
X166445654Y-72171183D01*
X166448240Y-72166963D01*
X166539105Y-71947594D01*
X166590008Y-71735569D01*
X166593380Y-71721524D01*
X166593381Y-71721518D01*
X166594535Y-71716711D01*
X166613165Y-71480000D01*
X166594535Y-71243289D01*
X166539105Y-71012406D01*
X166471644Y-70849539D01*
X166450135Y-70797611D01*
X166450133Y-70797607D01*
X166448240Y-70793037D01*
X166444531Y-70786985D01*
X166326759Y-70594798D01*
X166326755Y-70594792D01*
X166324176Y-70590584D01*
X166169969Y-70410031D01*
X166166213Y-70406823D01*
X166166208Y-70406818D01*
X166047944Y-70305811D01*
X166009134Y-70246361D01*
X166008628Y-70175366D01*
X166047944Y-70114189D01*
X166166208Y-70013182D01*
X166166213Y-70013177D01*
X166169969Y-70009969D01*
X166324176Y-69829416D01*
X166326755Y-69825208D01*
X166326759Y-69825202D01*
X166445654Y-69631183D01*
X166448240Y-69626963D01*
X166450152Y-69622349D01*
X166537211Y-69412167D01*
X166537212Y-69412165D01*
X166539105Y-69407594D01*
X166570177Y-69278169D01*
X166593380Y-69181524D01*
X166593381Y-69181518D01*
X166594535Y-69176711D01*
X166613165Y-68940000D01*
X166594535Y-68703289D01*
X166539105Y-68472406D01*
X166448240Y-68253037D01*
X166445654Y-68248817D01*
X166326759Y-68054798D01*
X166326755Y-68054792D01*
X166324176Y-68050584D01*
X166169969Y-67870031D01*
X166166213Y-67866823D01*
X166166208Y-67866818D01*
X166013384Y-67736294D01*
X165974574Y-67676844D01*
X165972360Y-67642442D01*
X165964123Y-67623333D01*
X165112812Y-66772022D01*
X165098868Y-66764408D01*
X165097035Y-66764539D01*
X165090420Y-66768790D01*
X164238920Y-67620290D01*
X164229740Y-67637102D01*
X164215980Y-67700350D01*
X164187224Y-67735775D01*
X164033793Y-67866818D01*
X164030031Y-67870031D01*
X163875824Y-68050584D01*
X163873245Y-68054792D01*
X163873241Y-68054798D01*
X163754346Y-68248817D01*
X163751760Y-68253037D01*
X163660895Y-68472406D01*
X163605465Y-68703289D01*
X163586835Y-68940000D01*
X163605465Y-69176711D01*
X163606619Y-69181518D01*
X163606620Y-69181524D01*
X163629823Y-69278169D01*
X163660895Y-69407594D01*
X163662788Y-69412165D01*
X163662789Y-69412167D01*
X163749849Y-69622349D01*
X163751760Y-69626963D01*
X163754346Y-69631183D01*
X163873241Y-69825202D01*
X163873245Y-69825208D01*
X163875824Y-69829416D01*
X164030031Y-70009969D01*
X164033787Y-70013177D01*
X164033792Y-70013182D01*
X164152056Y-70114189D01*
X164190866Y-70173639D01*
X164191372Y-70244634D01*
X164152056Y-70305811D01*
X164033792Y-70406818D01*
X164033787Y-70406823D01*
X164030031Y-70410031D01*
X163875824Y-70590584D01*
X163873245Y-70594792D01*
X163873241Y-70594798D01*
X163755469Y-70786985D01*
X163751760Y-70793037D01*
X163749867Y-70797607D01*
X163749865Y-70797611D01*
X163728356Y-70849539D01*
X163660895Y-71012406D01*
X163605465Y-71243289D01*
X163586835Y-71480000D01*
X163605465Y-71716711D01*
X163606619Y-71721518D01*
X163606620Y-71721524D01*
X163609992Y-71735569D01*
X163660895Y-71947594D01*
X163751760Y-72166963D01*
X163754346Y-72171183D01*
X163873241Y-72365202D01*
X163873245Y-72365208D01*
X163875824Y-72369416D01*
X164030031Y-72549969D01*
X164033787Y-72553177D01*
X164033792Y-72553182D01*
X164152056Y-72654189D01*
X164190866Y-72713639D01*
X164191372Y-72784634D01*
X164152056Y-72845811D01*
X164033792Y-72946818D01*
X164033787Y-72946823D01*
X164030031Y-72950031D01*
X163875824Y-73130584D01*
X163873245Y-73134792D01*
X163873241Y-73134798D01*
X163767334Y-73307623D01*
X163751760Y-73333037D01*
X163749867Y-73337607D01*
X163749865Y-73337611D01*
X163673497Y-73521981D01*
X163660895Y-73552406D01*
X163646528Y-73612251D01*
X163607658Y-73774156D01*
X163605465Y-73783289D01*
X163586835Y-74020000D01*
X163605465Y-74256711D01*
X163606619Y-74261518D01*
X163606620Y-74261524D01*
X163617939Y-74308671D01*
X163660895Y-74487594D01*
X163662788Y-74492165D01*
X163662789Y-74492167D01*
X163737394Y-74672279D01*
X163751760Y-74706963D01*
X163754346Y-74711183D01*
X163873241Y-74905202D01*
X163873245Y-74905208D01*
X163875824Y-74909416D01*
X164030031Y-75089969D01*
X164033787Y-75093177D01*
X164033792Y-75093182D01*
X164152056Y-75194189D01*
X164190866Y-75253639D01*
X164191372Y-75324634D01*
X164152056Y-75385811D01*
X164033792Y-75486818D01*
X164033787Y-75486823D01*
X164030031Y-75490031D01*
X163875824Y-75670584D01*
X163873245Y-75674792D01*
X163873241Y-75674798D01*
X163820290Y-75761206D01*
X163751760Y-75873037D01*
X163749867Y-75877607D01*
X163749865Y-75877611D01*
X163692280Y-76016635D01*
X163660895Y-76092406D01*
X163659740Y-76097218D01*
X163607729Y-76313860D01*
X163605465Y-76323289D01*
X163586835Y-76560000D01*
X163605465Y-76796711D01*
X163606619Y-76801518D01*
X163606620Y-76801524D01*
X163630684Y-76901757D01*
X163660895Y-77027594D01*
X163751760Y-77246963D01*
X163754346Y-77251183D01*
X163873241Y-77445202D01*
X163873245Y-77445208D01*
X163875824Y-77449416D01*
X164030031Y-77629969D01*
X164033787Y-77633177D01*
X164033792Y-77633182D01*
X164152056Y-77734189D01*
X164190866Y-77793639D01*
X164191372Y-77864634D01*
X164152056Y-77925811D01*
X164033792Y-78026818D01*
X164033787Y-78026823D01*
X164030031Y-78030031D01*
X163875824Y-78210584D01*
X163873245Y-78214792D01*
X163873241Y-78214798D01*
X163773765Y-78377128D01*
X163751760Y-78413037D01*
X163749867Y-78417607D01*
X163749865Y-78417611D01*
X163662789Y-78627833D01*
X163660895Y-78632406D01*
X163655175Y-78656233D01*
X163607189Y-78856109D01*
X163605465Y-78863289D01*
X163586835Y-79100000D01*
X163605465Y-79336711D01*
X163606619Y-79341518D01*
X163606620Y-79341524D01*
X163641640Y-79487391D01*
X163660895Y-79567594D01*
X163751760Y-79786963D01*
X163754346Y-79791183D01*
X163873241Y-79985202D01*
X163873245Y-79985208D01*
X163875824Y-79989416D01*
X163939350Y-80063795D01*
X164018568Y-80156547D01*
X164030031Y-80169969D01*
X164033787Y-80173177D01*
X164033792Y-80173182D01*
X164152056Y-80274189D01*
X164190866Y-80333639D01*
X164191372Y-80404634D01*
X164152056Y-80465811D01*
X164033792Y-80566818D01*
X164033787Y-80566823D01*
X164030031Y-80570031D01*
X164026823Y-80573787D01*
X164009832Y-80593681D01*
X163875824Y-80750584D01*
X163873245Y-80754792D01*
X163873241Y-80754798D01*
X163770897Y-80921808D01*
X163751760Y-80953037D01*
X163749867Y-80957607D01*
X163749865Y-80957611D01*
X163664422Y-81163891D01*
X163660895Y-81172406D01*
X163643663Y-81244182D01*
X163608426Y-81390956D01*
X163605465Y-81403289D01*
X163586835Y-81640000D01*
X163605465Y-81876711D01*
X163606619Y-81881518D01*
X163606620Y-81881524D01*
X163620897Y-81940990D01*
X163660895Y-82107594D01*
X163662788Y-82112165D01*
X163662789Y-82112167D01*
X163740973Y-82300920D01*
X163751760Y-82326963D01*
X163754346Y-82331183D01*
X163873241Y-82525202D01*
X163873245Y-82525208D01*
X163875824Y-82529416D01*
X164030031Y-82709969D01*
X164033787Y-82713177D01*
X164033792Y-82713182D01*
X164152056Y-82814189D01*
X164190866Y-82873639D01*
X164191372Y-82944634D01*
X164152056Y-83005811D01*
X164033792Y-83106818D01*
X164033787Y-83106823D01*
X164030031Y-83110031D01*
X163875824Y-83290584D01*
X163873245Y-83294792D01*
X163873241Y-83294798D01*
X163754346Y-83488817D01*
X163751760Y-83493037D01*
X163749867Y-83497607D01*
X163749865Y-83497611D01*
X163662789Y-83707833D01*
X163660895Y-83712406D01*
X163605465Y-83943289D01*
X163586835Y-84180000D01*
X163605465Y-84416711D01*
X163660895Y-84647594D01*
X163751760Y-84866963D01*
X163754346Y-84871183D01*
X163873241Y-85065202D01*
X163873245Y-85065208D01*
X163875824Y-85069416D01*
X164030031Y-85249969D01*
X164033787Y-85253177D01*
X164033792Y-85253182D01*
X164152056Y-85354189D01*
X164190866Y-85413639D01*
X164191372Y-85484634D01*
X164152056Y-85545811D01*
X164033792Y-85646818D01*
X164033787Y-85646823D01*
X164030031Y-85650031D01*
X163875824Y-85830584D01*
X163873245Y-85834792D01*
X163873241Y-85834798D01*
X163754346Y-86028817D01*
X163751760Y-86033037D01*
X163660895Y-86252406D01*
X163605465Y-86483289D01*
X163586835Y-86720000D01*
X163605465Y-86956711D01*
X163660895Y-87187594D01*
X163751760Y-87406963D01*
X163754346Y-87411183D01*
X163873241Y-87605202D01*
X163873245Y-87605208D01*
X163875824Y-87609416D01*
X164030031Y-87789969D01*
X164033787Y-87793177D01*
X164033792Y-87793182D01*
X164152056Y-87894189D01*
X164190866Y-87953639D01*
X164191372Y-88024634D01*
X164152056Y-88085811D01*
X164033792Y-88186818D01*
X164033787Y-88186823D01*
X164030031Y-88190031D01*
X163875824Y-88370584D01*
X163873245Y-88374792D01*
X163873241Y-88374798D01*
X163754346Y-88568817D01*
X163751760Y-88573037D01*
X163660895Y-88792406D01*
X163605465Y-89023289D01*
X163586835Y-89260000D01*
X163605465Y-89496711D01*
X163660895Y-89727594D01*
X163751760Y-89946963D01*
X163754346Y-89951183D01*
X163873241Y-90145202D01*
X163873245Y-90145208D01*
X163875824Y-90149416D01*
X164030031Y-90329969D01*
X164033787Y-90333177D01*
X164033792Y-90333182D01*
X164152056Y-90434189D01*
X164190866Y-90493639D01*
X164191372Y-90564634D01*
X164152056Y-90625811D01*
X164033792Y-90726818D01*
X164033787Y-90726823D01*
X164030031Y-90730031D01*
X163875824Y-90910584D01*
X163873245Y-90914792D01*
X163873241Y-90914798D01*
X163754346Y-91108817D01*
X163751760Y-91113037D01*
X163660895Y-91332406D01*
X163605465Y-91563289D01*
X163586835Y-91800000D01*
X163605465Y-92036711D01*
X163660895Y-92267594D01*
X163751760Y-92486963D01*
X163754346Y-92491183D01*
X163873241Y-92685202D01*
X163873245Y-92685208D01*
X163875824Y-92689416D01*
X164030031Y-92869969D01*
X164033787Y-92873177D01*
X164033792Y-92873182D01*
X164152056Y-92974189D01*
X164190866Y-93033639D01*
X164191372Y-93104634D01*
X164152056Y-93165811D01*
X164033792Y-93266818D01*
X164033787Y-93266823D01*
X164030031Y-93270031D01*
X163875824Y-93450584D01*
X163873245Y-93454792D01*
X163873241Y-93454798D01*
X163754346Y-93648817D01*
X163751760Y-93653037D01*
X163660895Y-93872406D01*
X163605465Y-94103289D01*
X163586835Y-94340000D01*
X163605465Y-94576711D01*
X163660895Y-94807594D01*
X163751760Y-95026963D01*
X163754346Y-95031183D01*
X163873241Y-95225202D01*
X163873245Y-95225208D01*
X163875824Y-95229416D01*
X164030031Y-95409969D01*
X164033787Y-95413177D01*
X164033792Y-95413182D01*
X164152056Y-95514189D01*
X164190866Y-95573639D01*
X164191372Y-95644634D01*
X164152056Y-95705811D01*
X164033792Y-95806818D01*
X164033787Y-95806823D01*
X164030031Y-95810031D01*
X163875824Y-95990584D01*
X163873245Y-95994792D01*
X163873241Y-95994798D01*
X163754346Y-96188817D01*
X163751760Y-96193037D01*
X163660895Y-96412406D01*
X163605465Y-96643289D01*
X163586835Y-96880000D01*
X163605465Y-97116711D01*
X163660895Y-97347594D01*
X163751760Y-97566963D01*
X163754346Y-97571183D01*
X163873241Y-97765202D01*
X163873245Y-97765208D01*
X163875824Y-97769416D01*
X164030031Y-97949969D01*
X164033787Y-97953177D01*
X164033792Y-97953182D01*
X164152056Y-98054189D01*
X164190866Y-98113639D01*
X164191372Y-98184634D01*
X164152056Y-98245811D01*
X164033792Y-98346818D01*
X164033787Y-98346823D01*
X164030031Y-98350031D01*
X163875824Y-98530584D01*
X163873245Y-98534792D01*
X163873241Y-98534798D01*
X163754346Y-98728817D01*
X163751760Y-98733037D01*
X163660895Y-98952406D01*
X163605465Y-99183289D01*
X163586835Y-99420000D01*
X163605465Y-99656711D01*
X163660895Y-99887594D01*
X163751760Y-100106963D01*
X163754346Y-100111183D01*
X163873241Y-100305202D01*
X163873245Y-100305208D01*
X163875824Y-100309416D01*
X164030031Y-100489969D01*
X164210584Y-100644176D01*
X164214799Y-100646759D01*
X164214802Y-100646761D01*
X164234026Y-100658542D01*
X164281657Y-100711190D01*
X164293263Y-100781232D01*
X164265159Y-100846429D01*
X164206268Y-100886082D01*
X164194392Y-100889220D01*
X164075030Y-100914591D01*
X164070901Y-100916094D01*
X164070897Y-100916095D01*
X163815219Y-101009154D01*
X163815215Y-101009156D01*
X163811074Y-101010663D01*
X163563058Y-101142536D01*
X163559499Y-101145122D01*
X163559497Y-101145123D01*
X163454895Y-101221121D01*
X163335808Y-101307642D01*
X163133748Y-101502769D01*
X162960812Y-101724118D01*
X162958616Y-101727922D01*
X162958611Y-101727929D01*
X162844794Y-101925067D01*
X162820364Y-101967381D01*
X162715138Y-102227824D01*
X162714073Y-102232097D01*
X162714072Y-102232099D01*
X162664613Y-102430470D01*
X162647183Y-102500376D01*
X162646724Y-102504744D01*
X162646723Y-102504749D01*
X162623642Y-102724356D01*
X162617822Y-102779733D01*
X142127271Y-102779733D01*
X142122529Y-102643939D01*
X142122528Y-102643933D01*
X142122375Y-102639542D01*
X142098608Y-102504749D01*
X142090630Y-102459506D01*
X142073598Y-102362913D01*
X141986797Y-102095765D01*
X141863660Y-101843298D01*
X141861205Y-101839659D01*
X141861202Y-101839653D01*
X141780935Y-101720653D01*
X141706585Y-101610424D01*
X141518629Y-101401678D01*
X141303450Y-101221121D01*
X141065236Y-101072269D01*
X140808625Y-100958018D01*
X140679977Y-100921129D01*
X140585667Y-100894086D01*
X140525698Y-100856082D01*
X140495796Y-100791690D01*
X140505453Y-100721353D01*
X140554563Y-100665534D01*
X140585197Y-100646762D01*
X140585202Y-100646758D01*
X140589416Y-100644176D01*
X140769969Y-100489969D01*
X140924176Y-100309416D01*
X140926755Y-100305208D01*
X140926759Y-100305202D01*
X141045654Y-100111183D01*
X141048240Y-100106963D01*
X141139105Y-99887594D01*
X141194535Y-99656711D01*
X141213165Y-99420000D01*
X141194535Y-99183289D01*
X141139105Y-98952406D01*
X141048240Y-98733037D01*
X141045654Y-98728817D01*
X140926759Y-98534798D01*
X140926755Y-98534792D01*
X140924176Y-98530584D01*
X140769969Y-98350031D01*
X140766213Y-98346823D01*
X140766208Y-98346818D01*
X140647944Y-98245811D01*
X140609134Y-98186361D01*
X140608628Y-98115366D01*
X140647944Y-98054189D01*
X140766208Y-97953182D01*
X140766213Y-97953177D01*
X140769969Y-97949969D01*
X140924176Y-97769416D01*
X140926755Y-97765208D01*
X140926759Y-97765202D01*
X141045654Y-97571183D01*
X141048240Y-97566963D01*
X141139105Y-97347594D01*
X141194535Y-97116711D01*
X141213165Y-96880000D01*
X141194535Y-96643289D01*
X141139105Y-96412406D01*
X141048240Y-96193037D01*
X141045654Y-96188817D01*
X140926759Y-95994798D01*
X140926755Y-95994792D01*
X140924176Y-95990584D01*
X140769969Y-95810031D01*
X140766213Y-95806823D01*
X140766208Y-95806818D01*
X140647944Y-95705811D01*
X140609134Y-95646361D01*
X140608628Y-95575366D01*
X140647944Y-95514189D01*
X140766208Y-95413182D01*
X140766213Y-95413177D01*
X140769969Y-95409969D01*
X140924176Y-95229416D01*
X140926755Y-95225208D01*
X140926759Y-95225202D01*
X141045654Y-95031183D01*
X141048240Y-95026963D01*
X141139105Y-94807594D01*
X141194535Y-94576711D01*
X141213165Y-94340000D01*
X141194535Y-94103289D01*
X141139105Y-93872406D01*
X141048240Y-93653037D01*
X141045654Y-93648817D01*
X140926759Y-93454798D01*
X140926755Y-93454792D01*
X140924176Y-93450584D01*
X140769969Y-93270031D01*
X140766213Y-93266823D01*
X140766208Y-93266818D01*
X140647944Y-93165811D01*
X140609134Y-93106361D01*
X140608628Y-93035366D01*
X140647944Y-92974189D01*
X140766208Y-92873182D01*
X140766213Y-92873177D01*
X140769969Y-92869969D01*
X140924176Y-92689416D01*
X140926755Y-92685208D01*
X140926759Y-92685202D01*
X141045654Y-92491183D01*
X141048240Y-92486963D01*
X141139105Y-92267594D01*
X141194535Y-92036711D01*
X141213165Y-91800000D01*
X141194535Y-91563289D01*
X141139105Y-91332406D01*
X141048240Y-91113037D01*
X141045654Y-91108817D01*
X140926759Y-90914798D01*
X140926755Y-90914792D01*
X140924176Y-90910584D01*
X140769969Y-90730031D01*
X140766213Y-90726823D01*
X140766208Y-90726818D01*
X140647944Y-90625811D01*
X140609134Y-90566361D01*
X140608628Y-90495366D01*
X140647944Y-90434189D01*
X140766208Y-90333182D01*
X140766213Y-90333177D01*
X140769969Y-90329969D01*
X140924176Y-90149416D01*
X140926755Y-90145208D01*
X140926759Y-90145202D01*
X141045654Y-89951183D01*
X141048240Y-89946963D01*
X141139105Y-89727594D01*
X141194535Y-89496711D01*
X141213165Y-89260000D01*
X141194535Y-89023289D01*
X141139105Y-88792406D01*
X141048240Y-88573037D01*
X141045654Y-88568817D01*
X140926759Y-88374798D01*
X140926755Y-88374792D01*
X140924176Y-88370584D01*
X140769969Y-88190031D01*
X140766213Y-88186823D01*
X140766208Y-88186818D01*
X140647944Y-88085811D01*
X140609134Y-88026361D01*
X140608628Y-87955366D01*
X140647944Y-87894189D01*
X140766208Y-87793182D01*
X140766213Y-87793177D01*
X140769969Y-87789969D01*
X140924176Y-87609416D01*
X140926755Y-87605208D01*
X140926759Y-87605202D01*
X141045654Y-87411183D01*
X141048240Y-87406963D01*
X141139105Y-87187594D01*
X141194535Y-86956711D01*
X141213165Y-86720000D01*
X141194535Y-86483289D01*
X141139105Y-86252406D01*
X141048240Y-86033037D01*
X141045654Y-86028817D01*
X140926759Y-85834798D01*
X140926755Y-85834792D01*
X140924176Y-85830584D01*
X140769969Y-85650031D01*
X140766213Y-85646823D01*
X140766208Y-85646818D01*
X140647944Y-85545811D01*
X140609134Y-85486361D01*
X140608628Y-85415366D01*
X140647944Y-85354189D01*
X140766208Y-85253182D01*
X140766213Y-85253177D01*
X140769969Y-85249969D01*
X140924176Y-85069416D01*
X140926755Y-85065208D01*
X140926759Y-85065202D01*
X141045654Y-84871183D01*
X141048240Y-84866963D01*
X141139105Y-84647594D01*
X141194535Y-84416711D01*
X141213165Y-84180000D01*
X141194535Y-83943289D01*
X141139105Y-83712406D01*
X141137211Y-83707833D01*
X141050135Y-83497611D01*
X141050133Y-83497607D01*
X141048240Y-83493037D01*
X141045654Y-83488817D01*
X140926759Y-83294798D01*
X140926755Y-83294792D01*
X140924176Y-83290584D01*
X140769969Y-83110031D01*
X140766213Y-83106823D01*
X140766208Y-83106818D01*
X140647944Y-83005811D01*
X140609134Y-82946361D01*
X140608628Y-82875366D01*
X140647944Y-82814189D01*
X140766208Y-82713182D01*
X140766213Y-82713177D01*
X140769969Y-82709969D01*
X140924176Y-82529416D01*
X140926755Y-82525208D01*
X140926759Y-82525202D01*
X141045654Y-82331183D01*
X141048240Y-82326963D01*
X141059028Y-82300920D01*
X141137211Y-82112167D01*
X141137212Y-82112165D01*
X141139105Y-82107594D01*
X141179103Y-81940990D01*
X141193380Y-81881524D01*
X141193381Y-81881518D01*
X141194535Y-81876711D01*
X141213165Y-81640000D01*
X141194535Y-81403289D01*
X141191575Y-81390956D01*
X141156337Y-81244182D01*
X141139105Y-81172406D01*
X141135578Y-81163891D01*
X141050135Y-80957611D01*
X141050133Y-80957607D01*
X141048240Y-80953037D01*
X141029103Y-80921808D01*
X140926759Y-80754798D01*
X140926755Y-80754792D01*
X140924176Y-80750584D01*
X140790168Y-80593681D01*
X140773177Y-80573787D01*
X140769969Y-80570031D01*
X140766213Y-80566823D01*
X140766208Y-80566818D01*
X140647944Y-80465811D01*
X140609134Y-80406361D01*
X140608628Y-80335366D01*
X140647944Y-80274189D01*
X140766208Y-80173182D01*
X140766213Y-80173177D01*
X140769969Y-80169969D01*
X140781433Y-80156547D01*
X140860650Y-80063795D01*
X140924176Y-79989416D01*
X140926755Y-79985208D01*
X140926759Y-79985202D01*
X141045654Y-79791183D01*
X141048240Y-79786963D01*
X141139105Y-79567594D01*
X141158360Y-79487391D01*
X141193380Y-79341524D01*
X141193381Y-79341518D01*
X141194535Y-79336711D01*
X141213165Y-79100000D01*
X141194535Y-78863289D01*
X141192812Y-78856109D01*
X141144825Y-78656233D01*
X141139105Y-78632406D01*
X141137211Y-78627833D01*
X141050135Y-78417611D01*
X141050133Y-78417607D01*
X141048240Y-78413037D01*
X141026235Y-78377128D01*
X140926759Y-78214798D01*
X140926755Y-78214792D01*
X140924176Y-78210584D01*
X140769969Y-78030031D01*
X140766213Y-78026823D01*
X140766208Y-78026818D01*
X140647944Y-77925811D01*
X140609134Y-77866361D01*
X140608628Y-77795366D01*
X140647944Y-77734189D01*
X140766208Y-77633182D01*
X140766213Y-77633177D01*
X140769969Y-77629969D01*
X140924176Y-77449416D01*
X140926755Y-77445208D01*
X140926759Y-77445202D01*
X141045654Y-77251183D01*
X141048240Y-77246963D01*
X141139105Y-77027594D01*
X141169316Y-76901757D01*
X141193380Y-76801524D01*
X141193381Y-76801518D01*
X141194535Y-76796711D01*
X141213165Y-76560000D01*
X141194535Y-76323289D01*
X141192272Y-76313860D01*
X141140260Y-76097218D01*
X141139105Y-76092406D01*
X141107720Y-76016635D01*
X141050135Y-75877611D01*
X141050133Y-75877607D01*
X141048240Y-75873037D01*
X140979710Y-75761206D01*
X140926759Y-75674798D01*
X140926755Y-75674792D01*
X140924176Y-75670584D01*
X140769969Y-75490031D01*
X140766213Y-75486823D01*
X140766208Y-75486818D01*
X140647944Y-75385811D01*
X140609134Y-75326361D01*
X140608628Y-75255366D01*
X140647944Y-75194189D01*
X140766208Y-75093182D01*
X140766213Y-75093177D01*
X140769969Y-75089969D01*
X140924176Y-74909416D01*
X140926755Y-74905208D01*
X140926759Y-74905202D01*
X141045654Y-74711183D01*
X141048240Y-74706963D01*
X141062607Y-74672279D01*
X141137211Y-74492167D01*
X141137212Y-74492165D01*
X141139105Y-74487594D01*
X141182061Y-74308671D01*
X141193380Y-74261524D01*
X141193381Y-74261518D01*
X141194535Y-74256711D01*
X141213165Y-74020000D01*
X141194535Y-73783289D01*
X141192343Y-73774156D01*
X141153472Y-73612251D01*
X141139105Y-73552406D01*
X141126503Y-73521981D01*
X141050135Y-73337611D01*
X141050133Y-73337607D01*
X141048240Y-73333037D01*
X141032666Y-73307623D01*
X140926759Y-73134798D01*
X140926755Y-73134792D01*
X140924176Y-73130584D01*
X140769969Y-72950031D01*
X140766213Y-72946823D01*
X140766208Y-72946818D01*
X140647944Y-72845811D01*
X140609134Y-72786361D01*
X140608628Y-72715366D01*
X140647944Y-72654189D01*
X140766208Y-72553182D01*
X140766213Y-72553177D01*
X140769969Y-72549969D01*
X140924176Y-72369416D01*
X140926755Y-72365208D01*
X140926759Y-72365202D01*
X141045654Y-72171183D01*
X141048240Y-72166963D01*
X141139105Y-71947594D01*
X141190008Y-71735569D01*
X141193380Y-71721524D01*
X141193381Y-71721518D01*
X141194535Y-71716711D01*
X141213165Y-71480000D01*
X141194535Y-71243289D01*
X141139105Y-71012406D01*
X141071644Y-70849539D01*
X141050135Y-70797611D01*
X141050133Y-70797607D01*
X141048240Y-70793037D01*
X141044531Y-70786985D01*
X140926759Y-70594798D01*
X140926755Y-70594792D01*
X140924176Y-70590584D01*
X140769969Y-70410031D01*
X140766213Y-70406823D01*
X140766208Y-70406818D01*
X140647944Y-70305811D01*
X140609134Y-70246361D01*
X140608628Y-70175366D01*
X140647944Y-70114189D01*
X140766208Y-70013182D01*
X140766213Y-70013177D01*
X140769969Y-70009969D01*
X140924176Y-69829416D01*
X140926755Y-69825208D01*
X140926759Y-69825202D01*
X141045654Y-69631183D01*
X141048240Y-69626963D01*
X141050152Y-69622349D01*
X141137211Y-69412167D01*
X141137212Y-69412165D01*
X141139105Y-69407594D01*
X141170177Y-69278169D01*
X141193380Y-69181524D01*
X141193381Y-69181518D01*
X141194535Y-69176711D01*
X141213165Y-68940000D01*
X141194535Y-68703289D01*
X141139105Y-68472406D01*
X141048240Y-68253037D01*
X141045654Y-68248817D01*
X140926759Y-68054798D01*
X140926755Y-68054792D01*
X140924176Y-68050584D01*
X140769969Y-67870031D01*
X140766213Y-67866823D01*
X140766208Y-67866818D01*
X140613384Y-67736294D01*
X140574574Y-67676844D01*
X140572360Y-67642442D01*
X140564123Y-67623333D01*
X139712812Y-66772022D01*
X139698868Y-66764408D01*
X139697035Y-66764539D01*
X139690420Y-66768790D01*
X138838920Y-67620290D01*
X138829740Y-67637102D01*
X138815980Y-67700350D01*
X138787224Y-67735775D01*
X138633793Y-67866818D01*
X138630031Y-67870031D01*
X138475824Y-68050584D01*
X138473245Y-68054792D01*
X138473241Y-68054798D01*
X138354346Y-68248817D01*
X138351760Y-68253037D01*
X138260895Y-68472406D01*
X138205465Y-68703289D01*
X138186835Y-68940000D01*
X138205465Y-69176711D01*
X138206619Y-69181518D01*
X138206620Y-69181524D01*
X138229823Y-69278169D01*
X138260895Y-69407594D01*
X138262788Y-69412165D01*
X138262789Y-69412167D01*
X138349849Y-69622349D01*
X138351760Y-69626963D01*
X138354346Y-69631183D01*
X138473241Y-69825202D01*
X138473245Y-69825208D01*
X138475824Y-69829416D01*
X138630031Y-70009969D01*
X138633787Y-70013177D01*
X138633792Y-70013182D01*
X138752056Y-70114189D01*
X138790866Y-70173639D01*
X138791372Y-70244634D01*
X138752056Y-70305811D01*
X138633792Y-70406818D01*
X138633787Y-70406823D01*
X138630031Y-70410031D01*
X138475824Y-70590584D01*
X138473245Y-70594792D01*
X138473241Y-70594798D01*
X138355469Y-70786985D01*
X138351760Y-70793037D01*
X138349867Y-70797607D01*
X138349865Y-70797611D01*
X138328356Y-70849539D01*
X138260895Y-71012406D01*
X138205465Y-71243289D01*
X138186835Y-71480000D01*
X138205465Y-71716711D01*
X138206619Y-71721518D01*
X138206620Y-71721524D01*
X138209992Y-71735569D01*
X138260895Y-71947594D01*
X138351760Y-72166963D01*
X138354346Y-72171183D01*
X138473241Y-72365202D01*
X138473245Y-72365208D01*
X138475824Y-72369416D01*
X138630031Y-72549969D01*
X138633787Y-72553177D01*
X138633792Y-72553182D01*
X138752056Y-72654189D01*
X138790866Y-72713639D01*
X138791372Y-72784634D01*
X138752056Y-72845811D01*
X138633792Y-72946818D01*
X138633787Y-72946823D01*
X138630031Y-72950031D01*
X138475824Y-73130584D01*
X138473245Y-73134792D01*
X138473241Y-73134798D01*
X138367334Y-73307623D01*
X138351760Y-73333037D01*
X138349867Y-73337607D01*
X138349865Y-73337611D01*
X138325938Y-73395377D01*
X138281390Y-73450658D01*
X138214026Y-73473079D01*
X138158280Y-73462266D01*
X138083319Y-73428891D01*
X138083318Y-73428891D01*
X138077288Y-73426206D01*
X137983887Y-73406353D01*
X137896944Y-73387872D01*
X137896939Y-73387872D01*
X137890487Y-73386500D01*
X137699513Y-73386500D01*
X137693061Y-73387872D01*
X137693056Y-73387872D01*
X137606113Y-73406353D01*
X137512712Y-73426206D01*
X137506682Y-73428891D01*
X137506681Y-73428891D01*
X137344278Y-73501197D01*
X137344276Y-73501198D01*
X137338248Y-73503882D01*
X137183747Y-73616134D01*
X137179326Y-73621044D01*
X137179325Y-73621045D01*
X137062943Y-73750301D01*
X137055960Y-73758056D01*
X137024935Y-73811793D01*
X136989953Y-73872384D01*
X136960473Y-73923444D01*
X136958433Y-73929723D01*
X136957606Y-73931580D01*
X136911626Y-73985675D01*
X136843699Y-74006324D01*
X136775391Y-73986971D01*
X136727394Y-73931580D01*
X136726567Y-73929723D01*
X136724527Y-73923444D01*
X136695048Y-73872384D01*
X136660065Y-73811793D01*
X136629040Y-73758056D01*
X136622058Y-73750301D01*
X136505675Y-73621045D01*
X136505674Y-73621044D01*
X136501253Y-73616134D01*
X136346752Y-73503882D01*
X136340724Y-73501198D01*
X136340722Y-73501197D01*
X136178319Y-73428891D01*
X136178318Y-73428891D01*
X136172288Y-73426206D01*
X136078887Y-73406353D01*
X135991944Y-73387872D01*
X135991939Y-73387872D01*
X135985487Y-73386500D01*
X135794513Y-73386500D01*
X135788061Y-73387872D01*
X135788056Y-73387872D01*
X135701113Y-73406353D01*
X135607712Y-73426206D01*
X135601682Y-73428891D01*
X135601681Y-73428891D01*
X135439278Y-73501197D01*
X135439276Y-73501198D01*
X135433248Y-73503882D01*
X135427907Y-73507762D01*
X135427906Y-73507763D01*
X135356636Y-73559544D01*
X135278747Y-73616134D01*
X135274332Y-73621037D01*
X135269420Y-73625460D01*
X135268295Y-73624211D01*
X135214986Y-73657051D01*
X135181800Y-73661500D01*
X132788200Y-73661500D01*
X132720079Y-73641498D01*
X132700853Y-73625157D01*
X132700580Y-73625460D01*
X132695668Y-73621037D01*
X132691253Y-73616134D01*
X132613364Y-73559544D01*
X132542094Y-73507763D01*
X132542093Y-73507762D01*
X132536752Y-73503882D01*
X132530724Y-73501198D01*
X132530722Y-73501197D01*
X132368319Y-73428891D01*
X132368318Y-73428891D01*
X132362288Y-73426206D01*
X132268887Y-73406353D01*
X132181944Y-73387872D01*
X132181939Y-73387872D01*
X132175487Y-73386500D01*
X131984513Y-73386500D01*
X131978061Y-73387872D01*
X131978056Y-73387872D01*
X131891113Y-73406353D01*
X131797712Y-73426206D01*
X131791682Y-73428891D01*
X131791681Y-73428891D01*
X131629278Y-73501197D01*
X131629276Y-73501198D01*
X131623248Y-73503882D01*
X131468747Y-73616134D01*
X131464326Y-73621044D01*
X131464325Y-73621045D01*
X131347943Y-73750301D01*
X131340960Y-73758056D01*
X131245473Y-73923444D01*
X131186458Y-74105072D01*
X131166496Y-74295000D01*
X131167186Y-74301565D01*
X131181466Y-74437428D01*
X131186458Y-74484928D01*
X131245473Y-74666556D01*
X131340960Y-74831944D01*
X131353338Y-74845691D01*
X131384054Y-74909697D01*
X131375290Y-74980150D01*
X131353339Y-75014307D01*
X131340960Y-75028056D01*
X131289319Y-75117500D01*
X131261798Y-75165169D01*
X131245473Y-75193444D01*
X131186458Y-75375072D01*
X131185768Y-75381633D01*
X131185768Y-75381635D01*
X131182431Y-75413385D01*
X131166496Y-75565000D01*
X131186458Y-75754928D01*
X131245473Y-75936556D01*
X131340960Y-76101944D01*
X131345378Y-76106851D01*
X131345379Y-76106852D01*
X131436286Y-76207814D01*
X131468747Y-76243866D01*
X131521025Y-76281848D01*
X131617904Y-76352235D01*
X131623248Y-76356118D01*
X131629276Y-76358802D01*
X131629278Y-76358803D01*
X131791681Y-76431109D01*
X131797712Y-76433794D01*
X131891113Y-76453647D01*
X131978056Y-76472128D01*
X131978061Y-76472128D01*
X131984513Y-76473500D01*
X132175487Y-76473500D01*
X132181939Y-76472128D01*
X132181944Y-76472128D01*
X132268887Y-76453647D01*
X132362288Y-76433794D01*
X132368319Y-76431109D01*
X132530722Y-76358803D01*
X132530724Y-76358802D01*
X132536752Y-76356118D01*
X132542091Y-76352239D01*
X132542098Y-76352235D01*
X132548528Y-76347563D01*
X132622587Y-76323500D01*
X136267914Y-76323500D01*
X136336035Y-76343502D01*
X136382528Y-76397158D01*
X136392632Y-76467432D01*
X136363138Y-76532012D01*
X136303412Y-76570396D01*
X136294109Y-76572747D01*
X136160223Y-76601206D01*
X136154193Y-76603891D01*
X136154192Y-76603891D01*
X135991789Y-76676197D01*
X135991787Y-76676198D01*
X135985759Y-76678882D01*
X135831258Y-76791134D01*
X135703471Y-76933056D01*
X135607984Y-77098444D01*
X135548969Y-77280072D01*
X135529007Y-77470000D01*
X135548969Y-77659928D01*
X135607984Y-77841556D01*
X135703471Y-78006944D01*
X135707889Y-78011851D01*
X135707890Y-78011852D01*
X135826836Y-78143955D01*
X135831258Y-78148866D01*
X135985759Y-78261118D01*
X135991787Y-78263802D01*
X135991789Y-78263803D01*
X136154192Y-78336109D01*
X136160223Y-78338794D01*
X136253623Y-78358647D01*
X136340567Y-78377128D01*
X136340572Y-78377128D01*
X136347024Y-78378500D01*
X136402917Y-78378500D01*
X136471038Y-78398502D01*
X136492012Y-78415405D01*
X137124595Y-79047988D01*
X137158621Y-79110300D01*
X137161500Y-79137083D01*
X137161500Y-80180718D01*
X137141498Y-80248839D01*
X137087842Y-80295332D01*
X137017568Y-80305436D01*
X136952988Y-80275942D01*
X136942306Y-80265518D01*
X136893289Y-80211649D01*
X136889814Y-80207830D01*
X136707434Y-80063795D01*
X136705330Y-80062133D01*
X136705325Y-80062130D01*
X136701276Y-80058932D01*
X136696760Y-80056439D01*
X136696757Y-80056437D01*
X136495474Y-79945323D01*
X136495470Y-79945321D01*
X136490950Y-79942826D01*
X136486081Y-79941102D01*
X136486077Y-79941100D01*
X136269360Y-79864356D01*
X136269356Y-79864355D01*
X136264485Y-79862630D01*
X136259392Y-79861723D01*
X136259389Y-79861722D01*
X136033052Y-79821405D01*
X136033046Y-79821404D01*
X136027963Y-79820499D01*
X135940600Y-79819432D01*
X135792907Y-79817627D01*
X135792905Y-79817627D01*
X135787737Y-79817564D01*
X135550256Y-79853904D01*
X135438003Y-79890594D01*
X135326817Y-79926934D01*
X135326811Y-79926937D01*
X135321899Y-79928542D01*
X135317313Y-79930929D01*
X135317309Y-79930931D01*
X135197741Y-79993175D01*
X135108800Y-80039475D01*
X135104657Y-80042585D01*
X135104658Y-80042585D01*
X134927832Y-80175350D01*
X134916680Y-80183723D01*
X134913108Y-80187461D01*
X134828554Y-80275942D01*
X134750699Y-80357412D01*
X134725465Y-80394403D01*
X134670556Y-80439404D01*
X134600032Y-80447575D01*
X134536284Y-80416321D01*
X134515589Y-80391840D01*
X134514311Y-80389865D01*
X134511502Y-80385523D01*
X134349814Y-80207830D01*
X134167434Y-80063795D01*
X134165330Y-80062133D01*
X134165325Y-80062130D01*
X134161276Y-80058932D01*
X134156760Y-80056439D01*
X134156757Y-80056437D01*
X133955474Y-79945323D01*
X133955470Y-79945321D01*
X133950950Y-79942826D01*
X133946081Y-79941102D01*
X133946077Y-79941100D01*
X133729360Y-79864356D01*
X133729356Y-79864355D01*
X133724485Y-79862630D01*
X133719392Y-79861723D01*
X133719389Y-79861722D01*
X133493052Y-79821405D01*
X133493046Y-79821404D01*
X133487963Y-79820499D01*
X133400600Y-79819432D01*
X133252907Y-79817627D01*
X133252905Y-79817627D01*
X133247737Y-79817564D01*
X133010256Y-79853904D01*
X132898003Y-79890594D01*
X132786817Y-79926934D01*
X132786811Y-79926937D01*
X132781899Y-79928542D01*
X132777313Y-79930929D01*
X132777309Y-79930931D01*
X132657741Y-79993175D01*
X132568800Y-80039475D01*
X132564657Y-80042585D01*
X132564658Y-80042585D01*
X132387832Y-80175350D01*
X132376680Y-80183723D01*
X132373108Y-80187461D01*
X132288554Y-80275942D01*
X132210699Y-80357412D01*
X132185465Y-80394403D01*
X132130556Y-80439404D01*
X132060032Y-80447575D01*
X131996284Y-80416321D01*
X131975589Y-80391840D01*
X131974311Y-80389865D01*
X131971502Y-80385523D01*
X131809814Y-80207830D01*
X131627434Y-80063795D01*
X131625330Y-80062133D01*
X131625325Y-80062130D01*
X131621276Y-80058932D01*
X131616760Y-80056439D01*
X131616757Y-80056437D01*
X131415474Y-79945323D01*
X131415470Y-79945321D01*
X131410950Y-79942826D01*
X131406081Y-79941102D01*
X131406077Y-79941100D01*
X131189360Y-79864356D01*
X131189356Y-79864355D01*
X131184485Y-79862630D01*
X131179392Y-79861723D01*
X131179389Y-79861722D01*
X130953052Y-79821405D01*
X130953046Y-79821404D01*
X130947963Y-79820499D01*
X130860600Y-79819432D01*
X130712907Y-79817627D01*
X130712905Y-79817627D01*
X130707737Y-79817564D01*
X130470256Y-79853904D01*
X130358003Y-79890594D01*
X130246817Y-79926934D01*
X130246811Y-79926937D01*
X130241899Y-79928542D01*
X130237313Y-79930929D01*
X130237309Y-79930931D01*
X130117741Y-79993175D01*
X130028800Y-80039475D01*
X130024657Y-80042585D01*
X130024658Y-80042585D01*
X129847832Y-80175350D01*
X129836680Y-80183723D01*
X129833108Y-80187461D01*
X129748554Y-80275942D01*
X129670699Y-80357412D01*
X129645465Y-80394403D01*
X129590556Y-80439404D01*
X129520032Y-80447575D01*
X129456284Y-80416321D01*
X129435589Y-80391840D01*
X129434311Y-80389865D01*
X129431502Y-80385523D01*
X129269814Y-80207830D01*
X129087434Y-80063795D01*
X129085330Y-80062133D01*
X129085325Y-80062130D01*
X129081276Y-80058932D01*
X129076760Y-80056439D01*
X129076757Y-80056437D01*
X128875474Y-79945323D01*
X128875470Y-79945321D01*
X128870950Y-79942826D01*
X128866081Y-79941102D01*
X128866077Y-79941100D01*
X128649360Y-79864356D01*
X128649356Y-79864355D01*
X128644485Y-79862630D01*
X128639392Y-79861723D01*
X128639389Y-79861722D01*
X128413052Y-79821405D01*
X128413046Y-79821404D01*
X128407963Y-79820499D01*
X128320600Y-79819432D01*
X128172907Y-79817627D01*
X128172905Y-79817627D01*
X128167737Y-79817564D01*
X127930256Y-79853904D01*
X127818003Y-79890594D01*
X127706817Y-79926934D01*
X127706811Y-79926937D01*
X127701899Y-79928542D01*
X127697313Y-79930929D01*
X127697309Y-79930931D01*
X127577741Y-79993175D01*
X127488800Y-80039475D01*
X127484657Y-80042585D01*
X127484658Y-80042585D01*
X127307832Y-80175350D01*
X127296680Y-80183723D01*
X127293108Y-80187461D01*
X127208554Y-80275942D01*
X127130699Y-80357412D01*
X127105465Y-80394403D01*
X127050556Y-80439404D01*
X126980032Y-80447575D01*
X126916284Y-80416321D01*
X126895589Y-80391840D01*
X126894311Y-80389865D01*
X126891502Y-80385523D01*
X126729814Y-80207830D01*
X126547434Y-80063795D01*
X126545330Y-80062133D01*
X126545325Y-80062130D01*
X126541276Y-80058932D01*
X126536760Y-80056439D01*
X126536757Y-80056437D01*
X126335474Y-79945323D01*
X126335470Y-79945321D01*
X126330950Y-79942826D01*
X126326081Y-79941102D01*
X126326077Y-79941100D01*
X126109360Y-79864356D01*
X126109356Y-79864355D01*
X126104485Y-79862630D01*
X126099392Y-79861723D01*
X126099389Y-79861722D01*
X125873052Y-79821405D01*
X125873046Y-79821404D01*
X125867963Y-79820499D01*
X125780600Y-79819432D01*
X125632907Y-79817627D01*
X125632905Y-79817627D01*
X125627737Y-79817564D01*
X125390256Y-79853904D01*
X125278003Y-79890594D01*
X125166817Y-79926934D01*
X125166811Y-79926937D01*
X125161899Y-79928542D01*
X125157313Y-79930929D01*
X125157309Y-79930931D01*
X125037741Y-79993175D01*
X124948800Y-80039475D01*
X124944657Y-80042585D01*
X124944658Y-80042585D01*
X124767832Y-80175350D01*
X124756680Y-80183723D01*
X124753108Y-80187461D01*
X124668554Y-80275942D01*
X124590699Y-80357412D01*
X124565465Y-80394403D01*
X124510556Y-80439404D01*
X124440032Y-80447575D01*
X124376284Y-80416321D01*
X124355589Y-80391840D01*
X124354311Y-80389865D01*
X124351502Y-80385523D01*
X124189814Y-80207830D01*
X124007434Y-80063795D01*
X124005330Y-80062133D01*
X124005325Y-80062130D01*
X124001276Y-80058932D01*
X123996760Y-80056439D01*
X123996757Y-80056437D01*
X123795474Y-79945323D01*
X123795470Y-79945321D01*
X123790950Y-79942826D01*
X123786081Y-79941102D01*
X123786077Y-79941100D01*
X123569360Y-79864356D01*
X123569356Y-79864355D01*
X123564485Y-79862630D01*
X123559392Y-79861723D01*
X123559389Y-79861722D01*
X123333052Y-79821405D01*
X123333046Y-79821404D01*
X123327963Y-79820499D01*
X123240600Y-79819432D01*
X123092907Y-79817627D01*
X123092905Y-79817627D01*
X123087737Y-79817564D01*
X122850256Y-79853904D01*
X122738003Y-79890594D01*
X122626817Y-79926934D01*
X122626811Y-79926937D01*
X122621899Y-79928542D01*
X122617313Y-79930929D01*
X122617309Y-79930931D01*
X122497741Y-79993175D01*
X122408800Y-80039475D01*
X122404657Y-80042585D01*
X122404658Y-80042585D01*
X122227832Y-80175350D01*
X122216680Y-80183723D01*
X122213108Y-80187461D01*
X122128554Y-80275942D01*
X122050699Y-80357412D01*
X122025465Y-80394403D01*
X121970556Y-80439404D01*
X121900032Y-80447575D01*
X121836284Y-80416321D01*
X121815589Y-80391840D01*
X121814311Y-80389865D01*
X121811502Y-80385523D01*
X121649814Y-80207830D01*
X121467434Y-80063795D01*
X121465330Y-80062133D01*
X121465325Y-80062130D01*
X121461276Y-80058932D01*
X121456760Y-80056439D01*
X121456757Y-80056437D01*
X121255474Y-79945323D01*
X121255470Y-79945321D01*
X121250950Y-79942826D01*
X121246081Y-79941102D01*
X121246077Y-79941100D01*
X121029360Y-79864356D01*
X121029356Y-79864355D01*
X121024485Y-79862630D01*
X121019392Y-79861723D01*
X121019389Y-79861722D01*
X120793052Y-79821405D01*
X120793046Y-79821404D01*
X120787963Y-79820499D01*
X120700600Y-79819432D01*
X120552907Y-79817627D01*
X120552905Y-79817627D01*
X120547737Y-79817564D01*
X120310256Y-79853904D01*
X120198003Y-79890594D01*
X120086817Y-79926934D01*
X120086811Y-79926937D01*
X120081899Y-79928542D01*
X120077313Y-79930929D01*
X120077309Y-79930931D01*
X119957741Y-79993175D01*
X119868800Y-80039475D01*
X119864657Y-80042585D01*
X119864658Y-80042585D01*
X119687832Y-80175350D01*
X119676680Y-80183723D01*
X119673108Y-80187461D01*
X119588554Y-80275942D01*
X119510699Y-80357412D01*
X119485465Y-80394403D01*
X119430556Y-80439404D01*
X119360032Y-80447575D01*
X119296284Y-80416321D01*
X119275589Y-80391840D01*
X119274311Y-80389865D01*
X119271502Y-80385523D01*
X119109814Y-80207830D01*
X118927434Y-80063795D01*
X118925330Y-80062133D01*
X118925325Y-80062130D01*
X118921276Y-80058932D01*
X118916760Y-80056439D01*
X118916757Y-80056437D01*
X118715474Y-79945323D01*
X118715470Y-79945321D01*
X118710950Y-79942826D01*
X118706081Y-79941102D01*
X118706077Y-79941100D01*
X118489360Y-79864356D01*
X118489356Y-79864355D01*
X118484485Y-79862630D01*
X118479392Y-79861723D01*
X118479389Y-79861722D01*
X118253052Y-79821405D01*
X118253046Y-79821404D01*
X118247963Y-79820499D01*
X118160600Y-79819432D01*
X118012907Y-79817627D01*
X118012905Y-79817627D01*
X118007737Y-79817564D01*
X117770256Y-79853904D01*
X117658003Y-79890594D01*
X117546817Y-79926934D01*
X117546811Y-79926937D01*
X117541899Y-79928542D01*
X117537313Y-79930929D01*
X117537309Y-79930931D01*
X117417741Y-79993175D01*
X117328800Y-80039475D01*
X117324657Y-80042585D01*
X117324658Y-80042585D01*
X117147832Y-80175350D01*
X117136680Y-80183723D01*
X116970699Y-80357412D01*
X116967785Y-80361684D01*
X116838597Y-80551066D01*
X116835314Y-80555878D01*
X116833140Y-80560561D01*
X116833138Y-80560565D01*
X116736342Y-80769095D01*
X116734163Y-80773790D01*
X116669960Y-81005298D01*
X116644431Y-81244182D01*
X114950055Y-81244182D01*
X115015615Y-81156705D01*
X115066745Y-81020316D01*
X115073500Y-80958134D01*
X115073500Y-80115985D01*
X115093502Y-80047864D01*
X115110405Y-80026890D01*
X118626890Y-76510405D01*
X118689202Y-76476379D01*
X118715985Y-76473500D01*
X118840487Y-76473500D01*
X118846939Y-76472128D01*
X118846944Y-76472128D01*
X118933887Y-76453647D01*
X119027288Y-76433794D01*
X119033319Y-76431109D01*
X119195722Y-76358803D01*
X119195724Y-76358802D01*
X119201752Y-76356118D01*
X119207097Y-76352235D01*
X119303975Y-76281848D01*
X119356253Y-76243866D01*
X119388714Y-76207814D01*
X119479621Y-76106852D01*
X119479622Y-76106851D01*
X119484040Y-76101944D01*
X119579527Y-75936556D01*
X119638542Y-75754928D01*
X119658504Y-75565000D01*
X119642569Y-75413385D01*
X119639232Y-75381635D01*
X119639232Y-75381633D01*
X119638542Y-75375072D01*
X119579527Y-75193444D01*
X119564681Y-75167730D01*
X119535681Y-75117500D01*
X119518943Y-75048504D01*
X119542164Y-74981413D01*
X119597971Y-74937526D01*
X119644800Y-74928500D01*
X124381233Y-74928500D01*
X124392416Y-74929027D01*
X124399909Y-74930702D01*
X124407835Y-74930453D01*
X124407836Y-74930453D01*
X124467986Y-74928562D01*
X124471945Y-74928500D01*
X124499856Y-74928500D01*
X124503791Y-74928003D01*
X124503856Y-74927995D01*
X124515693Y-74927062D01*
X124549329Y-74926005D01*
X124551970Y-74925922D01*
X124559889Y-74925673D01*
X124579343Y-74920021D01*
X124598700Y-74916013D01*
X124610930Y-74914468D01*
X124610931Y-74914468D01*
X124618797Y-74913474D01*
X124626168Y-74910555D01*
X124626170Y-74910555D01*
X124659912Y-74897196D01*
X124671142Y-74893351D01*
X124705983Y-74883229D01*
X124705984Y-74883229D01*
X124713593Y-74881018D01*
X124720412Y-74876985D01*
X124720417Y-74876983D01*
X124731028Y-74870707D01*
X124748776Y-74862012D01*
X124767617Y-74854552D01*
X124803387Y-74828564D01*
X124813307Y-74822048D01*
X124844535Y-74803580D01*
X124844538Y-74803578D01*
X124851362Y-74799542D01*
X124865683Y-74785221D01*
X124880717Y-74772380D01*
X124890694Y-74765131D01*
X124897107Y-74760472D01*
X124925298Y-74726395D01*
X124933288Y-74717616D01*
X127739203Y-71911701D01*
X127801515Y-71877675D01*
X127862474Y-71879766D01*
X127864552Y-71880560D01*
X128097928Y-71928041D01*
X128232121Y-71932962D01*
X128330760Y-71936579D01*
X128330764Y-71936579D01*
X128335924Y-71936768D01*
X128341044Y-71936112D01*
X128341046Y-71936112D01*
X128567023Y-71907164D01*
X128567024Y-71907164D01*
X128572151Y-71906507D01*
X128656803Y-71881110D01*
X128795316Y-71839554D01*
X128795317Y-71839553D01*
X128800262Y-71838070D01*
X129014133Y-71733295D01*
X129018336Y-71730297D01*
X129018341Y-71730294D01*
X129203816Y-71597996D01*
X129203818Y-71597994D01*
X129208020Y-71594997D01*
X129376716Y-71426889D01*
X129434979Y-71345807D01*
X129490972Y-71302160D01*
X129561676Y-71295714D01*
X129624640Y-71328516D01*
X129636582Y-71342176D01*
X129637274Y-71343306D01*
X129793204Y-71523317D01*
X129976442Y-71675444D01*
X129980894Y-71678046D01*
X129980899Y-71678049D01*
X130079333Y-71735569D01*
X130182065Y-71795601D01*
X130404552Y-71880560D01*
X130409618Y-71881591D01*
X130409619Y-71881591D01*
X130463956Y-71892646D01*
X130637928Y-71928041D01*
X130772121Y-71932962D01*
X130870760Y-71936579D01*
X130870764Y-71936579D01*
X130875924Y-71936768D01*
X130881044Y-71936112D01*
X130881046Y-71936112D01*
X131107023Y-71907164D01*
X131107024Y-71907164D01*
X131112151Y-71906507D01*
X131196803Y-71881110D01*
X131335316Y-71839554D01*
X131335317Y-71839553D01*
X131340262Y-71838070D01*
X131554133Y-71733295D01*
X131558336Y-71730297D01*
X131558341Y-71730294D01*
X131743816Y-71597996D01*
X131743818Y-71597994D01*
X131748020Y-71594997D01*
X131916716Y-71426889D01*
X131974979Y-71345807D01*
X132030972Y-71302160D01*
X132101676Y-71295714D01*
X132164640Y-71328516D01*
X132176582Y-71342176D01*
X132177274Y-71343306D01*
X132333204Y-71523317D01*
X132516442Y-71675444D01*
X132520894Y-71678046D01*
X132520899Y-71678049D01*
X132619333Y-71735569D01*
X132722065Y-71795601D01*
X132944552Y-71880560D01*
X132949618Y-71881591D01*
X132949619Y-71881591D01*
X133003956Y-71892646D01*
X133177928Y-71928041D01*
X133312121Y-71932962D01*
X133410760Y-71936579D01*
X133410764Y-71936579D01*
X133415924Y-71936768D01*
X133421044Y-71936112D01*
X133421046Y-71936112D01*
X133647023Y-71907164D01*
X133647024Y-71907164D01*
X133652151Y-71906507D01*
X133736803Y-71881110D01*
X133875316Y-71839554D01*
X133875317Y-71839553D01*
X133880262Y-71838070D01*
X134094133Y-71733295D01*
X134098336Y-71730297D01*
X134098341Y-71730294D01*
X134283816Y-71597996D01*
X134283818Y-71597994D01*
X134288020Y-71594997D01*
X134456716Y-71426889D01*
X134514979Y-71345807D01*
X134570972Y-71302160D01*
X134641676Y-71295714D01*
X134704640Y-71328516D01*
X134716582Y-71342176D01*
X134717274Y-71343306D01*
X134873204Y-71523317D01*
X135056442Y-71675444D01*
X135060894Y-71678046D01*
X135060899Y-71678049D01*
X135159333Y-71735569D01*
X135262065Y-71795601D01*
X135484552Y-71880560D01*
X135489618Y-71881591D01*
X135489619Y-71881591D01*
X135543956Y-71892646D01*
X135717928Y-71928041D01*
X135852121Y-71932962D01*
X135950760Y-71936579D01*
X135950764Y-71936579D01*
X135955924Y-71936768D01*
X135961044Y-71936112D01*
X135961046Y-71936112D01*
X136187023Y-71907164D01*
X136187024Y-71907164D01*
X136192151Y-71906507D01*
X136276803Y-71881110D01*
X136415316Y-71839554D01*
X136415317Y-71839553D01*
X136420262Y-71838070D01*
X136634133Y-71733295D01*
X136638336Y-71730297D01*
X136638341Y-71730294D01*
X136823816Y-71597996D01*
X136823818Y-71597994D01*
X136828020Y-71594997D01*
X136996716Y-71426889D01*
X137135690Y-71233486D01*
X137181774Y-71140244D01*
X137238917Y-71024624D01*
X137238918Y-71024622D01*
X137241211Y-71019982D01*
X137310443Y-70792111D01*
X137341529Y-70555992D01*
X137343264Y-70485000D01*
X137323750Y-70247644D01*
X137265731Y-70016663D01*
X137185949Y-69833175D01*
X137172827Y-69802996D01*
X137172825Y-69802993D01*
X137170767Y-69798259D01*
X137153851Y-69772110D01*
X137087424Y-69669431D01*
X137041406Y-69598298D01*
X136881124Y-69422150D01*
X136877073Y-69418951D01*
X136877069Y-69418947D01*
X136698278Y-69277747D01*
X136698273Y-69277744D01*
X136694224Y-69274546D01*
X136689708Y-69272053D01*
X136689705Y-69272051D01*
X136490250Y-69161946D01*
X136490246Y-69161944D01*
X136485726Y-69159449D01*
X136480857Y-69157725D01*
X136480853Y-69157723D01*
X136266105Y-69081676D01*
X136266101Y-69081675D01*
X136261230Y-69079950D01*
X136256140Y-69079043D01*
X136256135Y-69079042D01*
X136128814Y-69056364D01*
X136026764Y-69038186D01*
X135937637Y-69037097D01*
X135793795Y-69035339D01*
X135793793Y-69035339D01*
X135788625Y-69035276D01*
X135553209Y-69071300D01*
X135326838Y-69145289D01*
X135115590Y-69255258D01*
X135111457Y-69258361D01*
X135111454Y-69258363D01*
X134929275Y-69395147D01*
X134925140Y-69398252D01*
X134760602Y-69570431D01*
X134738629Y-69602642D01*
X134725186Y-69622349D01*
X134670274Y-69667351D01*
X134599749Y-69675522D01*
X134536002Y-69644267D01*
X134515306Y-69619784D01*
X134504217Y-69602642D01*
X134504212Y-69602636D01*
X134501406Y-69598298D01*
X134341124Y-69422150D01*
X134337073Y-69418951D01*
X134337069Y-69418947D01*
X134158278Y-69277747D01*
X134158273Y-69277744D01*
X134154224Y-69274546D01*
X134149708Y-69272053D01*
X134149705Y-69272051D01*
X133950250Y-69161946D01*
X133950246Y-69161944D01*
X133945726Y-69159449D01*
X133940857Y-69157725D01*
X133940853Y-69157723D01*
X133726105Y-69081676D01*
X133726101Y-69081675D01*
X133721230Y-69079950D01*
X133716140Y-69079043D01*
X133716135Y-69079042D01*
X133588814Y-69056364D01*
X133486764Y-69038186D01*
X133397637Y-69037097D01*
X133253795Y-69035339D01*
X133253793Y-69035339D01*
X133248625Y-69035276D01*
X133013209Y-69071300D01*
X132786838Y-69145289D01*
X132575590Y-69255258D01*
X132571457Y-69258361D01*
X132571454Y-69258363D01*
X132389275Y-69395147D01*
X132385140Y-69398252D01*
X132220602Y-69570431D01*
X132198629Y-69602642D01*
X132185186Y-69622349D01*
X132130274Y-69667351D01*
X132059749Y-69675522D01*
X131996002Y-69644267D01*
X131975306Y-69619784D01*
X131964217Y-69602642D01*
X131964212Y-69602636D01*
X131961406Y-69598298D01*
X131801124Y-69422150D01*
X131797073Y-69418951D01*
X131797069Y-69418947D01*
X131618278Y-69277747D01*
X131618273Y-69277744D01*
X131614224Y-69274546D01*
X131609708Y-69272053D01*
X131609705Y-69272051D01*
X131410250Y-69161946D01*
X131410246Y-69161944D01*
X131405726Y-69159449D01*
X131400857Y-69157725D01*
X131400853Y-69157723D01*
X131186105Y-69081676D01*
X131186101Y-69081675D01*
X131181230Y-69079950D01*
X131176140Y-69079043D01*
X131176135Y-69079042D01*
X131048814Y-69056364D01*
X130946764Y-69038186D01*
X130857637Y-69037097D01*
X130713795Y-69035339D01*
X130713793Y-69035339D01*
X130708625Y-69035276D01*
X130473209Y-69071300D01*
X130246838Y-69145289D01*
X130035590Y-69255258D01*
X130031457Y-69258361D01*
X130031454Y-69258363D01*
X129849275Y-69395147D01*
X129845140Y-69398252D01*
X129680602Y-69570431D01*
X129658629Y-69602642D01*
X129645186Y-69622349D01*
X129590274Y-69667351D01*
X129519749Y-69675522D01*
X129456002Y-69644267D01*
X129435306Y-69619784D01*
X129424217Y-69602642D01*
X129424212Y-69602636D01*
X129421406Y-69598298D01*
X129261124Y-69422150D01*
X129257073Y-69418951D01*
X129257069Y-69418947D01*
X129078278Y-69277747D01*
X129078273Y-69277744D01*
X129074224Y-69274546D01*
X129069708Y-69272053D01*
X129069705Y-69272051D01*
X128870250Y-69161946D01*
X128870246Y-69161944D01*
X128865726Y-69159449D01*
X128860857Y-69157725D01*
X128860853Y-69157723D01*
X128646105Y-69081676D01*
X128646101Y-69081675D01*
X128641230Y-69079950D01*
X128636140Y-69079043D01*
X128636135Y-69079042D01*
X128508814Y-69056364D01*
X128406764Y-69038186D01*
X128317637Y-69037097D01*
X128173795Y-69035339D01*
X128173793Y-69035339D01*
X128168625Y-69035276D01*
X127933209Y-69071300D01*
X127706838Y-69145289D01*
X127495590Y-69255258D01*
X127491457Y-69258361D01*
X127491454Y-69258363D01*
X127309275Y-69395147D01*
X127305140Y-69398252D01*
X127140602Y-69570431D01*
X127118629Y-69602642D01*
X127105186Y-69622349D01*
X127050274Y-69667351D01*
X126979749Y-69675522D01*
X126916002Y-69644267D01*
X126895306Y-69619784D01*
X126884217Y-69602642D01*
X126884212Y-69602636D01*
X126881406Y-69598298D01*
X126721124Y-69422150D01*
X126717073Y-69418951D01*
X126717069Y-69418947D01*
X126538278Y-69277747D01*
X126538273Y-69277744D01*
X126534224Y-69274546D01*
X126529708Y-69272053D01*
X126529705Y-69272051D01*
X126330250Y-69161946D01*
X126330246Y-69161944D01*
X126325726Y-69159449D01*
X126320857Y-69157725D01*
X126320853Y-69157723D01*
X126106105Y-69081676D01*
X126106101Y-69081675D01*
X126101230Y-69079950D01*
X126096140Y-69079043D01*
X126096135Y-69079042D01*
X125968814Y-69056364D01*
X125866764Y-69038186D01*
X125777637Y-69037097D01*
X125633795Y-69035339D01*
X125633793Y-69035339D01*
X125628625Y-69035276D01*
X125393209Y-69071300D01*
X125166838Y-69145289D01*
X124955590Y-69255258D01*
X124951457Y-69258361D01*
X124951454Y-69258363D01*
X124769275Y-69395147D01*
X124765140Y-69398252D01*
X124600602Y-69570431D01*
X124578629Y-69602642D01*
X124565186Y-69622349D01*
X124510274Y-69667351D01*
X124439749Y-69675522D01*
X124376002Y-69644267D01*
X124355306Y-69619784D01*
X124344217Y-69602642D01*
X124344212Y-69602636D01*
X124341406Y-69598298D01*
X124181124Y-69422150D01*
X124177073Y-69418951D01*
X124177069Y-69418947D01*
X123998278Y-69277747D01*
X123998273Y-69277744D01*
X123994224Y-69274546D01*
X123989708Y-69272053D01*
X123989705Y-69272051D01*
X123790250Y-69161946D01*
X123790246Y-69161944D01*
X123785726Y-69159449D01*
X123780857Y-69157725D01*
X123780853Y-69157723D01*
X123566105Y-69081676D01*
X123566101Y-69081675D01*
X123561230Y-69079950D01*
X123556140Y-69079043D01*
X123556135Y-69079042D01*
X123428814Y-69056364D01*
X123326764Y-69038186D01*
X123237637Y-69037097D01*
X123093795Y-69035339D01*
X123093793Y-69035339D01*
X123088625Y-69035276D01*
X122853209Y-69071300D01*
X122626838Y-69145289D01*
X122415590Y-69255258D01*
X122411457Y-69258361D01*
X122411454Y-69258363D01*
X122229275Y-69395147D01*
X122225140Y-69398252D01*
X122060602Y-69570431D01*
X122038629Y-69602642D01*
X122025186Y-69622349D01*
X121970274Y-69667351D01*
X121899749Y-69675522D01*
X121836002Y-69644267D01*
X121815306Y-69619784D01*
X121804217Y-69602642D01*
X121804212Y-69602636D01*
X121801406Y-69598298D01*
X121641124Y-69422150D01*
X121637073Y-69418951D01*
X121637069Y-69418947D01*
X121458278Y-69277747D01*
X121458273Y-69277744D01*
X121454224Y-69274546D01*
X121449708Y-69272053D01*
X121449705Y-69272051D01*
X121250250Y-69161946D01*
X121250246Y-69161944D01*
X121245726Y-69159449D01*
X121240857Y-69157725D01*
X121240853Y-69157723D01*
X121026105Y-69081676D01*
X121026101Y-69081675D01*
X121021230Y-69079950D01*
X121016140Y-69079043D01*
X121016135Y-69079042D01*
X120888814Y-69056364D01*
X120786764Y-69038186D01*
X120697637Y-69037097D01*
X120553795Y-69035339D01*
X120553793Y-69035339D01*
X120548625Y-69035276D01*
X120313209Y-69071300D01*
X120086838Y-69145289D01*
X119875590Y-69255258D01*
X119871457Y-69258361D01*
X119871454Y-69258363D01*
X119689275Y-69395147D01*
X119685140Y-69398252D01*
X119520602Y-69570431D01*
X119498629Y-69602642D01*
X119485186Y-69622349D01*
X119430274Y-69667351D01*
X119359749Y-69675522D01*
X119296002Y-69644267D01*
X119275306Y-69619784D01*
X119264217Y-69602642D01*
X119264212Y-69602636D01*
X119261406Y-69598298D01*
X119101124Y-69422150D01*
X119097073Y-69418951D01*
X119097069Y-69418947D01*
X118918278Y-69277747D01*
X118918273Y-69277744D01*
X118914224Y-69274546D01*
X118909708Y-69272053D01*
X118909705Y-69272051D01*
X118710250Y-69161946D01*
X118710246Y-69161944D01*
X118705726Y-69159449D01*
X118700857Y-69157725D01*
X118700853Y-69157723D01*
X118486105Y-69081676D01*
X118486101Y-69081675D01*
X118481230Y-69079950D01*
X118476140Y-69079043D01*
X118476135Y-69079042D01*
X118348814Y-69056364D01*
X118246764Y-69038186D01*
X118157637Y-69037097D01*
X118013795Y-69035339D01*
X118013793Y-69035339D01*
X118008625Y-69035276D01*
X117773209Y-69071300D01*
X117546838Y-69145289D01*
X117335590Y-69255258D01*
X117331457Y-69258361D01*
X117331454Y-69258363D01*
X117149275Y-69395147D01*
X117145140Y-69398252D01*
X116980602Y-69570431D01*
X116958629Y-69602642D01*
X116945186Y-69622349D01*
X116890274Y-69667351D01*
X116819749Y-69675522D01*
X116756002Y-69644267D01*
X116735306Y-69619784D01*
X116724217Y-69602642D01*
X116724212Y-69602636D01*
X116721406Y-69598298D01*
X116561124Y-69422150D01*
X116557073Y-69418951D01*
X116557069Y-69418947D01*
X116378278Y-69277747D01*
X116378273Y-69277744D01*
X116374224Y-69274546D01*
X116369708Y-69272053D01*
X116369705Y-69272051D01*
X116170250Y-69161946D01*
X116170246Y-69161944D01*
X116165726Y-69159449D01*
X116160857Y-69157725D01*
X116160853Y-69157723D01*
X115946105Y-69081676D01*
X115946101Y-69081675D01*
X115941230Y-69079950D01*
X115936140Y-69079043D01*
X115936135Y-69079042D01*
X115808814Y-69056364D01*
X115706764Y-69038186D01*
X115617637Y-69037097D01*
X115473795Y-69035339D01*
X115473793Y-69035339D01*
X115468625Y-69035276D01*
X115233209Y-69071300D01*
X115006838Y-69145289D01*
X114795590Y-69255258D01*
X114791457Y-69258361D01*
X114791454Y-69258363D01*
X114609275Y-69395147D01*
X114605140Y-69398252D01*
X114440602Y-69570431D01*
X114418629Y-69602642D01*
X114405186Y-69622349D01*
X114350274Y-69667351D01*
X114279749Y-69675522D01*
X114216002Y-69644267D01*
X114195306Y-69619784D01*
X114184217Y-69602642D01*
X114184212Y-69602636D01*
X114181406Y-69598298D01*
X114021124Y-69422150D01*
X114017073Y-69418951D01*
X114017069Y-69418947D01*
X113838278Y-69277747D01*
X113838273Y-69277744D01*
X113834224Y-69274546D01*
X113829708Y-69272053D01*
X113829705Y-69272051D01*
X113630250Y-69161946D01*
X113630246Y-69161944D01*
X113625726Y-69159449D01*
X113620857Y-69157725D01*
X113620853Y-69157723D01*
X113406105Y-69081676D01*
X113406101Y-69081675D01*
X113401230Y-69079950D01*
X113396140Y-69079043D01*
X113396135Y-69079042D01*
X113268814Y-69056364D01*
X113166764Y-69038186D01*
X113077637Y-69037097D01*
X112933795Y-69035339D01*
X112933793Y-69035339D01*
X112928625Y-69035276D01*
X112693209Y-69071300D01*
X112466838Y-69145289D01*
X112255590Y-69255258D01*
X112251457Y-69258361D01*
X112251454Y-69258363D01*
X112069275Y-69395147D01*
X112065140Y-69398252D01*
X111900602Y-69570431D01*
X111878629Y-69602642D01*
X111865186Y-69622349D01*
X111810274Y-69667351D01*
X111739749Y-69675522D01*
X111676002Y-69644267D01*
X111655306Y-69619784D01*
X111644217Y-69602642D01*
X111644212Y-69602636D01*
X111641406Y-69598298D01*
X111481124Y-69422150D01*
X111477073Y-69418951D01*
X111477069Y-69418947D01*
X111298278Y-69277747D01*
X111298273Y-69277744D01*
X111294224Y-69274546D01*
X111289708Y-69272053D01*
X111289705Y-69272051D01*
X111090250Y-69161946D01*
X111090246Y-69161944D01*
X111085726Y-69159449D01*
X111080857Y-69157725D01*
X111080853Y-69157723D01*
X110866105Y-69081676D01*
X110866101Y-69081675D01*
X110861230Y-69079950D01*
X110856140Y-69079043D01*
X110856135Y-69079042D01*
X110728814Y-69056364D01*
X110626764Y-69038186D01*
X110537637Y-69037097D01*
X110393795Y-69035339D01*
X110393793Y-69035339D01*
X110388625Y-69035276D01*
X110153209Y-69071300D01*
X109926838Y-69145289D01*
X109715590Y-69255258D01*
X109711457Y-69258361D01*
X109711454Y-69258363D01*
X109529275Y-69395147D01*
X109525140Y-69398252D01*
X109360602Y-69570431D01*
X109318064Y-69632790D01*
X109263155Y-69677790D01*
X109192631Y-69685961D01*
X109140940Y-69661588D01*
X109138940Y-69661307D01*
X109127755Y-69666456D01*
X108322021Y-70472189D01*
X108314408Y-70486132D01*
X108314539Y-70487966D01*
X108318790Y-70494580D01*
X109124826Y-71300615D01*
X109138096Y-71307861D01*
X109200005Y-71284078D01*
X109269523Y-71298490D01*
X109311899Y-71335245D01*
X109314574Y-71338899D01*
X109317274Y-71343306D01*
X109473204Y-71523317D01*
X109656442Y-71675444D01*
X109660894Y-71678046D01*
X109660899Y-71678049D01*
X109759333Y-71735569D01*
X109862065Y-71795601D01*
X110084552Y-71880560D01*
X110089618Y-71881591D01*
X110089619Y-71881591D01*
X110143956Y-71892646D01*
X110317928Y-71928041D01*
X110452121Y-71932962D01*
X110550760Y-71936579D01*
X110550764Y-71936579D01*
X110555924Y-71936768D01*
X110561044Y-71936112D01*
X110561046Y-71936112D01*
X110787023Y-71907164D01*
X110787024Y-71907164D01*
X110792151Y-71906507D01*
X110876803Y-71881110D01*
X111015316Y-71839554D01*
X111015317Y-71839553D01*
X111020262Y-71838070D01*
X111234133Y-71733295D01*
X111238336Y-71730297D01*
X111238341Y-71730294D01*
X111423816Y-71597996D01*
X111423818Y-71597994D01*
X111428020Y-71594997D01*
X111596716Y-71426889D01*
X111654979Y-71345807D01*
X111710972Y-71302160D01*
X111781676Y-71295714D01*
X111844640Y-71328516D01*
X111856582Y-71342176D01*
X111857274Y-71343306D01*
X112013204Y-71523317D01*
X112196442Y-71675444D01*
X112200894Y-71678046D01*
X112200899Y-71678049D01*
X112299333Y-71735569D01*
X112402065Y-71795601D01*
X112624552Y-71880560D01*
X112629618Y-71881591D01*
X112629619Y-71881591D01*
X112683956Y-71892646D01*
X112857928Y-71928041D01*
X112992121Y-71932962D01*
X113090760Y-71936579D01*
X113090764Y-71936579D01*
X113095924Y-71936768D01*
X113101044Y-71936112D01*
X113101046Y-71936112D01*
X113327023Y-71907164D01*
X113327024Y-71907164D01*
X113332151Y-71906507D01*
X113416803Y-71881110D01*
X113555316Y-71839554D01*
X113555317Y-71839553D01*
X113560262Y-71838070D01*
X113774133Y-71733295D01*
X113778336Y-71730297D01*
X113778341Y-71730294D01*
X113963816Y-71597996D01*
X113963818Y-71597994D01*
X113968020Y-71594997D01*
X114136716Y-71426889D01*
X114194979Y-71345807D01*
X114250972Y-71302160D01*
X114321676Y-71295714D01*
X114384640Y-71328516D01*
X114396582Y-71342176D01*
X114397274Y-71343306D01*
X114553204Y-71523317D01*
X114736442Y-71675444D01*
X114740894Y-71678046D01*
X114740899Y-71678049D01*
X114839333Y-71735569D01*
X114942065Y-71795601D01*
X115164552Y-71880560D01*
X115169618Y-71881591D01*
X115169619Y-71881591D01*
X115223956Y-71892646D01*
X115397928Y-71928041D01*
X115532121Y-71932962D01*
X115630760Y-71936579D01*
X115630764Y-71936579D01*
X115635924Y-71936768D01*
X115641044Y-71936112D01*
X115641046Y-71936112D01*
X115867023Y-71907164D01*
X115867024Y-71907164D01*
X115872151Y-71906507D01*
X115956803Y-71881110D01*
X116095316Y-71839554D01*
X116095317Y-71839553D01*
X116100262Y-71838070D01*
X116314133Y-71733295D01*
X116318336Y-71730297D01*
X116318341Y-71730294D01*
X116503816Y-71597996D01*
X116503818Y-71597994D01*
X116508020Y-71594997D01*
X116676716Y-71426889D01*
X116734979Y-71345807D01*
X116790972Y-71302160D01*
X116861676Y-71295714D01*
X116924640Y-71328516D01*
X116936582Y-71342176D01*
X116937274Y-71343306D01*
X117093204Y-71523317D01*
X117276442Y-71675444D01*
X117280894Y-71678046D01*
X117280899Y-71678049D01*
X117379333Y-71735569D01*
X117482065Y-71795601D01*
X117704552Y-71880560D01*
X117709618Y-71881591D01*
X117709619Y-71881591D01*
X117763956Y-71892646D01*
X117937928Y-71928041D01*
X118072121Y-71932962D01*
X118170760Y-71936579D01*
X118170764Y-71936579D01*
X118175924Y-71936768D01*
X118181044Y-71936112D01*
X118181046Y-71936112D01*
X118407023Y-71907164D01*
X118407024Y-71907164D01*
X118412151Y-71906507D01*
X118496803Y-71881110D01*
X118635316Y-71839554D01*
X118635317Y-71839553D01*
X118640262Y-71838070D01*
X118854133Y-71733295D01*
X118858336Y-71730297D01*
X118858341Y-71730294D01*
X119043816Y-71597996D01*
X119043818Y-71597994D01*
X119048020Y-71594997D01*
X119216716Y-71426889D01*
X119274979Y-71345807D01*
X119330972Y-71302160D01*
X119401676Y-71295714D01*
X119464640Y-71328516D01*
X119476582Y-71342176D01*
X119477274Y-71343306D01*
X119633204Y-71523317D01*
X119816442Y-71675444D01*
X119820894Y-71678046D01*
X119820899Y-71678049D01*
X119919333Y-71735569D01*
X120022065Y-71795601D01*
X120244552Y-71880560D01*
X120249618Y-71881591D01*
X120249619Y-71881591D01*
X120303956Y-71892646D01*
X120477928Y-71928041D01*
X120612121Y-71932962D01*
X120710760Y-71936579D01*
X120710764Y-71936579D01*
X120715924Y-71936768D01*
X120721044Y-71936112D01*
X120721046Y-71936112D01*
X120947023Y-71907164D01*
X120947024Y-71907164D01*
X120952151Y-71906507D01*
X121036803Y-71881110D01*
X121175316Y-71839554D01*
X121175317Y-71839553D01*
X121180262Y-71838070D01*
X121394133Y-71733295D01*
X121398336Y-71730297D01*
X121398341Y-71730294D01*
X121583816Y-71597996D01*
X121583818Y-71597994D01*
X121588020Y-71594997D01*
X121756716Y-71426889D01*
X121814979Y-71345807D01*
X121870972Y-71302160D01*
X121941676Y-71295714D01*
X122004640Y-71328516D01*
X122016582Y-71342176D01*
X122017274Y-71343306D01*
X122173204Y-71523317D01*
X122356442Y-71675444D01*
X122360894Y-71678046D01*
X122360899Y-71678049D01*
X122459333Y-71735569D01*
X122562065Y-71795601D01*
X122784552Y-71880560D01*
X122789618Y-71881591D01*
X122789619Y-71881591D01*
X122843956Y-71892646D01*
X123017928Y-71928041D01*
X123152121Y-71932962D01*
X123250760Y-71936579D01*
X123250764Y-71936579D01*
X123255924Y-71936768D01*
X123261044Y-71936112D01*
X123261046Y-71936112D01*
X123487023Y-71907164D01*
X123487024Y-71907164D01*
X123492151Y-71906507D01*
X123576803Y-71881110D01*
X123715316Y-71839554D01*
X123715317Y-71839553D01*
X123720262Y-71838070D01*
X123934133Y-71733295D01*
X123938336Y-71730297D01*
X123938341Y-71730294D01*
X124123816Y-71597996D01*
X124123818Y-71597994D01*
X124128020Y-71594997D01*
X124296716Y-71426889D01*
X124354979Y-71345807D01*
X124410972Y-71302160D01*
X124481676Y-71295714D01*
X124544640Y-71328516D01*
X124556582Y-71342176D01*
X124557274Y-71343306D01*
X124713204Y-71523317D01*
X124896442Y-71675444D01*
X124900894Y-71678046D01*
X124900899Y-71678049D01*
X124999333Y-71735569D01*
X125102065Y-71795601D01*
X125324552Y-71880560D01*
X125329618Y-71881591D01*
X125329619Y-71881591D01*
X125383956Y-71892646D01*
X125557928Y-71928041D01*
X125605379Y-71929781D01*
X125628963Y-71930646D01*
X125696305Y-71953131D01*
X125740800Y-72008454D01*
X125748322Y-72079051D01*
X125713440Y-72145656D01*
X124912277Y-72946818D01*
X124234500Y-73624595D01*
X124172188Y-73658621D01*
X124145405Y-73661500D01*
X118823767Y-73661500D01*
X118812584Y-73660973D01*
X118805091Y-73659298D01*
X118797165Y-73659547D01*
X118797164Y-73659547D01*
X118737001Y-73661438D01*
X118733043Y-73661500D01*
X118705144Y-73661500D01*
X118701154Y-73662004D01*
X118689320Y-73662936D01*
X118645111Y-73664326D01*
X118637497Y-73666538D01*
X118637492Y-73666539D01*
X118625659Y-73669977D01*
X118606296Y-73673988D01*
X118586203Y-73676526D01*
X118578836Y-73679443D01*
X118578831Y-73679444D01*
X118545092Y-73692802D01*
X118533865Y-73696646D01*
X118491407Y-73708982D01*
X118484581Y-73713019D01*
X118473972Y-73719293D01*
X118456224Y-73727988D01*
X118437383Y-73735448D01*
X118430967Y-73740110D01*
X118430966Y-73740110D01*
X118401613Y-73761436D01*
X118391693Y-73767952D01*
X118360465Y-73786420D01*
X118360462Y-73786422D01*
X118353638Y-73790458D01*
X118339317Y-73804779D01*
X118324284Y-73817619D01*
X118307893Y-73829528D01*
X118302842Y-73835634D01*
X118279702Y-73863605D01*
X118271712Y-73872384D01*
X116889500Y-75254595D01*
X116827188Y-75288621D01*
X116800405Y-75291500D01*
X116744513Y-75291500D01*
X116738061Y-75292872D01*
X116738056Y-75292872D01*
X116651113Y-75311353D01*
X116557712Y-75331206D01*
X116551682Y-75333891D01*
X116551681Y-75333891D01*
X116389278Y-75406197D01*
X116389276Y-75406198D01*
X116383248Y-75408882D01*
X116228747Y-75521134D01*
X116100960Y-75663056D01*
X116005473Y-75828444D01*
X115946458Y-76010072D01*
X115945768Y-76016633D01*
X115945768Y-76016635D01*
X115929902Y-76167595D01*
X115926496Y-76200000D01*
X115927186Y-76206565D01*
X115943187Y-76358803D01*
X115946458Y-76389928D01*
X116005473Y-76571556D01*
X116008776Y-76577278D01*
X116008777Y-76577279D01*
X116085973Y-76710987D01*
X116100960Y-76736944D01*
X116103389Y-76739642D01*
X116126876Y-76805470D01*
X116110794Y-76874621D01*
X116090176Y-76901757D01*
X114427338Y-78564595D01*
X114365026Y-78598621D01*
X114338243Y-78601500D01*
X112716866Y-78601500D01*
X112654684Y-78608255D01*
X112518295Y-78659385D01*
X112401739Y-78746739D01*
X112314385Y-78863295D01*
X112311234Y-78871701D01*
X112311231Y-78871706D01*
X112299906Y-78901917D01*
X112257266Y-78958682D01*
X112190704Y-78983383D01*
X112121355Y-78968176D01*
X112103832Y-78956571D01*
X112099459Y-78953117D01*
X112034628Y-78901917D01*
X111951177Y-78836011D01*
X111951172Y-78836008D01*
X111947123Y-78832810D01*
X111942607Y-78830317D01*
X111942604Y-78830315D01*
X111748879Y-78723373D01*
X111748875Y-78723371D01*
X111744355Y-78720876D01*
X111739486Y-78719152D01*
X111739482Y-78719150D01*
X111530903Y-78645288D01*
X111530899Y-78645287D01*
X111526028Y-78643562D01*
X111520935Y-78642655D01*
X111520932Y-78642654D01*
X111303095Y-78603851D01*
X111303089Y-78603850D01*
X111298006Y-78602945D01*
X111225096Y-78602054D01*
X111071581Y-78600179D01*
X111071579Y-78600179D01*
X111066411Y-78600116D01*
X110837464Y-78635150D01*
X110617314Y-78707106D01*
X110612726Y-78709494D01*
X110612722Y-78709496D01*
X110416461Y-78811663D01*
X110411872Y-78814052D01*
X110407739Y-78817155D01*
X110407736Y-78817157D01*
X110230790Y-78950012D01*
X110226655Y-78953117D01*
X110223083Y-78956855D01*
X110076448Y-79110300D01*
X110066639Y-79120564D01*
X110019836Y-79189174D01*
X109964927Y-79234175D01*
X109894402Y-79242346D01*
X109830655Y-79211092D01*
X109809959Y-79186609D01*
X109787577Y-79152013D01*
X109787576Y-79152012D01*
X109784764Y-79147665D01*
X109628887Y-78976358D01*
X109624836Y-78973159D01*
X109624832Y-78973155D01*
X109451177Y-78836011D01*
X109451172Y-78836008D01*
X109447123Y-78832810D01*
X109442607Y-78830317D01*
X109442604Y-78830315D01*
X109248879Y-78723373D01*
X109248875Y-78723371D01*
X109244355Y-78720876D01*
X109239486Y-78719152D01*
X109239482Y-78719150D01*
X109030903Y-78645288D01*
X109030899Y-78645287D01*
X109026028Y-78643562D01*
X109020935Y-78642655D01*
X109020932Y-78642654D01*
X108803095Y-78603851D01*
X108803089Y-78603850D01*
X108798006Y-78602945D01*
X108725096Y-78602054D01*
X108571581Y-78600179D01*
X108571579Y-78600179D01*
X108566411Y-78600116D01*
X108337464Y-78635150D01*
X108117314Y-78707106D01*
X108112726Y-78709494D01*
X108112722Y-78709496D01*
X107916461Y-78811663D01*
X107911872Y-78814052D01*
X107907739Y-78817155D01*
X107907736Y-78817157D01*
X107730790Y-78950012D01*
X107726655Y-78953117D01*
X107723083Y-78956855D01*
X107576448Y-79110300D01*
X107566639Y-79120564D01*
X107563730Y-79124829D01*
X107563724Y-79124837D01*
X107548152Y-79147665D01*
X107436119Y-79311899D01*
X107338602Y-79521981D01*
X107276707Y-79745169D01*
X107252095Y-79975469D01*
X105918500Y-79975469D01*
X105918500Y-73975469D01*
X107252095Y-73975469D01*
X107252392Y-73980622D01*
X107252392Y-73980625D01*
X107259946Y-74111635D01*
X107265427Y-74206697D01*
X107266564Y-74211743D01*
X107266565Y-74211749D01*
X107298741Y-74354523D01*
X107316346Y-74432642D01*
X107318288Y-74437424D01*
X107318289Y-74437428D01*
X107401540Y-74642450D01*
X107403484Y-74647237D01*
X107524501Y-74844719D01*
X107676147Y-75019784D01*
X107854349Y-75167730D01*
X108054322Y-75284584D01*
X108270694Y-75367209D01*
X108275760Y-75368240D01*
X108275761Y-75368240D01*
X108309342Y-75375072D01*
X108497656Y-75413385D01*
X108628324Y-75418176D01*
X108723949Y-75421683D01*
X108723953Y-75421683D01*
X108729113Y-75421872D01*
X108734233Y-75421216D01*
X108734235Y-75421216D01*
X108830514Y-75408882D01*
X108958847Y-75392442D01*
X108963795Y-75390957D01*
X108963802Y-75390956D01*
X109175747Y-75327369D01*
X109180690Y-75325886D01*
X109185324Y-75323616D01*
X109384049Y-75226262D01*
X109384052Y-75226260D01*
X109388684Y-75223991D01*
X109577243Y-75089494D01*
X109741303Y-74926005D01*
X109750308Y-74913474D01*
X109804840Y-74837584D01*
X109810370Y-74829888D01*
X109866365Y-74786240D01*
X109937068Y-74779794D01*
X110000033Y-74812597D01*
X110020128Y-74837584D01*
X110021799Y-74840311D01*
X110021804Y-74840317D01*
X110024501Y-74844719D01*
X110176147Y-75019784D01*
X110354349Y-75167730D01*
X110554322Y-75284584D01*
X110770694Y-75367209D01*
X110775760Y-75368240D01*
X110775761Y-75368240D01*
X110809342Y-75375072D01*
X110997656Y-75413385D01*
X111128324Y-75418176D01*
X111223949Y-75421683D01*
X111223953Y-75421683D01*
X111229113Y-75421872D01*
X111234233Y-75421216D01*
X111234235Y-75421216D01*
X111330514Y-75408882D01*
X111458847Y-75392442D01*
X111463795Y-75390957D01*
X111463802Y-75390956D01*
X111675747Y-75327369D01*
X111680690Y-75325886D01*
X111685324Y-75323616D01*
X111884049Y-75226262D01*
X111884052Y-75226260D01*
X111888684Y-75223991D01*
X112077243Y-75089494D01*
X112241303Y-74926005D01*
X112250308Y-74913474D01*
X112304840Y-74837584D01*
X112310370Y-74829888D01*
X112366365Y-74786240D01*
X112437068Y-74779794D01*
X112500033Y-74812597D01*
X112520128Y-74837584D01*
X112521799Y-74840311D01*
X112521804Y-74840317D01*
X112524501Y-74844719D01*
X112676147Y-75019784D01*
X112854349Y-75167730D01*
X113054322Y-75284584D01*
X113270694Y-75367209D01*
X113275760Y-75368240D01*
X113275761Y-75368240D01*
X113309342Y-75375072D01*
X113497656Y-75413385D01*
X113628324Y-75418176D01*
X113723949Y-75421683D01*
X113723953Y-75421683D01*
X113729113Y-75421872D01*
X113734233Y-75421216D01*
X113734235Y-75421216D01*
X113830514Y-75408882D01*
X113958847Y-75392442D01*
X113963795Y-75390957D01*
X113963802Y-75390956D01*
X114175747Y-75327369D01*
X114180690Y-75325886D01*
X114185324Y-75323616D01*
X114384049Y-75226262D01*
X114384052Y-75226260D01*
X114388684Y-75223991D01*
X114577243Y-75089494D01*
X114741303Y-74926005D01*
X114750308Y-74913474D01*
X114804840Y-74837584D01*
X114876458Y-74737917D01*
X114882153Y-74726395D01*
X114976784Y-74534922D01*
X114976785Y-74534920D01*
X114979078Y-74530280D01*
X115046408Y-74308671D01*
X115076640Y-74079041D01*
X115078327Y-74010000D01*
X115071880Y-73931580D01*
X115059773Y-73784318D01*
X115059772Y-73784312D01*
X115059349Y-73779167D01*
X115020741Y-73625460D01*
X115004184Y-73559544D01*
X115004183Y-73559540D01*
X115002925Y-73554533D01*
X115000012Y-73547833D01*
X114912630Y-73346868D01*
X114912628Y-73346865D01*
X114910570Y-73342131D01*
X114784764Y-73147665D01*
X114628887Y-72976358D01*
X114624836Y-72973159D01*
X114624832Y-72973155D01*
X114451177Y-72836011D01*
X114451172Y-72836008D01*
X114447123Y-72832810D01*
X114442607Y-72830317D01*
X114442604Y-72830315D01*
X114248879Y-72723373D01*
X114248875Y-72723371D01*
X114244355Y-72720876D01*
X114239486Y-72719152D01*
X114239482Y-72719150D01*
X114030903Y-72645288D01*
X114030899Y-72645287D01*
X114026028Y-72643562D01*
X114020935Y-72642655D01*
X114020932Y-72642654D01*
X113803095Y-72603851D01*
X113803089Y-72603850D01*
X113798006Y-72602945D01*
X113725096Y-72602054D01*
X113571581Y-72600179D01*
X113571579Y-72600179D01*
X113566411Y-72600116D01*
X113337464Y-72635150D01*
X113117314Y-72707106D01*
X113112726Y-72709494D01*
X113112722Y-72709496D01*
X112916461Y-72811663D01*
X112911872Y-72814052D01*
X112907739Y-72817155D01*
X112907736Y-72817157D01*
X112882625Y-72836011D01*
X112726655Y-72953117D01*
X112566639Y-73120564D01*
X112519836Y-73189174D01*
X112464927Y-73234175D01*
X112394402Y-73242346D01*
X112330655Y-73211092D01*
X112309959Y-73186609D01*
X112287577Y-73152013D01*
X112287574Y-73152009D01*
X112284764Y-73147665D01*
X112128887Y-72976358D01*
X112124836Y-72973159D01*
X112124832Y-72973155D01*
X111951177Y-72836011D01*
X111951172Y-72836008D01*
X111947123Y-72832810D01*
X111942607Y-72830317D01*
X111942604Y-72830315D01*
X111748879Y-72723373D01*
X111748875Y-72723371D01*
X111744355Y-72720876D01*
X111739486Y-72719152D01*
X111739482Y-72719150D01*
X111530903Y-72645288D01*
X111530899Y-72645287D01*
X111526028Y-72643562D01*
X111520935Y-72642655D01*
X111520932Y-72642654D01*
X111303095Y-72603851D01*
X111303089Y-72603850D01*
X111298006Y-72602945D01*
X111225096Y-72602054D01*
X111071581Y-72600179D01*
X111071579Y-72600179D01*
X111066411Y-72600116D01*
X110837464Y-72635150D01*
X110617314Y-72707106D01*
X110612726Y-72709494D01*
X110612722Y-72709496D01*
X110416461Y-72811663D01*
X110411872Y-72814052D01*
X110407739Y-72817155D01*
X110407736Y-72817157D01*
X110382625Y-72836011D01*
X110226655Y-72953117D01*
X110066639Y-73120564D01*
X110019836Y-73189174D01*
X109964927Y-73234175D01*
X109894402Y-73242346D01*
X109830655Y-73211092D01*
X109809959Y-73186609D01*
X109787577Y-73152013D01*
X109787574Y-73152009D01*
X109784764Y-73147665D01*
X109628887Y-72976358D01*
X109624836Y-72973159D01*
X109624832Y-72973155D01*
X109451177Y-72836011D01*
X109451172Y-72836008D01*
X109447123Y-72832810D01*
X109442607Y-72830317D01*
X109442604Y-72830315D01*
X109248879Y-72723373D01*
X109248875Y-72723371D01*
X109244355Y-72720876D01*
X109239486Y-72719152D01*
X109239482Y-72719150D01*
X109030903Y-72645288D01*
X109030899Y-72645287D01*
X109026028Y-72643562D01*
X109020935Y-72642655D01*
X109020932Y-72642654D01*
X108803095Y-72603851D01*
X108803089Y-72603850D01*
X108798006Y-72602945D01*
X108725096Y-72602054D01*
X108571581Y-72600179D01*
X108571579Y-72600179D01*
X108566411Y-72600116D01*
X108337464Y-72635150D01*
X108117314Y-72707106D01*
X108112726Y-72709494D01*
X108112722Y-72709496D01*
X107916461Y-72811663D01*
X107911872Y-72814052D01*
X107907739Y-72817155D01*
X107907736Y-72817157D01*
X107882625Y-72836011D01*
X107726655Y-72953117D01*
X107566639Y-73120564D01*
X107563730Y-73124829D01*
X107563724Y-73124837D01*
X107548152Y-73147665D01*
X107436119Y-73311899D01*
X107338602Y-73521981D01*
X107276707Y-73745169D01*
X107252095Y-73975469D01*
X105918500Y-73975469D01*
X105918500Y-71675503D01*
X107124326Y-71675503D01*
X107129607Y-71682558D01*
X107317821Y-71792541D01*
X107327108Y-71796991D01*
X107539861Y-71878233D01*
X107549763Y-71881110D01*
X107772911Y-71926510D01*
X107783163Y-71927733D01*
X108010738Y-71936077D01*
X108021024Y-71935610D01*
X108246915Y-71906673D01*
X108257001Y-71904530D01*
X108475128Y-71839088D01*
X108484723Y-71835328D01*
X108689237Y-71735137D01*
X108698083Y-71729863D01*
X108763631Y-71683108D01*
X108772032Y-71672408D01*
X108765045Y-71659256D01*
X107962811Y-70857021D01*
X107948868Y-70849408D01*
X107947034Y-70849539D01*
X107940420Y-70853790D01*
X107131083Y-71663128D01*
X107124326Y-71675503D01*
X105918500Y-71675503D01*
X105918500Y-70454662D01*
X106497969Y-70454662D01*
X106511078Y-70682017D01*
X106512514Y-70692237D01*
X106562580Y-70914393D01*
X106565659Y-70924221D01*
X106651338Y-71135223D01*
X106655991Y-71144434D01*
X106751153Y-71299723D01*
X106761611Y-71309185D01*
X106770387Y-71305402D01*
X107577979Y-70497811D01*
X107585592Y-70483868D01*
X107585461Y-70482034D01*
X107581210Y-70475420D01*
X106775220Y-69669431D01*
X106763688Y-69663134D01*
X106751406Y-69672757D01*
X106689747Y-69763146D01*
X106684654Y-69772110D01*
X106588768Y-69978679D01*
X106585211Y-69988347D01*
X106524352Y-70207797D01*
X106522421Y-70217916D01*
X106498221Y-70444373D01*
X106497969Y-70454662D01*
X105918500Y-70454662D01*
X105918500Y-69297285D01*
X107127081Y-69297285D01*
X107133825Y-69309614D01*
X107937189Y-70112979D01*
X107951132Y-70120592D01*
X107952966Y-70120461D01*
X107959580Y-70116210D01*
X108767331Y-69308458D01*
X108774348Y-69295607D01*
X108766574Y-69284937D01*
X108758004Y-69278169D01*
X108749417Y-69272464D01*
X108550055Y-69162410D01*
X108540643Y-69158180D01*
X108325971Y-69082160D01*
X108316014Y-69079530D01*
X108091805Y-69039591D01*
X108081554Y-69038622D01*
X107853830Y-69035840D01*
X107843546Y-69036560D01*
X107618437Y-69071006D01*
X107608410Y-69073395D01*
X107391951Y-69144144D01*
X107382442Y-69148141D01*
X107180451Y-69253292D01*
X107171716Y-69258793D01*
X107135535Y-69285958D01*
X107127081Y-69297285D01*
X105918500Y-69297285D01*
X105918500Y-62230000D01*
X136881496Y-62230000D01*
X136882186Y-62236565D01*
X136900019Y-62406233D01*
X136901458Y-62419928D01*
X136960473Y-62601556D01*
X136963776Y-62607278D01*
X136963777Y-62607279D01*
X136997686Y-62666010D01*
X137055960Y-62766944D01*
X137060378Y-62771851D01*
X137060379Y-62771852D01*
X137179325Y-62903955D01*
X137183747Y-62908866D01*
X137338248Y-63021118D01*
X137344276Y-63023802D01*
X137344278Y-63023803D01*
X137398500Y-63047944D01*
X137512712Y-63098794D01*
X137606113Y-63118647D01*
X137693056Y-63137128D01*
X137693061Y-63137128D01*
X137699513Y-63138500D01*
X137890487Y-63138500D01*
X137896939Y-63137128D01*
X137896944Y-63137128D01*
X138039303Y-63106868D01*
X138110094Y-63112270D01*
X138166726Y-63155087D01*
X138191220Y-63221724D01*
X138191500Y-63230115D01*
X138191500Y-64908134D01*
X138198255Y-64970316D01*
X138249385Y-65106705D01*
X138336739Y-65223261D01*
X138453295Y-65310615D01*
X138453450Y-65310673D01*
X138500463Y-65357791D01*
X138515478Y-65427182D01*
X138490594Y-65493675D01*
X138485619Y-65499886D01*
X138479443Y-65507117D01*
X138473643Y-65515101D01*
X138354795Y-65709042D01*
X138350313Y-65717837D01*
X138263266Y-65927988D01*
X138260217Y-65937373D01*
X138207115Y-66158554D01*
X138205572Y-66168301D01*
X138187725Y-66395070D01*
X138187725Y-66404930D01*
X138205572Y-66631699D01*
X138207115Y-66641446D01*
X138260217Y-66862627D01*
X138263266Y-66872012D01*
X138350313Y-67082163D01*
X138354795Y-67090958D01*
X138457432Y-67258445D01*
X138467890Y-67267907D01*
X138476666Y-67264124D01*
X139610905Y-66129885D01*
X139673217Y-66095859D01*
X139744032Y-66100924D01*
X139789095Y-66129885D01*
X140920290Y-67261080D01*
X140932670Y-67267840D01*
X140940320Y-67262113D01*
X141045205Y-67090958D01*
X141049687Y-67082163D01*
X141136734Y-66872012D01*
X141139783Y-66862627D01*
X141192885Y-66641446D01*
X141194428Y-66631699D01*
X141212275Y-66404930D01*
X163587725Y-66404930D01*
X163605572Y-66631699D01*
X163607115Y-66641446D01*
X163660217Y-66862627D01*
X163663266Y-66872012D01*
X163750313Y-67082163D01*
X163754795Y-67090958D01*
X163857432Y-67258445D01*
X163867890Y-67267907D01*
X163876666Y-67264124D01*
X164727978Y-66412812D01*
X164734356Y-66401132D01*
X165464408Y-66401132D01*
X165464539Y-66402965D01*
X165468790Y-66409580D01*
X166320290Y-67261080D01*
X166332670Y-67267840D01*
X166340320Y-67262113D01*
X166445205Y-67090958D01*
X166449687Y-67082163D01*
X166536734Y-66872012D01*
X166539783Y-66862627D01*
X166592885Y-66641446D01*
X166594428Y-66631699D01*
X166612275Y-66404930D01*
X166612275Y-66395070D01*
X166594428Y-66168301D01*
X166592885Y-66158554D01*
X166539783Y-65937373D01*
X166536734Y-65927988D01*
X166449687Y-65717837D01*
X166445205Y-65709042D01*
X166342568Y-65541555D01*
X166332110Y-65532093D01*
X166323334Y-65535876D01*
X165472022Y-66387188D01*
X165464408Y-66401132D01*
X164734356Y-66401132D01*
X164735592Y-66398868D01*
X164735461Y-66397035D01*
X164731210Y-66390420D01*
X163879710Y-65538920D01*
X163867330Y-65532160D01*
X163859680Y-65537887D01*
X163754795Y-65709042D01*
X163750313Y-65717837D01*
X163663266Y-65927988D01*
X163660217Y-65937373D01*
X163607115Y-66158554D01*
X163605572Y-66168301D01*
X163587725Y-66395070D01*
X163587725Y-66404930D01*
X141212275Y-66404930D01*
X141212275Y-66395070D01*
X141194428Y-66168301D01*
X141192885Y-66158554D01*
X141139783Y-65937373D01*
X141136734Y-65927988D01*
X141049687Y-65717837D01*
X141045205Y-65709042D01*
X140926357Y-65515101D01*
X140920557Y-65507117D01*
X140914381Y-65499886D01*
X140885349Y-65435096D01*
X140895953Y-65364896D01*
X140942177Y-65312312D01*
X140946705Y-65310615D01*
X141063261Y-65223261D01*
X141150615Y-65106705D01*
X141201745Y-64970316D01*
X141208500Y-64908134D01*
X141208500Y-63860000D01*
X163586835Y-63860000D01*
X163605465Y-64096711D01*
X163660895Y-64327594D01*
X163751760Y-64546963D01*
X163754346Y-64551183D01*
X163873241Y-64745202D01*
X163873245Y-64745208D01*
X163875824Y-64749416D01*
X164030031Y-64929969D01*
X164033787Y-64933177D01*
X164033792Y-64933182D01*
X164186616Y-65063706D01*
X164225426Y-65123156D01*
X164227640Y-65157558D01*
X164235877Y-65176667D01*
X165087188Y-66027978D01*
X165101132Y-66035592D01*
X165102965Y-66035461D01*
X165109580Y-66031210D01*
X165961080Y-65179710D01*
X165970260Y-65162898D01*
X165984020Y-65099650D01*
X166012776Y-65064225D01*
X166166213Y-64933177D01*
X166169969Y-64929969D01*
X166324176Y-64749416D01*
X166326755Y-64745208D01*
X166326759Y-64745202D01*
X166445654Y-64551183D01*
X166448240Y-64546963D01*
X166539105Y-64327594D01*
X166594535Y-64096711D01*
X166613165Y-63860000D01*
X166594535Y-63623289D01*
X166539105Y-63392406D01*
X166537211Y-63387833D01*
X166450135Y-63177611D01*
X166450133Y-63177607D01*
X166448240Y-63173037D01*
X166411002Y-63112270D01*
X166326759Y-62974798D01*
X166326755Y-62974792D01*
X166324176Y-62970584D01*
X166169969Y-62790031D01*
X165989416Y-62635824D01*
X165985208Y-62633245D01*
X165985202Y-62633241D01*
X165791183Y-62514346D01*
X165786963Y-62511760D01*
X165782393Y-62509867D01*
X165782389Y-62509865D01*
X165572167Y-62422789D01*
X165572165Y-62422788D01*
X165567594Y-62420895D01*
X165487391Y-62401640D01*
X165341524Y-62366620D01*
X165341518Y-62366619D01*
X165336711Y-62365465D01*
X165100000Y-62346835D01*
X164863289Y-62365465D01*
X164858482Y-62366619D01*
X164858476Y-62366620D01*
X164712609Y-62401640D01*
X164632406Y-62420895D01*
X164627835Y-62422788D01*
X164627833Y-62422789D01*
X164417611Y-62509865D01*
X164417607Y-62509867D01*
X164413037Y-62511760D01*
X164408817Y-62514346D01*
X164214798Y-62633241D01*
X164214792Y-62633245D01*
X164210584Y-62635824D01*
X164030031Y-62790031D01*
X163875824Y-62970584D01*
X163873245Y-62974792D01*
X163873241Y-62974798D01*
X163788998Y-63112270D01*
X163751760Y-63173037D01*
X163749867Y-63177607D01*
X163749865Y-63177611D01*
X163662789Y-63387833D01*
X163660895Y-63392406D01*
X163605465Y-63623289D01*
X163586835Y-63860000D01*
X141208500Y-63860000D01*
X141208500Y-62811866D01*
X141201745Y-62749684D01*
X141150615Y-62613295D01*
X141063261Y-62496739D01*
X140946705Y-62409385D01*
X140810316Y-62358255D01*
X140748134Y-62351500D01*
X139050371Y-62351500D01*
X138982250Y-62331498D01*
X138935757Y-62277842D01*
X138925653Y-62207568D01*
X138955147Y-62142988D01*
X138961276Y-62136405D01*
X141247276Y-59850405D01*
X141309588Y-59816379D01*
X141336371Y-59813500D01*
X142332413Y-59813500D01*
X142406472Y-59837563D01*
X142412902Y-59842235D01*
X142412909Y-59842239D01*
X142418248Y-59846118D01*
X142424276Y-59848802D01*
X142424278Y-59848803D01*
X142586681Y-59921109D01*
X142592712Y-59923794D01*
X142686112Y-59943647D01*
X142773056Y-59962128D01*
X142773061Y-59962128D01*
X142779513Y-59963500D01*
X142970487Y-59963500D01*
X142976939Y-59962128D01*
X142976944Y-59962128D01*
X143063888Y-59943647D01*
X143157288Y-59923794D01*
X143163319Y-59921109D01*
X143325722Y-59848803D01*
X143325724Y-59848802D01*
X143331752Y-59846118D01*
X143337097Y-59842235D01*
X143387157Y-59805864D01*
X143486253Y-59733866D01*
X143614040Y-59591944D01*
X143709527Y-59426556D01*
X143768542Y-59244928D01*
X143788504Y-59055000D01*
X143768542Y-58865072D01*
X143709527Y-58683444D01*
X143614040Y-58518056D01*
X143574783Y-58474456D01*
X143490675Y-58381045D01*
X143490674Y-58381044D01*
X143486253Y-58376134D01*
X143376647Y-58296500D01*
X143337094Y-58267763D01*
X143337093Y-58267762D01*
X143331752Y-58263882D01*
X143325724Y-58261198D01*
X143325722Y-58261197D01*
X143163319Y-58188891D01*
X143163318Y-58188891D01*
X143157288Y-58186206D01*
X143063887Y-58166353D01*
X142976944Y-58147872D01*
X142976939Y-58147872D01*
X142970487Y-58146500D01*
X142779513Y-58146500D01*
X142773061Y-58147872D01*
X142773056Y-58147872D01*
X142686113Y-58166353D01*
X142592712Y-58186206D01*
X142586682Y-58188891D01*
X142586681Y-58188891D01*
X142424278Y-58261197D01*
X142424276Y-58261198D01*
X142418248Y-58263882D01*
X142412909Y-58267761D01*
X142412902Y-58267765D01*
X142406472Y-58272437D01*
X142332413Y-58296500D01*
X141037070Y-58296500D01*
X141018120Y-58295067D01*
X141003885Y-58292901D01*
X141003881Y-58292901D01*
X140996651Y-58291801D01*
X140989359Y-58292394D01*
X140989356Y-58292394D01*
X140943982Y-58296085D01*
X140933767Y-58296500D01*
X140925707Y-58296500D01*
X140912417Y-58298049D01*
X140897493Y-58299789D01*
X140893118Y-58300222D01*
X140827661Y-58305546D01*
X140827658Y-58305547D01*
X140820363Y-58306140D01*
X140813399Y-58308396D01*
X140807440Y-58309587D01*
X140801585Y-58310971D01*
X140794319Y-58311818D01*
X140725673Y-58336735D01*
X140721545Y-58338152D01*
X140659064Y-58358393D01*
X140659062Y-58358394D01*
X140652101Y-58360649D01*
X140645846Y-58364445D01*
X140640372Y-58366951D01*
X140634942Y-58369670D01*
X140628063Y-58372167D01*
X140621943Y-58376180D01*
X140621942Y-58376180D01*
X140567024Y-58412186D01*
X140563320Y-58414523D01*
X140500893Y-58452405D01*
X140492516Y-58459803D01*
X140492492Y-58459776D01*
X140489500Y-58462429D01*
X140486267Y-58465132D01*
X140480148Y-58469144D01*
X140475116Y-58474456D01*
X140426872Y-58525383D01*
X140424494Y-58527825D01*
X137638669Y-61313650D01*
X137575772Y-61347801D01*
X137519176Y-61359831D01*
X137519167Y-61359834D01*
X137512712Y-61361206D01*
X137506682Y-61363891D01*
X137506681Y-61363891D01*
X137344278Y-61436197D01*
X137344276Y-61436198D01*
X137338248Y-61438882D01*
X137183747Y-61551134D01*
X137055960Y-61693056D01*
X136960473Y-61858444D01*
X136901458Y-62040072D01*
X136881496Y-62230000D01*
X105918500Y-62230000D01*
X105918500Y-55209494D01*
X106497170Y-55209494D01*
X106510879Y-55447255D01*
X106512016Y-55452301D01*
X106512017Y-55452307D01*
X106533156Y-55546107D01*
X106563237Y-55679585D01*
X106565179Y-55684367D01*
X106565180Y-55684371D01*
X106625990Y-55834127D01*
X106652837Y-55900244D01*
X106777274Y-56103306D01*
X106933204Y-56283317D01*
X107116442Y-56435444D01*
X107120894Y-56438046D01*
X107120899Y-56438049D01*
X107264865Y-56522176D01*
X107322065Y-56555601D01*
X107544552Y-56640560D01*
X107549618Y-56641591D01*
X107549619Y-56641591D01*
X107591177Y-56650046D01*
X107777928Y-56688041D01*
X107911284Y-56692931D01*
X108010760Y-56696579D01*
X108010764Y-56696579D01*
X108015924Y-56696768D01*
X108021044Y-56696112D01*
X108021046Y-56696112D01*
X108247023Y-56667164D01*
X108247024Y-56667164D01*
X108252151Y-56666507D01*
X108279863Y-56658193D01*
X108475316Y-56599554D01*
X108475317Y-56599553D01*
X108480262Y-56598070D01*
X108694133Y-56493295D01*
X108698336Y-56490297D01*
X108698341Y-56490294D01*
X108883816Y-56357996D01*
X108883818Y-56357994D01*
X108888020Y-56354997D01*
X109056716Y-56186889D01*
X109114979Y-56105807D01*
X109170972Y-56062160D01*
X109241676Y-56055714D01*
X109304640Y-56088516D01*
X109316582Y-56102176D01*
X109317274Y-56103306D01*
X109473204Y-56283317D01*
X109656442Y-56435444D01*
X109660894Y-56438046D01*
X109660899Y-56438049D01*
X109804865Y-56522176D01*
X109862065Y-56555601D01*
X110084552Y-56640560D01*
X110089618Y-56641591D01*
X110089619Y-56641591D01*
X110131177Y-56650046D01*
X110317928Y-56688041D01*
X110451284Y-56692931D01*
X110550760Y-56696579D01*
X110550764Y-56696579D01*
X110555924Y-56696768D01*
X110561044Y-56696112D01*
X110561046Y-56696112D01*
X110787023Y-56667164D01*
X110787024Y-56667164D01*
X110792151Y-56666507D01*
X110819863Y-56658193D01*
X111015316Y-56599554D01*
X111015317Y-56599553D01*
X111020262Y-56598070D01*
X111234133Y-56493295D01*
X111238336Y-56490297D01*
X111238341Y-56490294D01*
X111423816Y-56357996D01*
X111423818Y-56357994D01*
X111428020Y-56354997D01*
X111596716Y-56186889D01*
X111654979Y-56105807D01*
X111710972Y-56062160D01*
X111781676Y-56055714D01*
X111844640Y-56088516D01*
X111856582Y-56102176D01*
X111857274Y-56103306D01*
X112013204Y-56283317D01*
X112196442Y-56435444D01*
X112200894Y-56438046D01*
X112200899Y-56438049D01*
X112344865Y-56522176D01*
X112402065Y-56555601D01*
X112624552Y-56640560D01*
X112629618Y-56641591D01*
X112629619Y-56641591D01*
X112671177Y-56650046D01*
X112857928Y-56688041D01*
X112991284Y-56692931D01*
X113090760Y-56696579D01*
X113090764Y-56696579D01*
X113095924Y-56696768D01*
X113101044Y-56696112D01*
X113101046Y-56696112D01*
X113327023Y-56667164D01*
X113327024Y-56667164D01*
X113332151Y-56666507D01*
X113359863Y-56658193D01*
X113555316Y-56599554D01*
X113555317Y-56599553D01*
X113560262Y-56598070D01*
X113774133Y-56493295D01*
X113778336Y-56490297D01*
X113778341Y-56490294D01*
X113963816Y-56357996D01*
X113963818Y-56357994D01*
X113968020Y-56354997D01*
X114136716Y-56186889D01*
X114194979Y-56105807D01*
X114250972Y-56062160D01*
X114321676Y-56055714D01*
X114384640Y-56088516D01*
X114396582Y-56102176D01*
X114397274Y-56103306D01*
X114553204Y-56283317D01*
X114736442Y-56435444D01*
X114740894Y-56438046D01*
X114740899Y-56438049D01*
X114884865Y-56522176D01*
X114942065Y-56555601D01*
X115164552Y-56640560D01*
X115169618Y-56641591D01*
X115169619Y-56641591D01*
X115211177Y-56650046D01*
X115397928Y-56688041D01*
X115531284Y-56692931D01*
X115630760Y-56696579D01*
X115630764Y-56696579D01*
X115635924Y-56696768D01*
X115641044Y-56696112D01*
X115641046Y-56696112D01*
X115867023Y-56667164D01*
X115867024Y-56667164D01*
X115872151Y-56666507D01*
X115899863Y-56658193D01*
X116095316Y-56599554D01*
X116095317Y-56599553D01*
X116100262Y-56598070D01*
X116314133Y-56493295D01*
X116318336Y-56490297D01*
X116318341Y-56490294D01*
X116503816Y-56357996D01*
X116503818Y-56357994D01*
X116508020Y-56354997D01*
X116676716Y-56186889D01*
X116734979Y-56105807D01*
X116790972Y-56062160D01*
X116861676Y-56055714D01*
X116924640Y-56088516D01*
X116936582Y-56102176D01*
X116937274Y-56103306D01*
X117093204Y-56283317D01*
X117276442Y-56435444D01*
X117280894Y-56438046D01*
X117280899Y-56438049D01*
X117424865Y-56522176D01*
X117482065Y-56555601D01*
X117704552Y-56640560D01*
X117709618Y-56641591D01*
X117709619Y-56641591D01*
X117751177Y-56650046D01*
X117937928Y-56688041D01*
X118071284Y-56692931D01*
X118170760Y-56696579D01*
X118170764Y-56696579D01*
X118175924Y-56696768D01*
X118181044Y-56696112D01*
X118181046Y-56696112D01*
X118407023Y-56667164D01*
X118407024Y-56667164D01*
X118412151Y-56666507D01*
X118439863Y-56658193D01*
X118635316Y-56599554D01*
X118635317Y-56599553D01*
X118640262Y-56598070D01*
X118854133Y-56493295D01*
X118858336Y-56490297D01*
X118858341Y-56490294D01*
X119043816Y-56357996D01*
X119043818Y-56357994D01*
X119048020Y-56354997D01*
X119216716Y-56186889D01*
X119274979Y-56105807D01*
X119330972Y-56062160D01*
X119401676Y-56055714D01*
X119464640Y-56088516D01*
X119476582Y-56102176D01*
X119477274Y-56103306D01*
X119633204Y-56283317D01*
X119816442Y-56435444D01*
X119820894Y-56438046D01*
X119820899Y-56438049D01*
X119964865Y-56522176D01*
X120022065Y-56555601D01*
X120244552Y-56640560D01*
X120249618Y-56641591D01*
X120249619Y-56641591D01*
X120291177Y-56650046D01*
X120477928Y-56688041D01*
X120611284Y-56692931D01*
X120710760Y-56696579D01*
X120710764Y-56696579D01*
X120715924Y-56696768D01*
X120721044Y-56696112D01*
X120721046Y-56696112D01*
X120947023Y-56667164D01*
X120947024Y-56667164D01*
X120952151Y-56666507D01*
X120979863Y-56658193D01*
X121175316Y-56599554D01*
X121175317Y-56599553D01*
X121180262Y-56598070D01*
X121394133Y-56493295D01*
X121398336Y-56490297D01*
X121398341Y-56490294D01*
X121583816Y-56357996D01*
X121583818Y-56357994D01*
X121588020Y-56354997D01*
X121756716Y-56186889D01*
X121814979Y-56105807D01*
X121870972Y-56062160D01*
X121941676Y-56055714D01*
X122004640Y-56088516D01*
X122016582Y-56102176D01*
X122017274Y-56103306D01*
X122173204Y-56283317D01*
X122356442Y-56435444D01*
X122360894Y-56438046D01*
X122360899Y-56438049D01*
X122504865Y-56522176D01*
X122562065Y-56555601D01*
X122784552Y-56640560D01*
X122789618Y-56641591D01*
X122789619Y-56641591D01*
X122831177Y-56650046D01*
X123017928Y-56688041D01*
X123151284Y-56692931D01*
X123250760Y-56696579D01*
X123250764Y-56696579D01*
X123255924Y-56696768D01*
X123261044Y-56696112D01*
X123261046Y-56696112D01*
X123487023Y-56667164D01*
X123487024Y-56667164D01*
X123492151Y-56666507D01*
X123519863Y-56658193D01*
X123715316Y-56599554D01*
X123715317Y-56599553D01*
X123720262Y-56598070D01*
X123934133Y-56493295D01*
X123938336Y-56490297D01*
X123938341Y-56490294D01*
X124123816Y-56357996D01*
X124123818Y-56357994D01*
X124128020Y-56354997D01*
X124296716Y-56186889D01*
X124354979Y-56105807D01*
X124410972Y-56062160D01*
X124481676Y-56055714D01*
X124544640Y-56088516D01*
X124556582Y-56102176D01*
X124557274Y-56103306D01*
X124713204Y-56283317D01*
X124896442Y-56435444D01*
X124900894Y-56438046D01*
X124900899Y-56438049D01*
X125044865Y-56522176D01*
X125102065Y-56555601D01*
X125324552Y-56640560D01*
X125329618Y-56641591D01*
X125329619Y-56641591D01*
X125371177Y-56650046D01*
X125557928Y-56688041D01*
X125691284Y-56692931D01*
X125790760Y-56696579D01*
X125790764Y-56696579D01*
X125795924Y-56696768D01*
X125801044Y-56696112D01*
X125801046Y-56696112D01*
X126027023Y-56667164D01*
X126027024Y-56667164D01*
X126032151Y-56666507D01*
X126059863Y-56658193D01*
X126255316Y-56599554D01*
X126255317Y-56599553D01*
X126260262Y-56598070D01*
X126474133Y-56493295D01*
X126478336Y-56490297D01*
X126478341Y-56490294D01*
X126663816Y-56357996D01*
X126663818Y-56357994D01*
X126668020Y-56354997D01*
X126836716Y-56186889D01*
X126894979Y-56105807D01*
X126950972Y-56062160D01*
X127021676Y-56055714D01*
X127084640Y-56088516D01*
X127096582Y-56102176D01*
X127097274Y-56103306D01*
X127253204Y-56283317D01*
X127436442Y-56435444D01*
X127440894Y-56438046D01*
X127440899Y-56438049D01*
X127584865Y-56522176D01*
X127642065Y-56555601D01*
X127864552Y-56640560D01*
X127869618Y-56641591D01*
X127869619Y-56641591D01*
X127911177Y-56650046D01*
X128097928Y-56688041D01*
X128231284Y-56692931D01*
X128330760Y-56696579D01*
X128330764Y-56696579D01*
X128335924Y-56696768D01*
X128341044Y-56696112D01*
X128341046Y-56696112D01*
X128567023Y-56667164D01*
X128567024Y-56667164D01*
X128572151Y-56666507D01*
X128599863Y-56658193D01*
X128795316Y-56599554D01*
X128795317Y-56599553D01*
X128800262Y-56598070D01*
X129014133Y-56493295D01*
X129018336Y-56490297D01*
X129018341Y-56490294D01*
X129203816Y-56357996D01*
X129203818Y-56357994D01*
X129208020Y-56354997D01*
X129376716Y-56186889D01*
X129434979Y-56105807D01*
X129490972Y-56062160D01*
X129561676Y-56055714D01*
X129624640Y-56088516D01*
X129636582Y-56102176D01*
X129637274Y-56103306D01*
X129793204Y-56283317D01*
X129976442Y-56435444D01*
X129980894Y-56438046D01*
X129980899Y-56438049D01*
X130124865Y-56522176D01*
X130182065Y-56555601D01*
X130404552Y-56640560D01*
X130409618Y-56641591D01*
X130409619Y-56641591D01*
X130451177Y-56650046D01*
X130637928Y-56688041D01*
X130771284Y-56692931D01*
X130870760Y-56696579D01*
X130870764Y-56696579D01*
X130875924Y-56696768D01*
X130881044Y-56696112D01*
X130881046Y-56696112D01*
X131107023Y-56667164D01*
X131107024Y-56667164D01*
X131112151Y-56666507D01*
X131139863Y-56658193D01*
X131335316Y-56599554D01*
X131335317Y-56599553D01*
X131340262Y-56598070D01*
X131554133Y-56493295D01*
X131558336Y-56490297D01*
X131558341Y-56490294D01*
X131743816Y-56357996D01*
X131743818Y-56357994D01*
X131748020Y-56354997D01*
X131916716Y-56186889D01*
X131974979Y-56105807D01*
X132030972Y-56062160D01*
X132101676Y-56055714D01*
X132164640Y-56088516D01*
X132176582Y-56102176D01*
X132177274Y-56103306D01*
X132333204Y-56283317D01*
X132516442Y-56435444D01*
X132520894Y-56438046D01*
X132520899Y-56438049D01*
X132664865Y-56522176D01*
X132722065Y-56555601D01*
X132944552Y-56640560D01*
X132949618Y-56641591D01*
X132949619Y-56641591D01*
X132991177Y-56650046D01*
X133177928Y-56688041D01*
X133311284Y-56692931D01*
X133410760Y-56696579D01*
X133410764Y-56696579D01*
X133415924Y-56696768D01*
X133421044Y-56696112D01*
X133421046Y-56696112D01*
X133647023Y-56667164D01*
X133647024Y-56667164D01*
X133652151Y-56666507D01*
X133679863Y-56658193D01*
X133875316Y-56599554D01*
X133875317Y-56599553D01*
X133880262Y-56598070D01*
X134094133Y-56493295D01*
X134098336Y-56490297D01*
X134098341Y-56490294D01*
X134283810Y-56358000D01*
X134288020Y-56354997D01*
X134290601Y-56352425D01*
X134355135Y-56323913D01*
X134425278Y-56334886D01*
X134478355Y-56382039D01*
X134489502Y-56404610D01*
X134499585Y-56431505D01*
X134586939Y-56548061D01*
X134703495Y-56635415D01*
X134839884Y-56686545D01*
X134902066Y-56693300D01*
X136877934Y-56693300D01*
X136940116Y-56686545D01*
X137076505Y-56635415D01*
X137193061Y-56548061D01*
X137280415Y-56431505D01*
X137331545Y-56295116D01*
X137338300Y-56232934D01*
X137338300Y-55829733D01*
X138107822Y-55829733D01*
X138107975Y-55834121D01*
X138107975Y-55834127D01*
X138117463Y-56105808D01*
X138117625Y-56110458D01*
X138118387Y-56114781D01*
X138118388Y-56114788D01*
X138142164Y-56249624D01*
X138166402Y-56387087D01*
X138253203Y-56654235D01*
X138255131Y-56658188D01*
X138255133Y-56658193D01*
X138273948Y-56696768D01*
X138376340Y-56906702D01*
X138378795Y-56910341D01*
X138378798Y-56910347D01*
X138451890Y-57018710D01*
X138533415Y-57139576D01*
X138721371Y-57348322D01*
X138936550Y-57528879D01*
X139174764Y-57677731D01*
X139431375Y-57791982D01*
X139701390Y-57869407D01*
X139705740Y-57870018D01*
X139705743Y-57870019D01*
X139808690Y-57884487D01*
X139979552Y-57908500D01*
X140190146Y-57908500D01*
X140192332Y-57908347D01*
X140192336Y-57908347D01*
X140395827Y-57894118D01*
X140395832Y-57894117D01*
X140400212Y-57893811D01*
X140674970Y-57835409D01*
X140679099Y-57833906D01*
X140679103Y-57833905D01*
X140934781Y-57740846D01*
X140934785Y-57740844D01*
X140938926Y-57739337D01*
X141186942Y-57607464D01*
X141291896Y-57531211D01*
X141410629Y-57444947D01*
X141410632Y-57444944D01*
X141414192Y-57442358D01*
X141616252Y-57247231D01*
X141789188Y-57025882D01*
X141791384Y-57022078D01*
X141791389Y-57022071D01*
X141927435Y-56786431D01*
X141929636Y-56782619D01*
X142034862Y-56522176D01*
X142059565Y-56423097D01*
X142101753Y-56253893D01*
X142101754Y-56253888D01*
X142102817Y-56249624D01*
X142104215Y-56236331D01*
X142131719Y-55974636D01*
X142131719Y-55974633D01*
X142132178Y-55970267D01*
X142132025Y-55965873D01*
X142127271Y-55829733D01*
X162617822Y-55829733D01*
X162617975Y-55834121D01*
X162617975Y-55834127D01*
X162627463Y-56105808D01*
X162627625Y-56110458D01*
X162628387Y-56114781D01*
X162628388Y-56114788D01*
X162652164Y-56249624D01*
X162676402Y-56387087D01*
X162763203Y-56654235D01*
X162765131Y-56658188D01*
X162765133Y-56658193D01*
X162783948Y-56696768D01*
X162886340Y-56906702D01*
X162888795Y-56910341D01*
X162888798Y-56910347D01*
X162961890Y-57018710D01*
X163043415Y-57139576D01*
X163231371Y-57348322D01*
X163446550Y-57528879D01*
X163684764Y-57677731D01*
X163941375Y-57791982D01*
X164211390Y-57869407D01*
X164215740Y-57870018D01*
X164215743Y-57870019D01*
X164318690Y-57884487D01*
X164489552Y-57908500D01*
X164700146Y-57908500D01*
X164702332Y-57908347D01*
X164702336Y-57908347D01*
X164905827Y-57894118D01*
X164905832Y-57894117D01*
X164910212Y-57893811D01*
X165184970Y-57835409D01*
X165189099Y-57833906D01*
X165189103Y-57833905D01*
X165444781Y-57740846D01*
X165444785Y-57740844D01*
X165448926Y-57739337D01*
X165696942Y-57607464D01*
X165801896Y-57531211D01*
X165920629Y-57444947D01*
X165920632Y-57444944D01*
X165924192Y-57442358D01*
X166126252Y-57247231D01*
X166299188Y-57025882D01*
X166301384Y-57022078D01*
X166301389Y-57022071D01*
X166437435Y-56786431D01*
X166439636Y-56782619D01*
X166544862Y-56522176D01*
X166569565Y-56423097D01*
X166611753Y-56253893D01*
X166611754Y-56253888D01*
X166612817Y-56249624D01*
X166614215Y-56236331D01*
X166641719Y-55974636D01*
X166641719Y-55974633D01*
X166642178Y-55970267D01*
X166642025Y-55965873D01*
X166632529Y-55693939D01*
X166632528Y-55693933D01*
X166632375Y-55689542D01*
X166631464Y-55684371D01*
X166584360Y-55417236D01*
X166583598Y-55412913D01*
X166496797Y-55145765D01*
X166373660Y-54893298D01*
X166371205Y-54889659D01*
X166371202Y-54889653D01*
X166269245Y-54738496D01*
X166216585Y-54660424D01*
X166028629Y-54451678D01*
X165813450Y-54271121D01*
X165575236Y-54122269D01*
X165341860Y-54018363D01*
X165322639Y-54009805D01*
X165322637Y-54009804D01*
X165318625Y-54008018D01*
X165113218Y-53949119D01*
X165052837Y-53931805D01*
X165052836Y-53931805D01*
X165048610Y-53930593D01*
X165044260Y-53929982D01*
X165044257Y-53929981D01*
X164941310Y-53915513D01*
X164770448Y-53891500D01*
X164559854Y-53891500D01*
X164557668Y-53891653D01*
X164557664Y-53891653D01*
X164354173Y-53905882D01*
X164354168Y-53905883D01*
X164349788Y-53906189D01*
X164075030Y-53964591D01*
X164070901Y-53966094D01*
X164070897Y-53966095D01*
X163815219Y-54059154D01*
X163815215Y-54059156D01*
X163811074Y-54060663D01*
X163563058Y-54192536D01*
X163559499Y-54195122D01*
X163559497Y-54195123D01*
X163340173Y-54354471D01*
X163335808Y-54357642D01*
X163133748Y-54552769D01*
X163049639Y-54660424D01*
X162981075Y-54748183D01*
X162960812Y-54774118D01*
X162958616Y-54777922D01*
X162958611Y-54777929D01*
X162849046Y-54967702D01*
X162820364Y-55017381D01*
X162715138Y-55277824D01*
X162714073Y-55282097D01*
X162714072Y-55282099D01*
X162680379Y-55417236D01*
X162647183Y-55550376D01*
X162646724Y-55554744D01*
X162646723Y-55554749D01*
X162633603Y-55679585D01*
X162617822Y-55829733D01*
X142127271Y-55829733D01*
X142122529Y-55693939D01*
X142122528Y-55693933D01*
X142122375Y-55689542D01*
X142121464Y-55684371D01*
X142074360Y-55417236D01*
X142073598Y-55412913D01*
X141986797Y-55145765D01*
X141863660Y-54893298D01*
X141861205Y-54889659D01*
X141861202Y-54889653D01*
X141759245Y-54738496D01*
X141706585Y-54660424D01*
X141518629Y-54451678D01*
X141303450Y-54271121D01*
X141065236Y-54122269D01*
X140831860Y-54018363D01*
X140812639Y-54009805D01*
X140812637Y-54009804D01*
X140808625Y-54008018D01*
X140603218Y-53949119D01*
X140542837Y-53931805D01*
X140542836Y-53931805D01*
X140538610Y-53930593D01*
X140534260Y-53929982D01*
X140534257Y-53929981D01*
X140431310Y-53915513D01*
X140260448Y-53891500D01*
X140049854Y-53891500D01*
X140047668Y-53891653D01*
X140047664Y-53891653D01*
X139844173Y-53905882D01*
X139844168Y-53905883D01*
X139839788Y-53906189D01*
X139565030Y-53964591D01*
X139560901Y-53966094D01*
X139560897Y-53966095D01*
X139305219Y-54059154D01*
X139305215Y-54059156D01*
X139301074Y-54060663D01*
X139053058Y-54192536D01*
X139049499Y-54195122D01*
X139049497Y-54195123D01*
X138830173Y-54354471D01*
X138825808Y-54357642D01*
X138623748Y-54552769D01*
X138539639Y-54660424D01*
X138471075Y-54748183D01*
X138450812Y-54774118D01*
X138448616Y-54777922D01*
X138448611Y-54777929D01*
X138339046Y-54967702D01*
X138310364Y-55017381D01*
X138205138Y-55277824D01*
X138204073Y-55282097D01*
X138204072Y-55282099D01*
X138170379Y-55417236D01*
X138137183Y-55550376D01*
X138136724Y-55554744D01*
X138136723Y-55554749D01*
X138123603Y-55679585D01*
X138107822Y-55829733D01*
X137338300Y-55829733D01*
X137338300Y-54257066D01*
X137331545Y-54194884D01*
X137280415Y-54058495D01*
X137193061Y-53941939D01*
X137076505Y-53854585D01*
X136940116Y-53803455D01*
X136877934Y-53796700D01*
X134902066Y-53796700D01*
X134839884Y-53803455D01*
X134703495Y-53854585D01*
X134586939Y-53941939D01*
X134499585Y-54058495D01*
X134496433Y-54066903D01*
X134488218Y-54088816D01*
X134445576Y-54145580D01*
X134379014Y-54170280D01*
X134309666Y-54155072D01*
X134292144Y-54143468D01*
X134158278Y-54037747D01*
X134158273Y-54037744D01*
X134154224Y-54034546D01*
X134149708Y-54032053D01*
X134149705Y-54032051D01*
X133950250Y-53921946D01*
X133950246Y-53921944D01*
X133945726Y-53919449D01*
X133940857Y-53917725D01*
X133940853Y-53917723D01*
X133726105Y-53841676D01*
X133726101Y-53841675D01*
X133721230Y-53839950D01*
X133716140Y-53839043D01*
X133716135Y-53839042D01*
X133588814Y-53816364D01*
X133486764Y-53798186D01*
X133395355Y-53797069D01*
X133253795Y-53795339D01*
X133253793Y-53795339D01*
X133248625Y-53795276D01*
X133013209Y-53831300D01*
X132786838Y-53905289D01*
X132575590Y-54015258D01*
X132571457Y-54018361D01*
X132571454Y-54018363D01*
X132389375Y-54155072D01*
X132385140Y-54158252D01*
X132220602Y-54330431D01*
X132199954Y-54360700D01*
X132185186Y-54382349D01*
X132130274Y-54427351D01*
X132059749Y-54435522D01*
X131996002Y-54404267D01*
X131975306Y-54379784D01*
X131964217Y-54362642D01*
X131964212Y-54362636D01*
X131961406Y-54358298D01*
X131801124Y-54182150D01*
X131797073Y-54178951D01*
X131797069Y-54178947D01*
X131618278Y-54037747D01*
X131618273Y-54037744D01*
X131614224Y-54034546D01*
X131609708Y-54032053D01*
X131609705Y-54032051D01*
X131410250Y-53921946D01*
X131410246Y-53921944D01*
X131405726Y-53919449D01*
X131400857Y-53917725D01*
X131400853Y-53917723D01*
X131186105Y-53841676D01*
X131186101Y-53841675D01*
X131181230Y-53839950D01*
X131176140Y-53839043D01*
X131176135Y-53839042D01*
X131048814Y-53816364D01*
X130946764Y-53798186D01*
X130855355Y-53797069D01*
X130713795Y-53795339D01*
X130713793Y-53795339D01*
X130708625Y-53795276D01*
X130473209Y-53831300D01*
X130246838Y-53905289D01*
X130035590Y-54015258D01*
X130031457Y-54018361D01*
X130031454Y-54018363D01*
X129849375Y-54155072D01*
X129845140Y-54158252D01*
X129680602Y-54330431D01*
X129659954Y-54360700D01*
X129645186Y-54382349D01*
X129590274Y-54427351D01*
X129519749Y-54435522D01*
X129456002Y-54404267D01*
X129435306Y-54379784D01*
X129424217Y-54362642D01*
X129424212Y-54362636D01*
X129421406Y-54358298D01*
X129261124Y-54182150D01*
X129257073Y-54178951D01*
X129257069Y-54178947D01*
X129078278Y-54037747D01*
X129078273Y-54037744D01*
X129074224Y-54034546D01*
X129069708Y-54032053D01*
X129069705Y-54032051D01*
X128870250Y-53921946D01*
X128870246Y-53921944D01*
X128865726Y-53919449D01*
X128860857Y-53917725D01*
X128860853Y-53917723D01*
X128646105Y-53841676D01*
X128646101Y-53841675D01*
X128641230Y-53839950D01*
X128636140Y-53839043D01*
X128636135Y-53839042D01*
X128508814Y-53816364D01*
X128406764Y-53798186D01*
X128315355Y-53797069D01*
X128173795Y-53795339D01*
X128173793Y-53795339D01*
X128168625Y-53795276D01*
X127933209Y-53831300D01*
X127706838Y-53905289D01*
X127495590Y-54015258D01*
X127491457Y-54018361D01*
X127491454Y-54018363D01*
X127309375Y-54155072D01*
X127305140Y-54158252D01*
X127140602Y-54330431D01*
X127119954Y-54360700D01*
X127105186Y-54382349D01*
X127050274Y-54427351D01*
X126979749Y-54435522D01*
X126916002Y-54404267D01*
X126895306Y-54379784D01*
X126884217Y-54362642D01*
X126884212Y-54362636D01*
X126881406Y-54358298D01*
X126721124Y-54182150D01*
X126717073Y-54178951D01*
X126717069Y-54178947D01*
X126538278Y-54037747D01*
X126538273Y-54037744D01*
X126534224Y-54034546D01*
X126529708Y-54032053D01*
X126529705Y-54032051D01*
X126330250Y-53921946D01*
X126330246Y-53921944D01*
X126325726Y-53919449D01*
X126320857Y-53917725D01*
X126320853Y-53917723D01*
X126106105Y-53841676D01*
X126106101Y-53841675D01*
X126101230Y-53839950D01*
X126096140Y-53839043D01*
X126096135Y-53839042D01*
X125968814Y-53816364D01*
X125866764Y-53798186D01*
X125775355Y-53797069D01*
X125633795Y-53795339D01*
X125633793Y-53795339D01*
X125628625Y-53795276D01*
X125393209Y-53831300D01*
X125166838Y-53905289D01*
X124955590Y-54015258D01*
X124951457Y-54018361D01*
X124951454Y-54018363D01*
X124769375Y-54155072D01*
X124765140Y-54158252D01*
X124600602Y-54330431D01*
X124579954Y-54360700D01*
X124565186Y-54382349D01*
X124510274Y-54427351D01*
X124439749Y-54435522D01*
X124376002Y-54404267D01*
X124355306Y-54379784D01*
X124344217Y-54362642D01*
X124344212Y-54362636D01*
X124341406Y-54358298D01*
X124181124Y-54182150D01*
X124177073Y-54178951D01*
X124177069Y-54178947D01*
X123998278Y-54037747D01*
X123998273Y-54037744D01*
X123994224Y-54034546D01*
X123989708Y-54032053D01*
X123989705Y-54032051D01*
X123790250Y-53921946D01*
X123790246Y-53921944D01*
X123785726Y-53919449D01*
X123780857Y-53917725D01*
X123780853Y-53917723D01*
X123566105Y-53841676D01*
X123566101Y-53841675D01*
X123561230Y-53839950D01*
X123556140Y-53839043D01*
X123556135Y-53839042D01*
X123428814Y-53816364D01*
X123326764Y-53798186D01*
X123235355Y-53797069D01*
X123093795Y-53795339D01*
X123093793Y-53795339D01*
X123088625Y-53795276D01*
X122853209Y-53831300D01*
X122626838Y-53905289D01*
X122415590Y-54015258D01*
X122411457Y-54018361D01*
X122411454Y-54018363D01*
X122229375Y-54155072D01*
X122225140Y-54158252D01*
X122060602Y-54330431D01*
X122039954Y-54360700D01*
X122025186Y-54382349D01*
X121970274Y-54427351D01*
X121899749Y-54435522D01*
X121836002Y-54404267D01*
X121815306Y-54379784D01*
X121804217Y-54362642D01*
X121804212Y-54362636D01*
X121801406Y-54358298D01*
X121641124Y-54182150D01*
X121637073Y-54178951D01*
X121637069Y-54178947D01*
X121458278Y-54037747D01*
X121458273Y-54037744D01*
X121454224Y-54034546D01*
X121449708Y-54032053D01*
X121449705Y-54032051D01*
X121250250Y-53921946D01*
X121250246Y-53921944D01*
X121245726Y-53919449D01*
X121240857Y-53917725D01*
X121240853Y-53917723D01*
X121026105Y-53841676D01*
X121026101Y-53841675D01*
X121021230Y-53839950D01*
X121016140Y-53839043D01*
X121016135Y-53839042D01*
X120888814Y-53816364D01*
X120786764Y-53798186D01*
X120695355Y-53797069D01*
X120553795Y-53795339D01*
X120553793Y-53795339D01*
X120548625Y-53795276D01*
X120313209Y-53831300D01*
X120086838Y-53905289D01*
X119875590Y-54015258D01*
X119871457Y-54018361D01*
X119871454Y-54018363D01*
X119689375Y-54155072D01*
X119685140Y-54158252D01*
X119520602Y-54330431D01*
X119499954Y-54360700D01*
X119485186Y-54382349D01*
X119430274Y-54427351D01*
X119359749Y-54435522D01*
X119296002Y-54404267D01*
X119275306Y-54379784D01*
X119264217Y-54362642D01*
X119264212Y-54362636D01*
X119261406Y-54358298D01*
X119101124Y-54182150D01*
X119097073Y-54178951D01*
X119097069Y-54178947D01*
X118918278Y-54037747D01*
X118918273Y-54037744D01*
X118914224Y-54034546D01*
X118909708Y-54032053D01*
X118909705Y-54032051D01*
X118710250Y-53921946D01*
X118710246Y-53921944D01*
X118705726Y-53919449D01*
X118700857Y-53917725D01*
X118700853Y-53917723D01*
X118486105Y-53841676D01*
X118486101Y-53841675D01*
X118481230Y-53839950D01*
X118476140Y-53839043D01*
X118476135Y-53839042D01*
X118348814Y-53816364D01*
X118246764Y-53798186D01*
X118155355Y-53797069D01*
X118013795Y-53795339D01*
X118013793Y-53795339D01*
X118008625Y-53795276D01*
X117773209Y-53831300D01*
X117546838Y-53905289D01*
X117335590Y-54015258D01*
X117331457Y-54018361D01*
X117331454Y-54018363D01*
X117149375Y-54155072D01*
X117145140Y-54158252D01*
X116980602Y-54330431D01*
X116959954Y-54360700D01*
X116945186Y-54382349D01*
X116890274Y-54427351D01*
X116819749Y-54435522D01*
X116756002Y-54404267D01*
X116735306Y-54379784D01*
X116724217Y-54362642D01*
X116724212Y-54362636D01*
X116721406Y-54358298D01*
X116561124Y-54182150D01*
X116557073Y-54178951D01*
X116557069Y-54178947D01*
X116378278Y-54037747D01*
X116378273Y-54037744D01*
X116374224Y-54034546D01*
X116369708Y-54032053D01*
X116369705Y-54032051D01*
X116170250Y-53921946D01*
X116170246Y-53921944D01*
X116165726Y-53919449D01*
X116160857Y-53917725D01*
X116160853Y-53917723D01*
X115946105Y-53841676D01*
X115946101Y-53841675D01*
X115941230Y-53839950D01*
X115936140Y-53839043D01*
X115936135Y-53839042D01*
X115808814Y-53816364D01*
X115706764Y-53798186D01*
X115615355Y-53797069D01*
X115473795Y-53795339D01*
X115473793Y-53795339D01*
X115468625Y-53795276D01*
X115233209Y-53831300D01*
X115006838Y-53905289D01*
X114795590Y-54015258D01*
X114791457Y-54018361D01*
X114791454Y-54018363D01*
X114609375Y-54155072D01*
X114605140Y-54158252D01*
X114440602Y-54330431D01*
X114419954Y-54360700D01*
X114405186Y-54382349D01*
X114350274Y-54427351D01*
X114279749Y-54435522D01*
X114216002Y-54404267D01*
X114195306Y-54379784D01*
X114184217Y-54362642D01*
X114184212Y-54362636D01*
X114181406Y-54358298D01*
X114021124Y-54182150D01*
X114017073Y-54178951D01*
X114017069Y-54178947D01*
X113838278Y-54037747D01*
X113838273Y-54037744D01*
X113834224Y-54034546D01*
X113829708Y-54032053D01*
X113829705Y-54032051D01*
X113630250Y-53921946D01*
X113630246Y-53921944D01*
X113625726Y-53919449D01*
X113620857Y-53917725D01*
X113620853Y-53917723D01*
X113406105Y-53841676D01*
X113406101Y-53841675D01*
X113401230Y-53839950D01*
X113396140Y-53839043D01*
X113396135Y-53839042D01*
X113268814Y-53816364D01*
X113166764Y-53798186D01*
X113075355Y-53797069D01*
X112933795Y-53795339D01*
X112933793Y-53795339D01*
X112928625Y-53795276D01*
X112693209Y-53831300D01*
X112466838Y-53905289D01*
X112255590Y-54015258D01*
X112251457Y-54018361D01*
X112251454Y-54018363D01*
X112069375Y-54155072D01*
X112065140Y-54158252D01*
X111900602Y-54330431D01*
X111879954Y-54360700D01*
X111865186Y-54382349D01*
X111810274Y-54427351D01*
X111739749Y-54435522D01*
X111676002Y-54404267D01*
X111655306Y-54379784D01*
X111644217Y-54362642D01*
X111644212Y-54362636D01*
X111641406Y-54358298D01*
X111481124Y-54182150D01*
X111477073Y-54178951D01*
X111477069Y-54178947D01*
X111298278Y-54037747D01*
X111298273Y-54037744D01*
X111294224Y-54034546D01*
X111289708Y-54032053D01*
X111289705Y-54032051D01*
X111090250Y-53921946D01*
X111090246Y-53921944D01*
X111085726Y-53919449D01*
X111080857Y-53917725D01*
X111080853Y-53917723D01*
X110866105Y-53841676D01*
X110866101Y-53841675D01*
X110861230Y-53839950D01*
X110856140Y-53839043D01*
X110856135Y-53839042D01*
X110728814Y-53816364D01*
X110626764Y-53798186D01*
X110535355Y-53797069D01*
X110393795Y-53795339D01*
X110393793Y-53795339D01*
X110388625Y-53795276D01*
X110153209Y-53831300D01*
X109926838Y-53905289D01*
X109715590Y-54015258D01*
X109711457Y-54018361D01*
X109711454Y-54018363D01*
X109529375Y-54155072D01*
X109525140Y-54158252D01*
X109360602Y-54330431D01*
X109339954Y-54360700D01*
X109325186Y-54382349D01*
X109270274Y-54427351D01*
X109199749Y-54435522D01*
X109136002Y-54404267D01*
X109115306Y-54379784D01*
X109104217Y-54362642D01*
X109104212Y-54362636D01*
X109101406Y-54358298D01*
X108941124Y-54182150D01*
X108937073Y-54178951D01*
X108937069Y-54178947D01*
X108758278Y-54037747D01*
X108758273Y-54037744D01*
X108754224Y-54034546D01*
X108749708Y-54032053D01*
X108749705Y-54032051D01*
X108550250Y-53921946D01*
X108550246Y-53921944D01*
X108545726Y-53919449D01*
X108540857Y-53917725D01*
X108540853Y-53917723D01*
X108326105Y-53841676D01*
X108326101Y-53841675D01*
X108321230Y-53839950D01*
X108316140Y-53839043D01*
X108316135Y-53839042D01*
X108188814Y-53816364D01*
X108086764Y-53798186D01*
X107995355Y-53797069D01*
X107853795Y-53795339D01*
X107853793Y-53795339D01*
X107848625Y-53795276D01*
X107613209Y-53831300D01*
X107386838Y-53905289D01*
X107175590Y-54015258D01*
X107171457Y-54018361D01*
X107171454Y-54018363D01*
X106989375Y-54155072D01*
X106985140Y-54158252D01*
X106820602Y-54330431D01*
X106817691Y-54334699D01*
X106817687Y-54334704D01*
X106785186Y-54382349D01*
X106686394Y-54527172D01*
X106586122Y-54743191D01*
X106522477Y-54972685D01*
X106497170Y-55209494D01*
X105918500Y-55209494D01*
X105918500Y-53339500D01*
X105938502Y-53271379D01*
X105992158Y-53224886D01*
X106044500Y-53213500D01*
X167005500Y-53213500D01*
X167073621Y-53233502D01*
G37*
%TD.AperFunction*%
%TD*%
M02*
