M48
; DRILL file {KiCad (6.0.5)} date Thu Dec  8 11:31:34 2022
; FORMAT={-:-/ absolute / metric / decimal}
; #@! TF.CreationDate,2022-12-08T11:31:34+07:00
; #@! TF.GenerationSoftware,Kicad,Pcbnew,(6.0.5)
; #@! TF.FileFunction,Plated,1,2,PTH
FMAT,2
METRIC
; #@! TA.AperFunction,Plated,PTH,ViaDrill
T1C0.400
; #@! TA.AperFunction,Plated,PTH,ComponentDrill
T2C0.900
; #@! TA.AperFunction,Plated,PTH,ComponentDrill
T3C1.016
; #@! TA.AperFunction,Plated,PTH,ComponentDrill
T4C1.020
%
G90
G05
T1
X116.84Y-76.2
X118.745Y-75.565
X132.08Y-74.295
X132.08Y-75.565
X135.89Y-74.295
X136.443Y-77.47
X137.795Y-62.23
X137.795Y-74.295
X142.875Y-59.055
T2
X108.665Y-74.01
X108.665Y-80.01
X111.165Y-74.01
X111.165Y-80.01
X113.665Y-74.01
X113.665Y-80.01
T3
X107.95Y-55.245
X107.95Y-70.485
X110.49Y-55.245
X110.49Y-70.485
X113.03Y-55.245
X113.03Y-70.485
X115.57Y-55.245
X115.57Y-70.485
X118.11Y-55.245
X118.11Y-70.485
X118.11Y-81.28
X118.11Y-104.14
X120.65Y-55.245
X120.65Y-70.485
X120.65Y-81.28
X120.65Y-104.14
X123.19Y-55.245
X123.19Y-70.485
X123.19Y-81.28
X123.19Y-104.14
X125.73Y-55.245
X125.73Y-70.485
X125.73Y-81.28
X125.73Y-104.14
X128.27Y-55.245
X128.27Y-70.485
X128.27Y-81.28
X128.27Y-104.14
X130.81Y-55.245
X130.81Y-70.485
X130.81Y-81.28
X130.81Y-104.14
X133.35Y-55.245
X133.35Y-70.485
X133.35Y-81.28
X133.35Y-104.14
X135.89Y-55.245
X135.89Y-70.485
X135.89Y-81.28
X135.89Y-104.14
T4
X139.7Y-63.86
X139.7Y-66.4
X139.7Y-68.94
X139.7Y-71.48
X139.7Y-74.02
X139.7Y-76.56
X139.7Y-79.1
X139.7Y-81.64
X139.7Y-84.18
X139.7Y-86.72
X139.7Y-89.26
X139.7Y-91.8
X139.7Y-94.34
X139.7Y-96.88
X139.7Y-99.42
X165.1Y-63.86
X165.1Y-66.4
X165.1Y-68.94
X165.1Y-71.48
X165.1Y-74.02
X165.1Y-76.56
X165.1Y-79.1
X165.1Y-81.64
X165.1Y-84.18
X165.1Y-86.72
X165.1Y-89.26
X165.1Y-91.8
X165.1Y-94.34
X165.1Y-96.88
X165.1Y-99.42
T0
M30
