%FSLAX45Y45*%
G04 Gerber Fmt 4.5, Leading zero omitted, Abs format (unit mm)*
G04 Created by KiCad (PCBNEW (6.0.5)) date 2022-12-08 11:31:31*
%MOMM*%
%LPD*%
G01*
G04 APERTURE LIST*
%TA.AperFunction,Profile*%
%ADD10C,0.100000*%
%TD*%
%ADD11C,0.200000*%
%ADD12C,0.300000*%
G04 APERTURE END LIST*
D10*
X10541000Y-5270500D02*
X16764000Y-5270500D01*
X16764000Y-5270500D02*
X16764000Y-10604500D01*
X16764000Y-10604500D02*
X10541000Y-10604500D01*
X10541000Y-10604500D02*
X10541000Y-5270500D01*
D11*
D12*
X10581500Y-10264000D02*
X10881500Y-10564000D01*
X10881500Y-10264000D02*
X10581500Y-10564000D01*
X13862000Y-5440000D02*
X14162000Y-5740000D01*
X14162000Y-5440000D02*
X13862000Y-5740000D01*
X13862000Y-10135000D02*
X14162000Y-10435000D01*
X14162000Y-10135000D02*
X13862000Y-10435000D01*
X16313000Y-5440000D02*
X16613000Y-5740000D01*
X16613000Y-5440000D02*
X16313000Y-5740000D01*
X16313000Y-10135000D02*
X16613000Y-10435000D01*
X16613000Y-10135000D02*
X16313000Y-10435000D01*
D11*
X10793619Y-10919976D02*
X10793619Y-10719976D01*
X10841238Y-10719976D01*
X10869810Y-10729500D01*
X10888857Y-10748548D01*
X10898381Y-10767595D01*
X10907905Y-10805690D01*
X10907905Y-10834262D01*
X10898381Y-10872357D01*
X10888857Y-10891405D01*
X10869810Y-10910452D01*
X10841238Y-10919976D01*
X10793619Y-10919976D01*
X10993619Y-10919976D02*
X10993619Y-10786643D01*
X10993619Y-10824738D02*
X11003143Y-10805690D01*
X11012667Y-10796167D01*
X11031714Y-10786643D01*
X11050762Y-10786643D01*
X11117429Y-10919976D02*
X11117429Y-10786643D01*
X11117429Y-10719976D02*
X11107905Y-10729500D01*
X11117429Y-10739024D01*
X11126952Y-10729500D01*
X11117429Y-10719976D01*
X11117429Y-10739024D01*
X11241238Y-10919976D02*
X11222190Y-10910452D01*
X11212667Y-10891405D01*
X11212667Y-10719976D01*
X11346000Y-10919976D02*
X11326952Y-10910452D01*
X11317428Y-10891405D01*
X11317428Y-10719976D01*
X11574571Y-10919976D02*
X11574571Y-10719976D01*
X11641238Y-10862833D01*
X11707905Y-10719976D01*
X11707905Y-10919976D01*
X11888857Y-10919976D02*
X11888857Y-10815214D01*
X11879333Y-10796167D01*
X11860286Y-10786643D01*
X11822190Y-10786643D01*
X11803143Y-10796167D01*
X11888857Y-10910452D02*
X11869809Y-10919976D01*
X11822190Y-10919976D01*
X11803143Y-10910452D01*
X11793619Y-10891405D01*
X11793619Y-10872357D01*
X11803143Y-10853310D01*
X11822190Y-10843786D01*
X11869809Y-10843786D01*
X11888857Y-10834262D01*
X11984095Y-10786643D02*
X11984095Y-10986643D01*
X11984095Y-10796167D02*
X12003143Y-10786643D01*
X12041238Y-10786643D01*
X12060286Y-10796167D01*
X12069809Y-10805690D01*
X12079333Y-10824738D01*
X12079333Y-10881881D01*
X12069809Y-10900929D01*
X12060286Y-10910452D01*
X12041238Y-10919976D01*
X12003143Y-10919976D01*
X11984095Y-10910452D01*
X12165048Y-10900929D02*
X12174571Y-10910452D01*
X12165048Y-10919976D01*
X12155524Y-10910452D01*
X12165048Y-10900929D01*
X12165048Y-10919976D01*
X12165048Y-10796167D02*
X12174571Y-10805690D01*
X12165048Y-10815214D01*
X12155524Y-10805690D01*
X12165048Y-10796167D01*
X12165048Y-10815214D01*
X10336000Y-11149500D02*
X10536000Y-11349500D01*
X10536000Y-11149500D02*
X10336000Y-11349500D01*
X10774571Y-11139976D02*
X10898381Y-11139976D01*
X10831714Y-11216167D01*
X10860286Y-11216167D01*
X10879333Y-11225690D01*
X10888857Y-11235214D01*
X10898381Y-11254262D01*
X10898381Y-11301881D01*
X10888857Y-11320928D01*
X10879333Y-11330452D01*
X10860286Y-11339976D01*
X10803143Y-11339976D01*
X10784095Y-11330452D01*
X10774571Y-11320928D01*
X10984095Y-11320928D02*
X10993619Y-11330452D01*
X10984095Y-11339976D01*
X10974571Y-11330452D01*
X10984095Y-11320928D01*
X10984095Y-11339976D01*
X11117429Y-11139976D02*
X11136476Y-11139976D01*
X11155524Y-11149500D01*
X11165048Y-11159024D01*
X11174571Y-11178071D01*
X11184095Y-11216167D01*
X11184095Y-11263786D01*
X11174571Y-11301881D01*
X11165048Y-11320928D01*
X11155524Y-11330452D01*
X11136476Y-11339976D01*
X11117429Y-11339976D01*
X11098381Y-11330452D01*
X11088857Y-11320928D01*
X11079333Y-11301881D01*
X11069810Y-11263786D01*
X11069810Y-11216167D01*
X11079333Y-11178071D01*
X11088857Y-11159024D01*
X11098381Y-11149500D01*
X11117429Y-11139976D01*
X11307905Y-11139976D02*
X11326952Y-11139976D01*
X11346000Y-11149500D01*
X11355524Y-11159024D01*
X11365048Y-11178071D01*
X11374571Y-11216167D01*
X11374571Y-11263786D01*
X11365048Y-11301881D01*
X11355524Y-11320928D01*
X11346000Y-11330452D01*
X11326952Y-11339976D01*
X11307905Y-11339976D01*
X11288857Y-11330452D01*
X11279333Y-11320928D01*
X11269809Y-11301881D01*
X11260286Y-11263786D01*
X11260286Y-11216167D01*
X11269809Y-11178071D01*
X11279333Y-11159024D01*
X11288857Y-11149500D01*
X11307905Y-11139976D01*
X11498381Y-11139976D02*
X11517428Y-11139976D01*
X11536476Y-11149500D01*
X11546000Y-11159024D01*
X11555524Y-11178071D01*
X11565048Y-11216167D01*
X11565048Y-11263786D01*
X11555524Y-11301881D01*
X11546000Y-11320928D01*
X11536476Y-11330452D01*
X11517428Y-11339976D01*
X11498381Y-11339976D01*
X11479333Y-11330452D01*
X11469809Y-11320928D01*
X11460286Y-11301881D01*
X11450762Y-11263786D01*
X11450762Y-11216167D01*
X11460286Y-11178071D01*
X11469809Y-11159024D01*
X11479333Y-11149500D01*
X11498381Y-11139976D01*
X11650762Y-11339976D02*
X11650762Y-11206643D01*
X11650762Y-11225690D02*
X11660286Y-11216167D01*
X11679333Y-11206643D01*
X11707905Y-11206643D01*
X11726952Y-11216167D01*
X11736476Y-11235214D01*
X11736476Y-11339976D01*
X11736476Y-11235214D02*
X11746000Y-11216167D01*
X11765048Y-11206643D01*
X11793619Y-11206643D01*
X11812667Y-11216167D01*
X11822190Y-11235214D01*
X11822190Y-11339976D01*
X11917428Y-11339976D02*
X11917428Y-11206643D01*
X11917428Y-11225690D02*
X11926952Y-11216167D01*
X11946000Y-11206643D01*
X11974571Y-11206643D01*
X11993619Y-11216167D01*
X12003143Y-11235214D01*
X12003143Y-11339976D01*
X12003143Y-11235214D02*
X12012667Y-11216167D01*
X12031714Y-11206643D01*
X12060286Y-11206643D01*
X12079333Y-11216167D01*
X12088857Y-11235214D01*
X12088857Y-11339976D01*
X12479333Y-11130452D02*
X12307905Y-11387595D01*
X12736476Y-11139976D02*
X12755524Y-11139976D01*
X12774571Y-11149500D01*
X12784095Y-11159024D01*
X12793619Y-11178071D01*
X12803143Y-11216167D01*
X12803143Y-11263786D01*
X12793619Y-11301881D01*
X12784095Y-11320928D01*
X12774571Y-11330452D01*
X12755524Y-11339976D01*
X12736476Y-11339976D01*
X12717428Y-11330452D01*
X12707905Y-11320928D01*
X12698381Y-11301881D01*
X12688857Y-11263786D01*
X12688857Y-11216167D01*
X12698381Y-11178071D01*
X12707905Y-11159024D01*
X12717428Y-11149500D01*
X12736476Y-11139976D01*
X12888857Y-11320928D02*
X12898381Y-11330452D01*
X12888857Y-11339976D01*
X12879333Y-11330452D01*
X12888857Y-11320928D01*
X12888857Y-11339976D01*
X13088857Y-11339976D02*
X12974571Y-11339976D01*
X13031714Y-11339976D02*
X13031714Y-11139976D01*
X13012667Y-11168548D01*
X12993619Y-11187595D01*
X12974571Y-11197119D01*
X13279333Y-11339976D02*
X13165048Y-11339976D01*
X13222190Y-11339976D02*
X13222190Y-11139976D01*
X13203143Y-11168548D01*
X13184095Y-11187595D01*
X13165048Y-11197119D01*
X13393619Y-11225690D02*
X13374571Y-11216167D01*
X13365048Y-11206643D01*
X13355524Y-11187595D01*
X13355524Y-11178071D01*
X13365048Y-11159024D01*
X13374571Y-11149500D01*
X13393619Y-11139976D01*
X13431714Y-11139976D01*
X13450762Y-11149500D01*
X13460286Y-11159024D01*
X13469809Y-11178071D01*
X13469809Y-11187595D01*
X13460286Y-11206643D01*
X13450762Y-11216167D01*
X13431714Y-11225690D01*
X13393619Y-11225690D01*
X13374571Y-11235214D01*
X13365048Y-11244738D01*
X13355524Y-11263786D01*
X13355524Y-11301881D01*
X13365048Y-11320928D01*
X13374571Y-11330452D01*
X13393619Y-11339976D01*
X13431714Y-11339976D01*
X13450762Y-11330452D01*
X13460286Y-11320928D01*
X13469809Y-11301881D01*
X13469809Y-11263786D01*
X13460286Y-11244738D01*
X13450762Y-11235214D01*
X13431714Y-11225690D01*
X13660286Y-11339976D02*
X13546000Y-11339976D01*
X13603143Y-11339976D02*
X13603143Y-11139976D01*
X13584095Y-11168548D01*
X13565048Y-11187595D01*
X13546000Y-11197119D01*
X13736476Y-11139976D02*
X13736476Y-11178071D01*
X13812667Y-11139976D02*
X13812667Y-11178071D01*
X14107905Y-11416167D02*
X14098381Y-11406643D01*
X14079333Y-11378071D01*
X14069809Y-11359024D01*
X14060286Y-11330452D01*
X14050762Y-11282833D01*
X14050762Y-11244738D01*
X14060286Y-11197119D01*
X14069809Y-11168548D01*
X14079333Y-11149500D01*
X14098381Y-11120929D01*
X14107905Y-11111405D01*
X14279333Y-11139976D02*
X14184095Y-11139976D01*
X14174571Y-11235214D01*
X14184095Y-11225690D01*
X14203143Y-11216167D01*
X14250762Y-11216167D01*
X14269809Y-11225690D01*
X14279333Y-11235214D01*
X14288857Y-11254262D01*
X14288857Y-11301881D01*
X14279333Y-11320928D01*
X14269809Y-11330452D01*
X14250762Y-11339976D01*
X14203143Y-11339976D01*
X14184095Y-11330452D01*
X14174571Y-11320928D01*
X14526952Y-11339976D02*
X14526952Y-11139976D01*
X14612667Y-11339976D02*
X14612667Y-11235214D01*
X14603143Y-11216167D01*
X14584095Y-11206643D01*
X14555524Y-11206643D01*
X14536476Y-11216167D01*
X14526952Y-11225690D01*
X14736476Y-11339976D02*
X14717428Y-11330452D01*
X14707905Y-11320928D01*
X14698381Y-11301881D01*
X14698381Y-11244738D01*
X14707905Y-11225690D01*
X14717428Y-11216167D01*
X14736476Y-11206643D01*
X14765048Y-11206643D01*
X14784095Y-11216167D01*
X14793619Y-11225690D01*
X14803143Y-11244738D01*
X14803143Y-11301881D01*
X14793619Y-11320928D01*
X14784095Y-11330452D01*
X14765048Y-11339976D01*
X14736476Y-11339976D01*
X14917428Y-11339976D02*
X14898381Y-11330452D01*
X14888857Y-11311405D01*
X14888857Y-11139976D01*
X15069809Y-11330452D02*
X15050762Y-11339976D01*
X15012667Y-11339976D01*
X14993619Y-11330452D01*
X14984095Y-11311405D01*
X14984095Y-11235214D01*
X14993619Y-11216167D01*
X15012667Y-11206643D01*
X15050762Y-11206643D01*
X15069809Y-11216167D01*
X15079333Y-11235214D01*
X15079333Y-11254262D01*
X14984095Y-11273309D01*
X15155524Y-11330452D02*
X15174571Y-11339976D01*
X15212667Y-11339976D01*
X15231714Y-11330452D01*
X15241238Y-11311405D01*
X15241238Y-11301881D01*
X15231714Y-11282833D01*
X15212667Y-11273309D01*
X15184095Y-11273309D01*
X15165048Y-11263786D01*
X15155524Y-11244738D01*
X15155524Y-11235214D01*
X15165048Y-11216167D01*
X15184095Y-11206643D01*
X15212667Y-11206643D01*
X15231714Y-11216167D01*
X15307905Y-11416167D02*
X15317428Y-11406643D01*
X15336476Y-11378071D01*
X15346000Y-11359024D01*
X15355524Y-11330452D01*
X15365048Y-11282833D01*
X15365048Y-11244738D01*
X15355524Y-11197119D01*
X15346000Y-11168548D01*
X15336476Y-11149500D01*
X15317428Y-11120929D01*
X15307905Y-11111405D01*
X15669809Y-11416167D02*
X15660286Y-11406643D01*
X15641238Y-11378071D01*
X15631714Y-11359024D01*
X15622190Y-11330452D01*
X15612667Y-11282833D01*
X15612667Y-11244738D01*
X15622190Y-11197119D01*
X15631714Y-11168548D01*
X15641238Y-11149500D01*
X15660286Y-11120929D01*
X15669809Y-11111405D01*
X15746000Y-11206643D02*
X15746000Y-11339976D01*
X15746000Y-11225690D02*
X15755524Y-11216167D01*
X15774571Y-11206643D01*
X15803143Y-11206643D01*
X15822190Y-11216167D01*
X15831714Y-11235214D01*
X15831714Y-11339976D01*
X15955524Y-11339976D02*
X15936476Y-11330452D01*
X15926952Y-11320928D01*
X15917428Y-11301881D01*
X15917428Y-11244738D01*
X15926952Y-11225690D01*
X15936476Y-11216167D01*
X15955524Y-11206643D01*
X15984095Y-11206643D01*
X16003143Y-11216167D01*
X16012667Y-11225690D01*
X16022190Y-11244738D01*
X16022190Y-11301881D01*
X16012667Y-11320928D01*
X16003143Y-11330452D01*
X15984095Y-11339976D01*
X15955524Y-11339976D01*
X16079333Y-11206643D02*
X16155524Y-11206643D01*
X16107905Y-11139976D02*
X16107905Y-11311405D01*
X16117428Y-11330452D01*
X16136476Y-11339976D01*
X16155524Y-11339976D01*
X16374571Y-11206643D02*
X16374571Y-11406643D01*
X16374571Y-11216167D02*
X16393619Y-11206643D01*
X16431714Y-11206643D01*
X16450762Y-11216167D01*
X16460286Y-11225690D01*
X16469809Y-11244738D01*
X16469809Y-11301881D01*
X16460286Y-11320928D01*
X16450762Y-11330452D01*
X16431714Y-11339976D01*
X16393619Y-11339976D01*
X16374571Y-11330452D01*
X16584095Y-11339976D02*
X16565048Y-11330452D01*
X16555524Y-11311405D01*
X16555524Y-11139976D01*
X16746000Y-11339976D02*
X16746000Y-11235214D01*
X16736476Y-11216167D01*
X16717428Y-11206643D01*
X16679333Y-11206643D01*
X16660286Y-11216167D01*
X16746000Y-11330452D02*
X16726952Y-11339976D01*
X16679333Y-11339976D01*
X16660286Y-11330452D01*
X16650762Y-11311405D01*
X16650762Y-11292357D01*
X16660286Y-11273309D01*
X16679333Y-11263786D01*
X16726952Y-11263786D01*
X16746000Y-11254262D01*
X16812667Y-11206643D02*
X16888857Y-11206643D01*
X16841238Y-11139976D02*
X16841238Y-11311405D01*
X16850762Y-11330452D01*
X16869810Y-11339976D01*
X16888857Y-11339976D01*
X17031714Y-11330452D02*
X17012667Y-11339976D01*
X16974571Y-11339976D01*
X16955524Y-11330452D01*
X16946000Y-11311405D01*
X16946000Y-11235214D01*
X16955524Y-11216167D01*
X16974571Y-11206643D01*
X17012667Y-11206643D01*
X17031714Y-11216167D01*
X17041238Y-11235214D01*
X17041238Y-11254262D01*
X16946000Y-11273309D01*
X17212667Y-11339976D02*
X17212667Y-11139976D01*
X17212667Y-11330452D02*
X17193619Y-11339976D01*
X17155524Y-11339976D01*
X17136476Y-11330452D01*
X17126952Y-11320928D01*
X17117429Y-11301881D01*
X17117429Y-11244738D01*
X17126952Y-11225690D01*
X17136476Y-11216167D01*
X17155524Y-11206643D01*
X17193619Y-11206643D01*
X17212667Y-11216167D01*
X17288857Y-11416167D02*
X17298381Y-11406643D01*
X17317429Y-11378071D01*
X17326952Y-11359024D01*
X17336476Y-11330452D01*
X17346000Y-11282833D01*
X17346000Y-11244738D01*
X17336476Y-11197119D01*
X17326952Y-11168548D01*
X17317429Y-11149500D01*
X17298381Y-11120929D01*
X17288857Y-11111405D01*
M02*
