M48
; DRILL file {KiCad (6.0.5)} date Wed Sep  7 10:03:07 2022
; FORMAT={-:-/ absolute / inch / decimal}
; #@! TF.CreationDate,2022-09-07T10:03:07+07:00
; #@! TF.GenerationSoftware,Kicad,Pcbnew,(6.0.5)
; #@! TF.FileFunction,Plated,1,2,PTH
FMAT,2
INCH
; #@! TA.AperFunction,Plated,PTH,ComponentDrill
T1C0.0300
; #@! TA.AperFunction,Plated,PTH,ComponentDrill
T2C0.0394
%
G90
G05
T1
X4.6104Y-2.461
X4.7104Y-2.461
X4.8104Y-2.461
X4.9104Y-2.461
X5.0104Y-2.461
X5.1104Y-2.461
X5.2104Y-2.461
X5.3104Y-2.461
T2
X4.5364Y-2.836
X4.5364Y-2.936
X4.5364Y-3.036
X4.5364Y-3.136
X4.5364Y-3.236
X4.5364Y-3.336
X4.5364Y-3.436
X4.5364Y-3.536
X5.4364Y-2.836
X5.4364Y-2.936
X5.4364Y-3.036
X5.4364Y-3.136
X5.4364Y-3.236
X5.4364Y-3.336
X5.4364Y-3.436
X5.4364Y-3.536
X5.706Y-2.825
X5.706Y-3.725
X5.806Y-2.825
X5.806Y-3.725
X5.906Y-2.825
X5.906Y-3.725
X6.006Y-2.825
X6.006Y-3.725
X6.106Y-2.825
X6.106Y-3.725
X6.206Y-2.825
X6.206Y-3.725
X6.306Y-2.825
X6.306Y-3.725
X6.406Y-2.825
X6.406Y-3.725
T0
M30
